<?xml version="1.0" encoding="UTF-8" standalone="no"?>
<!-- Generator: Adobe Illustrator 12.0.0, SVG Export Plug-In . SVG Version: 6.00 Build 51448)  -->

<svg
   xmlns:dc="http://purl.org/dc/elements/1.1/"
   xmlns:cc="http://creativecommons.org/ns#"
   xmlns:rdf="http://www.w3.org/1999/02/22-rdf-syntax-ns#"
   xmlns:svg="http://www.w3.org/2000/svg"
   xmlns="http://www.w3.org/2000/svg"
   xmlns:sodipodi="http://sodipodi.sourceforge.net/DTD/sodipodi-0.dtd"
   xmlns:inkscape="http://www.inkscape.org/namespaces/inkscape"
   height="90"
   id="Layer_1"
   inkscape:version="0.48.2 r9819"
   sodipodi:docname="light_spider_tile.svg"
   sodipodi:version="0.32"
   style="overflow:visible"
   version="1.1"
   viewBox="0 0 99.999996 90"
   width="100"
   xml:space="preserve"><metadata
   id="metadata4289"><rdf:RDF><cc:Work
       rdf:about=""><dc:title></dc:title><dc:description /><dc:subject><rdf:Bag><rdf:li>architetto francesco rollandin</rdf:li><rdf:li>insect</rdf:li></rdf:Bag></dc:subject><dc:publisher><cc:Agent
           rdf:about="http://www.openclipart.org/"><dc:title>Open Clip Art Library</dc:title></cc:Agent></dc:publisher><dc:creator><cc:Agent><dc:title>Architetto Francesco Rollandin</dc:title></cc:Agent></dc:creator><dc:rights><cc:Agent><dc:title>Architetto Francesco Rollandin</dc:title></cc:Agent></dc:rights><dc:date /><dc:format>image/svg+xml</dc:format><dc:type
         rdf:resource="http://purl.org/dc/dcmitype/StillImage" /><cc:license
         rdf:resource="http://web.resource.org/cc/PublicDomain" /><dc:language>en</dc:language></cc:Work><cc:License
       rdf:about="http://web.resource.org/cc/PublicDomain"><cc:permits
         rdf:resource="http://web.resource.org/cc/Reproduction" /><cc:permits
         rdf:resource="http://web.resource.org/cc/Distribution" /><cc:permits
         rdf:resource="http://web.resource.org/cc/DerivativeWorks" /></cc:License></rdf:RDF></metadata>
<defs
   id="defs220" />
<sodipodi:namedview
   bordercolor="#666666"
   borderopacity="1.0"
   id="base"
   inkscape:current-layer="Layer_1"
   inkscape:cx="26.422713"
   inkscape:cy="41.943218"
   inkscape:pageopacity="0.0"
   inkscape:pageshadow="2"
   inkscape:window-height="852"
   inkscape:window-width="1440"
   inkscape:window-x="0"
   inkscape:window-y="0"
   inkscape:zoom="6.6041667"
   pagecolor="#ffffff"
   showgrid="false"
   inkscape:window-maximized="1" />
<path
   sodipodi:type="star"
   style="fill:#53676c;fill-opacity:1;fill-rule:evenodd;stroke:#000000;stroke-width:2.77155629999999986;stroke-linecap:butt;stroke-linejoin:miter;stroke-miterlimit:4;stroke-opacity:1;stroke-dasharray:none"
   id="path4401"
   sodipodi:sides="6"
   sodipodi:cx="157.21944"
   sodipodi:cy="119.23353"
   sodipodi:r1="139.80923"
   sodipodi:r2="121.07834"
   sodipodi:arg1="0"
   sodipodi:arg2="0.52359878"
   inkscape:flatsided="true"
   inkscape:rounded="0"
   inkscape:randomized="0"
   d="m 297.02867,119.23353 -69.90462,121.07835 -139.809231,0 -69.904617,-121.07835 69.904617,-121.0783507 139.809231,0 z"
   transform="matrix(0.35414898,0,0,-0.36759246,-5.5581126,88.991691)" /><path
   d="m 34.459319,75.446456 c -1.754289,-1.056264 -2.75421,-2.055921 -3.768587,-3.857692 -0.943721,-1.676199 -1.589407,-3.501262 -2.168513,-5.315132 -0.51505,-1.612361 -0.657942,-3.331514 -0.657942,-5.009841 0,-0.853532 0,-1.707369 0,-2.560895 0,-0.824799 0.378131,-1.553674 0.517877,-2.361212 0.656682,-3.795663 2.161911,-6.821297 5.545474,-8.994614 0.565288,-0.363076 -0.445006,-1.920659 -0.606742,-2.232618 -0.323162,-0.622976 -1.871419,-1.198752 -2.48632,-1.575745 -1.439292,-0.882581 -3.543428,-0.03862 -4.854263,0.592716 -4.304347,2.073476 -6.752351,6.001357 -8.390117,10.209401 -1.55047,3.98296 -1.020972,8.215818 -0.08912,12.255949 -0.848877,0.102309 -1.614199,0.338266 -2.405923,0.01159 -1.196218,-0.49412 -1.129962,-0.480194 -1.360781,-1.680157 -0.381261,-1.983307 -0.944031,-3.976897 -0.944031,-5.998021 0,-3.385091 0.789514,-6.606473 2.590894,-9.579462 1.769036,-2.919134 4.281113,-5.919956 7.458663,-7.450627 0.781671,-0.376392 1.520944,-0.727962 2.348778,-0.993618 0.803642,-0.258093 1.489225,-0.0237 2.327094,0.115578 1.287302,0.213911 2.574581,0.427826 3.861553,0.641428 0.992702,0.164904 1.075624,0.349158 1.686745,-0.400289 0.693113,-0.849904 1.386225,-1.699502 2.079012,-2.549402 -0.09163,0.112255 -1.175494,-2.120966 -1.218516,-2.225053 -0.704102,-1.695566 -2.14746,-2.552122 -3.680641,-3.536672 -1.613276,-1.036274 -3.552206,-1.422039 -5.396626,-1.96877 -1.962485,-0.58183 -3.442284,-0.382133 -5.344167,0.100132 -0.652902,0.165503 -1.883353,0.226022 -2.377044,0.701651 -0.700322,0.674716 -1.400641,1.349437 -2.100667,2.023849 -1.488586,1.434152 -2.588384,2.805975 -3.444481,4.661894 -0.70284,1.523712 -1.226994,3.110655 -1.442111,4.76961 -0.1557612,1.200879 0.03956,4.405328 -1.5878292,4.748428 -0.7973771,0.16822 -1.7995067,-0.853236 -2.4062505,-1.24295 -0.4154917,-0.266852 -0.00558,-1.399045 0.05399,-1.822024 0.3096403,-2.208413 0.619616,-4.416825 0.9292567,-6.625239 0.2000487,-1.425075 1.8192918,-3.351796 2.5726918,-4.561147 0.9123092,-1.46501 2.6524542,-2.800224 3.8967222,-3.99898 1.359829,-1.310105 3.021144,-1.277118 4.775109,-1.638985 1.770608,-0.365496 3.287465,-0.287746 5.081629,-0.07173 3.918696,0.471987 7.028409,1.908863 10.342569,3.904274 1.672,1.006624 2.763936,2.527617 3.837675,4.078857 0.325039,0.469584 3.8226,-1.690716 4.583223,-1.9352 3.96519,-1.273491 7.853114,-1.92399 11.980026,-2.605668 0.933353,-0.15401 1.420127,-3.00778 1.963445,-3.88008 0.957207,-1.536718 1.851314,-3.46465 3.069514,-4.834053 1.259012,-1.414789 2.623866,-2.576632 4.090786,-3.787793 0.694987,-0.573962 0.883425,-0.144629 1.608877,-0.61027 1.104194,-0.709204 2.208383,-1.418412 3.312587,-2.127931 2.369181,-1.521593 7.351877,-1.298599 9.835698,-0.102309 0.893774,0.430548 1.791965,0.817834 2.710868,1.197247 0.73957,0.305593 1.513713,1.526126 2.055138,2.087997 0.547383,0.568212 1.026619,1.019634 1.383068,1.706458 0.624641,1.204193 0.927072,1.496168 0.550215,2.766935 -0.560265,1.889229 -3.225921,-0.363373 -3.670301,-1.361519 -0.763771,-1.717055 -1.914451,-3.180556 -3.705156,-3.870714 -1.852583,-0.714044 -3.978373,-0.392119 -5.958139,-0.392119 -0.608634,0 -1.252424,0.563981 -1.760551,0.847488 -0.97701,0.544903 -1.954334,1.089835 -2.931342,1.634749 -0.288294,0.16066 -0.442482,0.53795 -0.731095,0.694382 -0.332897,0.180331 -0.781359,0.07214 -1.064318,0.34461 -0.699373,0.673811 -1.363279,1.160343 -1.997665,1.924607 -1.264981,1.52341 -2.017134,2.594496 -2.748545,4.388389 -0.463539,1.136429 -0.92646,2.272866 -1.389985,3.409293 -0.445959,1.093763 -0.167707,0.890739 1.001192,1.341252 0.850437,0.327682 1.415725,0.639629 2.171322,0.03309 0.766277,-0.61542 1.53539,-1.16699 2.379241,-1.683161 3.11379,-1.904329 6.756752,-2.646822 10.381207,-2.210539 3.730891,0.449311 6.719064,2.58662 9.530425,4.908187 0.718556,0.593337 1.303617,1.275914 1.928265,1.963348 0.547392,0.602701 0.606438,1.436868 1.059595,1.982687 1.328748,1.600563 1.898123,2.929721 2.381431,4.909396 0.363675,1.489531 0.944342,3.1149 0.545509,4.651318 -0.455049,1.753358 -3.29186,1.04959 -3.556613,-0.480478 -0.63311,-3.66041 -0.988611,-6.869092 -3.544346,-9.823634 -0.605794,-0.700124 -1.315865,-0.987264 -2.002061,-1.588446 -0.698123,-0.611795 -1.123033,-1.468355 -1.884299,-2.042313 -1.315538,-0.992109 -3.178474,-1.815387 -4.85016,-1.815387 -0.700026,0 -1.37397,-0.02586 -2.06111,0.106515 -0.806795,0.155505 -2.317053,0.147944 -3.000738,0.586966 -1.821478,1.169711 -3.642955,2.339711 -5.464135,3.509427 -0.427738,0.275034 0.0493,1.686188 0.110535,2.127926 0.1944,1.404804 0.06429,1.363961 1.526606,1.598753 1.744855,0.280172 3.111589,1.133404 4.631585,1.86561 3.534932,1.702825 5.433991,4.883078 7.018363,8.241218 1.71157,3.62774 1.319641,7.95743 1.586895,11.904066 0.03237,0.477448 -0.190315,1.395421 -0.674894,1.60146 -0.291122,0.123753 -2.589955,-0.246879 -2.826433,-0.453843 -0.404815,-0.353994 -0.235544,-1.502833 -0.235544,-1.927631 0,-1.303147 0,-2.605667 0,-3.908509 0,-3.452259 -0.775699,-6.598611 -2.590892,-9.594296 -1.667295,-2.75151 -5.122766,-5.451878 -8.554692,-5.121184 -1.187429,0.11437 -1.455616,0.217252 -2.397775,0.923131 -0.712253,0.533725 -1.335958,0.934009 -2.130815,1.337331 -1.826192,0.926149 -3.469299,1.671356 -5.406354,2.293432 -3.475894,1.116153 -6.983815,2.155766 -10.677344,2.155766 -1.680794,0 -3.856521,-0.430544 -5.360818,0.294091 -0.837254,0.40331 -1.610122,0.624184 -2.098155,1.407523 -0.556501,0.893775 -1.529414,1.322492 -2.423828,1.897375 -0.576916,0.370637 -1.411342,4.076436 -1.483256,4.767799 -0.172725,1.663799 -0.377165,3.351193 -0.104581,5.014381 0.574717,3.506709 0.79077,8.008561 3.891699,10.398513 0.909792,0.701337 1.272841,0.867131 0.944018,1.975726 -0.341352,1.148836 -0.923291,0.794233 -2.120442,0.794233"
   id="path3"
   style="fill:#0e0d0d;fill-rule:evenodd"
   inkscape:connector-curvature="0" /><path
   d="m 49.533656,43.223434 c 1.778154,-0.342503 5.212276,-0.689545 6.359492,1.134616 0.816529,1.297996 -0.681168,1.222967 -1.650952,1.105861 -1.32215,-0.159141 -2.58432,-0.198169 -3.914942,-0.198169 -0.977928,0 -2.427585,0.895589 -3.148964,1.474995 -0.697183,0.559741 -2.590894,2.179064 -2.590894,0.446888 0,-2.189053 3.093688,-3.60717 4.94626,-3.964191"
   id="path5"
   style="fill:#ffbf00;fill-rule:evenodd"
   inkscape:connector-curvature="0" /><path
   d="m 50.711336,42.542668 c -0.39256,0.07552 -0.785113,0.151274 -1.17768,0.226919 0.278249,1.071677 0.304324,0.894682 1.41322,0.680769 -0.426471,-0.0082 -0.23554,-0.548848 -0.23554,-0.907688"
   id="path7"
   inkscape:connector-curvature="0" /><path
   d="m 51.889024,42.542668 c -1.104819,0 -1.177688,-0.174287 -1.177688,0.907688 0.653223,-0.125859 1.460005,-0.03309 1.177688,-0.907688"
   id="path9"
   inkscape:connector-curvature="0" /><path
   d="m 53.066707,42.542668 c -0.316877,0 -1.853204,-0.137371 -1.177683,0.680766 0.711631,0.862001 1.063053,-0.238123 1.177683,-0.680766"
   id="path11"
   inkscape:connector-curvature="0" /><path
   d="m 54.008863,42.769587 c -1.004017,-0.241745 -0.926455,-0.28652 -1.177699,0.680769 0.640046,0 1.161355,0.136158 1.177699,-0.680769"
   id="path13"
   inkscape:connector-curvature="0" /><path
   d="m 54.951,42.996501 c -0.716972,-0.172745 -1.055836,-0.417526 -1.177686,0.453855 0.31406,0.07551 0.628101,0.15128 0.942155,0.226934 -0.07842,0 -0.157026,0 -0.235548,0 0.157038,-0.226934 0.314062,-0.453856 0.471079,-0.680789"
   id="path15"
   inkscape:connector-curvature="0" /><path
   d="m 55.657613,43.450356 c -0.123744,-0.07928 -0.576602,-0.478952 -0.706613,-0.453855 -0.05683,0.01109 -0.482374,0.626019 -0.471079,0.680789 0.01135,0.05472 0.649778,0.464723 0.706621,0.453838 0.130013,-0.02488 0.388799,-0.561864 0.471071,-0.680772"
   id="path17"
   inkscape:connector-curvature="0" /><path
   d="m 56.364231,44.131128 c -0.393817,-0.03214 -0.484589,-0.359744 -0.706618,-0.680772 -0.321274,0.464443 -0.700016,0.776375 0,1.134622 -0.07842,-0.0755 -0.157025,-0.151288 -0.235535,-0.226928 0.314052,-0.07551 0.628107,-0.151286 0.942153,-0.226922 -0.07842,0 -0.15703,0 -0.235538,0 0.07842,0 0.157016,0 0.235538,0"
   id="path19"
   inkscape:connector-curvature="0" /><path
   d="m 56.599761,44.8119 c -0.121861,-0.871388 -0.460705,-0.626624 -1.177683,-0.45385 0.157032,0.226928 0.314052,0.45385 0.47107,0.680769 -0.07842,-0.07548 -0.157018,-0.151278 -0.235535,-0.226919 0.314057,0 0.628096,0 0.942148,0"
   id="path21"
   inkscape:connector-curvature="0" /><path
   d="m 56.364231,45.719589 c 0.849819,-1.106176 -0.872428,-1.222055 -0.706618,-0.453847 0.07842,-0.0755 0.157023,-0.15129 0.235535,-0.226923 0.157037,0.226923 0.314053,0.453842 0.471083,0.68077 0.150734,-0.219363 0.200352,-0.193347 0.23553,-0.453847 -0.07842,0.151272 -0.152312,0.304985 -0.23553,0.453847"
   id="path23"
   inkscape:connector-curvature="0" /><path
   d="m 55.893148,45.946503 c 0.743039,-0.04958 0.269775,-0.517681 0,-0.907684 -0.07842,0.07551 -0.157018,0.151281 -0.235535,0.226923 0.541731,0.06268 -0.0706,0.618135 0.47108,0.680761 -0.07842,0 -0.157023,0 -0.235545,0"
   id="path25"
   inkscape:connector-curvature="0" /><path
   d="m 54.479921,45.946503 c 0.547716,0 1.413227,0.277148 1.413227,-0.340386 0,-0.609055 -0.858923,-0.478346 -1.413227,-0.567298 0,0.302565 0,0.605124 0,0.907684"
   id="path27"
   inkscape:connector-curvature="0" /><path
   d="m 52.595636,45.492661 c -0.07842,0 -0.157038,0 -0.235545,0 0.706616,0.151282 1.413223,0.302555 2.11983,0.453842 0,-0.367309 0.193151,-0.884389 -0.237725,-0.936434 -0.54896,-0.06584 -1.097602,-0.132223 -1.64656,-0.198169 0,0.204826 -0.05711,0.485003 0,0.680761"
   id="path29"
   inkscape:connector-curvature="0" /><path
   d="m 51.417953,45.492661 c 0.807421,0 1.177683,0.257185 1.177683,-0.574263 0,-0.22057 -1.118643,-0.106498 -1.413214,-0.106498 0.07842,0 0.157021,0 0.235531,0 -0.07842,0 -0.157017,0 -0.235531,0 0.0747,0.216929 0.121533,0.481363 0.235531,0.680761"
   id="path31"
   inkscape:connector-curvature="0" /><path
   d="m 50.240263,45.719589 c 0.392573,-0.0755 0.785123,-0.151286 1.17769,-0.226928 -0.0239,-0.966984 -0.734553,-0.584558 -1.413215,-0.453842 0.0706,0.204227 0.110529,0.504372 0.235525,0.68077"
   id="path33"
   inkscape:connector-curvature="0" /><path
   d="m 49.298124,45.946503 c -0.07842,0 -0.157036,0 -0.235548,0 0.392572,-0.0755 0.785141,-0.151287 1.177687,-0.226914 -0.02223,-0.898626 -1.262162,-0.815409 -1.413215,-0.226928 0,-0.07552 0,-0.151277 0,-0.226919 0.01386,0.285618 0.193454,0.52403 0.471076,0.680761"
   id="path35"
   inkscape:connector-curvature="0" /><path
   d="m 48.120441,46.627283 c 0.392565,-0.226933 0.785119,-0.453853 1.177683,-0.68078 -0.442812,-0.821154 -1.707481,-0.210274 -1.177683,0.68078"
   id="path37"
   inkscape:connector-curvature="0" /><path
   d="m 46.471679,47.761888 c 0.645991,-0.444763 2.08027,-0.914044 1.41323,-1.815385 -0.645998,0.44476 -2.080272,0.914349 -1.41323,1.815385"
   id="path39"
   inkscape:connector-curvature="0" /><path
   d="m 45.293997,48.44265 c 0.701277,-0.08464 1.466607,-0.659591 0.942139,-1.361531 -0.392554,0.22692 -0.785105,0.453852 -1.177678,0.680769 0.54175,0.0627 -0.0706,0.618135 0.471081,0.680762 -0.07842,0 -0.157021,0 -0.235542,0"
   id="path41"
   inkscape:connector-curvature="0" /><path
   d="m 44.587396,48.215732 c 0.725761,0.790593 1.115491,-0.632352 0.235535,-0.453844 0.07842,0.07549 0.157022,0.151287 0.235527,0.226916 -0.377158,0.112559 -0.698757,0.351279 -0.235527,0.453846 -0.07842,-0.07551 -0.15703,-0.151277 -0.235535,-0.226918"
   id="path43"
   inkscape:connector-curvature="0" /><path
   d="m 44.116321,47.761888 c 0.244322,0.111046 1.236093,0.792413 0.942137,-0.226917 -0.314038,0.07549 -0.628092,0.151284 -0.942137,0.226917 0.07842,0 0.157014,0 0.235522,0 -0.07842,0 -0.157004,0 -0.235522,0"
   id="path45"
   inkscape:connector-curvature="0" /><path
   d="m 44.116321,46.854198 c 0,0.302557 0,0.605128 0,0.90769 1.194014,-0.287434 1.194014,-0.619954 0,-0.90769 0,0.07551 0,0.151282 0,0.226921 0,-0.07548 0,-0.151281 0,-0.226921"
   id="path47"
   inkscape:connector-curvature="0" /><path
   d="m 44.351843,46.17343 c -0.113987,0.199385 -0.160458,0.464145 -0.235522,0.680768 0.314045,0.07551 0.628099,0.151282 0.942137,0.226921 0,-0.206349 0.05526,-0.48289 0,-0.680769 0,0.07553 0,0.151286 0,0.226933 -0.235527,-0.151289 -0.471062,-0.302566 -0.706615,-0.453853"
   id="path49"
   inkscape:connector-curvature="0" /><path
   d="m 44.822931,45.492661 c -0.08224,0.118905 -0.497147,0.55551 -0.471088,0.680769 0.01126,0.05472 0.649769,0.464744 0.706615,0.453853 0.05683,-0.01108 0.482391,-0.62602 0.471081,-0.68078 -0.02567,-0.124951 -0.583186,-0.374268 -0.706608,-0.453842"
   id="path51"
   inkscape:connector-curvature="0" /><path
   d="m 45.529539,44.8119 c -0.235542,0.226919 -0.471081,0.453842 -0.706608,0.680761 0.753082,0.483797 0.675518,0.498615 1.177685,-0.226919 0,0.07548 0,0.151272 0,0.226919 -0.157034,-0.226919 -0.314067,-0.453842 -0.471077,-0.680761"
   id="path53"
   inkscape:connector-curvature="0" /><path
   d="m 46.236136,44.131128 c -0.675192,0.650514 -0.771917,0.58636 -0.23552,1.361533 0.675203,-0.650509 0.771934,-0.586368 0.23552,-1.361533"
   id="path55"
   inkscape:connector-curvature="0" /><path
   d="m 47.17829,43.67729 c -0.314052,0.151276 -0.628094,0.30256 -0.942154,0.453838 0.553054,0.799374 0.533276,0.650812 1.413228,0.226922 -0.157021,-0.226922 -0.314046,-0.453843 -0.471074,-0.68076"
   id="path57"
   inkscape:connector-curvature="0" /><path
   d="m 48.355971,43.223434 c -0.392552,0.151282 -0.785129,0.302567 -1.177681,0.453856 0.293322,0.423878 0.301175,0.762751 0.802721,0.521002 0.573451,-0.27624 0.749003,-0.34613 0.37496,-0.974858"
   id="path59"
   inkscape:connector-curvature="0" /><path
   d="m 49.533656,42.769587 c -0.650707,0.250824 -1.546997,0.311639 -0.942142,1.13462 0.392553,-0.151285 0.785129,-0.302571 1.177677,-0.453851 0,0.07551 0,0.15128 0,0.226934 -0.07842,-0.302574 -0.157025,-0.605133 -0.235535,-0.907703"
   id="path61"
   inkscape:connector-curvature="0" /><path
   d="m 45.058459,47.308039 c 1.491432,1.796023 3.131377,2.774516 5.417349,3.40385 -1.290726,-1.554279 -2.250161,-3.24984 -2.590898,-5.219228 -0.804616,1.033858 -1.589724,1.338833 -2.826451,1.815378"
   id="path63"
   style="fill:#ffffaf;fill-rule:evenodd"
   inkscape:connector-curvature="0" /><path
   d="m 46.236136,48.215732 c -0.461017,-0.555198 -0.821537,-1.480744 -1.64874,-0.907693 0.310585,0.449001 0.634998,1.27652 1.177678,1.361541 -0.07842,0 -0.157032,0 -0.235535,0 0.29646,-0.01333 0.54393,-0.18608 0.706597,-0.453848"
   id="path65"
   inkscape:connector-curvature="0" /><path
   d="m 47.41383,49.123422 c -0.513466,-0.395751 -1.17455,-1.331279 -1.648756,-0.453842 0.471062,0.378198 0.942146,0.756414 1.413216,1.134616 0.07219,-0.20877 0.217962,-0.462314 0.23554,-0.680774"
   id="path67"
   inkscape:connector-curvature="0" /><path
   d="m 49.062576,49.804196 c -0.54957,-0.226926 -1.099157,-0.453853 -1.648746,-0.680774 -0.682743,0.929779 0.72042,1.075617 1.413218,1.361537 0.0706,-0.20363 0.226425,-0.467765 0.235528,-0.680763"
   id="path69"
   inkscape:connector-curvature="0" /><path
   d="m 50.004738,50.711889 c 0.177741,-0.104692 0.322516,-0.310741 0.471069,-0.453851 -0.471069,-0.151283 -0.942151,-0.302568 -1.413231,-0.453842 -0.09761,0.134035 -0.22988,0.517072 -0.235528,0.680763 0.63815,0.20484 1.466283,0.777589 1.884288,0 -0.177428,0.109825 -0.320951,0.309228 -0.471073,0.45384 0.392573,0.0755 0.785123,0.151281 1.17769,0.22693 -0.516936,-0.498317 -0.679288,-0.846274 -1.413215,-0.45384"
   id="path71"
   inkscape:connector-curvature="0" /><path
   d="m 49.298124,49.804196 c 0.412964,0.530388 0.654482,1.20693 1.413212,0.680763 -0.235529,-0.378204 -0.471073,-0.756406 -0.706598,-1.134616 -0.235547,0.15128 -0.471082,0.302572 -0.706614,0.453853"
   id="path73"
   inkscape:connector-curvature="0" /><path
   d="m 48.355971,48.44265 c 0.496819,0.0093 0.732687,0.957925 0.942153,1.361546 1.025678,-0.658688 0.398507,-0.899225 -0.235548,-1.815392 0.07842,0 0.157046,0 0.235548,0 -0.314057,0.151284 -0.62809,0.302569 -0.942153,0.453846 0.07842,0 0.157035,0 0.235543,0 -0.07842,0 -0.15703,0 -0.235543,0"
   id="path75"
   inkscape:connector-curvature="0" /><path
   d="m 47.884909,47.081119 c 0.157019,0.453852 0.314026,0.907685 0.471062,1.361531 1.218832,-0.586972 0.825023,-0.67985 0.235543,-1.815367 -0.01255,0.326162 -0.3555,0.414501 -0.706605,0.453836"
   id="path77"
   inkscape:connector-curvature="0" /><path
   d="m 48.120441,45.946503 c -0.202874,-0.112248 -0.483958,-0.155518 -0.706611,-0.226914 0.228622,0.660193 0.247465,1.762122 1.177684,1.134609 -0.201007,-0.580924 -0.240569,-1.405712 -0.94215,-1.588456 0.127806,0.101683 0.321902,0.155218 0.471077,0.226919 0.02949,-0.188203 0.04455,-0.496206 0,-0.680761 -0.700013,0.358224 -0.321292,0.670175 0,1.134603"
   id="path79"
   inkscape:connector-curvature="0" /><path
   d="m 47.17829,46.627283 c 1.014374,-0.03128 0.853588,-0.808462 0.471074,-1.361541 -0.314046,0.226919 -0.628108,0.453847 -0.942144,0.680761 0.518195,0.01834 0.188415,0.662308 0.70661,0.68078 -0.07842,0 -0.157009,0 -0.23554,0"
   id="path81"
   inkscape:connector-curvature="0" /><path
   d="m 46.471679,47.081119 c 0.562774,-0.361258 0.892227,-0.461711 0.471079,-1.134616 -0.314047,0.151278 -0.628104,0.302559 -0.942142,0.453847 0.33853,0.01217 0.430228,0.342802 0.471063,0.680769"
   id="path83"
   inkscape:connector-curvature="0" /><path
   d="m 45.293997,47.081119 c -0.09793,0.135847 -0.158599,0.305588 -0.235539,0.453852 0.685255,-0.219973 1.829016,-0.238429 1.177678,-1.134621 -0.60296,0.193635 -1.45905,0.231764 -1.64874,0.907689 0.09729,-0.136455 0.158596,-0.30528 0.235535,-0.453841 -0.149813,0.03216 -0.343897,0.143114 -0.471088,0.226921 0.254071,0.295306 0.602039,0.206048 0.942154,0"
   id="path85"
   inkscape:connector-curvature="0" /><path
   d="m 55.657613,44.584978 c 0.216382,2.05379 -1.5244,4.260995 -3.061977,5.446143 0.159214,-0.919794 0.298343,-1.785133 0.235528,-2.723082 -0.0452,-0.673796 -0.03981,-2.162715 -0.471073,-2.723061 1.213491,0.233881 2.076506,0.19606 3.297522,0"
   id="path87"
   style="fill:#ffffaf;fill-rule:evenodd"
   inkscape:connector-curvature="0" /><path
   d="m 56.128693,45.492661 c 0,-0.871388 0.109603,-0.907683 -0.844168,-0.907683 -0.148553,0 -0.185922,0.575461 -0.09793,0.680764 0.116823,0.140081 0.749943,0.180633 0.942151,0.226919 0,-0.07552 0,-0.151277 0,-0.226919 0,0.07548 0,0.151272 0,0.226919"
   id="path89"
   inkscape:connector-curvature="0" /><path
   d="m 55.893148,46.17343 c 0.114004,-0.199393 0.160796,-0.464133 0.235545,-0.680769 -0.314057,-0.07552 -0.628105,-0.151277 -0.942151,-0.226919 -0.189995,0.592118 0.13127,0.838996 0.706606,0.907688"
   id="path91"
   inkscape:connector-curvature="0" /><path
   d="m 55.422078,47.081119 c 0.641296,-0.01929 0.391926,-2.041394 -0.706609,-0.453836 0.424586,0.01894 0.517546,0.434775 0.942144,0.453836 -0.07842,0 -0.157025,0 -0.235535,0"
   id="path93"
   inkscape:connector-curvature="0" /><path
   d="m 54.951,47.761888 c 0.63533,-0.02274 0.482386,-0.889838 0,-1.134605 -0.157017,0.302555 -0.314041,0.605125 -0.471079,0.907688 0,-0.07552 0,-0.15129 0,-0.226932 0.163006,0.267473 0.410157,0.440543 0.706621,0.453849 -0.07842,0 -0.157026,0 -0.235542,0"
   id="path95"
   inkscape:connector-curvature="0" /><path
   d="m 54.008863,49.350343 c 0.349526,-0.589395 1.402538,-1.579076 0.471058,-2.042304 -0.392547,0.529492 -0.785112,1.058979 -1.177676,1.588457 0,-0.0755 0,-0.151278 0,-0.226916 0.235539,0.226916 0.471069,0.453842 0.706618,0.680763"
   id="path97"
   inkscape:connector-curvature="0" /><path
   d="m 52.124559,50.031121 c 0.773822,0.522522 1.303303,-0.23297 1.884304,-0.680778 -0.235549,-0.226921 -0.471079,-0.453847 -0.706618,-0.680763 -0.314056,0.378198 -0.628096,0.756414 -0.942154,1.134616 0.160802,0.05828 0.305579,0.186678 0.471073,0.226925 -0.907582,-0.271709 -0.811492,0.50528 -0.94214,1.134608 0.314041,-0.30257 0.6281,-0.605128 0.94214,-0.907691 -0.218565,-0.07016 -0.47798,-0.206954 -0.706605,-0.226917"
   id="path99"
   inkscape:connector-curvature="0" /><path
   d="m 52.360091,48.66958 c -0.07842,0.453842 -0.157026,0.90769 -0.235532,1.361541 0.944345,0.282887 0.913569,-0.699224 0.942148,-1.361541 0,0.07549 0,0.151283 0,0.226916 -0.0386,-0.310719 -0.345769,-0.324952 -0.706616,-0.226916"
   id="path101"
   inkscape:connector-curvature="0" /><path
   d="m 52.360091,47.308039 c 0,0.527677 -0.287347,1.361541 0.35332,1.361541 0.632174,0 0.496499,-0.827515 0.588834,-1.361541 -0.314056,0 -0.628096,0 -0.942154,0"
   id="path103"
   inkscape:connector-curvature="0" /><path
   d="m 52.360091,45.946503 c 0,-0.0035 0,-0.376388 0,-0.158541 0,1.178789 -0.334448,1.520077 0.942154,1.520077 -0.07842,-0.529477 -0.157028,-1.058977 -0.235538,-1.58845 -0.213553,0.06865 -0.521003,0.107412 -0.706616,0.226914"
   id="path105"
   inkscape:connector-curvature="0" /><path
   d="m 52.124559,45.265742 c 0,-0.0755 0,-0.15129 0,-0.226923 0.07842,0.302565 0.157035,0.605124 0.235532,0.907684 0.52918,-0.06337 1.176754,-0.825988 0.471073,-0.907684 0.07842,0 0.157025,0 0.235543,0 -0.325668,0.0035 -0.64035,0.103139 -0.942148,0.226923"
   id="path107"
   inkscape:connector-curvature="0" /><path
   d="m 52.595636,44.131128 c -1.665092,1.069562 0.629043,1.451696 0.235528,0.226922 -0.13754,0.16399 -0.345763,0.281382 -0.471073,0.45385 0.348293,-0.581227 0.220475,-0.827215 -0.471067,-0.907693 -0.0373,0.172763 -0.04548,0.510124 0,0.680771 0.235535,-0.151288 0.471067,-0.302572 0.706612,-0.45385"
   id="path109"
   inkscape:connector-curvature="0" /><path
   d="m 53.537784,44.35805 c -0.71698,-0.172774 -1.055827,-0.417538 -1.177693,0.45385 0.379377,0.09135 0.928955,0.04796 0.942154,0.453842 0,-0.0755 0,-0.15129 0,-0.226923 0,0.07551 0,0.151281 0,0.226923 0.07842,-0.302571 0.157036,-0.605133 0.235539,-0.907692"
   id="path111"
   inkscape:connector-curvature="0" /><path
   d="m 54.244394,44.35805 c -0.815592,-0.244773 -0.790138,0.321623 -0.942149,0.907692 0.392564,0 0.785129,0 1.177676,0 -0.07842,0 -0.157026,0 -0.235527,0 0.07842,0 0.157021,0 0.235527,0 -0.07842,-0.302571 -0.157026,-0.605133 -0.235527,-0.907692"
   id="path113"
   inkscape:connector-curvature="0" /><path
   d="m 56.128693,44.584978 c -0.400111,-0.721922 -1.222907,-0.333127 -1.884299,-0.226928 0.278235,1.071685 0.304302,0.894686 1.413219,0.680769 -0.178367,-0.120122 -0.28829,-0.340684 -0.471071,-0.453841 0.162688,0 0.839448,0.0992 0.942151,0 0.346702,-0.334039 -0.223614,-0.513146 -0.47108,-0.45385 0.152309,0.146746 0.295523,0.335233 0.47108,0.45385"
   id="path115"
   inkscape:connector-curvature="0" /><path
   d="m 49.298124,42.315737 c 2.474392,1.58937 5.927667,2.748183 8.06069,0.0093 1.731033,-2.223841 1.310204,-5.601055 0.455367,-8.071179 -0.554603,-1.602675 -3.995957,-6.118743 -5.925157,-5.098799 -1.146919,0.606333 -1.477918,2.681012 -1.878014,3.719116 -0.629972,1.634437 -1.260279,3.26919 -1.890569,4.903938 -1.185846,-1.020243 -2.371712,-2.040182 -3.55755,-3.06013 -1.011853,-0.870176 -2.169456,-2.308257 -3.395178,-2.898559 -1.24489,-0.599672 -2.049477,1.796616 -2.326793,2.597806 -0.516603,1.492832 -0.613334,2.867085 -0.613334,4.433152 0,2.637134 1.878008,5.845823 4.335767,7.029461 2.666887,1.284989 6.03288,-0.900129 6.734771,-3.563299"
   id="path117"
   style="fill:#ffffaf;fill-rule:evenodd"
   inkscape:connector-curvature="0" /><path
   d="m 50.946876,42.769587 c -0.950932,-0.610876 -1.200603,-1.215086 -1.8843,-0.226919 0.950948,0.61087 1.20061,1.215093 1.8843,0.226919"
   id="path119"
   inkscape:connector-curvature="0" /><path
   d="m 52.360091,43.450356 c -1.009029,-0.485912 -1.230759,-0.944301 -1.884284,0 0.549579,0.226934 1.099162,0.453851 1.648752,0.680772 0.0706,-0.203634 0.226429,-0.467765 0.235532,-0.680772"
   id="path121"
   inkscape:connector-curvature="0" /><path
   d="m 53.537784,43.67729 c 0.07842,0 0.157025,0 0.23553,0 -0.713515,-0.114686 -1.623316,-0.573064 -1.648755,0.453838 0.547077,0.08806 1.094766,0.209679 1.648755,0.226922 -0.07842,0 -0.157015,0 -0.23553,0 0.07842,0 0.157025,0 0.23553,0 -0.0747,-0.216636 -0.121524,-0.48108 -0.23553,-0.68076"
   id="path123"
   inkscape:connector-curvature="0" /><path
   d="m 54.715469,43.67729 c 0.07842,-0.07548 0.157025,-0.151289 0.235531,-0.226934 -0.471079,0.07551 -0.942137,0.15128 -1.413216,0.226934 0.01972,0.965469 0.929901,0.68076 1.648758,0.68076 -0.07842,0 -0.157026,0 -0.235542,0 0.07842,0 0.157023,0 0.235542,0 -0.157026,-0.226922 -0.314048,-0.453843 -0.471073,-0.68076"
   id="path125"
   inkscape:connector-curvature="0" /><path
   d="m 55.657613,43.223434 c 0.07842,0 0.157023,0 0.235535,0 -0.39256,0.151282 -0.785125,0.302567 -1.177679,0.453856 0.553023,0.799366 0.533256,0.650801 1.413224,0.226917 -0.157023,-0.226917 -0.314057,-0.453851 -0.47108,-0.680773"
   id="path127"
   inkscape:connector-curvature="0" /><path
   d="m 56.599761,42.769587 c 0,-0.07549 0,-0.151276 0,-0.226919 -0.819978,0.592428 -1.05866,0.512535 -0.471068,1.361539 0.314044,-0.226917 0.6281,-0.453851 0.942125,-0.680773 -0.145078,-0.139786 -0.292995,-0.359442 -0.471057,-0.453847"
   id="path129"
   inkscape:connector-curvature="0" /><path
   d="m 57.070818,41.861895 c 0.07842,0 0.157041,0 0.235555,0 -0.374669,0.481382 -1.062115,0.94854 -0.235555,1.361539 0.28643,-0.367923 0.648208,-0.687122 0.70662,-1.134612 0,0.07547 0,0.151284 0,0.226915 -0.01255,-0.326155 -0.355494,-0.414501 -0.70662,-0.453842"
   id="path131"
   inkscape:connector-curvature="0" /><path
   d="m 57.541906,40.954204 c 0,-0.0755 0,-0.151284 0,-0.226917 -0.157026,0.378204 -0.314047,0.756403 -0.471088,1.134608 0.75877,0.526167 1.000266,-0.150064 1.413245,-0.680761 -0.314056,-0.07551 -0.628092,-0.151284 -0.942157,-0.22693"
   id="path133"
   inkscape:connector-curvature="0" /><path
   d="m 58.012969,39.819599 c 0,-0.07551 0,-0.151285 0,-0.226921 -0.156998,0.453839 -0.314043,0.907681 -0.471063,1.361526 0.314065,0.07552 0.628101,0.151287 0.942157,0.22693 0.07842,-0.453847 0.157018,-0.907691 0.235528,-1.361535 -0.212611,0 -0.503101,-0.05466 -0.706622,0"
   id="path135"
   inkscape:connector-curvature="0" /><path
   d="m 58.012969,38.458059 c 0,0.527665 -0.287343,1.36154 0.353312,1.36154 0.632186,0 0.496509,-0.827512 0.588834,-1.36154 -0.314035,0 -0.628094,0 -0.942146,0"
   id="path137"
   inkscape:connector-curvature="0" /><path
   d="m 58.012969,37.096525 c 0,0.428737 0,0.857455 0,1.285893 0,0.105594 0.856741,0.163389 0.942146,0.07549 0.146685,-0.150675 0,-1.062903 0,-1.285898 0,-0.161877 -0.766892,-0.0755 -0.942146,-0.0755"
   id="path139"
   inkscape:connector-curvature="0" /><path
   d="m 57.777438,35.734987 c 0.193768,1.120395 -0.02195,1.361538 1.177677,1.361538 -0.07181,-0.485914 0.01321,-1.49587 -0.471052,-1.588469 0.07842,0 0.157017,0 0.235528,0 -0.325674,0.0035 -0.640355,0.103137 -0.942153,0.226931"
   id="path141"
   inkscape:connector-curvature="0" /><path
   d="m 57.541906,35.054214 c 0.04548,0.361861 0.58413,1.143389 0.942157,0.453842 0.358002,-0.689533 -0.614596,-0.635984 -0.942157,-0.453842"
   id="path143"
   inkscape:connector-curvature="0" /><path
   d="m 57.306373,34.373452 c 0.06057,0.485311 0.135038,0.713145 0.588845,0.567316 0.559948,-0.179734 0.248404,-0.517094 0.117751,-1.021161 -0.235531,0.151282 -0.471063,0.302561 -0.706596,0.453845"
   id="path145"
   inkscape:connector-curvature="0" /><path
   d="m 56.599761,33.011912 c 0,-0.07548 0,-0.151281 0,-0.226912 0.235541,0.529477 0.471057,1.058975 0.706612,1.588452 0.387221,-0.248703 0.79171,-0.28986 0.566547,-0.723738 -0.190951,-0.368209 -0.342321,-1.084075 -0.802102,-1.091646 0.07842,0 0.157041,0 0.235555,0 -0.296461,0.01333 -0.543618,0.18638 -0.706612,0.453844"
   id="path147"
   inkscape:connector-curvature="0" /><path
   d="m 55.657613,31.650377 c 0.314057,0.453844 0.628096,0.907691 0.942148,1.361535 1.047662,-0.520707 -0.394132,-1.323409 -0.471068,-2.042306 0,0.07551 0,0.151286 0,0.226928 0,-0.0755 0,-0.151277 0,-0.226928 -0.157023,0.226928 -0.314057,0.453854 -0.47108,0.680771"
   id="path149"
   inkscape:connector-curvature="0" /><path
   d="m 54.479921,30.515764 c 0.392573,0.37821 0.785127,0.756411 1.177692,1.134613 0.863952,-1.248376 -0.494937,-0.716168 -0.706613,-1.815379 0,0.07548 0,0.15128 0,0.226912 0,-0.0755 0,-0.151269 0,-0.226912 -0.157017,0.226912 -0.314041,0.453845 -0.471079,0.680766"
   id="path151"
   inkscape:connector-curvature="0" /><path
   d="m 53.537784,29.834998 c -0.07842,-0.07553 -0.15703,-0.151274 -0.235539,-0.226927 0.392564,0.30257 0.785129,0.605129 1.177676,0.907693 0.500291,-0.723119 0.331017,-1.235973 -0.706607,-1.361528 0.07842,0 0.157024,0 0.235549,0 -0.338553,0.01219 -0.430253,0.342806 -0.471079,0.680762"
   id="path153"
   inkscape:connector-curvature="0" /><path
   d="m 53.066707,29.608071 c -0.07842,-0.0755 -0.157017,-0.151275 -0.235543,-0.226915 0.235543,0.151286 0.471081,0.302568 0.70662,0.453842 0.440299,-0.699525 -0.04678,-0.648993 -0.235539,-1.13461 0,0.07548 0,0.151286 0,0.226917 0,-0.07551 0,-0.151284 0,-0.226917 -0.07842,0.30256 -0.157028,0.60513 -0.235538,0.907683"
   id="path155"
   inkscape:connector-curvature="0" /><path
   d="m 52.595636,29.381156 c 0.121534,0.104085 0.32441,0.156414 0.471071,0.226915 0.07842,-0.302553 0.157022,-0.605123 0.235538,-0.907683 -0.209798,0 -0.499968,-0.04923 -0.706609,0 0.07842,0 0.157015,0 0.235528,0 -0.322509,0.03739 -0.337283,0.333119 -0.235528,0.680768"
   id="path157"
   inkscape:connector-curvature="0" /><path
   d="m 52.360091,29.381156 c -0.07842,0 -0.157026,0 -0.235532,0 0.804273,0.163372 0.575653,-1.150052 0,-0.680768 0.07842,-0.0755 0.157035,-0.151285 0.235532,-0.226927 -0.412653,0.116481 -0.180894,0.498015 0,0.907695"
   id="path159"
   inkscape:connector-curvature="0" /><path
   d="m 52.124559,29.381156 c -0.07842,0 -0.15702,0 -0.235535,0 0.149491,0.02568 0.319071,0 0.471067,0 -0.05395,-0.465642 -0.197852,-0.780321 -0.706606,-0.680768 0.157018,0.226917 0.314054,0.453848 0.471074,0.680768"
   id="path161"
   inkscape:connector-curvature="0" /><path
   d="m 51.889024,29.608071 c 0.550831,-0.477149 -0.580985,-1.341865 -0.706602,-0.453835 0,-0.07551 0,-0.151288 0,-0.226931 0.03358,0.379411 0.3737,0.466854 0.706602,0.680766"
   id="path163"
   inkscape:connector-curvature="0" /><path
   d="m 51.653485,29.834998 c 0.07842,-0.07553 0.157018,-0.151274 0.235539,-0.226927 -0.235539,-0.151275 -0.471071,-0.302553 -0.706602,-0.453835 -0.09228,0.0992 -0.207589,0.323131 -0.235546,0.453835 0.221406,0.07124 0.475787,0.202115 0.706609,0.226927"
   id="path165"
   inkscape:connector-curvature="0" /><path
   d="m 47.884909,38.004218 c 1.278804,-0.08355 1.645288,-2.661666 1.996726,-3.573276 0.590402,-1.531886 1.181122,-3.064064 1.77185,-4.595944 -1.183328,-0.768514 -1.699939,2.350007 -1.996725,3.119439 -0.590422,1.531873 -1.181133,3.064056 -1.771851,4.595929 0.145712,-0.09086 0.330682,-0.129183 0.471062,-0.226924 -0.157036,0.226924 -0.314043,0.453859 -0.471062,0.680776 0.350473,0.307698 0.617738,0.221766 0.706605,-0.226917 -0.229583,0.07393 -0.489605,0.124348 -0.706605,0.226917"
   id="path167"
   inkscape:connector-curvature="0" /><path
   d="m 41.52541,32.33115 c -0.07842,0 -0.15702,0 -0.235526,0 2.198335,1.891018 4.396665,3.782044 6.595025,5.673068 0.442161,-0.638716 0.579406,-0.588195 0.02353,-1.064127 -0.78231,-0.669869 -1.564287,-1.339436 -2.346582,-2.009317 -1.264987,-1.083479 -2.612578,-2.117941 -3.801247,-3.280397 0.07842,0.0755 0.157023,0.151283 0.23553,0.226925 -0.07842,-0.07552 -0.157027,-0.151285 -0.23553,-0.226925 -0.07405,0.215423 -0.205081,0.456575 -0.235228,0.680773"
   id="path169"
   inkscape:connector-curvature="0" /><path
   d="m 41.054345,32.104221 c 0.120591,0.104377 0.32472,0.156438 0.471065,0.226929 0.259725,-0.398475 0.34169,-0.894074 -0.235526,-0.90769 0.07842,0 0.157006,0 0.235526,0 -0.338537,0.01216 -0.430241,0.342803 -0.471065,0.680761"
   id="path171"
   inkscape:connector-curvature="0" /><path
   d="m 40.818803,32.104221 c 0.338548,-0.01219 0.430247,-0.342494 0.471081,-0.680761 -0.517251,-0.104986 -0.612712,0.219056 -0.471081,0.680761"
   id="path173"
   inkscape:connector-curvature="0" /><path
   d="m 40.583274,32.104221 c 0.439354,-0.05096 0.399775,-0.809655 -0.235542,-0.680761 0.0747,0.216324 0.12122,0.482292 0.235542,0.680761"
   id="path175"
   inkscape:connector-curvature="0" /><path
   d="m 40.347732,32.33115 c 0.306517,-0.244779 0.213547,-0.580016 0,-0.90769 -0.32441,0.173663 -0.41831,0.129499 -0.471077,0.453842 0,-0.07552 0,-0.151285 0,-0.226925 0.01376,0.285616 0.19346,0.524044 0.471077,0.680773"
   id="path177"
   inkscape:connector-curvature="0" /><path
   d="m 39.876655,33.011912 c -0.07842,0 -0.157031,0 -0.235531,0 0.471376,-0.454144 0.868967,-0.524336 0.357697,-1.016912 -0.240237,-0.231451 -0.822485,0.557021 -1.064321,0.79 0.07842,-0.07554 0.157027,-0.151289 0.235546,-0.226932 -0.07842,0.07548 -0.157022,0.151276 -0.235546,0.226932 0.314064,0.07549 0.628107,0.151273 0.942155,0.226912"
   id="path179"
   inkscape:connector-curvature="0" /><path
   d="m 39.170046,34.14653 c 0.235541,-0.37821 0.471078,-0.756412 0.706609,-1.134618 -1.127427,-0.271386 -0.984856,-0.12374 -1.413225,0.907695 0.210732,0.06776 0.486153,0.219058 0.706616,0.226923"
   id="path181"
   inkscape:connector-curvature="0" /><path
   d="m 38.9345,35.508056 c 0,0.0755 0,0.151289 0,0.226931 0.106162,-0.716166 0.646004,-1.787845 -0.47107,-1.81538 -0.157011,0.529488 -0.314053,1.058977 -0.471067,1.588449 0.314056,0 0.6281,0 0.942137,0"
   id="path183"
   inkscape:connector-curvature="0" /><path
   d="m 38.698975,37.096525 c 0,0.0755 0,0.151284 0,0.226917 0.07842,-0.60512 0.157015,-1.210248 0.235525,-1.815386 -1.277855,0 -1.002744,0.409372 -1.177678,1.58847 0.314059,0 0.628107,0 0.942154,0"
   id="path185"
   inkscape:connector-curvature="0" /><path
   d="m 38.698975,38.684988 c 0,-9.92e-4 0,0.370945 0,0.164596 0,-0.86595 0.407006,-1.753059 -0.610516,-1.753059 -0.648808,0 -0.331638,1.278633 -0.331638,1.815382 0.31406,-0.07549 0.628107,-0.151288 0.942154,-0.226919"
   id="path187"
   inkscape:connector-curvature="0" /><path
   d="m 38.698975,40.273443 c 0.07842,0 0.157015,0 0.235525,0 -0.07842,-0.529487 -0.15701,-1.058981 -0.235525,-1.588455 -1.270332,0.30588 -0.884992,0.611476 -0.706612,1.815371 0.213242,-0.06823 0.521011,-0.1071 0.706612,-0.226916"
   id="path189"
   inkscape:connector-curvature="0" /><path
   d="m 39.170046,41.634974 c -0.157022,-0.45384 -0.314056,-0.907687 -0.471071,-1.361531 -1.134978,0.03583 -0.464167,0.928253 -0.235545,1.588452 0.2101,-0.06737 0.526669,-0.105292 0.706616,-0.226921"
   id="path191"
   inkscape:connector-curvature="0" /><path
   d="m 39.876655,42.769587 c -0.422389,-0.67804 -0.523522,-1.388759 -1.413225,-0.907692 0.235545,0.453842 0.47107,0.907692 0.706616,1.361539 0.235541,-0.151277 0.471078,-0.302563 0.706609,-0.453847"
   id="path193"
   inkscape:connector-curvature="0" /><path
   d="m 40.583274,43.904206 c -0.235542,-0.378206 -0.47108,-0.756423 -0.706619,-1.13462 -0.235531,0.151284 -0.471068,0.302571 -0.706609,0.453848 0.314051,0.378202 0.628109,0.756416 0.942147,1.134616 0.144775,-0.139475 0.374032,-0.282297 0.471081,-0.453843"
   id="path195"
   inkscape:connector-curvature="0" /><path
   d="m 41.52541,44.8119 c -0.314049,-0.302572 -0.628101,-0.605136 -0.942136,-0.907693 -0.790773,0.395443 -0.13975,1.258658 0.471071,1.361535 -0.07842,0 -0.157036,0 -0.235542,0 0.296465,-0.01333 0.543934,-0.18608 0.706607,-0.453842"
   id="path197"
   inkscape:connector-curvature="0" /><path
   d="m 42.232022,45.265742 c 0.07842,0.07548 0.157018,0.151272 0.235538,0.226919 -0.499652,-0.360954 -0.984541,-1.022966 -1.413215,-0.226919 0.314045,0.226919 0.628095,0.453847 0.942139,0.680761 0.07181,-0.207552 0.219833,-0.46353 0.235538,-0.680761"
   id="path199"
   inkscape:connector-curvature="0" /><path
   d="m 43.174168,45.719589 c 0.07842,0 0.157028,0 0.235541,0 -0.392567,-0.151286 -0.785118,-0.302575 -1.177687,-0.453847 -0.524458,0.701943 0.240871,1.276813 0.942146,1.361541 -0.07842,0 -0.157026,0 -0.235538,0 0.426477,-0.0082 0.235538,-0.548856 0.235538,-0.907694"
   id="path201"
   inkscape:connector-curvature="0" /><path
   d="m 44.351843,45.946503 c -0.392559,-0.0755 -0.785116,-0.151287 -1.177675,-0.226914 0,1.078936 0.115261,0.907694 1.177675,0.907694 -0.07842,0 -0.157004,0 -0.235522,0 0.322523,-0.03722 0.337283,-0.333134 0.235522,-0.68078"
   id="path203"
   inkscape:connector-curvature="0" /><path
   d="m 45.058458,45.946503 c 0.07842,0 0.157027,0 0.235539,0 -0.760622,0 -0.942154,-0.187592 -0.942154,0.574278 0,0.218444 0.911695,0.106502 1.177696,0.106502 -0.07842,0 -0.157021,0 -0.235542,0 0.07842,0 0.157034,0 0.235542,0 -0.157021,-0.226933 -0.314054,-0.453853 -0.471081,-0.68078"
   id="path205"
   inkscape:connector-curvature="0" /><path
   d="m 46.236136,45.492661 c -0.392554,0.151282 -0.785105,0.302555 -1.177678,0.453842 0.26851,0.388196 0.30024,0.746738 0.776324,0.563081 0.366187,-0.141306 0.860508,-0.163393 0.872438,-0.563081 0,0.07549 0,0.151278 0,0.226927 -0.01376,-0.285318 -0.19346,-0.523739 -0.471084,-0.680769"
   id="path207"
   inkscape:connector-curvature="0" /><path
   d="m 47.41383,44.584978 c -0.392574,0.302563 -0.785119,0.605122 -1.177694,0.907683 0.47422,0.877431 1.135297,-0.05799 1.648773,-0.453842 -0.144796,-0.139484 -0.293019,-0.360356 -0.471079,-0.453841"
   id="path209"
   inkscape:connector-curvature="0" /><path
   d="m 48.355971,43.450356 c -0.456618,0.549765 -1.167006,0.917978 -0.593249,1.470762 0.251571,0.242348 1.053333,-0.779704 1.299854,-1.016911 -0.235528,-0.151285 -0.471062,-0.302571 -0.706605,-0.453851"
   id="path211"
   inkscape:connector-curvature="0" /><path
   d="m 48.827048,42.769587 c -0.08224,0.118915 -0.497149,0.555512 -0.471077,0.680769 0.01126,0.05474 0.649766,0.464746 0.706605,0.453851 0.05683,-0.01098 0.48239,-0.626009 0.47108,-0.680773 -0.02604,-0.124965 -0.582881,-0.374272 -0.706608,-0.453847"
   id="path213"
   inkscape:connector-curvature="0" /><path
   d="m 49.533656,41.861895 c -1.072806,0.223892 -0.567488,0.996948 0,1.361539 0.09949,-0.176688 0.209787,-0.481373 0.235535,-0.680766 -0.224225,0.045 -0.485195,-0.05476 -0.706615,0 0.253769,-0.366397 0.616166,-0.577897 0.235548,-0.907694 -0.08689,0.122532 -0.202565,0.309519 -0.235548,0.453848 0.1539,-0.07424 0.329453,-0.133135 0.47108,-0.226927"
   id="path215"
   inkscape:connector-curvature="0" /><path
   d="m 48.355971,37.777301 c 0.254391,-1.316767 2.18547,-1.204517 2.590905,0 0.554299,1.64654 -1.214121,2.094642 -2.355362,1.361532 -0.418941,1.144588 -2.82644,1.395715 -2.82644,-0.106509 0,-1.587857 1.338779,-1.950035 2.590897,-1.255023"
   id="path217"
   style="fill:#0e0d0d;fill-rule:evenodd"
   inkscape:connector-curvature="0" /><path
   style="fill:#aa4400;fill-opacity:1;fill-rule:evenodd;stroke:#000000;stroke-width:0.14865658;stroke-linejoin:miter;stroke-miterlimit:4;stroke-opacity:1;stroke-dasharray:none"
   d="m 34.562508,75.322907 c -1.203535,-0.406491 -3.122778,-2.440241 -4.08071,-4.324177 -0.724446,-1.424727 -1.816554,-4.372741 -2.176808,-5.876012 -0.16851,-0.703195 -0.267824,-1.898415 -0.320355,-3.855276 -0.08261,-3.079768 -0.124285,-2.773019 0.902452,-6.649894 0.68058,-2.569841 2.018334,-4.777642 3.705178,-6.114957 1.656067,-1.312896 1.633497,-1.281716 1.442089,-1.992383 -0.320132,-1.188705 -0.902039,-1.857437 -2.245759,-2.580865 -2.067203,-1.112928 -3.695718,-1.008259 -6.344201,0.407759 -2.197863,1.175086 -4.358042,3.268046 -5.789747,5.609565 -0.930424,1.521701 -2.158698,4.257476 -2.552871,5.686088 -0.708945,2.569479 -0.707933,5.885466 0.0029,9.319706 0.164402,0.794342 0.267285,1.479445 0.228625,1.522453 -0.03863,0.04308 -0.417128,0.118018 -0.841043,0.166689 -0.81326,0.09341 -2.053619,-0.246305 -2.34999,-0.643573 -0.25897,-0.347133 -1.136282,-4.94848 -1.228162,-6.441482 -0.103706,-1.685153 0.10887,-3.647124 0.599357,-5.531806 1.101203,-4.231314 4.533992,-9.030041 8.059682,-11.266699 1.027609,-0.651903 3.183738,-1.647707 3.994579,-1.844885 0.20414,-0.04963 1.810419,0.155583 3.569482,0.456064 2.246117,0.383671 3.274964,0.500678 3.45578,0.393024 0.275622,-0.164096 2.539937,-2.827889 2.539937,-2.98804 0,-0.05268 -0.385417,-0.847465 -0.856465,-1.766269 -0.956758,-1.86614 -1.482541,-2.459192 -3.199039,-3.608325 -1.532012,-1.025614 -2.539783,-1.455312 -5.08169,-2.166767 -2.696534,-0.754734 -4.059763,-0.799223 -6.63194,-0.21644 -0.942559,0.213556 -1.855069,0.471227 -2.027802,0.572602 -0.481743,0.282712 -2.748714,2.490181 -3.704754,3.607523 -1.101575,1.287422 -1.639762,2.176225 -2.391123,3.948901 -0.740497,1.747041 -1.002213,2.83728 -1.2586802,5.243319 -0.274927,2.579233 -0.689765,3.486671 -1.593934,3.486671 -0.34869,0 -1.2548707,-0.465419 -1.9168947,-0.984521 -0.368544,-0.288955 -0.397197,-0.378998 -0.330283,-1.037889 0.225319,-2.218634 1.129243,-7.839891 1.349034,-8.389281 0.389015,-0.972377 2.6769799,-4.291036 3.6389439,-5.27824 1.784631,-1.831451 3.174541,-2.953964 4.052662,-3.272991 1.670871,-0.607034 3.405476,-0.858874 5.928223,-0.860676 3.374528,-0.0027 5.568608,0.486623 8.879327,1.979112 3.104574,1.399551 4.726278,2.489355 6.0605,4.072697 1.794321,2.12937 1.747442,2.038841 1.671633,3.228251 -0.06071,0.952961 0.03827,2.086162 0.297974,3.409432 0.304815,1.553311 2.094602,4.020613 3.75075,5.170587 0.843348,0.585586 1.066223,0.664461 1.967901,0.696435 0.32546,0.01161 0.353903,0.06411 0.30214,0.557283 -0.04836,0.461117 -0.0026,0.572207 0.299024,0.725083 0.211739,0.107326 0.326011,0.268002 0.281791,0.396222 -0.05364,0.155619 0.0573,0.218439 0.398736,0.225605 0.437549,0.0094 0.448348,0.0211 0.143539,0.156881 -0.181288,0.08093 -1.735171,0.131694 -3.45307,0.113067 l -3.123465,-0.03398 -1.127534,0.533222 c -0.817558,0.386622 -1.326419,0.755343 -1.850947,1.341189 -0.397885,0.444379 -1.095461,1.041544 -1.550171,1.327034 -0.454703,0.285483 -0.905593,0.632035 -1.001957,0.770116 -0.316669,0.453712 -1.156321,3.630783 -1.302628,4.928856 -0.237057,2.103213 -0.172059,4.085444 0.214357,6.536901 0.809325,5.134485 1.416329,6.485247 4.052867,9.018852 0.635035,0.610245 0.654907,0.654941 0.522709,1.175955 -0.243909,0.961355 -0.941129,1.293104 -1.980136,0.942177 l 0,0 z"
   id="path5171"
   inkscape:connector-curvature="0" /><path
   style="fill:#aa4400;fill-opacity:1;fill-rule:evenodd;stroke:#000000;stroke-width:0.14865658;stroke-linejoin:miter;stroke-miterlimit:4;stroke-opacity:1;stroke-dasharray:none"
   d="m 76.005973,62.902499 c -0.348833,-0.08525 -0.713514,-0.269142 -0.810417,-0.408545 -0.128691,-0.185137 -0.17633,-1.185729 -0.176745,-3.712146 -8.45e-4,-4.852546 -0.339902,-6.870627 -1.6298,-9.69904 -1.082181,-2.372938 -2.266626,-3.84504 -4.270786,-5.307969 -1.545025,-1.127787 -2.971611,-1.604011 -4.810418,-1.605827 -1.616047,-0.0018 -1.629471,0.0037 -3.594017,1.291067 -0.542618,0.355706 -1.686982,0.991028 -2.543011,1.411819 l -1.556418,0.76507 -0.02218,-0.619268 c -0.0122,-0.340599 -0.10418,-0.729159 -0.204382,-0.86347 -0.152276,-0.204132 -0.13876,-0.272615 0.08233,-0.417397 0.531892,-0.348214 1.015118,-0.85877 1.217495,-1.286359 0.11402,-0.240897 0.344342,-0.604027 0.511832,-0.806949 0.667163,-0.80831 1.076892,-4.897123 0.588748,-5.87531 -0.09816,-0.196816 -0.180822,-0.407241 -0.183568,-0.467603 -0.0028,-0.06046 -0.08423,-0.197951 -0.181175,-0.305744 -0.09684,-0.107796 -0.176172,-0.286157 -0.176172,-0.396354 0,-0.401928 -0.770194,-1.934026 -1.015851,-2.020759 -0.138942,-0.04897 -0.25263,-0.145788 -0.25263,-0.214949 0,-0.250178 -1.146155,-1.720086 -1.415337,-1.815131 -0.359409,-0.126902 -0.352378,-0.203751 0.1451,-1.58588 0.628663,-1.746582 2.634017,-5.05231 3.923476,-6.467645 1.507104,-1.654212 4.047877,-3.782076 4.517258,-3.78314 0.203444,-4.61e-4 1.099255,-0.465701 1.990722,-1.033869 3.505439,-2.234183 3.820259,-2.339278 6.976609,-2.329045 2.630687,0.0086 3.298033,0.157085 6.048504,1.346407 l 1.844239,0.797464 1.558425,1.746694 c 2.220571,2.488828 2.67466,3.646915 1.937111,4.940299 -0.531353,0.931822 -2.497246,-0.243336 -3.531221,-2.110874 -1.106249,-1.998078 -2.242664,-3.046889 -3.912458,-3.610853 -0.692118,-0.233762 -1.312731,-0.282904 -3.451284,-0.273273 l -2.607416,0.01179 -2.114135,1.226318 c -1.162763,0.674475 -2.309689,1.389758 -2.548712,1.589515 -0.239031,0.199759 -0.626191,0.405824 -0.860365,0.45793 -0.968205,0.215418 -3.603394,3.159102 -4.68984,5.238853 -0.943711,1.806538 -2.306185,5.37179 -2.154846,5.638696 0.156252,0.275575 1.883718,0.927068 2.489112,0.938737 0.268923,0.0059 0.850733,-0.308898 1.691298,-0.913023 2.889653,-2.076843 5.058743,-2.937292 8.379724,-3.324127 1.921506,-0.223823 4.071949,-0.01438 5.899199,0.574773 3.362629,1.084051 8.506512,4.968738 9.599171,7.249352 0.246237,0.513942 0.698456,1.272021 1.004932,1.684622 0.826224,1.112293 1.334336,2.279503 1.906307,4.37911 0.592701,2.175697 0.749148,3.536106 0.502311,4.368118 -0.188726,0.636159 -0.727861,1.043456 -1.373741,1.037817 -0.560282,-0.0055 -1.533417,-0.531993 -1.77856,-0.963381 -0.114371,-0.201258 -0.375785,-1.283178 -0.580921,-2.404246 -0.46729,-2.553759 -0.812429,-3.758196 -1.508351,-5.263688 -0.694178,-1.50171 -1.712195,-2.775741 -2.993518,-3.746351 -0.551732,-0.417938 -1.324087,-1.143689 -1.716357,-1.612775 -1.235052,-1.476957 -3.327517,-2.529587 -5.413017,-2.723077 -1.195289,-0.110892 -4.073769,0.16559 -4.989872,0.479276 -0.719712,0.246448 -5.871684,3.553279 -6.063795,3.8921 -0.173946,0.306778 0.255605,2.91422 0.53047,3.21999 0.102561,0.1141 0.656027,0.312706 1.229919,0.441347 1.833139,0.410916 4.878337,1.841927 6.491345,3.050443 1.901719,1.42482 3.767712,4.024836 5.102051,7.109012 1.032835,2.387295 1.276111,3.844498 1.494464,8.951562 0.1208,2.825771 0.110314,3.190139 -0.106091,3.684652 -0.228482,0.522092 -0.277851,0.550032 -1.015333,0.574569 -0.426352,0.01429 -1.060591,-0.04413 -1.409421,-0.129298 z"
   id="path5173"
   inkscape:connector-curvature="0" /><path
   style="fill:#aa4400;fill-opacity:1;fill-rule:evenodd;stroke:#000000;stroke-width:0.14865658;stroke-linejoin:miter;stroke-miterlimit:4;stroke-opacity:1;stroke-dasharray:none"
   d="m 46.027942,35.283546 c -1.271789,-1.090217 -1.800807,-1.631549 -1.672491,-1.71144 0.186768,-0.116273 4.928927,-1.215941 5.252927,-1.218117 0.128836,-8.32e-4 0.123738,0.141064 -0.02105,0.586842 -0.40483,1.246324 -1.468464,3.872954 -1.581017,3.904337 -0.06498,0.01808 -0.955272,-0.684605 -1.97835,-1.561622 z"
   id="path5175"
   inkscape:connector-curvature="0" /><path
   style="fill:#aa4400;fill-opacity:1;fill-rule:evenodd;stroke:#000000;stroke-width:0.14865658;stroke-linejoin:miter;stroke-miterlimit:4;stroke-opacity:1;stroke-dasharray:none"
   d=""
   id="path5181"
   inkscape:connector-curvature="0" /><path
   style="fill:#aa4400;fill-opacity:1;fill-rule:evenodd;stroke:#000000;stroke-width:0.14865658;stroke-linejoin:miter;stroke-miterlimit:4;stroke-opacity:1;stroke-dasharray:none"
   d="m 48.24045,45.215592 c 0,-0.169353 0.269564,-0.590937 0.599005,-0.936841 0.525095,-0.551313 0.682161,-0.629404 1.273,-0.632835 0.844908,-0.0055 1.586601,0.330059 1.688248,0.762487 0.06836,0.291002 0.01535,0.332648 -0.437488,0.343531 -0.889423,0.02146 -2.466703,0.385161 -2.525852,0.582556 -0.09655,0.322415 -0.596913,0.222757 -0.596913,-0.118898 z"
   id="path5183"
   inkscape:connector-curvature="0" /></svg>