<?xml version="1.0" encoding="UTF-8" standalone="no"?>
<svg
   xmlns:dc="http://purl.org/dc/elements/1.1/"
   xmlns:cc="http://creativecommons.org/ns#"
   xmlns:rdf="http://www.w3.org/1999/02/22-rdf-syntax-ns#"
   xmlns:svg="http://www.w3.org/2000/svg"
   xmlns="http://www.w3.org/2000/svg"
   xmlns:xlink="http://www.w3.org/1999/xlink"
   xmlns:sodipodi="http://sodipodi.sourceforge.net/DTD/sodipodi-0.dtd"
   xmlns:inkscape="http://www.inkscape.org/namespaces/inkscape"
   width="100"
   height="90"
   id="svg2"
   version="1.1"
   inkscape:version="0.48.2 r9819"
   sodipodi:docname="light_mosquito_tile.svg">
  <metadata
     id="metadata31">
    <rdf:RDF>
      <cc:Work
         rdf:about="">
        <dc:format>image/svg+xml</dc:format>
        <dc:type
           rdf:resource="http://purl.org/dc/dcmitype/StillImage" />
        <dc:title></dc:title>
      </cc:Work>
    </rdf:RDF>
  </metadata>
  <sodipodi:namedview
     pagecolor="#ffffff"
     bordercolor="#666666"
     borderopacity="1"
     objecttolerance="10"
     gridtolerance="10"
     guidetolerance="10"
     inkscape:pageopacity="0"
     inkscape:pageshadow="2"
     inkscape:window-width="1440"
     inkscape:window-height="852"
     id="namedview29"
     showgrid="false"
     inkscape:zoom="6.6041667"
     inkscape:cx="27.104102"
     inkscape:cy="48"
     inkscape:window-x="0"
     inkscape:window-y="0"
     inkscape:window-maximized="1"
     inkscape:current-layer="svg2" />
  <defs
     id="defs4">
    <linearGradient
       id="linearGradient3672">
      <stop
         stop-color="#bbdde2"
         offset="0"
         id="stop3674" />
      <stop
         stop-color="#bbdde2"
         stop-opacity="0"
         offset="1"
         id="stop3676" />
    </linearGradient>
    <linearGradient
       y2="73.510597"
       y1="996.26202"
       xlink:href="#linearGradient3672"
       x2="85.117508"
       x1="700.28516"
       id="linearGradient3678"
       gradientUnits="userSpaceOnUse"
       gradientTransform="matrix(0.926887,0,0,1.01845,35.43675,-3.833287)" />
    <linearGradient
       y2="248.53325"
       y1="19.930954"
       xlink:href="#linearGradient3672"
       x2="173.16406"
       x1="-27.257395"
       id="linearGradient5134"
       gradientUnits="userSpaceOnUse"
       gradientTransform="matrix(0.76651,0,0,0.734725,35.07181,0.993106)" />
  </defs>
  <path
     sodipodi:type="star"
     style="fill:#53676c;fill-opacity:1;fill-rule:evenodd;stroke:#000000;stroke-width:5.96471071000000030;stroke-linecap:butt;stroke-linejoin:miter;stroke-miterlimit:4;stroke-opacity:1;stroke-dasharray:none"
     id="path3008"
     sodipodi:sides="6"
     sodipodi:cx="-264.40677"
     sodipodi:cy="-20.338984"
     sodipodi:r1="307.11865"
     sodipodi:r2="265.97256"
     sodipodi:arg1="0"
     sodipodi:arg2="0.52359878"
     inkscape:flatsided="true"
     inkscape:rounded="0"
     inkscape:randomized="0"
     d="m 42.711884,-20.338984 -153.559324,265.972554 -307.11865,0 -153.55933,-265.972554 153.55933,-265.972556 307.11865,0 z"
     transform="matrix(0.16120854,0,0,0.16734865,92.503805,48.517882)" />
  <g
     id="g11"
     transform="matrix(0.1558297,-0.04223182,0.03288026,0.12132372,-6.8866521,29.517142)">
    <title
       id="title13">Layer 1</title>
    <g
       transform="matrix(0.9999916,-0.00409901,0.00409901,0.9999916,-0.87960562,1.2053501)"
       id="g2901">
      <path
         stroke-miterlimit="4"
         id="path2098"
         d="m 364.2525,187.67355 c 45.26538,-4.61308 64.95728,2.3461 67.69055,5.91832 0.16471,0.21523 -0.25348,0.93433 -0.0113,0.78879 2.98905,-1.79643 47.31192,90.14186 77.62857,126.4727 7.76868,9.30997 33.04682,-4.04498 43.12232,-1.32327 6.33642,1.71167 8.86633,20.38034 3.17401,23.42178 -12.36774,6.60813 -41.67847,10.10425 -56.98868,7.07413 -2.71335,0.30905 -5.00339,-0.0927 -6.22022,-1.5148 -29.04064,-33.93884 -43.08471,-101.54179 -77.58822,-130.42815 -8.53647,-7.14676 -24.22559,-7.94815 -57.85425,-9.78206 -7.88391,-0.42994 -10.26013,-18.53804 -2.35352,-19.54814 3.2475,-0.4149 6.38306,-0.77174 9.40076,-1.0793 z"
         inkscape:connector-curvature="0"
         style="fill:#756d69;fill-rule:nonzero;stroke:#000000;stroke-width:9.37177753;stroke-linecap:round;stroke-linejoin:round;stroke-miterlimit:4;stroke-dashoffset:0" />
      <path
         stroke-miterlimit="4"
         id="path2100"
         d="m 358.75751,202.50935 c 45.54214,-0.88118 64.45294,7.66446 66.81573,11.44611 0.14237,0.22783 -0.3464,0.90967 -0.0906,0.78461 3.15731,-1.54384 38.05258,93.65004 64.59082,132.31746 6.80053,9.90869 33.31692,-1.31763 43.07717,2.21923 6.13819,2.22437 6.78046,21.02338 0.80579,23.58533 -12.98114,5.56641 -42.52225,6.64392 -57.46445,2.37045 -2.7333,0.0852 -4.97342,-0.50271 -6.0422,-2.0187 -25.50809,-36.18064 -32.6966,-104.65622 -64.15293,-136.25328 -7.78259,-7.8174 -23.32632,-9.90238 -56.63162,-14.48706 -7.80807,-1.07485 -8.3537,-19.30301 -0.3782,-19.66042 3.27582,-0.14681 6.43432,-0.245 9.47049,-0.30373 z"
         inkscape:connector-curvature="0"
         style="fill:#756d69;fill-rule:nonzero;stroke:#000000;stroke-width:9.37177753;stroke-linecap:round;stroke-linejoin:round;stroke-miterlimit:4;stroke-dashoffset:0" />
      <path
         stroke-miterlimit="4"
         id="path2102"
         d="m 350.99637,207.25119 c 45.26269,4.63443 62.73624,15.39012 64.51712,19.42346 0.1073,0.24298 -0.47812,0.85958 -0.20609,0.76656 3.35776,-1.14809 23.82611,97.40867 44.39283,138.93727 5.27029,10.64194 33.21234,2.72348 42.36026,7.40887 5.7532,2.94666 3.60272,21.65403 -2.69803,23.47037 -13.68943,3.94638 -43.1243,1.44162 -57.2985,-4.60043 -2.72122,-0.24606 -4.85403,-1.09964 -5.68844,-2.73126 -19.91449,-38.93961 -16.88666,-107.66791 -43.37537,-142.78466 -6.55356,-8.68818 -21.64819,-12.6342 -53.9739,-21.20538 -7.57837,-2.00944 -5.41678,-20.13946 2.53988,-19.52911 3.2681,0.25067 6.41275,0.53535 9.43024,0.84431 z"
         inkscape:connector-curvature="0"
         style="fill:#756d69;fill-rule:nonzero;stroke:#000000;stroke-width:9.37177753;stroke-linecap:round;stroke-linejoin:round;stroke-miterlimit:4;stroke-dashoffset:0" />
      <path
         stroke-miterlimit="4"
         id="path2077"
         d="m 266.5929,188.66263 c -45.26539,-4.61308 -64.95725,2.3461 -67.69054,5.91832 -0.16469,0.21522 0.25349,0.93432 0.0113,0.78877 -2.98905,-1.79642 -47.31195,90.14188 -77.62855,126.47272 -7.76877,9.30993 -33.046861,-4.04498 -43.122346,-1.32327 -6.336487,1.71163 -8.866409,20.38028 -3.174049,23.42175 12.367813,6.60815 41.678465,10.10431 56.988705,7.07413 2.7134,0.30908 5.00341,-0.0927 6.22023,-1.51478 29.04064,-33.93884 43.08477,-101.54184 77.5882,-130.42813 8.53648,-7.14677 24.22563,-7.94816 57.85428,-9.78207 7.88391,-0.42995 10.26016,-18.53804 2.35354,-19.54816 -3.24749,-0.4149 -6.38311,-0.77173 -9.40081,-1.07928 z"
         inkscape:connector-curvature="0"
         style="fill:#756d69;fill-rule:nonzero;stroke:#000000;stroke-width:9.37177753;stroke-linecap:round;stroke-linejoin:round;stroke-miterlimit:4;stroke-dashoffset:0" />
      <path
         stroke-miterlimit="4"
         id="path2069"
         d="m 319.26123,210.27127 c 17.31213,11.92529 29.82223,-57.78026 92.35086,-96.06979 C 477.48126,73.866325 556.42804,45.823643 539.11585,33.898357 521.80371,21.973058 438.05466,35.48135 370.37399,90.026931 314.00678,135.45468 301.94907,198.34598 319.26123,210.27127 z"
         inkscape:connector-curvature="0"
         style="fill:#e6f3f3;fill-rule:nonzero;stroke:#000000;stroke-width:9.37177753;stroke-linecap:round;stroke-linejoin:round;stroke-miterlimit:4;stroke-dashoffset:0" />
      <path
         stroke-miterlimit="4"
         id="path2066"
         d="m 323.55743,191.52818 c -7.49295,18.46349 -59.55035,-34.22313 -135.06614,-36.12654 -79.55012,-2.00509 -162.804704,12.70577 -155.311774,-5.75773 7.49292,-18.46351 86.140474,-47.76019 175.680364,-34.65528 74.5724,10.91429 122.1905,58.07605 114.69755,76.53955 z"
         inkscape:connector-curvature="0"
         style="fill:#e6f3f3;fill-rule:nonzero;stroke:#000000;stroke-width:9.37177753;stroke-linecap:round;stroke-linejoin:round;stroke-miterlimit:4;stroke-dashoffset:0" />
      <path
         stroke-miterlimit="4"
         id="rect2059"
         d="m 297.36435,249.94669 36.08533,0 L 317.2735,408.41 297.36435,249.94669 z"
         inkscape:connector-curvature="0"
         style="fill:#4b2c1c;fill-rule:nonzero;stroke:#000000;stroke-width:9.37177753;stroke-linecap:round;stroke-linejoin:round;stroke-miterlimit:4;stroke-dashoffset:0" />
      <path
         stroke-miterlimit="4"
         id="path2094"
         d="m 272.08795,203.49843 c -45.54217,-0.8812 -64.45296,7.66444 -66.81576,11.4461 -0.14237,0.22783 0.34642,0.90966 0.0906,0.78458 -3.15731,-1.54382 -38.05255,93.6501 -64.59081,132.31749 -6.8005,9.90869 -33.31698,-1.31763 -43.07713,2.21924 -6.138229,2.22433 -6.780525,21.02337 -0.80584,23.58536 12.98113,5.56637 42.52224,6.64386 57.4645,2.37045 2.73323,0.0852 4.97339,-0.50275 6.04217,-2.01874 25.50805,-36.1806 32.69658,-104.65619 64.15291,-136.25326 7.78258,-7.81742 23.32631,-9.90241 56.63159,-14.4871 7.80808,-1.07484 8.35376,-19.303 0.37824,-19.6604 -3.27582,-0.14682 -6.43433,-0.24498 -9.47046,-0.30372 z"
         inkscape:connector-curvature="0"
         style="fill:#756d69;fill-rule:nonzero;stroke:#000000;stroke-width:9.37177753;stroke-linecap:round;stroke-linejoin:round;stroke-miterlimit:4;stroke-dashoffset:0" />
      <path
         stroke-miterlimit="4"
         id="path2096"
         d="m 279.84906,208.24026 c -45.2627,4.63443 -62.73627,15.39008 -64.51715,19.42348 -0.10732,0.24298 0.47815,0.85954 0.20608,0.76656 -3.35774,-1.14812 -23.82605,97.40866 -44.3928,138.93725 -5.27028,10.64191 -33.21231,2.72348 -42.36022,7.40885 -5.75319,2.94668 -3.60272,21.65405 2.69799,23.4704 13.68945,3.94641 43.12429,1.44162 57.29846,-4.60044 2.72125,-0.24606 4.85408,-1.09964 5.68849,-2.73123 19.9145,-38.93967 16.88664,-107.66794 43.37538,-142.78467 6.55354,-8.68821 21.64821,-12.63421 53.97389,-21.20541 7.5784,-2.00945 5.41678,-20.13945 -2.53991,-19.5291 -3.2681,0.25069 -6.41266,0.53535 -9.43021,0.84431 z"
         inkscape:connector-curvature="0"
         style="fill:#756d69;fill-rule:nonzero;stroke:#000000;stroke-width:9.37177753;stroke-linecap:round;stroke-linejoin:round;stroke-miterlimit:4;stroke-dashoffset:0" />
      <path
         stroke-miterlimit="4"
         id="path1305"
         d="m 334.85663,207.24022 c 0,28.65872 -22.11072,51.91792 -49.35422,51.91792 -27.24353,0 -49.35423,-23.2592 -49.35423,-51.91792 0,-28.65872 22.1107,-51.91794 49.35423,-51.91794 27.2435,0 49.35422,23.25922 49.35422,51.91794 z"
         inkscape:connector-curvature="0"
         style="fill:#ffffff;fill-rule:nonzero;stroke:#000000;stroke-width:9.37177753;stroke-linecap:round;stroke-linejoin:round;stroke-miterlimit:4;stroke-dashoffset:0" />
      <path
         stroke-miterlimit="4"
         id="path1325"
         d="m 382.85165,222.41231 c 0,21.33922 -16.46356,38.65803 -36.74908,38.65803 -20.28549,0 -36.74908,-17.31881 -36.74908,-38.65803 0,-21.33924 16.46359,-38.65802 36.74908,-38.65802 20.28552,0 36.74908,17.31879 36.74908,38.65802 z"
         inkscape:connector-curvature="0"
         style="fill:#ffffff;fill-rule:nonzero;stroke:#000000;stroke-width:9.37177753;stroke-linecap:round;stroke-linejoin:round;stroke-miterlimit:4;stroke-dashoffset:0" />
      <path
         stroke-miterlimit="4"
         id="path2055"
         d="m 373.21225,242.75543 c 0,8.38384 -6.46829,15.18808 -14.43814,15.18808 -7.96979,0 -14.43805,-6.80424 -14.43805,-15.18808 0,-8.38383 6.46826,-15.18808 14.43805,-15.18808 7.96985,0 14.43814,6.80425 14.43814,15.18808 z"
         inkscape:connector-curvature="0"
         style="fill:#000000;fill-rule:nonzero;stroke:#000000;stroke-width:2.94561005;stroke-linecap:round;stroke-linejoin:round;stroke-miterlimit:4;stroke-dashoffset:0" />
      <path
         stroke-miterlimit="4"
         id="path2057"
         d="m 285.23651,182.51549 c 0,11.02132 -8.50314,19.96615 -18.98019,19.96615 -10.47708,0 -18.98023,-8.94483 -18.98023,-19.96615 0,-11.02132 8.50315,-19.96614 18.98023,-19.96614 10.47705,0 18.98019,8.94482 18.98019,19.96614 z"
         inkscape:connector-curvature="0"
         style="fill:#000000;fill-rule:nonzero;stroke:#000000;stroke-width:3.87227893;stroke-linecap:round;stroke-linejoin:round;stroke-miterlimit:4;stroke-dashoffset:0" />
    </g>
  </g>
</svg>
