<?xml version="1.0" encoding="UTF-8" standalone="no"?>
<svg
   xmlns:dc="http://purl.org/dc/elements/1.1/"
   xmlns:cc="http://creativecommons.org/ns#"
   xmlns:rdf="http://www.w3.org/1999/02/22-rdf-syntax-ns#"
   xmlns:svg="http://www.w3.org/2000/svg"
   xmlns="http://www.w3.org/2000/svg"
   xmlns:sodipodi="http://sodipodi.sourceforge.net/DTD/sodipodi-0.dtd"
   xmlns:inkscape="http://www.inkscape.org/namespaces/inkscape"
   width="100"
   height="90"
   id="svg4284"
   version="1.1"
   inkscape:version="0.48.2 r9819"
   sodipodi:docname="dark_bee_tile.png">
  <defs
     id="defs4337" />
  <sodipodi:namedview
     pagecolor="#ffffff"
     bordercolor="#666666"
     borderopacity="1"
     objecttolerance="10"
     gridtolerance="10"
     guidetolerance="10"
     inkscape:pageopacity="0"
     inkscape:pageshadow="2"
     inkscape:window-width="1440"
     inkscape:window-height="852"
     id="namedview4335"
     showgrid="false"
     inkscape:zoom="6"
     inkscape:cx="18.479118"
     inkscape:cy="49.973527"
     inkscape:window-x="0"
     inkscape:window-y="0"
     inkscape:window-maximized="1"
     inkscape:current-layer="svg4284" />
  <metadata
     id="metadata6402">image/svg+xml<rdf:RDF>
  <cc:Work
     rdf:about="">
    <dc:format>image/svg+xml</dc:format>
    <dc:type
       rdf:resource="http://purl.org/dc/dcmitype/StillImage" />
    <dc:title></dc:title>
  </cc:Work>
</rdf:RDF>
</metadata>
  <path
     sodipodi:type="star"
     style="fill:#53676c;fill-opacity:1;fill-rule:evenodd;stroke:#000000;stroke-width:0.99972092999999995;stroke-linecap:butt;stroke-linejoin:miter;stroke-miterlimit:4;stroke-opacity:1;stroke-dasharray:none"
     id="path4855"
     sodipodi:sides="6"
     sodipodi:cx="0.2463847"
     sodipodi:cy="0.40273485"
     sodipodi:r1="53.542633"
     sodipodi:r2="46.369282"
     sodipodi:arg1="0.52542457"
     sodipodi:arg2="1.0490233"
     inkscape:flatsided="true"
     inkscape:rounded="0"
     inkscape:randomized="0"
     d="M 46.566709,27.258667 0.14862691,53.945279 -46.171697,27.089346 -46.07394,-26.453198 0.34414248,-53.139809 46.664467,-26.283876 z"
     transform="matrix(0,-0.95956551,0.92466043,0,49.792926,45.469758)" />
  <g
     id="g4857"
     transform="matrix(0.92265336,0.43485356,-0.45106682,0.95705393,28.42847,-29.244625)">
    <g
       transform="matrix(0.20866008,0,0,0.20901862,-16.708003,5.5088275)"
       id="g4287">
      <title
         id="title4289">Layer 1</title>
      <g
         id="layer1">
        <g
           style="opacity:0.6;fill:#000000"
           id="g6306">
          <path
             style="fill:#000000;stroke:#000000;stroke-width:4.3997612;stroke-linejoin:round;stroke-miterlimit:4;stroke-dashoffset:0"
             inkscape:connector-curvature="0"
             id="path6279"
             d="m 323.99768,166.9118 c -24.27569,3.4e-4 -42.79822,16.34896 -54.11426,35.30689 -11.31506,18.95758 -17.80977,42.25989 -17.80977,67.89749 -3.3e-4,25.6376 6.49404,49.61887 17.80977,68.57648 11.31638,18.95724 29.83789,35.3067 54.11426,35.3067 24.276,3.4e-4 43.48319,-16.34912 54.79926,-35.3067 11.3157,-18.95761 17.12475,-42.93888 17.12475,-68.57648 3.4e-4,-25.6376 -5.80939,-48.93991 -17.12475,-67.89749 C 367.4812,183.26076 348.27338,166.9118 323.99768,166.9118 z m 0,24.44327 c 30.62991,0 55.48425,37.62146 55.48425,83.51395 0,45.89245 -24.85501,82.83493 -55.48425,82.83493 -30.62958,3.3e-4 -55.48425,-36.94248 -55.48425,-82.83493 0,-45.89249 24.85467,-83.51395 55.48425,-83.51395 z"
             stroke-miterlimit="4" />
          <path
             style="fill:#000000;stroke:#000000;stroke-width:3;stroke-linejoin:round;stroke-miterlimit:4;stroke-dashoffset:0"
             inkscape:connector-curvature="0"
             id="path5951"
             d="m 324.22812,209.03726 c -29.04956,0 -54.80728,15.50006 -70.53798,39.74724 -0.85625,7.60429 -1.2459,15.52956 -1.38269,23.55425 15.53404,-22.29511 41.80785,-36.80323 71.92067,-36.80323 29.79239,0 55.99698,14.16732 71.45978,36.06757 -0.13913,-7.52509 -0.64118,-14.9285 -1.38303,-22.0826 -15.57751,-24.42785 -40.89941,-40.48323 -70.07675,-40.48323 z"
             stroke-miterlimit="4" />
          <path
             style="fill:#000000;stroke:#000000;stroke-width:3;stroke-linejoin:round;stroke-miterlimit:4;stroke-dashoffset:0"
             inkscape:connector-curvature="0"
             id="path5956"
             d="m 311.84546,305.42752 c -18.03855,2.33331 -34.2392,10.5314 -47.77008,21.59854 1.65594,3.25299 3.05569,6.96814 5.02838,9.96851 1.67871,2.55377 3.86413,5.06677 5.86624,7.47632 14.3176,-7.38749 30.8035,-11.62976 48.60892,-11.62976 17.80475,0 34.27594,4.24261 48.60824,11.62976 2.00211,-2.40955 4.18723,-4.92255 5.86658,-7.47632 2.0416,-3.10514 4.18887,-6.59381 5.86624,-9.96851 -16.39798,-13.62158 -37.4407,-21.59854 -60.34106,-21.59854 -4.12702,0 -7.74662,-0.51587 -11.73346,0 z"
             stroke-miterlimit="4" />
          <path
             style="fill:#000000;stroke:#000000;stroke-width:3;stroke-linejoin:round;stroke-miterlimit:4;stroke-dashoffset:0"
             inkscape:connector-curvature="0"
             id="path5958"
             d="m 323.73746,255.99927 c -27.45615,0 -47.83866,12.8508 -66.28858,31.41519 1.04923,7.70178 -1.50409,13.89313 0.91846,20.91992 17.78635,-13.48303 40.45926,-21.59891 65.37012,-21.59891 24.91086,0 47.66571,8.11588 65.37011,21.59891 2.34562,-7.02679 0.61408,-13.21814 1.60343,-20.91992 -18.34454,-18.69336 -39.35217,-31.41519 -66.97354,-31.41519 z"
             stroke-miterlimit="4" />
          <path
             style="fill:#000000;stroke:#000000;stroke-width:3;stroke-linejoin:round;stroke-miterlimit:4;stroke-dashoffset:0"
             inkscape:connector-curvature="0"
             id="path5883"
             d="m 324.25855,93.998917 c -35.02216,0 -63.68506,24.097973 -63.68473,54.329603 0,18.51898 10.75986,35.0791 27.14444,45.01609 3.32562,-7.84736 17.2348,-13.97072 34.45221,-13.97072 18.44727,0 33.67023,6.84047 35.49677,15.52293 17.89569,-9.69528 29.75427,-26.94681 29.75427,-46.5683 0,-30.23162 -28.14081,-54.329602 -63.16297,-54.329602 z m -40.19434,31.563053 c 5.93176,0 10.44006,8.11389 10.44006,18.10988 -3.3e-4,9.99597 -4.5083,18.10952 -10.44006,18.10952 -5.9325,3.4e-4 -10.96222,-8.11355 -10.96222,-18.10952 0,-9.99599 5.0304,-18.10988 10.96222,-18.10988 z m 79.86694,0 c 5.93213,0 10.96219,8.11389 10.96219,18.10988 0,9.99597 -5.03039,18.10952 -10.96219,18.10952 -5.93213,3.4e-4 -10.44006,-8.11355 -10.44006,-18.10952 0,-9.99599 4.50793,-18.10988 10.44006,-18.10988 z"
             stroke-miterlimit="4" />
          <g
             style="fill:#000000"
             id="g6140">
            <path
               style="fill:#000000;stroke:#000000;stroke-width:4.97061491;stroke-linejoin:round;stroke-miterlimit:4;stroke-dashoffset:0"
               inkscape:connector-curvature="0"
               id="path6132"
               d="m 189.23453,126.70683 c 21.45982,1.50447 53.91125,10.4355 90.82968,31.56287 3.44238,1.97012 6.16693,4.19943 9.39609,6.20891 -3.55613,3.01013 -6.50495,6.43564 -9.39609,9.83111 -2.13159,-1.33288 -4.03571,-2.8637 -6.26428,-4.1394 -21.95786,-12.56584 -44.30692,-19.72714 -62.64112,-21.21416 -18.3338,-1.48701 -32.62985,2.63697 -38.62857,12.93537 -11.99707,20.59761 19.27909,50.50106 63.19518,75.63356 2.96315,1.69592 8.28462,5.09222 11.2801,6.56463 -0.41168,0.4616 -8.89108,6.27623 -9.22418,6.79907 -2.97871,-1.61599 -5.78964,-2.89169 -8.87433,-4.65696 -36.91803,-21.12737 -61.55871,-44.42157 -73.60283,-62.09099 -12.04452,-17.66901 -14.12048,-32.14737 -7.83039,-42.94631 6.2901,-10.79853 20.30091,-15.99215 41.76074,-14.4877 z m 69.42715,131.9432 c 0.25946,1.01162 0.32288,2.05975 0.52219,3.10464 -0.33801,-0.14725 -0.7059,-0.36832 -1.04434,-0.51758 0.36993,-0.86642 0.37649,-1.62777 0.52215,-2.58706 z"
               stroke-miterlimit="4" />
            <path
               style="fill:#000000;stroke:#000000;stroke-width:1.88431203;stroke-linejoin:round;stroke-miterlimit:4;stroke-dashoffset:0"
               inkscape:connector-curvature="0"
               id="path6134"
               d="m 263.41354,233.44247 c -0.64084,2.39766 -1.88281,4.64319 -2.36773,7.09601 -0.17066,0.0669 0.0417,0.58612 -0.12891,0.65305 -46.79004,18.41293 -75.00482,43.90643 -64.36432,61.82367 8.89354,14.97528 41.75664,20.34411 82.70957,16.40265 0.65927,0.88427 0.68792,1.91861 1.38031,2.79028 0.97229,1.225 2.09149,2.40698 3.1477,3.62182 -21.77002,3.23893 -41.65475,4.61725 -57.7489,3.89969 -28.70625,-1.28054 -48.27098,-7.59207 -55.12907,-19.1394 -6.85769,-11.5477 0.46528,-25.9628 19.63716,-40.73648 15.6526,-12.06122 40.49461,-25.24281 72.86419,-36.41129 z"
               stroke-miterlimit="4" />
          </g>
          <g
             style="fill:#000000"
             id="g6144">
            <path
               style="fill:#000000;stroke:#000000;stroke-width:4.97061491;stroke-linejoin:round;stroke-miterlimit:4;stroke-dashoffset:0"
               inkscape:connector-curvature="0"
               d="m 458.7565,126.70683 c -21.45981,1.50447 -53.91122,10.4355 -90.82968,31.56287 -3.44235,1.97012 -6.16693,4.19943 -9.39606,6.20891 3.55609,3.01013 6.50495,6.43564 9.39606,9.83111 2.13159,-1.33288 4.03571,-2.8637 6.26431,-4.1394 21.95786,-12.56584 44.30689,-19.72714 62.64109,-21.21416 18.3338,-1.48701 32.62985,2.63697 38.6286,12.93537 11.99704,20.59761 -19.27912,50.50106 -63.19519,75.63356 -2.96317,1.69592 -8.28464,5.09222 -11.28013,6.56463 0.41169,0.4616 8.89112,6.27623 9.22422,6.79907 2.9787,-1.61599 5.78961,-2.89169 8.8743,-4.65696 36.91806,-21.12737 61.55871,-44.42157 73.60284,-62.09099 12.04453,-17.66901 14.12048,-32.14737 7.83038,-42.94631 -6.2901,-10.79853 -20.3009,-15.99215 -41.76074,-14.4877 z m -69.42716,131.9432 c -0.25946,1.01162 -0.32287,2.05975 -0.52215,3.10464 0.33801,-0.14725 0.70587,-0.36832 1.04431,-0.51758 -0.36993,-0.86642 -0.37646,-1.62777 -0.52216,-2.58706 z"
               id="path6146"
               stroke-miterlimit="4" />
            <path
               style="fill:#000000;stroke:#000000;stroke-width:1.88431203;stroke-linejoin:round;stroke-miterlimit:4;stroke-dashoffset:0"
               inkscape:connector-curvature="0"
               d="m 384.57751,233.44247 c 0.64081,2.39766 1.88282,4.64319 2.36774,7.09601 0.17063,0.0669 -0.0417,0.58612 0.12891,0.65305 46.79001,18.41293 75.00479,43.90643 64.36429,61.82367 -8.89353,14.97528 -41.75663,20.34411 -82.70957,16.40265 -0.65924,0.88427 -0.6879,1.91861 -1.38031,2.79028 -0.97229,1.225 -2.09149,2.40698 -3.1477,3.62182 21.77002,3.23893 41.65475,4.61725 57.7489,3.89969 28.70627,-1.28054 48.27099,-7.59207 55.12909,-19.1394 6.85766,-11.5477 -0.46527,-25.9628 -19.63718,-40.73648 -15.65259,-12.06122 -40.4946,-25.24281 -72.86417,-36.41129 z"
               id="path6148"
               stroke-miterlimit="4" />
          </g>
        </g>
      </g>
      <g
         id="svg_1">
        <g
           style="opacity:0.6;fill:#000000"
           id="svg_2">
          <path
             style="fill:#000000;stroke:#000000;stroke-width:4.3997612;stroke-linejoin:round;stroke-miterlimit:4;stroke-dashoffset:0"
             inkscape:connector-curvature="0"
             d="m 323.99768,166.9118 c -24.27569,3.4e-4 -42.79822,16.34896 -54.11426,35.30689 -11.31506,18.95758 -17.80975,42.25989 -17.80975,67.89749 -3.7e-4,25.6376 6.49402,49.61887 17.80975,68.57648 11.31638,18.95724 29.83789,35.3067 54.11426,35.3067 24.276,3.4e-4 43.48319,-16.34912 54.79926,-35.3067 11.3157,-18.95761 17.12475,-42.93888 17.12475,-68.57648 3.4e-4,-25.6376 -5.80939,-48.93991 -17.12475,-67.89749 C 367.4812,183.26076 348.27338,166.9118 323.99768,166.9118 z m 0,24.44327 c 30.62991,0 55.48425,37.62146 55.48425,83.51395 0,45.89245 -24.85501,82.83493 -55.48425,82.83493 -30.62958,3.3e-4 -55.48425,-36.94248 -55.48425,-82.83493 0,-45.89249 24.85467,-83.51395 55.48425,-83.51395 z"
             stroke-miterlimit="4"
             id="svg_3" />
          <path
             style="fill:#000000;stroke:#000000;stroke-width:3;stroke-linejoin:round;stroke-miterlimit:4;stroke-dashoffset:0"
             inkscape:connector-curvature="0"
             d="m 324.22812,209.03726 c -29.04956,0 -54.80728,15.50006 -70.538,39.74722 -0.85623,7.60431 -1.24588,15.52958 -1.38269,23.55427 15.53406,-22.29511 41.80787,-36.80323 71.92069,-36.80323 29.79239,0 55.99698,14.1673 71.45978,36.06757 -0.13913,-7.52509 -0.64118,-14.9285 -1.38303,-22.08258 -15.57751,-24.42788 -40.89941,-40.48325 -70.07675,-40.48325 z"
             stroke-miterlimit="4"
             id="svg_4" />
          <path
             style="fill:#000000;stroke:#000000;stroke-width:3;stroke-linejoin:round;stroke-miterlimit:4;stroke-dashoffset:0"
             inkscape:connector-curvature="0"
             d="m 311.84546,305.42752 c -18.03855,2.33331 -34.2392,10.5314 -47.77008,21.59854 1.65594,3.25299 3.05569,6.96814 5.02838,9.96851 1.67871,2.55377 3.86413,5.06677 5.86624,7.47632 14.3176,-7.38749 30.8035,-11.62976 48.60892,-11.62976 17.80475,0 34.27594,4.24261 48.60824,11.62976 2.00211,-2.40955 4.18723,-4.92255 5.86658,-7.47632 2.0416,-3.10514 4.18887,-6.59381 5.86624,-9.96851 -16.39798,-13.62158 -37.4407,-21.59854 -60.34106,-21.59854 -4.12702,0 -7.74662,-0.51587 -11.73346,0 z"
             stroke-miterlimit="4"
             id="svg_5" />
          <path
             style="fill:#000000;stroke:#000000;stroke-width:3;stroke-linejoin:round;stroke-miterlimit:4;stroke-dashoffset:0"
             inkscape:connector-curvature="0"
             d="m 323.73746,255.99927 c -27.45615,0 -47.83866,12.8508 -66.28858,31.41519 1.04923,7.70178 -1.50409,13.89313 0.91846,20.91992 17.78635,-13.48303 40.45926,-21.59891 65.37012,-21.59891 24.91086,0 47.66571,8.11588 65.37011,21.59891 2.34562,-7.02679 0.61408,-13.21814 1.60343,-20.91992 -18.34454,-18.69336 -39.35217,-31.41519 -66.97354,-31.41519 z"
             stroke-miterlimit="4"
             id="svg_6" />
          <path
             style="fill:#000000;stroke:#000000;stroke-width:3;stroke-linejoin:round;stroke-miterlimit:4;stroke-dashoffset:0"
             inkscape:connector-curvature="0"
             d="m 324.25855,93.998917 c -35.02216,0 -63.68506,24.097973 -63.68473,54.329603 0,18.51898 10.75986,35.0791 27.14444,45.01609 3.32562,-7.84736 17.2348,-13.97072 34.45221,-13.97072 18.44727,0 33.67023,6.84047 35.49677,15.52293 17.89569,-9.69528 29.75427,-26.94681 29.75427,-46.5683 0,-30.23162 -28.14081,-54.329602 -63.16297,-54.329602 z m -40.19434,31.563063 c 5.93176,0 10.44006,8.11388 10.44006,18.10986 -3.3e-4,9.99598 -4.5083,18.10953 -10.44006,18.10953 -5.9325,3.4e-4 -10.96222,-8.11355 -10.96222,-18.10953 0,-9.99598 5.0304,-18.10986 10.96222,-18.10986 z m 79.86694,0 c 5.93213,0 10.96219,8.11388 10.96219,18.10986 0,9.99598 -5.03039,18.10953 -10.96219,18.10953 -5.93213,3.4e-4 -10.44006,-8.11355 -10.44006,-18.10953 0,-9.99598 4.50793,-18.10986 10.44006,-18.10986 z"
             stroke-miterlimit="4"
             id="svg_7" />
          <g
             style="fill:#000000"
             id="svg_8">
            <path
               style="fill:#000000;stroke:#000000;stroke-width:4.97061491;stroke-linejoin:round;stroke-miterlimit:4;stroke-dashoffset:0"
               inkscape:connector-curvature="0"
               d="m 189.23453,126.70683 c 21.45982,1.50447 53.91125,10.4355 90.82968,31.56287 3.44238,1.97012 6.16693,4.19943 9.39609,6.20891 -3.55613,3.01013 -6.50495,6.43564 -9.39609,9.83111 -2.13159,-1.33288 -4.03571,-2.8637 -6.26428,-4.1394 -21.95786,-12.56584 -44.30692,-19.72714 -62.64112,-21.21416 -18.3338,-1.48701 -32.62985,2.63697 -38.62857,12.93537 -11.99707,20.59761 19.27909,50.50106 63.19518,75.63356 2.96315,1.69592 8.28462,5.09222 11.2801,6.56463 -0.41168,0.46161 -8.89108,6.27625 -9.22418,6.79907 -2.97871,-1.61599 -5.78964,-2.89169 -8.87433,-4.65698 -36.91803,-21.12735 -61.55871,-44.42155 -73.60283,-62.09097 -12.04452,-17.66901 -14.12048,-32.14737 -7.83039,-42.94631 6.2901,-10.79853 20.30091,-15.99215 41.76074,-14.4877 z m 69.42715,131.9432 c 0.25946,1.01162 0.32288,2.05975 0.52219,3.10464 -0.33801,-0.14725 -0.7059,-0.36832 -1.04434,-0.51758 0.36993,-0.86642 0.37649,-1.62777 0.52215,-2.58706 z"
               stroke-miterlimit="4"
               id="svg_9" />
            <path
               style="fill:#000000;stroke:#000000;stroke-width:1.88431203;stroke-linejoin:round;stroke-miterlimit:4;stroke-dashoffset:0"
               inkscape:connector-curvature="0"
               d="m 263.41354,233.44247 c -0.64084,2.39766 -1.88281,4.64319 -2.36773,7.09601 -0.17066,0.0669 0.0417,0.58612 -0.12891,0.65305 -46.79004,18.41293 -75.00482,43.90643 -64.36432,61.82367 8.89354,14.97528 41.75662,20.34411 82.70957,16.40265 0.65927,0.88427 0.68792,1.91861 1.38031,2.79028 0.97229,1.225 2.09149,2.40698 3.1477,3.62182 -21.77002,3.23893 -41.65475,4.61725 -57.7489,3.89969 -28.70625,-1.28054 -48.27098,-7.59207 -55.12907,-19.1394 -6.85769,-11.5477 0.46528,-25.9628 19.63716,-40.73648 15.6526,-12.06122 40.49461,-25.2428 72.86419,-36.41129 z"
               stroke-miterlimit="4"
               id="svg_10" />
          </g>
          <g
             style="fill:#000000"
             id="svg_11">
            <path
               style="fill:#000000;stroke:#000000;stroke-width:4.97061491;stroke-linejoin:round;stroke-miterlimit:4;stroke-dashoffset:0"
               inkscape:connector-curvature="0"
               d="m 458.7565,126.70683 c -21.45981,1.50447 -53.91122,10.4355 -90.82968,31.56287 -3.44235,1.97012 -6.16693,4.19943 -9.39606,6.20891 3.55609,3.01013 6.50495,6.43564 9.39606,9.83111 2.13159,-1.33288 4.03571,-2.8637 6.26431,-4.1394 21.95786,-12.56584 44.30689,-19.72714 62.64109,-21.21416 18.3338,-1.48701 32.62985,2.63697 38.6286,12.93537 11.99704,20.59761 -19.27912,50.50106 -63.19519,75.63356 -2.96317,1.69592 -8.28464,5.09222 -11.28013,6.56463 0.41169,0.46161 8.89112,6.27625 9.22422,6.79907 2.9787,-1.61599 5.78961,-2.89169 8.8743,-4.65698 36.91806,-21.12735 61.55871,-44.42155 73.60287,-62.09097 12.0445,-17.66901 14.12048,-32.14737 7.83032,-42.94631 -6.29004,-10.79853 -20.30087,-15.99215 -41.76071,-14.4877 z m -69.42716,131.9432 c -0.25946,1.01162 -0.32287,2.05975 -0.52215,3.10464 0.33801,-0.14725 0.70587,-0.36832 1.04431,-0.51758 -0.36993,-0.86642 -0.37646,-1.62777 -0.52216,-2.58706 z"
               stroke-miterlimit="4"
               id="svg_12" />
            <path
               style="fill:#000000;stroke:#000000;stroke-width:1.88431203;stroke-linejoin:round;stroke-miterlimit:4;stroke-dashoffset:0"
               inkscape:connector-curvature="0"
               d="m 384.57751,233.44247 c 0.64081,2.39766 1.88282,4.64319 2.36774,7.09601 0.17063,0.0669 -0.0417,0.58612 0.12891,0.65305 46.79001,18.41293 75.00479,43.90643 64.36429,61.82367 -8.89353,14.97528 -41.75663,20.34411 -82.70957,16.40265 -0.65924,0.88427 -0.6879,1.91861 -1.38031,2.79028 -0.97229,1.225 -2.09149,2.40698 -3.1477,3.62182 21.77002,3.23893 41.65475,4.61725 57.7489,3.89969 28.70627,-1.28054 48.27099,-7.59207 55.12909,-19.1394 6.85766,-11.5477 -0.46527,-25.9628 -19.63718,-40.73648 -15.65259,-12.06122 -40.4946,-25.2428 -72.86417,-36.41129 z"
               stroke-miterlimit="4"
               id="svg_13" />
          </g>
        </g>
      </g>
      <path
         style="fill:#000000;stroke:#000000;stroke-width:5"
         inkscape:connector-curvature="0"
         d="m 300.25,370 21,35.5 28.5,-36 -26.5,11.25 0.5,-6 2.75,0.5"
         id="svg_14" />
      <path
         style="fill:none;stroke:#000000;stroke-width:5"
         inkscape:connector-curvature="0"
         id="svg_15"
         d="m 324,375.25 c 0.25,0 0.5,0 0.75,0 0.25,0 0.5,0 0.75,0 0.5,0 1,0 1.5,0 0.5,0 0.75,0 1,0 0.25,0 0.25,-0.25 0,-0.25 -0.25,0 -0.25,0.25 -0.5,0.25 -0.25,0 -0.5,0 -0.75,0 -0.25,0 -0.57321,0.0732 -0.75,0.25 -0.17679,0.17679 -0.32321,0.0732 -0.5,0.25 -0.17679,0.17679 -0.42679,0.32321 -0.25,0.5 0.17679,0.17679 0.5,0 0.75,0 0.25,0 0.57321,0.17679 0.75,0 0.17679,-0.17679 0.25,-0.25 0.5,-0.25 0.5,0 0.75,0 1.25,0 0.25,0 0.5,0 0.75,0 0.25,0 0.5,0 0.25,0 -0.25,0 -0.53805,-0.19135 -1,0 -0.32663,0.13528 -0.5,0.25 -0.75,0.25 -0.25,0 -0.5,0 -0.75,0 -0.25,0 -0.5,0 -0.75,0 -0.25,0 -0.5,0 -0.25,0 0.25,0 0.32321,0.0732 0.5,0.25 0.17679,0.17679 0.25,0.25 0.25,0.5 0,0.25 0,0.5 0.25,0.5 0.25,0 0.5,0 0.5,0.25 l 0.25,0 0.25,0" />
      <path
         style="fill:none;stroke:#000000;stroke-width:5"
         inkscape:connector-curvature="0"
         id="svg_16"
         d="m 300.5,370.25 c -0.25,0 -0.5,0 -0.5,-0.25 0,-0.25 0,-0.5 0,-0.75 0,-0.25 -0.25,-0.25 -0.25,-0.5 0,-0.25 0,-0.5 0,-0.75 0,-0.25 0,-0.5 0,-0.75 0,-0.25 0.25,-0.25 0.5,-0.25 0.25,0 0.5,0 0.75,0 0.25,0 0.57321,-0.17679 0.75,0 0.17679,0.17679 0,0.5 0.25,0.75 l 0,0.25 0.25,0" />
      <path
         style="fill:none;stroke:#000000;stroke-width:5"
         inkscape:connector-curvature="0"
         id="svg_17"
         d="m 349.5,369.75 c 0.25,0 0.25,-0.25 0.5,-0.25 0.25,0 0.32321,-0.0732 0.5,-0.25 0.17679,-0.17679 0,-0.5 0,-0.75 0,-0.25 0,-0.5 0,-0.75 0,-0.25 0.25,-0.25 0.25,-0.5 l 0,-0.25 0.25,0" />
      <path
         style="fill:none;stroke:#000000;stroke-width:5"
         inkscape:connector-curvature="0"
         id="svg_18"
         d="m 299,367.75 c -0.25,0 -0.25,-0.25 -0.5,-0.25 -0.25,0 0,0 0.25,0 0.25,0 0.5,0 0.75,0 l 0.25,0 0.25,0 0,0.25" />
      <g
         id="svg_19">
        <g
           style="opacity:0.6;fill:#000000"
           id="svg_20">
          <path
             style="fill:#000000;stroke:#000000;stroke-width:4.3997612;stroke-linejoin:round;stroke-miterlimit:4;stroke-dashoffset:0"
             inkscape:connector-curvature="0"
             d="m 323.99768,166.9118 c -24.27569,3.4e-4 -42.79822,16.34896 -54.11426,35.30689 -11.31506,18.95758 -17.80975,42.25989 -17.80975,67.89749 -3.7e-4,25.6376 6.49402,49.61887 17.80975,68.57648 11.31638,18.95724 29.83789,35.3067 54.11426,35.3067 24.276,3.4e-4 43.48319,-16.34912 54.79926,-35.3067 11.3157,-18.95761 17.12475,-42.93888 17.12475,-68.57648 3.4e-4,-25.6376 -5.80939,-48.93991 -17.12475,-67.89749 C 367.4812,183.26076 348.27338,166.9118 323.99768,166.9118 z m 0,24.44327 c 30.62991,0 55.48425,37.62146 55.48425,83.51395 0,45.89245 -24.85501,82.83493 -55.48425,82.83493 -30.62958,3.3e-4 -55.48425,-36.94248 -55.48425,-82.83493 0,-45.89249 24.85467,-83.51395 55.48425,-83.51395 z"
             stroke-miterlimit="4"
             id="svg_21" />
          <path
             style="fill:#000000;stroke:#000000;stroke-width:3;stroke-linejoin:round;stroke-miterlimit:4;stroke-dashoffset:0"
             inkscape:connector-curvature="0"
             d="m 324.22812,209.03726 c -29.04956,0 -54.80728,15.50006 -70.538,39.74722 -0.85623,7.60431 -1.24588,15.52958 -1.38269,23.55427 15.53406,-22.29511 41.80787,-36.80323 71.92069,-36.80323 29.79239,0 55.99698,14.1673 71.45978,36.06757 -0.13913,-7.52509 -0.64118,-14.9285 -1.38303,-22.08258 -15.57751,-24.42788 -40.89941,-40.48325 -70.07675,-40.48325 z"
             stroke-miterlimit="4"
             id="svg_22" />
          <path
             style="fill:#000000;stroke:#000000;stroke-width:3;stroke-linejoin:round;stroke-miterlimit:4;stroke-dashoffset:0"
             inkscape:connector-curvature="0"
             d="m 311.84546,305.42752 c -18.03855,2.33331 -34.2392,10.5314 -47.77008,21.59854 1.65594,3.25299 3.05569,6.96814 5.02838,9.96851 1.67871,2.55377 3.86413,5.06677 5.86624,7.47632 14.3176,-7.38749 30.8035,-11.62976 48.60892,-11.62976 17.80475,0 34.27594,4.24261 48.60824,11.62976 2.00211,-2.40955 4.18723,-4.92255 5.86658,-7.47632 2.0416,-3.10514 4.18887,-6.59381 5.86624,-9.96851 -16.39798,-13.62158 -37.4407,-21.59854 -60.34106,-21.59854 -4.12702,0 -7.74662,-0.51587 -11.73346,0 z"
             stroke-miterlimit="4"
             id="svg_23" />
          <path
             style="fill:#000000;stroke:#000000;stroke-width:3;stroke-linejoin:round;stroke-miterlimit:4;stroke-dashoffset:0"
             inkscape:connector-curvature="0"
             d="m 323.73746,255.99927 c -27.45615,0 -47.83866,12.8508 -66.28858,31.41519 1.04923,7.70178 -1.50409,13.89313 0.91846,20.91992 17.78635,-13.48303 40.45926,-21.59891 65.37012,-21.59891 24.91086,0 47.66571,8.11588 65.37011,21.59891 2.34562,-7.02679 0.61408,-13.21814 1.60343,-20.91992 -18.34454,-18.69336 -39.35217,-31.41519 -66.97354,-31.41519 z"
             stroke-miterlimit="4"
             id="svg_24" />
          <path
             style="fill:#000000;stroke:#000000;stroke-width:3;stroke-linejoin:round;stroke-miterlimit:4;stroke-dashoffset:0"
             inkscape:connector-curvature="0"
             d="m 324.25855,93.998917 c -35.02216,0 -63.68506,24.097973 -63.68473,54.329603 0,18.51898 10.75986,35.0791 27.14444,45.01609 3.32562,-7.84736 17.2348,-13.97072 34.45221,-13.97072 18.44727,0 33.67023,6.84047 35.49677,15.52293 17.89569,-9.69528 29.75427,-26.94681 29.75427,-46.5683 0,-30.23162 -28.14081,-54.329602 -63.16297,-54.329602 z m -40.19434,31.563063 c 5.93176,0 10.44006,8.11388 10.44006,18.10986 -3.3e-4,9.99598 -4.5083,18.10953 -10.44006,18.10953 -5.9325,3.4e-4 -10.96222,-8.11355 -10.96222,-18.10953 0,-9.99598 5.0304,-18.10986 10.96222,-18.10986 z m 79.86694,0 c 5.93213,0 10.96219,8.11388 10.96219,18.10986 0,9.99598 -5.03039,18.10953 -10.96219,18.10953 -5.93213,3.4e-4 -10.44006,-8.11355 -10.44006,-18.10953 0,-9.99598 4.50793,-18.10986 10.44006,-18.10986 z"
             stroke-miterlimit="4"
             id="svg_25" />
          <g
             style="fill:#000000"
             id="svg_26">
            <path
               style="fill:#000000;stroke:#000000;stroke-width:4.97061491;stroke-linejoin:round;stroke-miterlimit:4;stroke-dashoffset:0"
               inkscape:connector-curvature="0"
               d="m 189.23453,126.70683 c 21.45982,1.50447 53.91125,10.4355 90.82968,31.56287 3.44238,1.97012 6.16693,4.19943 9.39609,6.20891 -3.55613,3.01013 -6.50495,6.43564 -9.39609,9.83111 -2.13159,-1.33288 -4.03571,-2.8637 -6.26428,-4.1394 -21.95786,-12.56584 -44.30692,-19.72714 -62.64112,-21.21416 -18.3338,-1.48701 -32.62985,2.63697 -38.62857,12.93537 -11.99707,20.59761 19.27909,50.50106 63.19518,75.63356 2.96315,1.69592 8.28462,5.09222 11.2801,6.56463 -0.41168,0.46161 -8.89108,6.27625 -9.22418,6.79907 -2.97871,-1.61599 -5.78964,-2.89169 -8.87433,-4.65698 -36.91803,-21.12735 -61.55871,-44.42155 -73.60283,-62.09097 -12.04452,-17.66901 -14.12048,-32.14737 -7.83039,-42.94631 6.2901,-10.79853 20.30091,-15.99215 41.76074,-14.4877 z m 69.42715,131.9432 c 0.25946,1.01162 0.32288,2.05975 0.52219,3.10464 -0.33801,-0.14725 -0.7059,-0.36832 -1.04434,-0.51758 0.36993,-0.86642 0.37649,-1.62777 0.52215,-2.58706 z"
               stroke-miterlimit="4"
               id="svg_27" />
            <path
               style="fill:#000000;stroke:#000000;stroke-width:1.88431203;stroke-linejoin:round;stroke-miterlimit:4;stroke-dashoffset:0"
               inkscape:connector-curvature="0"
               d="m 263.41354,233.44247 c -0.64084,2.39766 -1.88281,4.64319 -2.36773,7.09601 -0.17066,0.0669 0.0417,0.58612 -0.12891,0.65305 -46.79004,18.41293 -75.00482,43.90643 -64.36432,61.82367 8.89354,14.97528 41.75662,20.34411 82.70957,16.40265 0.65927,0.88427 0.68792,1.91861 1.38031,2.79028 0.97229,1.225 2.09149,2.40698 3.1477,3.62182 -21.77002,3.23893 -41.65475,4.61725 -57.7489,3.89969 -28.70625,-1.28054 -48.27098,-7.59207 -55.12907,-19.1394 -6.85769,-11.5477 0.46528,-25.9628 19.63716,-40.73648 15.6526,-12.06122 40.49461,-25.2428 72.86419,-36.41129 z"
               stroke-miterlimit="4"
               id="svg_28" />
          </g>
          <g
             style="fill:#000000"
             id="svg_29">
            <path
               style="fill:#000000;stroke:#000000;stroke-width:4.97061491;stroke-linejoin:round;stroke-miterlimit:4;stroke-dashoffset:0"
               inkscape:connector-curvature="0"
               d="m 458.7565,126.70683 c -21.45981,1.50447 -53.91122,10.4355 -90.82968,31.56287 -3.44235,1.97012 -6.16693,4.19943 -9.39606,6.20891 3.55609,3.01013 6.50495,6.43564 9.39606,9.83111 2.13159,-1.33288 4.03571,-2.8637 6.26431,-4.1394 21.95786,-12.56584 44.30689,-19.72714 62.64109,-21.21416 18.3338,-1.48701 32.62985,2.63697 38.6286,12.93537 11.99704,20.59761 -19.27912,50.50106 -63.19519,75.63356 -2.96317,1.69592 -8.28464,5.09222 -11.28013,6.56463 0.41169,0.46161 8.89112,6.27625 9.22422,6.79907 2.9787,-1.61599 5.78961,-2.89169 8.8743,-4.65698 36.91806,-21.12735 61.55871,-44.42155 73.60287,-62.09097 12.0445,-17.66901 14.12048,-32.14737 7.83032,-42.94631 -6.29004,-10.79853 -20.30087,-15.99215 -41.76071,-14.4877 z m -69.42716,131.9432 c -0.25946,1.01162 -0.32287,2.05975 -0.52215,3.10464 0.33801,-0.14725 0.70587,-0.36832 1.04431,-0.51758 -0.36993,-0.86642 -0.37646,-1.62777 -0.52216,-2.58706 z"
               stroke-miterlimit="4"
               id="svg_30" />
            <path
               style="fill:#000000;stroke:#000000;stroke-width:1.88431203;stroke-linejoin:round;stroke-miterlimit:4;stroke-dashoffset:0"
               inkscape:connector-curvature="0"
               d="m 384.57751,233.44247 c 0.64081,2.39766 1.88282,4.64319 2.36774,7.09601 0.17063,0.0669 -0.0417,0.58612 0.12891,0.65305 46.79001,18.41293 75.00479,43.90643 64.36429,61.82367 -8.89353,14.97528 -41.75663,20.34411 -82.70957,16.40265 -0.65924,0.88427 -0.6879,1.91861 -1.38031,2.79028 -0.97229,1.225 -2.09149,2.40698 -3.1477,3.62182 21.77002,3.23893 41.65475,4.61725 57.7489,3.89969 28.70627,-1.28054 48.27099,-7.59207 55.12909,-19.1394 6.85766,-11.5477 -0.46527,-25.9628 -19.63718,-40.73648 -15.65259,-12.06122 -40.4946,-25.2428 -72.86417,-36.41129 z"
               stroke-miterlimit="4"
               id="svg_31" />
          </g>
        </g>
      </g>
    </g>
  </g>
  <path
     style="fill:#ffff00;fill-opacity:0.88888891;fill-rule:evenodd;stroke:#000000;stroke-width:0.09447574;stroke-linejoin:miter;stroke-miterlimit:4;stroke-opacity:1;stroke-dasharray:none"
     d="m 37.06413,47.788111 c 0.227467,-0.475218 1.417664,-2.49723 1.741716,-2.959099 0.37407,-0.53316 0.399345,-0.549864 0.998147,-0.659691 3.732282,-0.68454 8.020554,-0.01953 11.400016,1.76789 3.107415,1.643529 5.742446,4.150487 7.307018,6.951874 0.303146,0.542786 0.303955,0.55203 0.107673,1.229729 -0.271719,0.938156 -0.808114,2.449143 -1.056602,2.976375 l -0.20594,0.436953 -0.433087,-0.799512 c -1.310903,-2.420024 -3.103023,-4.488055 -5.269088,-6.080306 -0.720102,-0.529341 -1.115498,-0.747765 -2.775464,-1.533237 -1.703435,-0.805995 -2.058203,-0.946136 -2.956186,-1.167439 -2.597851,-0.640221 -5.061148,-0.714761 -7.628762,-0.230846 -1.305619,0.246068 -1.315276,0.246597 -1.229441,0.06731 z"
     id="path7279"
     inkscape:connector-curvature="0" />
  <path
     style="fill:#ffff00;fill-opacity:0.88888891;fill-rule:evenodd;stroke:#000000;stroke-width:0.09447574;stroke-linejoin:miter;stroke-miterlimit:4;stroke-opacity:1;stroke-dasharray:none"
     d="m 45.742553,38.016727 c 0.05067,-0.107494 1.125299,-0.643287 1.979947,-0.987162 2.521712,-1.014636 4.900313,-1.05865 6.876532,-0.127243 0.921267,0.4342 1.465147,0.823543 2.127445,1.522956 1.138262,1.202053 2.091308,3.052538 2.512832,4.879052 0.300033,1.300081 0.288602,1.312365 -0.43926,0.47201 -0.754313,-0.870895 -1.996095,-1.992432 -3.003632,-2.712783 -1.124544,-0.804005 -3.893652,-2.080695 -5.277813,-2.433322 -1.324242,-0.337359 -2.639317,-0.526855 -3.840867,-0.55345 -0.524449,-0.01161 -0.94528,-0.03864 -0.935182,-0.06006 z"
     id="path7281"
     inkscape:connector-curvature="0" />
  <path
     style="fill:#ffff00;fill-opacity:0.88888891;fill-rule:evenodd;stroke:#000000;stroke-width:0.09447574;stroke-linejoin:miter;stroke-miterlimit:4;stroke-opacity:1;stroke-dasharray:none"
     d="m 34.514031,56.029372 c 0.140094,-0.966289 0.394106,-2.28538 0.441457,-2.292501 0.254792,-0.03832 1.881095,-0.03579 2.533258,0.004 5.671103,0.345442 11.105525,2.90429 14.97306,7.050158 0.321876,0.345046 0.833223,0.942246 1.136331,1.327114 0.532846,0.676578 0.545891,0.708191 0.393759,0.954328 -0.175693,0.284276 -0.843477,1.066092 -1.542359,1.805766 l -0.461507,0.4884 -0.925424,-1.106669 C 49.042335,61.844026 47.235878,60.462024 43.807795,58.709786 42.447983,58.014735 42.126319,57.881081 41.220612,57.63482 39.349424,57.126045 37.085238,56.896319 35.119106,57.015756 l -0.754715,0.04584 0.149657,-1.032243 0,0 z"
     id="path7283"
     inkscape:connector-curvature="0" />
  <path
     style="fill:#ffff00;fill-opacity:0.88888891;fill-rule:evenodd;stroke:#000000;stroke-width:0.09447574;stroke-linejoin:miter;stroke-miterlimit:4;stroke-opacity:1;stroke-dasharray:none"
     d="m 38.241021,68.565683 c -1.243108,-0.882471 -2.567407,-2.798559 -3.120463,-4.514909 -0.14674,-0.45539 -0.254801,-0.853437 -0.240137,-0.884549 0.01467,-0.03112 0.126279,-0.03138 0.248026,-5.79e-4 0.121753,0.03079 0.632183,0.130552 1.134292,0.221681 2.333646,0.423547 5.510511,1.702923 7.542605,3.037531 0.912934,0.599584 2.46017,1.795163 2.89924,2.240299 l 0.250593,0.254057 -0.682069,0.275514 c -1.287389,0.520024 -2.795246,0.776886 -4.181887,0.712376 -1.429032,-0.06648 -2.656805,-0.494243 -3.8502,-1.341421 l 0,0 z"
     id="path7285"
     inkscape:connector-curvature="0" />
  <path
     style="fill:#ffff00;fill-opacity:0.88888891;fill-rule:evenodd;stroke:#000000;stroke-width:0.09447574;stroke-linejoin:miter;stroke-miterlimit:4;stroke-opacity:1;stroke-dasharray:none"
     d="m 55.617967,68.107226 c -0.01,-0.02391 0.06267,-0.115763 0.161261,-0.204167 0.641359,-0.574576 2.376997,-2.776075 3.377804,-4.284442 1.48666,-2.240619 3.04559,-5.359622 3.962579,-7.928061 0.289405,-0.81063 0.554122,-1.482266 0.588244,-1.492531 0.08898,-0.02678 1.121364,1.268468 1.286177,1.613639 0.216997,0.454462 0.443019,0.761226 0.623559,0.846317 0.222869,0.105039 1.655497,2.260295 2.429952,3.655637 0.733645,1.321813 1.663856,3.588291 1.913968,4.663422 0.214026,0.92 0.273265,2.228284 0.132152,2.918499 -0.05832,0.285173 -0.254701,0.78177 -0.445821,1.127255 -1.207517,2.182837 -4.553713,2.546021 -9.378002,1.017858 -0.96825,-0.306707 -4.603714,-1.81769 -4.651881,-1.93343 l 0,0 z"
     id="path7287"
     inkscape:connector-curvature="0" />
  <path
     style="fill:#ffff00;fill-opacity:0.88888891;fill-rule:evenodd;stroke:#000000;stroke-width:0.09447574;stroke-linejoin:miter;stroke-miterlimit:4;stroke-opacity:1;stroke-dasharray:none"
     d="m 64.996549,52.544671 -0.688015,-0.750529 0.225585,-1.242737 c 0.635948,-3.503449 0.617937,-7.075101 -0.04947,-9.808938 l -0.186036,-0.762039 0.806586,-0.334364 c 1.205308,-0.499654 1.967698,-0.93321 2.91316,-1.65665 0.468419,-0.358422 0.90525,-0.688657 0.970736,-0.733856 0.15065,-0.103978 2.191874,-0.119898 3.662913,-0.02857 6.870001,0.426538 11.964391,2.699442 13.254683,5.913683 1.226298,3.054828 -1.392689,5.828081 -7.404569,7.840712 -2.658741,0.890083 -6.385259,1.605672 -11.017403,2.115633 l -1.800159,0.198181 -0.688013,-0.75053 0,0 z"
     id="path7289"
     inkscape:connector-curvature="0" />
  <path
     style="fill:#ffff00;fill-opacity:0.88888891;fill-rule:evenodd;stroke:#000000;stroke-width:0.09447574;stroke-linejoin:miter;stroke-miterlimit:4;stroke-opacity:1;stroke-dasharray:none"
     d="m 34.033621,37.394218 c -3.3756,-5.170868 -5.197112,-8.760816 -6.23017,-12.278807 -0.893126,-3.041469 -0.832669,-5.504457 0.169425,-6.902283 0.551448,-0.769219 1.147626,-1.182182 2.13584,-1.479465 3.593886,-1.081145 9.138414,2.047493 14.103866,7.958455 1.018747,1.212737 1.096882,1.333404 1.076209,1.662047 -0.07423,1.18011 0.231422,3.185986 0.674151,4.424149 l 0.245755,0.68729 -0.866937,0.456383 c -2.665603,1.403254 -5.534609,3.768877 -7.636065,6.29627 l -0.600946,0.722751 -0.48126,-0.03155 c -0.264692,-0.01735 -0.747071,-0.0458 -1.071953,-0.06322 l -0.590695,-0.03167 -0.92722,-1.420348 0,0 z"
     id="path7291"
     inkscape:connector-curvature="0" />
  <path
     style="fill:#ffff00;fill-opacity:0.88888891;fill-rule:evenodd;stroke:#000000;stroke-width:0.09447574;stroke-linejoin:miter;stroke-miterlimit:4;stroke-opacity:1;stroke-dasharray:none"
     d="m 28.105648,55.111865 c -3.62866,-1.85101 -6.09653,-3.811425 -7.251639,-5.760524 -0.921412,-1.554764 -1.013241,-2.838032 -0.293713,-4.1045 1.170612,-2.06044 4.812776,-3.572789 9.95211,-4.132455 0.858307,-0.09347 1.735009,-0.134079 1.948225,-0.09024 0.213218,0.04383 0.593979,0.03025 0.846141,-0.0302 0.252162,-0.06044 0.902584,-0.115589 1.445382,-0.122551 l 0.986905,-0.01266 -0.192788,0.247678 c -0.468167,0.601444 -1.777942,2.927508 -2.442964,4.338522 -1.102504,2.339246 -1.910858,4.704497 -2.463996,7.209677 -0.218843,0.991148 -0.514442,2.789419 -0.530795,3.229085 -0.0034,0.09023 -0.0629,0.147793 -0.138847,0.134498 -0.07313,-0.01282 -0.911944,-0.420679 -1.864014,-0.906332 l 0,0 z"
     id="path7293"
     inkscape:connector-curvature="0" />
  <path
     style="fill:#ffffff;fill-opacity:1;fill-rule:evenodd;stroke:#000000;stroke-width:0.16666667;stroke-linejoin:miter;stroke-miterlimit:4;stroke-opacity:1;stroke-dasharray:none"
     d="m 50.350544,26.010931 c -0.197179,-0.330619 -0.503676,-0.826125 -0.681105,-1.101125 -0.300454,-0.465677 -0.306217,-0.562548 -0.08395,-1.411182 0.476966,-1.821097 1.989691,-3.505484 3.148227,-3.505484 0.608199,0 0.858426,0.231828 1.078508,0.999211 0.349721,1.219407 -0.651682,3.867533 -1.850604,4.893766 -0.956724,0.81892 -1.186499,0.836721 -1.611077,0.124814 l 0,0 z"
     id="path7400"
     inkscape:connector-curvature="0" />
  <path
     style="fill:#ffffff;fill-opacity:1;fill-rule:evenodd;stroke:#000000;stroke-width:0.16666667;stroke-linejoin:miter;stroke-miterlimit:4;stroke-opacity:1;stroke-dasharray:none"
     d="m 64.886302,32.751205 c -0.329552,-1.756661 1.038719,-4.537744 2.639908,-5.365751 1.634662,-0.845317 2.371479,1.59308 1.202675,3.980089 -0.70154,1.432731 -1.109772,1.733721 -2.53216,1.866964 l -1.199059,0.112322 -0.111364,-0.593624 0,0 z"
     id="path7402"
     inkscape:connector-curvature="0" />
</svg>
