<?xml version="1.0" encoding="UTF-8" standalone="no"?>
<!-- Created with Inkscape (http://www.inkscape.org/) -->

<svg
   xmlns:dc="http://purl.org/dc/elements/1.1/"
   xmlns:cc="http://creativecommons.org/ns#"
   xmlns:rdf="http://www.w3.org/1999/02/22-rdf-syntax-ns#"
   xmlns:svg="http://www.w3.org/2000/svg"
   xmlns="http://www.w3.org/2000/svg"
   xmlns:sodipodi="http://sodipodi.sourceforge.net/DTD/sodipodi-0.dtd"
   xmlns:inkscape="http://www.inkscape.org/namespaces/inkscape"
   id="svg6763"
   version="1.1"
   inkscape:version="0.48.2 r9819"
   width="100"
   height="90"
   xml:space="preserve"
   sodipodi:docname="dark_beetle_tile.svg"><metadata
     id="metadata6769"><rdf:RDF><cc:Work
         rdf:about=""><dc:format>image/svg+xml</dc:format><dc:type
           rdf:resource="http://purl.org/dc/dcmitype/StillImage" /><dc:title></dc:title></cc:Work></rdf:RDF></metadata><defs
     id="defs6767"><clipPath
       clipPathUnits="userSpaceOnUse"
       id="clipPath6779"><path
         d="m 0,2962.8 2136.8,0 L 2136.8,0 0,0 0,2962.8 z"
         id="path6781"
         inkscape:connector-curvature="0" /></clipPath></defs><sodipodi:namedview
     pagecolor="#ffffff"
     bordercolor="#666666"
     borderopacity="1"
     objecttolerance="10"
     gridtolerance="10"
     guidetolerance="10"
     inkscape:pageopacity="0"
     inkscape:pageshadow="2"
     inkscape:window-width="1440"
     inkscape:window-height="852"
     id="namedview6765"
     showgrid="false"
     inkscape:zoom="6.1580177"
     inkscape:cx="0.66447321"
     inkscape:cy="40.695936"
     inkscape:window-x="0"
     inkscape:window-y="0"
     inkscape:window-maximized="1"
     inkscape:current-layer="g6771" /><g
     id="g6771"
     inkscape:groupmode="layer"
     inkscape:label="beetle-vector-image"
     transform="matrix(1.25,0,0,-1.25,0,89.999976)"><path
       sodipodi:type="star"
       style="fill:#53676c;fill-opacity:1;fill-rule:evenodd;stroke:#000000;stroke-width:7.85497045999999877;stroke-linecap:butt;stroke-linejoin:miter;stroke-miterlimit:4;stroke-opacity:1;stroke-dasharray:none"
       id="path5937"
       sodipodi:sides="6"
       sodipodi:cx="61.08849"
       sodipodi:cy="103.85044"
       sodipodi:r1="403.18402"
       sodipodi:r2="349.1676"
       sodipodi:arg1="0"
       sodipodi:arg2="0.52359878"
       inkscape:flatsided="true"
       inkscape:rounded="0"
       inkscape:randomized="0"
       d="m 464.27251,103.85044 -201.59201,349.16761 -403.18402,0 -201.59201,-349.16761 201.59201,-349.1676 403.18402,0 z"
       transform="matrix(0.0982353,0,0,-0.10197654,34.009089,46.607873)" /><g
       id="g6773"
       transform="matrix(0.02440781,-0.01421795,0.01215994,0.02087485,-7.0526597,18.927101)"><g
         id="g6775"><g
           id="g6777"
           clip-path="url(#clipPath6779)"><path
             d="m 1085.68,1643.53 c 94.92,41.25 183.12,137.85 445.36,147.9 141.64,5.42 97.7,377.95 -448.47,392.41 -546.175,-14.46 -586.5,-381.56 -444.863,-386.99 262.25,-10.04 353.063,-112.07 447.973,-153.32 m 24.14,-783.413 c 21.7,-61.039 95.85,-186.262 170.64,-121.519 440.53,381.402 362.94,1030.042 228.99,1020.852 -184.44,-12.65 -412.21,-138.01 -408.66,-192.26 17.75,-271.86 -12.66,-646.038 9.03,-707.073 m -43.52,707.073 c 3.54,54.25 -224.222,179.61 -408.671,192.26 -133.945,9.19 -211.551,-639.45 229.004,-1020.852 74.777,-64.743 148.917,60.48 170.617,121.519 21.7,61.035 -8.71,435.213 9.05,707.073 m 173.72,786.64 c 31.65,37.97 130.13,101.92 44.15,170.88 -39.63,31.79 -20.98,3.94 -10.69,-9.94 49.62,-66.91 -85,-89.24 -92.22,-127.04 32.99,-6.6 51.08,-33 58.76,-33.9 m -252.395,33.9 c -7.234,37.8 -141.832,60.13 -92.223,127.04 10.293,13.88 28.93,41.73 -10.691,9.94 -85.981,-68.96 12.5,-132.91 44.144,-170.88 7.692,0.9 25.77,27.3 58.77,33.9 m 96.335,-182.64 c 93.49,6.78 203.06,-41.18 195.71,4.75 -11.3,70.65 -15.36,172.05 -186.25,179.95 -170.885,7.89 -197.065,-105.46 -208.365,-176.11 -7.356,-45.93 105.449,-1.81 198.925,-8.59 l -0.02,0 z m 3.13,-1488.735 c 103.98,0 26.68,80.02 -2.84,131.559 -29.71,-51.539 -112.895,-131.559 2.84,-131.559 m 546.97,695.315 c 40.37,-9.49 59.68,-52.9 70.53,-88.16 8.21,-26.69 26.08,-48.47 35.26,0 27.63,145.91 -17.05,221.05 -92.23,261.76 -32.55,17.63 -18.99,-135.63 -13.56,-173.6 M 1284.14,332.07 c 145.55,112.883 294.31,326.868 318.27,408.696 -24.4,4.527 -61.48,-43.399 -127.48,-10.852 -3.62,-31.644 8.14,-80.476 -60.58,-84.09 21.7,-23.508 44.3,-112.715 -51.54,-109.25 2.71,-30.894 47.48,-78.363 -44.75,-89.219 4.74,-19.66 6.85,-60.48 -45.38,-97.101 -52.21,-36.621 -8.54,-33.699 11.46,-18.184 m 328.22,816.48 c -10.05,-48.25 -119.35,-198.011 -96.29,-324.152 7.83,-42.878 31.2,-109.851 93.57,-27.125 62.4,82.735 76.86,245.487 55.61,359.417 -4.63,24.89 -39.32,56.96 -52.89,-8.14 m -3.18,623.89 c -35.72,-53.35 -6.31,-51.54 14.03,-81.38 16.61,-24.35 28.95,-72.95 85.44,-31.19 202.76,149.87 147.01,393.76 81.37,458.42 -61.02,60.13 -225.13,-29.06 -167.41,-136.7 33.45,-62.38 22.3,-155.8 -13.43,-209.15 m -43.35,759.51 c 16.24,0 42.17,2.72 39.05,-32.01 -3.75,-41.81 -39.99,-53.13 -41.34,-75.13 12.78,4.96 44.46,5.87 39.78,-20.8 -5.3,-30.17 -38.18,-46.72 -56.05,-84.31 104.42,-12.89 -39.21,-144.5 -59.68,-49.51 -22.38,-109.18 82.84,-131.46 120.25,-183.09 6.32,33.45 77.76,41.59 84.54,69.17 -133.36,105.33 74.59,363.93 -139.69,528.94 -19.41,14.95 -38.93,4.94 -18.99,-12.88 57.64,-51.54 38.04,-126.14 32.13,-140.38 M 522.883,1585.27 c -75.172,-40.71 -119.86,-115.85 -92.235,-261.76 9.188,-48.47 27.059,-26.69 35.266,0 10.848,35.26 30.156,78.67 70.531,88.16 5.422,37.97 18.989,191.23 -13.562,173.6 M 897.82,350.254 c -52.218,36.621 -50.113,77.441 -45.371,97.101 -92.219,10.856 -47.465,58.325 -44.75,89.219 -95.844,-3.465 -73.238,85.742 -51.535,109.25 -68.726,3.614 -56.969,52.446 -60.586,84.09 -66,-32.547 -103.074,15.379 -127.492,10.852 23.961,-81.828 172.734,-295.813 318.277,-408.696 20.008,-15.515 63.672,-18.437 11.457,18.184 M 505.25,1156.69 c -21.246,-113.93 -6.789,-276.682 55.605,-359.417 62.391,-82.726 85.75,-15.753 93.579,27.125 23.062,126.141 -86.239,275.902 -96.289,324.152 -13.563,65.1 -48.254,33.03 -52.895,8.14 m 42.648,824.9 c 57.715,107.64 -106.398,196.83 -167.425,136.7 -65.625,-64.66 -121.387,-308.55 81.379,-458.42 56.488,-41.76 68.839,6.84 85.445,31.19 20.336,29.84 49.754,28.03 14.023,81.38 -35.722,53.35 -46.879,146.77 -13.422,209.15 m 56.786,550.36 c -16.246,0 -42.184,2.72 -39.059,-32.01 3.754,-41.81 39.988,-53.13 41.34,-75.13 -12.777,4.96 -44.465,5.87 -39.777,-20.8 5.296,-30.17 38.179,-46.72 56.058,-84.31 -104.433,-12.89 39.211,-144.5 59.672,-49.51 22.379,-109.18 -82.844,-131.46 -120.25,-183.09 -6.332,33.45 -77.77,41.59 -84.543,69.17 133.363,105.33 -74.598,363.93 139.691,528.94 19.414,14.95 38.934,4.94 18.989,-12.88 -57.637,-51.54 -38.028,-126.14 -32.121,-140.38"
             style="fill:#231f20;fill-opacity:1;fill-rule:nonzero;stroke:none"
             id="path6783"
             inkscape:connector-curvature="0" /><path
             d="m 1085.17,1752.06 c 66.31,28.82 127.94,96.32 311.16,103.33 98.96,3.79 68.25,264.06 -313.34,274.17 -381.588,-10.11 -409.767,-266.58 -310.802,-270.38 183.222,-7.01 246.672,-78.3 312.982,-107.12 m 55.58,-205.96 c 3.86,-217.85 7.36,-437.74 10.41,-653.655 8.79,-11.406 21.99,-26.406 38.69,-39.179 0.53,240.774 -1.64,484.654 -6.46,725.224 -17.14,-11.7 -31.44,-22.57 -42.64,-32.39 m 195.31,118.03 c -13.75,-6.27 -28.12,-13.25 -42.81,-20.83 7.6,-266.8 6.88,-537.75 -2.15,-805.491 4.23,2.371 8.36,5.156 12.34,8.332 8.58,6.851 17.44,14.332 27.03,22.832 12.57,264.267 14.45,531.737 5.59,795.157 m 159.39,-58.14 c -14.85,33.31 -31.43,59.12 -47.45,74.08 9.22,-226.3 7.04,-456.23 -6.48,-684.007 17.51,26.377 33.02,54.047 46.21,82.487 64.11,169.88 67.06,367.18 7.72,527.44 m -235.79,19.28 c -14.7,-8.2 -29.02,-16.59 -42.7,-25.04 5.55,-253.84 7.08,-511.33 4.53,-765.39 11.15,-4.492 22.19,-6.758 32.83,-6.758 l 0.01,0 c 1.6,0 3.21,0.055 4.8,0.156 7.2,264.712 7.38,532.762 0.53,797.032 m 153.35,68.46 c -0.26,-0.06 -0.53,-0.13 -0.78,-0.21 -13.44,-4.06 -27.37,-8.97 -42.47,-14.97 9.4,-257.49 7.51,-519.03 -5.64,-777.683 14.77,15.024 28.81,30.703 41.86,46.774 14.94,248.379 17.31,499.359 7.03,746.089 M 700.082,1653 c -16.621,-24.76 -32.359,-59.15 -45.117,-98.86 -45.602,-147.18 -34.258,-334.99 28.93,-478.44 14.613,-31.06 31.894,-61.06 51.472,-89.364 C 710.375,1208 698.516,1432.08 700.082,1653 m 113.41,18.27 c -1.527,-270.16 12.203,-544.13 40.844,-814.461 4.711,-3.95 9.469,-7.875 14.355,-11.739 8.375,-6.613 17.25,-11.437 26.481,-14.382 -25.207,272.382 -37.981,548.472 -37.984,820.802 -15.063,7.3 -29.711,13.93 -43.696,19.78 m 155.77,-82.37 c 2.613,-240.78 11.172,-484.76 25.461,-725.541 13.267,12.289 25.977,27.434 36.537,43.594 -9,215.967 -15.15,435.177 -18.3,651.607 -12.26,9.43 -26.933,19.61 -43.698,30.34 m -190.008,95.6 c -7.875,2.76 -15.492,5.24 -22.699,7.38 -6.692,1.98 -13.86,0.94 -21.492,-3.08 -3.145,-249.28 9.929,-502.44 38.878,-752.527 14.125,-16.589 29.141,-32.566 44.789,-47.628 -28.558,264.375 -41.835,532.005 -39.476,795.855 m 155.73,-74.64 c 2.098,-255.34 11.946,-514.07 29.254,-769.09 -12.484,-7.032 -24.898,-11.36 -36.996,-12.887 -22.937,267.497 -34.988,538.657 -35.855,806.257 14.625,-7.75 29.25,-15.88 43.597,-24.28"
             style="fill:#b5b9bf;fill-opacity:1;fill-rule:nonzero;stroke:none"
             id="path6785"
             inkscape:connector-curvature="0" /></g></g></g><path
       style="fill:#800080;fill-opacity:0;fill-rule:evenodd;stroke:#000000;stroke-width:0.13348576;stroke-linejoin:miter;stroke-miterlimit:4;stroke-opacity:1;stroke-dasharray:none"
       d="m 38.039403,39.955373 c -2.055525,3.06067 -3.783984,4.807716 -6.976355,7.051368 -1.056252,0.742352 -1.267201,0.94332 -1.446966,1.378505 -0.38824,0.939876 0.115886,2.042275 1.321276,2.889298 0.717185,0.503962 3.040884,1.094864 4.295657,1.092357 3.100547,-0.0062 6.789046,-1.171486 10.502933,-3.318141 5.061026,-2.925322 8.261036,-6.415465 9.216409,-10.052058 0.418518,-1.593075 0.352527,-2.427602 -0.27749,-3.509146 -0.441669,-0.758209 -0.528681,-0.841849 -1.023357,-0.983748 -0.714166,-0.20486 -1.082191,-0.104979 -2.987071,0.810678 -3.044224,1.463328 -4.875131,1.951444 -8.644241,2.304538 -1.285392,0.120417 -2.419009,0.266665 -2.519146,0.324998 -0.100141,0.05833 -0.757879,0.963439 -1.461649,2.011351 z m 4.645909,-0.15091 c 2.294891,-0.233548 3.997934,-0.691424 5.896656,-1.58536 0.76122,-0.358388 1.510743,-0.656188 1.665608,-0.661777 0.494097,-0.01783 0.925212,0.271975 1.260281,0.847183 0.660483,1.133846 0.402381,2.844013 -0.689131,4.566126 -3.356826,5.296173 -12.37496,9.03342 -16.020951,6.639321 -1.533283,-1.006814 -1.494975,-2.334161 0.09423,-3.265015 0.690216,-0.404202 2.268118,-1.733886 2.993852,-2.522724 0.352592,-0.38325 1.119399,-1.387119 1.704015,-2.23082 0.584617,-0.843702 1.082816,-1.546395 1.107111,-1.561542 0.02431,-0.01511 0.919043,-0.116573 1.988327,-0.225392 l 0,0 z"
       id="path6466"
       inkscape:connector-curvature="0" /><path
       style="fill:#800080;fill-opacity:0;fill-rule:evenodd;stroke:#000000;stroke-width:0.13348576;stroke-linejoin:miter;stroke-miterlimit:4;stroke-opacity:1;stroke-dasharray:none"
       d="m 38.019968,40.178576 c -2.279681,3.169105 -3.457226,4.373948 -6.533464,6.684921 -1.552853,1.166556 -1.81228,1.471283 -1.849157,2.172054 -0.02924,0.555744 0.590028,1.536578 1.290486,2.043932 0.684344,0.495681 3.010346,1.107539 4.298287,1.130669 2.005623,0.03602 4.537879,-0.548595 7.200998,-1.662474 2.290162,-0.957886 6.187675,-3.384131 7.846908,-4.884787 2.58913,-2.34168 4.048945,-4.584688 4.624867,-7.106118 0.26865,-1.176175 0.17162,-2.017837 -0.33375,-2.895019 -0.5255,-0.912125 -0.710252,-1.059732 -1.347215,-1.076367 -0.415283,-0.01084 -1.00683,0.191105 -2.602691,0.888549 -3.314576,1.448576 -4.559036,1.782502 -8.327295,2.234463 -1.235555,0.148191 -2.365201,0.297371 -2.510325,0.331511 -0.168257,0.03958 -0.805117,0.814501 -1.757649,2.138666 z m 4.453158,-0.482418 c 2.409988,-0.290477 3.740332,-0.635365 5.95076,-1.542718 1.582805,-0.649722 1.862385,-0.726212 2.26519,-0.619737 0.393525,0.104022 0.519444,0.224931 0.876777,0.841893 0.329986,0.569749 0.416872,0.867517 0.415412,1.42369 -0.0049,1.875358 -1.245399,3.993068 -3.586589,6.122951 -1.373313,1.249364 -4.36154,3.020236 -6.143873,3.640956 -3.872923,1.348804 -6.896523,1.132288 -8.310721,-0.59512 -0.44398,-0.542314 -0.495762,-1.213852 -0.137171,-1.778983 0.143217,-0.225711 0.702592,-0.725326 1.24305,-1.110254 1.918639,-1.366502 3.17636,-2.721395 5.078145,-5.470479 0.25369,-0.366717 0.46851,-0.671663 0.477377,-0.677658 0.0088,-0.006 0.851106,-0.111542 1.871639,-0.234547 z"
       id="path6468"
       inkscape:connector-curvature="0" /><path
       style="fill:#800080;fill-opacity:0.88888891;fill-rule:evenodd;stroke:#000000;stroke-width:0.13348576;stroke-linejoin:miter;stroke-miterlimit:4;stroke-opacity:1;stroke-dasharray:none"
       d="m 53.505646,29.780966 c -0.09973,0.127871 -0.213319,0.51919 -0.252426,0.8696 -0.03911,0.350411 -0.148131,0.843432 -0.242277,1.095603 -0.09415,0.25217 -0.120425,0.545546 -0.05839,0.651946 0.06203,0.106398 0.505947,0.404118 0.986487,0.661598 1.171601,0.627758 1.644984,1.111526 2.254117,2.303566 0.393476,0.769993 0.512341,1.160516 0.547055,1.79719 0.08306,1.52352 1.017196,2.239605 2.761977,2.117275 1.20112,-0.08422 2.280867,-0.624106 2.675219,-1.33766 0.294713,-0.533268 0.376672,-1.546043 0.214861,-2.655038 -0.09946,-0.681693 -0.239251,-1.008166 -0.958505,-2.238597 -0.755764,-1.292921 -0.915473,-1.49544 -1.558603,-1.976553 -1.33865,-1.001434 -3.226609,-1.6497 -4.843458,-1.663088 -0.978702,-0.0081 -1.286836,0.06745 -1.526049,0.374158 l 0,0 z"
       id="path6470"
       inkscape:connector-curvature="0" /><path
       style="fill:#800080;fill-opacity:0.88888891;fill-rule:evenodd;stroke:#000000;stroke-width:0.13348576;stroke-linejoin:miter;stroke-miterlimit:4;stroke-opacity:1;stroke-dasharray:none"
       d="m 24.616946,46.876147 c -0.244082,0.371713 -0.620393,1.288308 -0.836247,2.036877 -0.61746,2.141298 -0.419445,4.024368 0.608801,5.789548 1.134978,1.948405 3.152835,3.239599 4.494891,2.876206 1.119513,-0.303131 2.395763,-1.873535 2.519426,-3.100108 0.05554,-0.55089 0.0096,-0.735289 -0.286124,-1.146427 -0.193763,-0.269471 -0.669704,-0.722156 -1.057634,-1.005971 -0.537084,-0.39294 -0.818013,-0.708328 -1.177745,-1.32221 -0.608711,-1.038846 -0.764464,-1.639082 -0.750601,-2.893414 0.0062,-0.560993 -0.03426,-1.098149 -0.08991,-1.193681 -0.05565,-0.09553 -0.359541,-0.22937 -0.675317,-0.297417 -0.315775,-0.06805 -0.840225,-0.222495 -1.165441,-0.343215 -0.803353,-0.298203 -1.057661,-0.20191 -1.584103,0.599812 l 0,0 z"
       id="path6472"
       inkscape:connector-curvature="0" /><path
       style="fill:#800080;fill-opacity:0.88888891;fill-rule:evenodd;stroke:#000000;stroke-width:0.13348576;stroke-linejoin:miter;stroke-miterlimit:4;stroke-opacity:1;stroke-dasharray:none"
       d="m 32.140983,54.749576 c 0.0349,0.05991 -0.227395,0.555322 -0.582871,1.10092 -0.730888,1.121792 -0.780455,1.302969 -0.35223,1.287518 0.166152,-0.006 0.589522,0.150596 0.94082,0.34798 0.599965,0.337099 0.685418,0.439494 1.408111,1.687244 0.423196,0.73058 1.118101,2.028952 1.544305,2.885227 1.178445,2.367556 2.126361,3.245673 4.079264,3.778886 1.655282,0.451954 2.85246,0.215473 1.311125,-0.258986 -0.901658,-0.277553 -1.51098,-0.823129 -1.864332,-1.669296 -0.23441,-0.561349 -0.262317,-0.584903 -0.517049,-0.436519 -0.384678,0.224082 -0.669657,0.10597 -0.964161,-0.3996 -0.207556,-0.356312 -0.223211,-0.593145 -0.0816,-1.234663 0.171519,-0.777052 0.169025,-0.790178 -0.118402,-0.622747 -0.895377,0.521572 -1.212209,-0.0025 -0.885938,-1.465415 0.129382,-0.580115 0.216604,-1.086745 0.193828,-1.125846 -0.02278,-0.0391 -0.133207,-0.01983 -0.245398,0.04283 -0.631862,0.35285 -1.202127,-0.236716 -0.970928,-1.003788 0.304499,-1.010268 1.013101,-1.593262 1.712326,-1.408799 l 0.39182,0.103366 -0.372092,-0.500076 C 36.542658,55.55553 36.189029,55.272455 35.873524,55.142127 35.31609,54.911864 32.034486,54.566738 32.140992,54.749577 z"
       id="path6474"
       inkscape:connector-curvature="0" /><path
       style="fill:#800080;fill-opacity:0.88888891;fill-rule:evenodd;stroke:#000000;stroke-width:0.13348576;stroke-linejoin:miter;stroke-miterlimit:4;stroke-opacity:1;stroke-dasharray:none"
       d="m 57.573227,39.880272 c -0.0025,0.09329 -0.285066,0.761428 -0.628068,1.48474 -0.743838,1.568584 -0.860899,2.257892 -0.516223,3.039726 l 0.251451,0.570353 0.103365,-0.39182 c 0.121347,-0.459978 0.718099,-0.859072 1.328091,-0.888195 1.135346,-0.05421 1.853301,0.637473 1.302722,1.255045 -0.154167,0.172924 -0.292492,0.339548 -0.307393,0.370278 -0.0149,0.03072 0.449504,0.201438 1.032011,0.379354 1.459668,0.445828 1.764658,0.976248 0.863253,1.501332 -0.287426,0.167429 -0.277241,0.176075 0.483299,0.410187 0.627887,0.193279 0.826177,0.323723 1.033735,0.680035 0.294502,0.50557 0.256666,0.811727 -0.128013,1.035808 -0.25473,0.148385 -0.248001,0.184278 0.124659,0.665093 0.561747,0.724773 0.735752,1.523927 0.532407,2.445163 -0.350209,1.586587 0.473202,0.614085 0.891805,-1.053281 0.482892,-1.923444 0.172252,-3.195106 -1.326578,-5.430587 -0.553057,-0.824864 -1.339996,-2.069623 -1.748766,-2.766125 -0.693336,-1.181463 -0.743018,-1.315501 -0.740318,-1.999002 0.0016,-0.402952 0.07423,-0.848471 0.1614,-0.990042 0.224308,-0.364268 0.04244,-0.411121 -1.279455,-0.329606 -0.642105,0.0396 -1.226297,0.02022 -1.298207,-0.04304 -0.08963,-0.07886 -0.13214,-0.0617 -0.135174,0.05459 l 0,0 z"
       id="path6476"
       inkscape:connector-curvature="0" /><path
       style="fill:#800080;fill-opacity:0.88888891;fill-rule:evenodd;stroke:#000000;stroke-width:0.13348576;stroke-linejoin:miter;stroke-miterlimit:4;stroke-opacity:1;stroke-dasharray:none"
       d="m 48.560257,48.062872 c -1.130907,0.869948 -2.925099,1.905149 -5.896715,3.402255 -0.591192,0.297836 -1.115209,0.626415 -1.164494,0.730158 -0.206977,0.435725 1.475482,1.797169 2.5815,2.088948 1.444414,0.38105 2.658099,0.07091 4.582671,-1.171054 1.435507,-0.926367 2.075941,-1.561372 2.555928,-2.534301 0.405037,-0.821005 0.417642,-1.512894 0.05105,-2.801946 -0.412519,-1.450538 -0.458941,-1.445639 -2.709941,0.285938 l 0,0 z"
       id="path6478"
       inkscape:connector-curvature="0" /><path
       style="fill:#800080;fill-opacity:0.88888891;fill-rule:evenodd;stroke:#000000;stroke-width:0.13348576;stroke-linejoin:miter;stroke-miterlimit:4;stroke-opacity:1;stroke-dasharray:none"
       d="m 37.959207,40.472066 c -2.295681,3.03054 -3.221267,3.992999 -5.724332,5.952363 -2.046032,1.601605 -2.275405,1.83432 -2.375443,2.410053 -0.07121,0.409801 -0.01669,0.643745 0.261204,1.120794 0.525591,0.902277 1.359094,1.381312 3.124129,1.795513 2.324633,0.545521 4.552893,0.303868 7.925861,-0.859552 1.293681,-0.446224 1.834005,-0.716676 4.305882,-2.155256 4.087664,-2.37899 5.971113,-3.988579 7.670446,-6.555395 0.769933,-1.162972 1.090916,-1.871978 1.487973,-3.286723 0.370633,-1.320592 0.302707,-2.286128 -0.224778,-3.195163 -0.72346,-1.246651 -0.967116,-1.247916 -3.965199,-0.0201 -3.387167,1.387158 -4.454058,1.665384 -8.391671,2.1884 -1.157315,0.153721 -2.198249,0.335853 -2.313187,0.404737 -0.114952,0.06886 -0.916336,1.059035 -1.780885,2.20033 z m 4.83464,-0.970728 c 2.307422,-0.334966 3.460846,-0.647471 5.992718,-1.623647 1.845894,-0.711693 2.182574,-0.663193 2.804211,0.403967 0.566222,0.972028 0.629049,1.696094 0.257024,2.962139 -0.350728,1.193575 -1.463467,2.875611 -2.792546,4.221261 -0.930419,0.942022 -1.089422,1.052289 -3.741096,2.594421 -2.656054,1.544697 -2.824091,1.625173 -4.106564,1.967028 -1.659357,0.442322 -3.73405,0.612623 -4.83074,0.396536 -1.521341,-0.299762 -2.76937,-1.254299 -2.896681,-2.215485 -0.09715,-0.733503 0.162896,-1.139888 1.326895,-2.07356 1.832447,-1.469854 2.824815,-2.457157 3.987858,-3.96751 0.627851,-0.815342 1.247395,-1.658752 1.376761,-1.874247 0.129367,-0.215494 0.255901,-0.406641 0.281186,-0.424772 0.02526,-0.01817 1.078725,-0.182891 2.340974,-0.366131 l 0,0 z"
       id="path6480"
       inkscape:connector-curvature="0" /><path
       style="fill:#800080;fill-opacity:0.88888891;fill-rule:evenodd;stroke:#000000;stroke-width:0.13348576;stroke-linejoin:miter;stroke-miterlimit:4;stroke-opacity:1;stroke-dasharray:none"
       d="m 16.74892,26.613689 c -0.928422,1.716877 -0.29943,4.891096 1.526891,7.705491 0.877031,1.351529 1.357868,1.832574 1.815266,1.816069 0.382746,-0.01381 0.520699,-0.398316 0.393333,-1.096302 -0.05034,-0.2759 -0.115766,-1.370209 -0.145382,-2.431802 -0.06383,-2.287996 -0.196597,-3.188633 -0.637523,-4.324684 -0.403619,-1.039933 -1.129489,-1.876579 -1.852784,-2.135555 -0.569363,-0.203859 -0.787122,-0.111437 -1.099801,0.466783 l 0,0 z"
       id="path6482"
       inkscape:connector-curvature="0" /><path
       style="fill:#800080;fill-opacity:0.88888891;fill-rule:evenodd;stroke:#000000;stroke-width:0.13348576;stroke-linejoin:miter;stroke-miterlimit:4;stroke-opacity:1;stroke-dasharray:none"
       d="m 18.808503,13.165395 c -1.345745,2.131788 -3.1256,9.434778 -2.965657,12.168504 0.02422,0.41386 0.07096,0.759577 0.103881,0.768261 0.03292,0.0087 0.287486,-0.248529 0.565706,-0.571574 0.55316,-0.642295 1.273572,-1.125241 1.811419,-1.214325 0.329701,-0.05461 0.333888,-0.08261 0.09717,-0.64948 -0.283219,-0.678231 -0.17931,-1.243618 0.307867,-1.675114 0.316088,-0.279957 0.315977,-0.280856 -0.07133,-0.573794 -0.918656,-0.694826 -0.959701,-1.712956 -0.0975,-2.41882 0.236194,-0.193371 0.414142,-0.377853 0.395437,-0.409963 -0.01871,-0.03211 -0.211159,-0.224151 -0.427666,-0.426759 -0.589164,-0.551328 -0.581847,-0.949592 0.02815,-1.532762 0.489623,-0.468084 0.49052,-0.471967 0.240075,-1.040056 -0.210237,-0.476902 -0.213057,-0.694692 -0.01719,-1.33082 0.128806,-0.418332 0.321748,-0.964157 0.428762,-1.212946 0.229209,-0.532875 -0.03772,-0.452857 -0.39913,0.119648 z"
       id="path6484"
       inkscape:connector-curvature="0" /><path
       style="fill:#800080;fill-opacity:0.88888891;fill-rule:evenodd;stroke:#000000;stroke-width:0.13348576;stroke-linejoin:miter;stroke-miterlimit:4;stroke-opacity:1;stroke-dasharray:none"
       d="m 27.440391,7.9612394 c 0.01611,0.027666 0.463031,0.086929 0.993142,0.1316909 1.013672,0.085592 1.628524,0.3909315 1.970954,0.9787769 0.186671,0.3204557 0.250639,0.3311613 0.86869,0.1453659 0.825297,-0.2480922 1.173083,-0.062678 1.363239,0.7267761 0.06944,0.2882768 0.141556,0.5504168 0.160261,0.5825278 0.01871,0.03211 0.266959,-0.03168 0.551677,-0.141748 1.039316,-0.4017981 1.90471,0.136136 2.055951,1.277992 0.06377,0.481403 0.06449,0.481943 0.463938,0.345092 0.615663,-0.210927 1.158735,-0.02242 1.608991,0.558514 0.376329,0.485545 0.402751,0.495712 0.612892,0.235857 0.342806,-0.42391 1.118275,-0.81234 1.949853,-0.976677 0.418253,-0.08265 0.768324,-0.180097 0.777938,-0.216537 0.0097,-0.03645 -0.239732,-0.234824 -0.554095,-0.440852 C 37.641209,9.4492225 28.747429,7.1324946 27.518923,7.8481194 c -0.05931,0.034548 -0.09464,0.085452 -0.07853,0.1131179 z"
       id="path6486"
       inkscape:connector-curvature="0" /><path
       style="fill:#800080;fill-opacity:0.88888891;fill-rule:evenodd;stroke:#000000;stroke-width:0.13348576;stroke-linejoin:miter;stroke-miterlimit:4;stroke-opacity:1;stroke-dasharray:none"
       d="m 39.918319,13.28376 c -0.119119,0.685533 0.20447,1.704313 0.791833,2.493002 0.779975,1.047319 1.832583,1.85658 4.22233,3.246196 0.547453,0.318339 1.178741,0.735439 1.402863,0.926889 0.848226,0.724576 1.420259,0.46112 1.225905,-0.564599 -0.154052,-0.813017 -1.869924,-3.680096 -2.774094,-4.635287 -1.223321,-1.292346 -2.96591,-2.242368 -4.016258,-2.189581 -0.610354,0.03067 -0.753284,0.151945 -0.852575,0.723378 z"
       id="path6488"
       inkscape:connector-curvature="0" /><path
       style="fill:#800080;fill-opacity:0.88888891;fill-rule:evenodd;stroke:#000000;stroke-width:0.13348576;stroke-linejoin:miter;stroke-miterlimit:4;stroke-opacity:1;stroke-dasharray:none"
       d="m 31.417609,16.896283 c -0.454883,0.51188 -0.918948,2.397178 -0.875743,3.557751 l 0.03659,0.98282 4.300115,7.381964 4.300113,7.381963 0.609977,0.135707 c 2.306489,0.513145 7.696936,-0.472036 10.799987,-1.973849 l 1.012628,-0.490092 0.22167,-0.695316 c 0.243857,-0.764906 0.212181,-1.62226 -0.109543,-2.965031 -0.277824,-1.159554 -1.851376,-4.125711 -2.873712,-5.416979 -3.335144,-4.212465 -8.126263,-7.152192 -13.351362,-8.19211 -2.697427,-0.536853 -3.37659,-0.487938 -4.07072,0.293171 z m 2.792622,2.061456 c 0.623413,0.852148 8.938752,15.120744 9.11967,15.648709 l 0.136014,0.397005 -0.748674,0.0438 -0.748673,0.0438 -0.298738,-0.686457 c -0.164303,-0.377553 -2.227253,-3.996244 -4.584334,-8.04154 -3.330252,-5.715502 -4.261403,-7.386325 -4.17709,-7.495218 0.05968,-0.07707 0.267413,-0.23819 0.461635,-0.358035 0.35015,-0.216074 0.357246,-0.212264 0.840224,0.447913 z m 1.256172,-0.930819 0.586895,0.09964 1.201846,1.832174 c 1.318625,2.010203 8.664748,14.494135 8.622731,14.653395 -0.01438,0.0545 -0.314148,0.149297 -0.666163,0.210636 l -0.640017,0.111531 -4.062913,-6.990072 c -2.234535,-3.84458 -4.48841,-7.628556 -5.008503,-8.408897 -1.066363,-1.59996 -1.068252,-1.683978 -0.03391,-1.508384 l 0,0 z m 1.336159,9.403769 c 2.319015,4.107474 4.203073,7.518655 4.186779,7.580414 -0.0163,0.06175 -0.356895,0.103361 -0.7569,0.09244 l -0.727278,-0.01984 -0.77349,-1.480455 C 38.306256,32.789 36.61175,29.744095 34.96611,26.836795 c -1.64564,-2.907301 -3.034333,-5.411616 -3.085994,-5.56514 -0.11591,-0.344467 0.409291,-1.636421 0.585992,-1.441514 0.06603,0.07283 2.017436,3.493074 4.336451,7.600547 l 0,0 z m 3.04828,-7.270581 c 1.172305,1.714132 8.256017,13.773482 8.204749,13.967815 -0.0191,0.07242 -0.303326,0.201534 -0.631608,0.286919 l -0.596873,0.155253 -3.047018,-5.27598 c -1.675856,-2.901791 -3.859805,-6.575199 -4.853204,-8.163139 l -1.806194,-2.887154 0.862627,0.223472 0.862627,0.223471 1.004894,1.469343 0,0 z m 1.958026,-0.244487 c 1.969542,1.090767 3.592313,2.832971 5.177031,5.558049 1.787845,3.074485 2.325751,5.233012 1.890791,7.588197 -0.03956,0.214217 -0.08955,0.399777 -0.111086,0.412355 -0.02154,0.01258 -1.482905,-2.455582 -3.247478,-5.484807 -1.764573,-3.029226 -3.701051,-6.26341 -4.30328,-7.187079 l -1.094965,-1.679397 0.40266,0.151651 c 0.221461,0.0834 0.800305,0.371873 1.286318,0.641036 z"
       id="path6490"
       inkscape:connector-curvature="0" /><path
       style="fill:#800080;fill-opacity:0.88888891;fill-rule:evenodd;stroke:#000000;stroke-width:0.13348576;stroke-linejoin:miter;stroke-miterlimit:4;stroke-opacity:1;stroke-dasharray:none"
       d="m 27.181894,19.439399 c -0.114259,0.301109 -0.0892,0.384621 0.180988,0.603113 0.348677,0.281968 2.110106,1.034161 2.241918,0.957378 0.193345,-0.112626 0.322991,-2.403811 0.152573,-2.696365 -0.03615,-0.06206 -0.194806,-0.146882 -0.352563,-0.188504 -0.428399,-0.113014 -2.042363,0.848558 -2.222917,1.324376 l 0,0 z"
       id="path6492"
       inkscape:connector-curvature="0" /><path
       style="fill:#800080;fill-opacity:0.88888891;fill-rule:evenodd;stroke:#000000;stroke-width:0.13348576;stroke-linejoin:miter;stroke-miterlimit:4;stroke-opacity:1;stroke-dasharray:none"
       d="m 19.533083,39.949207 c 0.0071,0.150025 0.16216,0.671604 0.344526,1.159067 0.62781,1.678136 1.791419,2.842405 3.241818,3.243659 0.620379,0.171627 1.791097,0.237525 2.005104,0.112862 0.02804,-0.01634 0.01275,-0.226349 -0.03399,-0.466702 -0.09597,-0.493598 -0.523243,-1.265418 -1.303479,-2.35458 -0.518569,-0.723891 -0.545175,-0.741088 -1.09883,-0.710206 -0.656243,0.0366 -1.358378,-0.222458 -2.105543,-0.776869 -0.686978,-0.50975 -1.067551,-0.584887 -1.049616,-0.207228 l 0,0 z"
       id="path6494"
       inkscape:connector-curvature="0" /><path
       style="fill:#800080;fill-opacity:0.88888891;fill-rule:evenodd;stroke:#000000;stroke-width:0.13348576;stroke-linejoin:miter;stroke-miterlimit:4;stroke-opacity:1;stroke-dasharray:none"
       d="m 23.956362,21.269387 c -0.66489,0.925107 -1.84967,4.930129 -2.10114,7.102677 -0.582768,5.034752 0.51932,10.215166 2.989114,14.050456 1.429173,2.219335 2.812311,3.499656 4.22403,3.910037 l 0.766981,0.222956 0.945584,-0.652727 c 2.692663,-1.858721 6.068006,-5.793771 6.996642,-8.156844 L 38.087539,36.95718 33.72268,29.475297 29.35782,21.993413 28.64575,21.566604 c -0.391639,-0.234747 -1.156813,-0.563295 -1.700388,-0.730109 -1.446447,-0.443889 -2.464858,-0.296392 -2.989014,0.432901 z m 2.363965,5.15794 c 2.05759,4.396522 5.374842,10.815069 7.416985,14.351113 0.261649,0.453049 0.256461,0.498137 -0.1095,0.952057 -0.211284,0.262067 -0.421346,0.498152 -0.466804,0.524632 -0.300367,0.174968 -5.101261,-8.950888 -7.65137,-14.544243 -1.507453,-3.306412 -1.446566,-3.089257 -1.039111,-3.705976 0.195963,-0.296607 0.392364,-0.484352 0.451921,-0.432001 0.05794,0.05092 0.686979,1.335412 1.397879,2.854418 z m 0.07961,-3.68492 c 0.362216,-0.03632 0.399505,-0.002 0.693807,0.6386 1.182876,2.574718 4.113617,8.248558 6.346282,12.286233 l 1.984627,3.589121 -0.307958,0.478781 c -0.169377,0.26333 -0.370199,0.51504 -0.446273,0.559354 -0.301614,0.175695 -5.282876,-9.139408 -8.047802,-15.049642 -0.508102,-1.086102 -0.95356,-2.025782 -0.989906,-2.088179 -0.09038,-0.15516 0.303337,-0.367751 0.767221,-0.414265 l 0,0 z m 2.07077,0.139354 0.702266,0.194233 1.543165,2.939125 c 0.848742,1.616518 2.195141,4.123468 2.992004,5.570999 0.796858,1.447532 1.78999,3.285941 2.206953,4.085358 l 0.758114,1.453487 -0.337561,0.598913 c -0.185657,0.329401 -0.379876,0.58775 -0.431595,0.574106 -0.250688,-0.06613 -8.37054,-15.473606 -8.205401,-15.569802 0.03838,-0.02236 0.385807,0.04675 0.772054,0.153581 l 0,0 z m -4.619558,3.053165 c 0.04564,0.07962 0.383271,0.838802 0.750283,1.687075 1.41654,3.27401 3.645034,7.734019 5.749986,11.507762 2.150624,3.855634 2.186406,3.930042 1.986413,4.131783 -0.319068,0.321861 -0.809332,0.57727 -0.956996,0.498557 -0.212775,-0.113427 -4.3945,-7.891775 -5.535793,-10.297031 -0.568541,-1.198188 -1.401978,-3.026536 -1.852083,-4.062995 l -0.818372,-1.88447 0.205462,-0.809521 c 0.21156,-0.833542 0.327009,-1.022522 0.471104,-0.771156 l 0,0 z m -0.01703,5.11359 c 1.386792,3.140156 2.943594,6.279502 4.670156,9.417534 1.667082,3.029929 1.690181,3.081137 1.324439,2.936061 -0.557951,-0.221318 -2.014664,-1.240214 -2.634147,-1.84245 -1.153212,-1.121105 -1.780317,-1.989307 -2.723731,-3.770893 -1.486992,-2.808101 -2.010687,-5.187062 -1.739911,-7.903786 0.04409,-0.442391 0.136821,-0.754499 0.206061,-0.693578 0.06923,0.06092 0.472949,0.896624 0.897133,1.857112 l 0,0 z"
       id="path6496"
       inkscape:connector-curvature="0" /><path
       style="fill:#800080;fill-opacity:0.88888891;fill-rule:evenodd;stroke:#000000;stroke-width:0.13348576;stroke-linejoin:miter;stroke-miterlimit:4;stroke-opacity:1;stroke-dasharray:none"
       d="m 50.747116,21.766264 c -0.03536,0.174916 -0.02961,0.572152 0.01278,0.882746 0.113569,0.832158 -0.02016,1.605595 -0.372268,2.153015 l -0.311601,0.484448 0.622811,1.258939 c 0.611385,1.235834 1.024224,1.835031 1.397623,2.028521 0.152204,0.07887 0.25248,-0.0028 0.526625,-0.429038 0.760277,-1.182002 0.864077,-2.808922 0.268329,-4.20565 -0.31895,-0.747776 -1.452604,-2.216855 -1.841998,-2.387007 -0.214071,-0.09354 -0.244484,-0.07201 -0.302303,0.214031 l 0,0 z"
       id="path6498"
       inkscape:connector-curvature="0" /></g></svg>
