<?xml version="1.0" encoding="UTF-8" standalone="no"?>
<svg
   xmlns:dc="http://purl.org/dc/elements/1.1/"
   xmlns:cc="http://creativecommons.org/ns#"
   xmlns:rdf="http://www.w3.org/1999/02/22-rdf-syntax-ns#"
   xmlns:svg="http://www.w3.org/2000/svg"
   xmlns="http://www.w3.org/2000/svg"
   xmlns:xlink="http://www.w3.org/1999/xlink"
   xmlns:sodipodi="http://sodipodi.sourceforge.net/DTD/sodipodi-0.dtd"
   xmlns:inkscape="http://www.inkscape.org/namespaces/inkscape"
   width="100"
   height="90"
   id="svg3045"
   version="1.1"
   inkscape:version="0.48.2 r9819"
   sodipodi:docname="light_ant_tile.svg">
  <metadata
     id="metadata3065">
    <rdf:RDF>
      <cc:Work
         rdf:about="">
        <dc:format>image/svg+xml</dc:format>
        <dc:type
           rdf:resource="http://purl.org/dc/dcmitype/StillImage" />
        <dc:title></dc:title>
      </cc:Work>
    </rdf:RDF>
  </metadata>
  <sodipodi:namedview
     pagecolor="#ffffff"
     bordercolor="#666666"
     borderopacity="1"
     objecttolerance="10"
     gridtolerance="10"
     guidetolerance="10"
     inkscape:pageopacity="0"
     inkscape:pageshadow="2"
     inkscape:window-width="1440"
     inkscape:window-height="852"
     id="namedview3063"
     showgrid="false"
     inkscape:zoom="4.6901499"
     inkscape:cx="2.6755391"
     inkscape:cy="46.811693"
     inkscape:window-x="0"
     inkscape:window-y="0"
     inkscape:window-maximized="1"
     inkscape:current-layer="svg3045" />
  <defs
     id="defs3047">
    <linearGradient
       id="WhiteTransparent">
      <stop
         offset="0"
         stop-color="white"
         id="stop3050" />
      <stop
         offset="1"
         stop-opacity="0"
         stop-color="white"
         id="stop3052" />
    </linearGradient>
    <linearGradient
       xlink:href="#WhiteTransparent"
       id="linearGradient3153"
       gradientTransform="matrix(0.97903215,0,0,1.0214169,-1151.5794,-4.2369247)"
       x1="2398.2634"
       y1="1535.1663"
       x2="2391.5815"
       y2="1535.1663"
       gradientUnits="userSpaceOnUse" />
    <linearGradient
       xlink:href="#WhiteTransparent"
       id="linearGradient3156"
       gradientTransform="matrix(-2.36524,-0.633768,-0.633768,2.36524,1975.97,-632.101)"
       x1="9.735198"
       y1="6.9899292"
       x2="9.6628342"
       y2="6.9899292" />
  </defs>
  <path
     sodipodi:type="star"
     style="fill:#53676c;fill-opacity:1;fill-rule:evenodd;stroke:#000000;stroke-width:0.89277541999999999;stroke-linecap:butt;stroke-linejoin:miter;stroke-miterlimit:4;stroke-opacity:1;stroke-dasharray:none"
     id="path3071"
     sodipodi:sides="6"
     sodipodi:cx="49.211357"
     sodipodi:cy="40.126183"
     sodipodi:r1="45.451096"
     sodipodi:r2="39.361805"
     sodipodi:arg1="2.0940746"
     sodipodi:arg2="2.6176734"
     inkscape:flatsided="true"
     inkscape:rounded="0"
     inkscape:randomized="0"
     d="M 26.498426,79.495268 3.7602639,40.14075 26.473195,0.77166477 71.924288,0.75709758 94.66245,40.111615 71.949519,79.4807 z"
     transform="matrix(-1.0891856,0,0,-1.1304473,103.6003,90.360536)" />
  <g
     id="g3056"
     transform="matrix(0.16784207,0.02678584,-0.03172238,0.19877478,194.92825,24.932255)">
    <path
       id="ant-shape"
       d="m -858.72348,14.635903 c -4.36112,-0.429518 -9.48206,43.247458 -9.71335,45.857534 -3.23782,36.177208 12.38946,53.159023 11.46438,58.114813 -0.89199,4.95578 -0.95816,24.44852 13.44672,44.60205 -4.42715,4.55933 -8.4248,9.05258 -11.99301,13.54582 -7.69806,-13.54582 -17.14703,-28.01672 -23.85385,-34.69047 -7.03723,-7.07025 -37.59789,-24.28337 -43.87518,-26.56304 -2.21355,-0.79288 -28.80965,-28.77656 -31.78309,-25.803103 -3.00651,3.006516 23.06086,31.287523 25.704,30.891063 8.2926,11.43133 41.33116,34.26098 43.77608,37.76306 2.41186,3.53514 18.63369,33.07162 18.76587,33.26985 -6.17817,9.61423 -7.99537,16.42015 -10.30802,24.64673 -11.03485,-11.69562 -42.68584,-20.84732 -65.44937,-20.84732 -18.89804,0 -49.92131,-0.46254 -55.66998,0.52862 -21.44202,3.6673 -56.72712,46.91475 -51.80442,51.83751 3.8654,3.86546 29.7678,-40.53831 51.20977,-44.2056 6.17817,-1.05725 54.34845,8.02835 61.51774,7.53278 7.16933,-0.49554 30.39554,11.76172 43.37967,13.64494 -12.32344,-2.64309 -25.01022,-0.19822 -35.41734,10.20891 -38.65517,38.65512 -34.06274,74.40277 -19.0963,89.73273 0,0 -0.0331,0.066 0,0.0991 0.0331,0.0331 0.0661,0.066 0.0991,0.0991 0.033,0.0331 0.0661,0.066 0.0991,0.0991 0.0331,0.0331 0.066,0.066 0.0991,0.0991 15.32983,14.93341 51.01154,19.39362 89.60054,-19.19537 9.71335,-9.68027 12.52167,-21.44199 10.73755,-32.93946 2.90741,13.24851 13.67801,34.16187 13.21539,40.90174 -0.46246,7.16934 8.49094,55.20743 7.43369,61.4187 -3.63425,21.44198 -48.07105,47.41031 -44.17252,51.30884 4.88974,4.88964 48.17017,-30.39551 51.83749,-51.8375 0.95816,-5.74869 0.49555,-36.73886 0.49555,-55.6369 0,-22.7966 -9.11865,-54.41449 -20.84732,-65.44937 8.22659,-2.31274 15.13171,-4.26199 24.77893,-10.4402 0.16516,0.1322 29.60251,16.45323 33.13766,18.89805 3.53513,2.44483 26.33176,35.48337 37.79612,43.7761 -0.42954,2.64303 27.88455,28.71051 30.85797,25.70398 3.00656,-2.97345 -25.01017,-29.7016 -25.80307,-31.91526 -2.24659,-6.27731 -19.36054,-36.70578 -26.43088,-43.77606 -6.70679,-6.67375 -21.2768,-16.22195 -34.78955,-23.95296 4.4602,-3.53515 9.05252,-7.4337 13.61184,-11.86084 20.18662,14.37178 39.67936,14.33872 44.60206,13.41364 4.95578,-0.892 21.93768,14.73518 58.14788,11.4644 2.57703,-0.23131 46.28705,-5.35223 45.82447,-9.71335 -0.52863,-5.12094 -40.96781,-0.033 -43.67697,1.2555 -7.16941,-2.41187 -45.09763,-10.0107 -48.93012,-11.66262 -3.83246,-1.685 -22.66449,-10.60541 -46.25397,-16.51928 6.37644,-10.90274 6.54169,-22.46624 2.67612,-32.543 9.64731,9.61424 18.53467,14.73523 29.14005,4.12983 11.59646,-11.59652 20.05438,-24.51461 24.87802,-36.83798 15.5942,4.9227 28.74356,6.64073 31.78305,8.06142 3.0726,1.3876 7.00418,-0.82598 10.53933,-12.81899 5.78174,-19.72401 9.28382,-38.32474 7.03721,-39.348935 -2.27964,-0.99111 -19.49274,31.485745 -18.30338,43.379655 -9.11859,-6.37642 -16.7175,-8.95348 -27.65323,-10.93576 2.61005,-12.7859 0.69376,-23.95295 -6.40951,-31.28751 0,-0.0331 0.0331,-0.0991 0,-0.0991 -0.066,-0.0661 -0.13218,-0.165205 -0.19822,-0.231285 -7.33456,-7.136348 -18.69986,-9.11864 -31.48574,-6.475536 -2.01532,-10.935753 -4.4932,-18.567703 -10.83664,-27.686325 11.86081,1.222404 44.37073,-15.92461 43.34659,-18.171211 -1.0242,-2.246593 -19.59186,1.123302 -39.31589,6.905048 -12.02606,3.535149 -14.23963,7.598873 -12.81897,10.638416 1.42065,3.072609 3.1387,16.221947 8.06143,31.816148 -12.32342,4.790595 -25.27447,13.281465 -36.87106,24.878035 -10.57227,10.57233 -5.48441,19.49273 4.12985,29.10695 -10.07672,-3.83248 -21.64023,-3.66726 -32.50995,2.67612 -5.91394,-23.58952 -14.96646,-42.42149 -16.61841,-46.25397 -1.685,-3.83248 -9.15164,-41.859857 -11.56347,-49.029214 1.28845,-2.676113 6.3764,-43.049236 1.22241,-43.577864 z"
       inkscape:connector-curvature="0"
       style="fill:#000000" />
    <path
       id="ant-gloss"
       d="m -874.78028,311.94985 c 17.27921,-17.31217 24.84507,-31.65088 4.19596,-52.33307 -18.13813,-1.71799 -36.87104,27.98367 -49.12831,40.30707 -36.24331,36.21023 13.51275,43.34658 44.93235,12.026 z m 126.33951,-136.31702 c 11.76172,-13.77713 16.42017,-22.59842 22.26795,-37.49879 5.28619,-13.81014 5.55053,-20.02135 -0.19825,-25.73706 -13.84317,2.11452 -57.45397,38.88639 -47.77371,55.80216 8.88742,8.85433 17.6095,16.91573 25.70401,7.43369 z m -48.56674,47.87283 c 9.2178,-7.99533 17.57654,-19.03019 17.57654,-30.26333 -0.0331,-6.80594 -0.066,-13.38057 -4.52625,-17.84081 -24.81201,1.05725 -57.18972,43.80918 -72.42056,63.2358 -5.35223,8.75525 11.86093,15.13168 22.46628,10.63847 10.96872,-4.59239 26.10046,-14.86739 36.90399,-25.77013 z"
       style="fill:url(#linearGradient3153)"
       inkscape:connector-curvature="0" />
    <title
       id="title3060">Layer 1</title>
    <path
       id="ant-specularity"
       d="m -931.67258,247.12819 c 17.2791,-17.31215 31.61783,-24.91102 52.26691,-4.22891 2.67624,2.67612 1.38766,7.43367 -2.74213,11.56348 -8.92047,8.95343 -28.51231,28.54538 -37.46571,37.49881 -36.2764,36.30932 -43.47878,-13.51279 -12.05907,-44.83338 z m 136.28406,-126.4385 c 13.84317,-11.69568 22.63132,-16.42017 37.53174,-22.234985 13.74405,-5.352236 19.98828,-5.517435 25.73703,0.1652 5.28622,5.319215 -8.68912,14.834335 -29.23911,35.351245 -9.31689,9.383 -17.7417,21.37596 -26.59598,12.45555 -8.85443,-8.85431 -16.94882,-17.64258 -7.43368,-25.73701 z m -47.90592,48.59968 c 8.0614,-9.25075 19.03015,-17.54346 30.29627,-17.54346 6.80597,-0.033 13.34766,0.0331 17.90695,4.52628 7.66489,7.73105 -12.02606,22.99484 -21.30987,32.24565 -9.5481,9.48204 -33.20374,34.65743 -41.99198,40.10881 -8.78827,5.41831 -15.1647,-11.76172 -10.70447,-22.43317 4.62537,-11.00189 14.93338,-26.10049 25.8031,-36.90411 z"
       inkscape:connector-curvature="0"
       style="fill:#ffffff" />
  </g>
  <path
     style="fill:#5599ff;fill-opacity:0.88888891;fill-rule:evenodd;stroke:#000000;stroke-width:0.2132128;stroke-linejoin:miter;stroke-miterlimit:4;stroke-opacity:1;stroke-dasharray:none"
     d="m 35.720182,86.320087 c 0.0184,-0.115296 1.359273,-1.22334 2.979719,-2.462318 2.959179,-2.262563 4.931662,-4.182176 5.59177,-5.441888 0.505551,-0.964766 0.61581,-1.895729 0.795155,-6.713825 0.08752,-2.351278 0.211794,-4.995345 0.276158,-5.875706 0.07016,-0.959635 -0.08764,-3.128032 -0.394032,-5.414585 l -0.511057,-3.813931 -0.433965,1.692941 c -0.60903,2.375872 -1.587307,3.723329 -4.023578,5.541983 -3.389513,2.530243 -6.550697,3.593653 -9.40072,3.162365 -2.059565,-0.311673 -3.354152,-1.120649 -4.412682,-2.757455 -1.028973,-1.591104 -1.337183,-3.231407 -1.080078,-5.748223 0.166979,-1.634518 0.346608,-2.346436 0.941032,-3.729411 0.953671,-2.218799 2.804394,-4.815904 4.838338,-6.789603 2.363258,-2.293259 4.130557,-2.962612 6.295127,-2.38424 0.662429,0.176997 1.076035,0.210265 1.022611,0.08225 -0.04933,-0.118231 -0.236999,-0.238475 -0.417031,-0.267206 C 37.606919,45.3725 36.256498,44.58591 34.786011,43.653249 33.024458,42.535978 31.689325,41.839385 30.872194,41.611248 30.190079,41.42081 28.068157,40.73023 26.15681,40.076632 22.002657,38.656093 21.046599,38.474444 19.994767,38.90586 c -1.312616,0.538378 -3.192581,2.036413 -5.965648,4.753679 -2.610095,2.557575 -3.292744,2.92889 -2.154991,1.172171 1.751275,-2.704012 6.484551,-6.599325 8.801388,-7.24322 l 1.307187,-0.363294 5.819498,1.019749 c 5.603858,0.981963 5.88581,1.052099 7.609085,1.892697 2.262531,1.103641 4.069052,2.386577 5.080998,3.608372 0.536416,0.647655 0.832579,0.868225 0.922428,0.686987 0.07279,-0.146819 0.416793,-0.853086 0.764456,-1.569485 0.347664,-0.716398 0.874188,-1.718237 1.170055,-2.226308 l 0.537941,-0.923767 -1.018562,-3.471153 -1.018562,-3.471152 -2.879926,-3.914181 c -1.58396,-2.152799 -3.328332,-4.61728 -3.876384,-5.476625 -1.009221,-1.582459 -2.916857,-5.502803 -2.857782,-5.872971 0.06551,-0.410482 0.962968,0.672991 2.707544,3.268726 0.985785,1.46674 2.10876,2.897517 2.495502,3.179505 1.03528,0.754863 4.131754,3.836622 5.026977,5.003091 0.984701,1.283057 1.770139,2.961008 2.770272,5.918211 0.435145,1.286642 0.853526,2.3493 0.929737,2.361463 0.122681,0.01958 1.856498,-1.574746 2.327929,-2.140634 0.09912,-0.118979 -0.03549,-0.982139 -0.299135,-1.918136 -0.629406,-2.234555 -0.763941,-3.790005 -0.542205,-6.268855 0.123744,-1.383339 0.07928,-2.622446 -0.138579,-3.86206 -0.809659,-4.606996 -0.198712,-8.881983 2.278895,-15.9460841 1.530143,-4.3627112 1.298745,-0.506634 -0.298456,4.9735601 -0.418184,1.434845 -0.436759,1.900564 -0.255421,6.404709 0.121929,3.028534 0.398325,6.080427 0.734111,8.105859 0.296207,1.786682 0.592334,4.010082 0.658063,4.940892 0.06573,0.930809 0.186582,1.703086 0.268563,1.716169 0.08198,0.01308 0.591988,-0.09771 1.133347,-0.24621 1.078275,-0.295778 2.84682,-0.116012 3.703846,0.376484 0.294105,0.16901 0.585023,0.270844 0.646485,0.2263 0.06147,-0.04454 -0.105518,-0.537291 -0.371066,-1.094993 -0.626144,-1.31502 -0.752792,-2.463538 -0.365384,-3.313515 0.592046,-1.298952 3.930791,-3.735487 6.64308,-4.847955 0.730643,-0.29968 1.341033,-0.608699 1.35642,-0.686708 0.01539,-0.07801 -0.03615,-1.687502 -0.114531,-3.576651 l -0.142507,-3.434816 0.605322,-0.438706 c 0.941244,-0.682164 6.623735,-1.522429 7.87613,-1.164635 0.521919,0.149105 0.427178,0.226029 -1.165402,0.946237 -1.957196,0.885099 -4.410094,1.561064 -5.224655,1.439802 -0.29966,-0.04458 -0.607617,-0.0356 -0.684364,0.02002 -0.07674,0.05562 0.02963,0.728425 0.236385,1.495122 0.206756,0.766697 0.408414,1.933559 0.448132,2.593028 0.03972,0.659469 0.08727,1.347176 0.105665,1.52824 0.02655,0.261351 0.333554,0.362584 1.489477,0.491154 1.162171,0.129268 1.642018,0.28856 2.377618,0.789287 1.633641,1.112035 2.293064,3.681233 1.621829,6.318853 l -0.350567,1.377557 0.663068,0.237655 c 0.702323,0.251729 2.722951,1.620822 3.383132,2.29227 0.383704,0.390255 0.400472,0.375563 0.694241,-0.608373 0.384693,-1.288478 1.796081,-3.963299 3.013071,-5.710289 0.817261,-1.173176 0.944063,-1.280544 0.922388,-0.781009 -0.05335,1.229499 -2.260283,6.992416 -3.176054,8.293556 -0.265959,0.37788 -0.66139,0.691455 -0.878732,0.696836 -0.217343,0.0054 -1.533381,-0.53841 -2.924528,-1.208423 -1.812247,-0.872823 -2.565068,-1.149609 -2.655317,-0.976259 -0.578624,1.111419 -3.076761,4.29777 -4.322359,5.513135 -2.267429,2.212393 -3.258072,2.297213 -4.749227,0.406628 -0.424966,-0.538799 -0.823151,-0.987692 -0.884858,-0.99754 -0.06171,-0.0098 -0.08639,0.350564 -0.05485,0.800913 0.09455,1.349965 -0.27559,3.128637 -0.922997,4.435384 -0.43928,0.886659 -0.545146,1.266101 -0.378335,1.355993 2.628091,1.416235 3.53575,1.960533 5.254419,3.150929 1.373927,0.951617 3.293472,1.988011 5.870646,3.169663 3.332242,1.527853 3.941837,1.74672 4.696831,1.686323 1.341351,-0.107301 6.198183,0.471037 6.315434,0.752026 0.178196,0.427031 -1.657047,0.666717 -5.462238,0.71338 -4.364574,0.05352 -7.145318,-0.720748 -10.01136,-2.787557 -1.051896,-0.758563 -1.632158,-1.03191 -2.482934,-1.16965 -1.937061,-0.313591 -4.107521,-1.5169 -5.700877,-3.160543 l -0.642377,-0.662651 -1.296801,1.037831 c -0.713241,0.570808 -1.311281,1.100595 -1.328977,1.177307 -0.01771,0.07671 0.575536,0.745389 1.318294,1.485955 2.180967,2.17452 3.464653,3.802704 4.040747,5.12514 0.551167,1.265222 2.185875,6.364593 2.492713,7.77587 0.09361,0.430568 0.85527,2.058099 1.692573,3.616736 2.380988,4.432196 2.462026,5.144298 0.258508,2.271554 -1.730138,-2.255593 -3.73448,-5.778186 -5.823182,-10.234127 -1.713809,-3.656155 -1.863982,-3.85645 -5.189754,-6.921868 -1.491864,-1.375077 -1.686997,-1.494665 -2.065091,-1.265574 -0.63077,0.382191 -1.899633,0.819223 -3.083624,1.062088 -1.047076,0.214781 -1.301844,0.420272 -0.924573,0.745749 0.648198,0.559212 1.434577,4.546684 1.579871,8.011028 0.09252,2.206014 0.0087,2.979186 -1.025435,9.455742 l -1.126276,7.053273 -0.898398,1.312252 c -1.258217,1.837826 -3.041223,3.591417 -5.37396,5.285302 -1.85135,1.344405 -3.895667,2.330621 -3.81765,1.841759 z M 29.26751,60.148908 c 1.120486,-0.491228 2.378114,-1.46546 6.494468,-5.03099 4.178845,-3.61966 4.228254,-3.671755 4.379156,-4.617324 0.106647,-0.668255 -0.0096,-0.941619 -0.849582,-1.997313 -1.891937,-2.377886 -3.646779,-2.603905 -6.351793,-0.818089 -2.701807,1.783697 -4.516517,3.918117 -5.746776,6.759225 -1.811706,4.18388 -0.80036,6.96486 2.074527,5.704491 l 0,0 z M 45.6834,46.39153 c 0.941125,-0.710751 3.170347,-2.552316 4.953825,-4.092365 1.78348,-1.540049 3.729596,-3.215792 4.324705,-3.723876 2.450925,-2.092512 2.883448,-3.622714 1.300757,-4.601879 -1.007462,-0.623285 -2.936193,-0.860513 -3.99932,-0.491905 -2.55879,0.887188 -5.635179,3.664826 -8.350027,7.539153 -1.095557,1.563454 -1.274518,1.95035 -1.464316,3.165719 -0.296937,1.90124 0.07097,3.265659 0.916881,3.400659 0.477408,0.07619 0.97025,-0.178048 2.317495,-1.195506 l 0,0 z M 60.164774,33.736064 c 0.753533,-0.235993 8.10821,-6.300918 8.926154,-7.360821 0.636263,-0.824477 0.643761,-1.021974 0.0674,-1.775243 -0.424632,-0.554967 -0.635944,-0.65341 -1.557511,-0.725604 -2.13099,-0.166936 -5.778365,1.121817 -8.584055,3.033066 -2.025452,1.37975 -2.365044,2.027867 -1.888031,3.603345 0.514573,1.699537 1.466772,3.149701 2.248561,3.424477 0.03923,0.01375 0.393596,-0.07586 0.787482,-0.19922 z"
     id="path7883"
     inkscape:connector-curvature="0" />
</svg>
