<?xml version="1.0" encoding="UTF-8" standalone="no"?>
<svg
   xmlns:dc="http://purl.org/dc/elements/1.1/"
   xmlns:cc="http://creativecommons.org/ns#"
   xmlns:rdf="http://www.w3.org/1999/02/22-rdf-syntax-ns#"
   xmlns:svg="http://www.w3.org/2000/svg"
   xmlns="http://www.w3.org/2000/svg"
   xmlns:xlink="http://www.w3.org/1999/xlink"
   xmlns:sodipodi="http://sodipodi.sourceforge.net/DTD/sodipodi-0.dtd"
   xmlns:inkscape="http://www.inkscape.org/namespaces/inkscape"
   width="96"
   height="96"
   id="svg3045"
   version="1.1"
   inkscape:version="0.48.2 r9819"
   sodipodi:docname="dark_ant_tile.svg">
  <metadata
     id="metadata3065">
    <rdf:RDF>
      <cc:Work
         rdf:about="">
        <dc:format>image/svg+xml</dc:format>
        <dc:type
           rdf:resource="http://purl.org/dc/dcmitype/StillImage" />
        <dc:title />
      </cc:Work>
    </rdf:RDF>
  </metadata>
  <sodipodi:namedview
     pagecolor="#ffffff"
     bordercolor="#666666"
     borderopacity="1"
     objecttolerance="10"
     gridtolerance="10"
     guidetolerance="10"
     inkscape:pageopacity="0"
     inkscape:pageshadow="2"
     inkscape:window-width="1440"
     inkscape:window-height="852"
     id="namedview3063"
     showgrid="false"
     inkscape:zoom="4.6901499"
     inkscape:cx="91.585277"
     inkscape:cy="46.811693"
     inkscape:window-x="0"
     inkscape:window-y="0"
     inkscape:window-maximized="1"
     inkscape:current-layer="svg3045" />
  <defs
     id="defs3047">
    <linearGradient
       id="WhiteTransparent">
      <stop
         offset="0"
         stop-color="white"
         id="stop3050" />
      <stop
         offset="1"
         stop-opacity="0"
         stop-color="white"
         id="stop3052" />
    </linearGradient>
    <linearGradient
       xlink:href="#WhiteTransparent"
       id="linearGradient3153"
       gradientTransform="matrix(0.97903215,0,0,1.0214169,-1151.5794,-4.2369247)"
       x1="2398.2634"
       y1="1535.1663"
       x2="2391.5815"
       y2="1535.1663"
       gradientUnits="userSpaceOnUse" />
    <linearGradient
       xlink:href="#WhiteTransparent"
       id="linearGradient3156"
       gradientTransform="matrix(-2.36524,-0.633768,-0.633768,2.36524,1975.97,-632.101)"
       x1="9.735198"
       y1="6.9899292"
       x2="9.6628342"
       y2="6.9899292" />
  </defs>
  <g
     id="g3056"
     transform="matrix(0.169966,0,0,0.20129015,189.40818,3.5281068)">
    <path
       id="ant-shape"
       d="m -858.72348,14.635903 c -4.36112,-0.429518 -9.48206,43.247458 -9.71335,45.857534 -3.23782,36.177208 12.38946,53.159023 11.46438,58.114813 -0.89199,4.95578 -0.95816,24.44852 13.44672,44.60205 -4.42715,4.55933 -8.4248,9.05258 -11.99301,13.54582 -7.69806,-13.54582 -17.14703,-28.01672 -23.85385,-34.69047 -7.03723,-7.07025 -37.59789,-24.28337 -43.87518,-26.56304 -2.21355,-0.79288 -28.80965,-28.77656 -31.78309,-25.803103 -3.00651,3.006516 23.06086,31.287523 25.704,30.891063 8.2926,11.43133 41.33116,34.26098 43.77608,37.76306 2.41186,3.53514 18.63369,33.07162 18.76587,33.26985 -6.17817,9.61423 -7.99537,16.42015 -10.30802,24.64673 -11.03485,-11.69562 -42.68584,-20.84732 -65.44937,-20.84732 -18.89804,0 -49.92131,-0.46254 -55.66998,0.52862 -21.44202,3.6673 -56.72712,46.91475 -51.80442,51.83751 3.8654,3.86546 29.7678,-40.53831 51.20977,-44.2056 6.17817,-1.05725 54.34845,8.02835 61.51774,7.53278 7.16933,-0.49554 30.39554,11.76172 43.37967,13.64494 -12.32344,-2.64309 -25.01022,-0.19822 -35.41734,10.20891 -38.65517,38.65512 -34.06274,74.40277 -19.0963,89.73273 0,0 -0.0331,0.066 0,0.0991 0.0331,0.0331 0.0661,0.066 0.0991,0.0991 0.033,0.0331 0.0661,0.066 0.0991,0.0991 0.0331,0.0331 0.066,0.066 0.0991,0.0991 15.32983,14.93341 51.01154,19.39362 89.60054,-19.19537 9.71335,-9.68027 12.52167,-21.44199 10.73755,-32.93946 2.90741,13.24851 13.67801,34.16187 13.21539,40.90174 -0.46246,7.16934 8.49094,55.20743 7.43369,61.4187 -3.63425,21.44198 -48.07105,47.41031 -44.17252,51.30884 4.88974,4.88964 48.17017,-30.39551 51.83749,-51.8375 0.95816,-5.74869 0.49555,-36.73886 0.49555,-55.6369 0,-22.7966 -9.11865,-54.41449 -20.84732,-65.44937 8.22659,-2.31274 15.13171,-4.26199 24.77893,-10.4402 0.16516,0.1322 29.60251,16.45323 33.13766,18.89805 3.53513,2.44483 26.33176,35.48337 37.79612,43.7761 -0.42954,2.64303 27.88455,28.71051 30.85797,25.70398 3.00656,-2.97345 -25.01017,-29.7016 -25.80307,-31.91526 -2.24659,-6.27731 -19.36054,-36.70578 -26.43088,-43.77606 -6.70679,-6.67375 -21.2768,-16.22195 -34.78955,-23.95296 4.4602,-3.53515 9.05252,-7.4337 13.61184,-11.86084 20.18662,14.37178 39.67936,14.33872 44.60206,13.41364 4.95578,-0.892 21.93768,14.73518 58.14788,11.4644 2.57703,-0.23131 46.28705,-5.35223 45.82447,-9.71335 -0.52863,-5.12094 -40.96781,-0.033 -43.67697,1.2555 -7.16941,-2.41187 -45.09763,-10.0107 -48.93012,-11.66262 -3.83246,-1.685 -22.66449,-10.60541 -46.25397,-16.51928 6.37644,-10.90274 6.54169,-22.46624 2.67612,-32.543 9.64731,9.61424 18.53467,14.73523 29.14005,4.12983 11.59646,-11.59652 20.05438,-24.51461 24.87802,-36.83798 15.5942,4.9227 28.74356,6.64073 31.78305,8.06142 3.0726,1.3876 7.00418,-0.82598 10.53933,-12.81899 5.78174,-19.72401 9.28382,-38.32474 7.03721,-39.348935 -2.27964,-0.99111 -19.49274,31.485745 -18.30338,43.379655 -9.11859,-6.37642 -16.7175,-8.95348 -27.65323,-10.93576 2.61005,-12.7859 0.69376,-23.95295 -6.40951,-31.28751 0,-0.0331 0.0331,-0.0991 0,-0.0991 -0.066,-0.0661 -0.13218,-0.165205 -0.19822,-0.231285 -7.33456,-7.136348 -18.69986,-9.11864 -31.48574,-6.475536 -2.01532,-10.935753 -4.4932,-18.567703 -10.83664,-27.686325 11.86081,1.222404 44.37073,-15.92461 43.34659,-18.171211 -1.0242,-2.246593 -19.59186,1.123302 -39.31589,6.905048 -12.02606,3.535149 -14.23963,7.598873 -12.81897,10.638416 1.42065,3.072609 3.1387,16.221947 8.06143,31.816148 -12.32342,4.790595 -25.27447,13.281465 -36.87106,24.878035 -10.57227,10.57233 -5.48441,19.49273 4.12985,29.10695 -10.07672,-3.83248 -21.64023,-3.66726 -32.50995,2.67612 -5.91394,-23.58952 -14.96646,-42.42149 -16.61841,-46.25397 -1.685,-3.83248 -9.15164,-41.859857 -11.56347,-49.029214 1.28845,-2.676113 6.3764,-43.049236 1.22241,-43.577864 z"
       inkscape:connector-curvature="0"
       style="fill:#000000" />
    <path
       id="ant-gloss"
       d="m -874.78028,311.94985 c 17.27921,-17.31217 24.84507,-31.65088 4.19596,-52.33307 -18.13813,-1.71799 -36.87104,27.98367 -49.12831,40.30707 -36.24331,36.21023 13.51275,43.34658 44.93235,12.026 z m 126.33951,-136.31702 c 11.76172,-13.77713 16.42017,-22.59842 22.26795,-37.49879 5.28619,-13.81014 5.55053,-20.02135 -0.19825,-25.73706 -13.84317,2.11452 -57.45397,38.88639 -47.77371,55.80216 8.88742,8.85433 17.6095,16.91573 25.70401,7.43369 z m -48.56674,47.87283 c 9.2178,-7.99533 17.57654,-19.03019 17.57654,-30.26333 -0.0331,-6.80594 -0.066,-13.38057 -4.52625,-17.84081 -24.81201,1.05725 -57.18972,43.80918 -72.42056,63.2358 -5.35223,8.75525 11.86093,15.13168 22.46628,10.63847 10.96872,-4.59239 26.10046,-14.86739 36.90399,-25.77013 z"
       style="fill:url(#linearGradient3153)"
       inkscape:connector-curvature="0" />
    <title
       id="title3060">Layer 1</title>
    <path
       id="ant-specularity"
       d="m -931.67258,247.12819 c 17.2791,-17.31215 31.61783,-24.91102 52.26691,-4.22891 2.67624,2.67612 1.38766,7.43367 -2.74213,11.56348 -8.92047,8.95343 -28.51231,28.54538 -37.46571,37.49881 -36.2764,36.30932 -43.47878,-13.51279 -12.05907,-44.83338 z m 136.28406,-126.4385 c 13.84317,-11.69568 22.63132,-16.42017 37.53174,-22.234985 13.74405,-5.352236 19.98828,-5.517435 25.73703,0.1652 5.28622,5.319215 -8.68912,14.834335 -29.23911,35.351245 -9.31689,9.383 -17.7417,21.37596 -26.59598,12.45555 -8.85443,-8.85431 -16.94882,-17.64258 -7.43368,-25.73701 z m -47.90592,48.59968 c 8.0614,-9.25075 19.03015,-17.54346 30.29627,-17.54346 6.80597,-0.033 13.34766,0.0331 17.90695,4.52628 7.66489,7.73105 -12.02606,22.99484 -21.30987,32.24565 -9.5481,9.48204 -33.20374,34.65743 -41.99198,40.10881 -8.78827,5.41831 -15.1647,-11.76172 -10.70447,-22.43317 4.62537,-11.00189 14.93338,-26.10049 25.8031,-36.90411 z"
       inkscape:connector-curvature="0"
       style="fill:#ffffff" />
  </g>
  <path
     sodipodi:type="star"
     style="fill:#fffc00;fill-opacity:0;fill-rule:evenodd;stroke:#000000;stroke-width:0.89277543;stroke-linecap:butt;stroke-linejoin:miter;stroke-miterlimit:4;stroke-opacity:1;stroke-dasharray:none"
     id="path3071"
     sodipodi:sides="6"
     sodipodi:cx="49.211357"
     sodipodi:cy="40.126183"
     sodipodi:r1="45.451096"
     sodipodi:r2="39.361805"
     sodipodi:arg1="2.0940746"
     sodipodi:arg2="2.6176734"
     inkscape:flatsided="true"
     inkscape:rounded="0"
     inkscape:randomized="0"
     d="M 26.498426,79.495268 3.7602639,40.14075 26.473195,0.77166477 71.924288,0.75709758 94.66245,40.111615 71.949519,79.4807 z"
     transform="matrix(0,-1.0424693,1.2035171,0,-0.50343767,99.423572)" />
  <path
     style="fill:#5599ff;fill-opacity:0.88888891000000003;fill-rule:evenodd;stroke:#000000;stroke-width:0.21321280000000001;stroke-linejoin:miter;stroke-miterlimit:4;stroke-opacity:1;stroke-dasharray:none"
     d="m 41.437626,89.239268 c 0,-0.116755 1.149494,-1.422268 2.554434,-2.901138 2.565631,-2.700643 4.210943,-4.907122 4.664278,-6.255122 0.347191,-1.032383 0.309357,-1.969088 -0.272849,-6.75524 -0.284123,-2.335689 -0.578096,-4.9663 -0.653277,-5.845803 -0.08195,-0.9587 -0.579506,-3.075132 -1.242421,-5.284826 l -1.105728,-3.685731 -0.161743,1.740177 c -0.226993,2.442162 -0.980692,3.926953 -3.099908,6.106826 -2.948402,3.032796 -5.902495,4.581105 -8.784872,4.604356 -2.082947,0.0168 -3.488847,-0.578046 -4.792103,-2.027579 -1.266865,-1.40906 -1.829727,-2.980293 -1.972474,-5.506176 -0.0927,-1.640408 -0.02751,-2.371739 0.341535,-3.83111 0.592082,-2.341367 2.010386,-5.197683 3.707868,-7.467258 1.972319,-2.63704 3.612047,-3.576547 5.840716,-3.346529 0.682046,0.07039 1.095726,0.03806 1.022794,-0.07994 -0.06735,-0.108979 -0.27162,-0.198145 -0.45393,-0.198145 -0.182308,0 -1.639817,-0.563941 -3.238911,-1.253205 -1.915617,-0.825697 -3.343846,-1.303174 -4.186719,-1.399685 -0.703603,-0.08056 -2.907841,-0.428105 -4.898308,-0.772316 -4.326112,-0.748113 -5.29885,-0.776822 -6.269549,-0.185033 -1.211367,0.738512 -2.831756,2.514101 -5.141942,5.634434 -2.174417,2.936954 -2.790017,3.411211 -1.943333,1.49714 1.303251,-2.946215 5.363496,-7.538793 7.549906,-8.539765 l 1.233599,-0.56476 5.907484,0.08988 c 5.688583,0.08655 5.978065,0.111376 7.81228,0.669889 2.408187,0.733286 4.394318,1.715491 5.586167,2.76254 0.631781,0.555025 0.959003,0.726165 1.019167,0.533032 0.04874,-0.156455 0.277143,-0.908111 0.50756,-1.670347 0.230419,-0.762236 0.592478,-1.834534 0.804578,-2.382883 l 0.385638,-0.997 -1.552872,-3.267256 -1.552871,-3.267256 -3.460794,-3.411405 c -1.903438,-1.876273 -4.014402,-4.035052 -4.691034,-4.797288 -1.245998,-1.403636 -3.747624,-4.974356 -3.747624,-5.349208 0,-0.415677 1.056995,0.512822 3.188846,2.801183 1.204618,1.293056 2.539044,2.528978 2.965393,2.746493 1.141306,0.582275 4.684756,3.137534 5.752622,4.148344 1.1746,1.111839 2.21466,2.645041 3.668337,5.407674 0.632476,1.201987 1.213099,2.185431 1.290274,2.185431 0.124233,0 1.585126,-1.847643 1.961485,-2.480755 0.07913,-0.133113 -0.189829,-0.964272 -0.597686,-1.847024 -0.973696,-2.10744 -1.351682,-3.622251 -1.523372,-6.105069 -0.09581,-1.385554 -0.334998,-2.602169 -0.74549,-3.79196 -1.525582,-4.421827 -1.595987,-8.739675 -0.26261,-16.1059618 0.823479,-4.5493367 1.202672,-0.7049787 0.489083,4.9584458 -0.186834,1.482818 -0.131781,1.945645 0.757123,6.364927 0.597688,2.971473 1.351594,5.941671 2.002383,7.888874 0.574078,1.717674 1.216902,3.866622 1.428501,4.775442 0.211596,0.908819 0.452648,1.652399 0.535667,1.652399 0.08302,0 0.569191,-0.189785 1.080383,-0.421743 1.018187,-0.462013 2.792962,-0.563208 3.716894,-0.21193 0.317065,0.120549 0.620396,0.175263 0.67407,0.121589 0.05368,-0.05367 -0.188874,-0.513947 -0.538995,-1.022831 -0.82556,-1.19991 -1.131627,-2.314117 -0.883012,-3.214526 0.379938,-1.376024 3.292975,-4.308282 5.796051,-5.834292 0.674285,-0.411081 1.228347,-0.812433 1.231248,-0.891892 0.0029,-0.07946 -0.30164,-1.660718 -0.676763,-3.513907 l -0.682037,-3.369435 0.52862,-0.52862 c 0.821976,-0.821975 6.301035,-2.547274 7.594167,-2.391323 0.538895,0.06499 0.457461,0.155883 -1.001717,1.118075 -1.793251,1.182483 -4.108968,2.236567 -4.93246,2.245191 -0.302941,0.0032 -0.605635,0.0606 -0.672657,0.127625 -0.06702,0.06702 0.144053,0.714654 0.469056,1.439186 0.325,0.724532 0.70803,1.845032 0.851181,2.490001 0.143149,0.644969 0.298483,1.316589 0.345188,1.49249 0.06741,0.253901 0.386527,0.305487 1.548268,0.250282 1.16802,-0.0555 1.666974,0.02618 2.472294,0.404723 1.788478,0.840684 2.844555,3.273855 2.597384,5.984298 l -0.12909,1.415591 0.692236,0.130189 c 0.733218,0.1379 2.944358,1.171443 3.702106,1.730459 0.440412,0.324909 0.454655,0.307758 0.589689,-0.71018 0.176828,-1.333002 1.14904,-4.196826 2.075505,-6.113777 0.622161,-1.287313 0.730458,-1.413322 0.787778,-0.916614 0.141081,1.222543 -1.130066,7.261247 -1.82934,8.690449 -0.203083,0.415072 -0.544155,0.787047 -0.757933,0.826613 -0.21378,0.03956 -1.59907,-0.290029 -3.078424,-0.732431 -1.927154,-0.576314 -2.714188,-0.731 -2.77599,-0.545594 -0.396239,1.188719 -2.361004,4.728947 -3.399501,6.125425 -1.890432,2.542083 -2.855329,2.781964 -4.625797,1.150003 -0.504568,-0.465093 -0.968521,-0.845625 -1.031008,-0.845625 -0.06249,0 -0.03006,0.359797 0.07206,0.799548 0.306114,1.318195 0.220912,3.132972 -0.212467,4.525418 -0.294058,0.944808 -0.338803,1.336192 -0.159909,1.398672 2.818441,0.984363 3.800537,1.378817 5.68533,2.283483 1.506728,0.723201 3.565617,1.444133 6.296809,2.204868 3.531384,0.983615 4.167854,1.103677 4.903895,0.925052 1.307679,-0.317351 6.194962,-0.511654 6.355031,-0.252655 0.243267,0.393612 -1.531269,0.919529 -5.281556,1.565289 -4.301598,0.740688 -7.169615,0.414327 -10.325561,-1.17498 -1.158298,-0.58331 -1.774387,-0.761794 -2.636238,-0.763735 -1.962276,-0.0044 -4.295249,-0.850618 -6.127725,-2.222617 l -0.73878,-0.553134 -1.117039,1.229232 c -0.614371,0.676078 -1.121446,1.293493 -1.126832,1.372035 -0.0054,0.07854 0.685814,0.645373 1.536,1.259629 2.496408,1.803637 4.020647,3.209172 4.797951,4.424293 0.743673,1.16255 3.16159,5.940576 3.687004,7.285861 0.160297,0.410435 1.16893,1.897594 2.241403,3.304799 3.049728,4.001578 3.241978,4.69201 0.613264,2.202428 -2.063989,-1.954745 -4.598428,-5.117444 -7.363265,-9.188533 -2.268585,-3.340378 -2.448447,-3.514504 -6.215755,-6.01749 -1.689927,-1.122783 -1.901468,-1.210124 -2.238734,-0.92431 -0.562656,0.476821 -1.746789,1.108359 -2.87771,1.534781 -1.000143,0.377111 -1.219343,0.620184 -0.795493,0.882138 0.728227,0.450071 2.133186,4.263785 2.822629,7.66194 0.43902,2.163867 0.47807,2.940591 0.47756,9.499185 l -6.39e-4,7.142629 -0.680367,1.437438 c -0.952861,2.013149 -2.437229,4.02582 -4.473867,6.066166 -1.616343,1.619369 -3.479691,2.915436 -3.479691,2.420388 z M 30.941133,64.41204 c 1.029069,-0.661672 2.117447,-1.821927 5.620451,-5.991619 3.556184,-4.232994 3.596765,-4.292225 3.596765,-5.249759 0,-0.676712 -0.157907,-0.928335 -1.153733,-1.838464 -2.243039,-2.050011 -4.011571,-1.996651 -6.401347,0.193147 -2.386942,2.187199 -3.8426,4.580937 -4.60974,7.580425 -1.129707,4.417113 0.30727,7.003958 2.947604,5.30627 l 0,0 z M 44.983788,48.23951 c 0.817353,-0.850186 2.728497,-3.020053 4.246983,-4.821925 1.518489,-1.801872 3.176197,-3.763374 3.683797,-4.358895 2.090528,-2.452618 2.276493,-4.031862 0.559268,-4.749366 -1.093099,-0.456725 -3.035114,-0.38703 -4.026865,0.144516 -2.386998,1.279355 -4.987201,4.507107 -7.057548,8.760867 -0.835474,1.716572 -0.951226,2.126836 -0.947115,3.356929 0.0064,1.924277 0.58473,3.213667 1.441351,3.213667 0.483449,0 0.930066,-0.32873 2.100129,-1.545793 l 0,0 z M 57.289757,33.459993 c 0.706926,-0.351797 7.013893,-7.499996 7.65458,-8.675558 0.498379,-0.914447 0.474659,-1.110657 -0.213212,-1.763681 -0.506786,-0.481112 -0.730971,-0.545024 -1.6524,-0.471081 -2.130669,0.170984 -5.529364,2.018442 -7.998789,4.347971 -1.7827,1.68171 -2.015908,2.375246 -1.296568,3.855862 0.775982,1.597205 1.944821,2.879185 2.760144,3.027321 0.04091,0.0074 0.376722,-0.136942 0.746245,-0.320834 z"
     id="path7883"
     inkscape:connector-curvature="0" />
  <path
     style="fill:#53676c;fill-opacity:0.88888891000000003;fill-rule:evenodd;stroke:#000000;stroke-width:1;stroke-linejoin:miter;stroke-miterlimit:4;stroke-opacity:1;stroke-dasharray:none"
     d="M 24.327299,83.088705 0.92719377,71.442809 l 0,-23.301509 0,-23.301511 L 24.327301,13.139352 47.727408,1.4389153 71.127511,13.139353 l 23.400103,11.700438 0,23.293761 0,23.293758 -23.34706,11.672947 C 58.33967,89.520378 47.809623,94.764518 47.780449,94.753902 47.751275,94.743288 37.197356,89.493948 24.327299,83.088705 z m 18.401164,5.960311 c 1.327342,-0.850094 4.490019,-4.204407 5.639272,-5.980971 1.959136,-3.028513 1.88156,-2.587135 1.896176,-10.788792 0.01058,-5.939759 -0.05165,-7.58581 -0.344545,-9.112516 -0.584581,-3.047116 -1.227255,-5.170343 -2.076964,-6.861741 l -0.800991,-1.594418 1.982226,-0.983753 1.982225,-0.983753 2.265849,1.520218 c 2.79713,1.876671 3.490845,2.58435 5.636152,5.749607 3.340049,4.928015 8.141107,10.454048 9.082558,10.454048 0.809486,0 0.189348,-1.128546 -2.633005,-4.791619 -0.683769,-0.887447 -1.829151,-2.907295 -2.841274,-5.010501 -2.650052,-5.506845 -3.330384,-6.370543 -7.33316,-9.309585 -0.758458,-0.556899 -1.379013,-1.068625 -1.379013,-1.137168 0,-0.06854 0.409524,-0.590018 0.910051,-1.158831 l 0.910055,-1.034204 1.342144,0.867469 c 1.6476,1.064896 2.871256,1.484769 5.063988,1.737612 1.193559,0.137627 2.177702,0.421586 3.359067,0.969208 3.733593,1.730704 7.100421,1.804313 13.405964,0.293097 1.824641,-0.437301 2.471842,-0.80368 2.199134,-1.24493 -0.182397,-0.295123 -3.412954,-0.285729 -5.65836,0.01646 -1.364545,0.183638 -2.051538,0.177971 -2.965577,-0.02447 -2.520532,-0.55824 -6.754899,-1.946462 -9.070732,-2.973804 -1.330006,-0.590016 -3.123141,-1.325193 -3.984744,-1.633731 -0.861606,-0.308538 -1.59222,-0.583371 -1.623592,-0.610743 -0.03137,-0.02737 0.09824,-0.655856 0.288012,-1.396632 0.215404,-0.840804 0.316158,-1.919036 0.268153,-2.86968 l -0.0769,-1.522813 0.953424,0.727766 c 1.734701,1.324128 2.927644,0.754057 5.150342,-2.46119 0.591374,-0.855452 1.456387,-2.368743 1.922248,-3.362869 0.578805,-1.235138 0.961931,-1.806324 1.209891,-1.80378 0.199578,0.0021 1.322325,0.288208 2.494995,0.635915 2.637428,0.78202 3.151435,0.798851 3.597678,0.117798 0.991173,-1.512727 2.558616,-10.138804 1.842319,-10.138804 -0.498543,0 -2.731757,5.508583 -3.084083,7.607382 l -0.149601,0.891178 -0.953524,-0.604707 c -0.524436,-0.33259 -1.521304,-0.774787 -2.21526,-0.982659 l -1.261743,-0.377951 0.124613,-1.192218 c 0.139014,-1.330022 -0.224887,-3.439664 -0.735932,-4.26641 -1.034669,-1.673839 -1.945902,-2.185396 -4.172306,-2.342287 L 61.216171,21.961032 60.82403,20.413398 c -0.215676,-0.851199 -0.588154,-1.990758 -0.827728,-2.532353 -0.239573,-0.541596 -0.435588,-1.008234 -0.435588,-1.036973 0,-0.02874 0.390591,-0.114711 0.867981,-0.191049 1.509896,-0.241442 5.972899,-2.724251 6.264913,-3.485228 0.109476,-0.285292 -0.05763,-0.313427 -1.210908,-0.203877 -2.665463,0.253192 -7.188043,1.865414 -7.716114,2.750661 -0.155758,0.261111 -0.045,1.249563 0.394209,3.518011 0.335957,1.735177 0.64786,3.256915 0.693117,3.381641 0.04526,0.124723 -0.678203,0.727241 -1.607687,1.338925 -2.281577,1.501485 -4.997744,4.336627 -5.301634,5.533862 -0.310372,1.222769 0.05428,2.678916 0.9209,3.677383 0.254941,0.293729 0.136269,0.319981 -1.092703,0.241726 -0.909836,-0.05793 -1.737008,0.0294 -2.432289,0.256819 -0.579469,0.189536 -1.097001,0.34461 -1.150072,0.34461 -0.05307,0 -0.306016,-0.791553 -0.562105,-1.759006 -0.25609,-0.967453 -0.801459,-2.810789 -1.211934,-4.096302 -0.85712,-2.684302 -1.993007,-7.35904 -2.537426,-10.44275 -0.33283,-1.885218 -0.347147,-2.533098 -0.12957,-5.863352 0.23463,-3.5912761 0.1753,-5.2302854 -0.197678,-5.4607976 -0.469183,-0.2899713 -1.024709,2.1221128 -1.573926,6.8339586 -0.565515,4.85168 -0.377007,7.674382 0.75898,11.364814 0.347277,1.128182 0.730742,3.014377 0.852145,4.191544 0.260274,2.523676 0.611706,3.925478 1.513948,6.038892 0.732505,1.71582 0.720066,1.805431 -0.447841,3.225899 l -0.598644,0.728105 -0.804413,-1.474349 C 40.509005,32.266861 39.606561,31.251867 35.34209,28.397854 33.207305,26.969143 31.961304,25.930524 30.041005,23.979072 28.660314,22.575983 27.397569,21.428 27.234907,21.428 c -0.515224,0 -0.323405,0.673422 0.603092,2.117263 1.563675,2.436816 3.348234,4.490914 7.23708,8.330165 l 3.779423,3.731224 1.518228,3.196452 1.518231,3.196454 -0.536912,1.387621 c -0.2953,0.763193 -0.647948,1.840954 -0.78366,2.395024 l -0.246751,1.0074 -0.902449,-0.73949 c -1.140187,-0.934296 -3.70415,-2.125051 -5.83012,-2.707623 -1.440818,-0.394824 -2.378815,-0.460973 -7.675367,-0.54129 l -6.033955,-0.0915 -1.215281,0.590938 c -1.564947,0.760967 -4.419094,3.624104 -6.064329,6.083433 -1.403697,2.098274 -2.082016,3.683059 -1.727962,4.037112 0.299175,0.299175 0.624384,-0.03283 2.439486,-2.49046 2.171817,-2.940619 3.981699,-4.960447 5.074555,-5.663199 0.920257,-0.591763 1.072986,-0.622809 2.433337,-0.494637 0.798298,0.07522 2.525321,0.32437 3.837829,0.553674 1.31251,0.229304 3.070644,0.506994 3.906967,0.617091 1.668791,0.219681 3.288762,0.731708 5.794527,1.831474 1.335006,0.585928 1.520926,0.721137 1.000185,0.727386 -1.116173,0.01339 -2.707261,0.929374 -3.928049,2.261346 -3.419356,3.730778 -5.289501,8.392337 -5.081823,12.667062 0.05892,1.212808 0.260783,2.479682 0.503095,3.157422 1.197804,3.350204 4.223758,5.114793 7.750789,4.519883 2.749752,-0.463806 5.136887,-1.92041 7.903536,-4.822654 1.752812,-1.838717 2.470064,-3.118962 2.829148,-5.049841 l 0.234123,-1.258932 0.694097,2.368622 c 1.043898,3.562321 1.347985,5.505847 2.230878,14.258307 0.217108,2.152285 0.203059,2.511466 -0.13342,3.411405 -0.556479,1.488338 -1.925858,3.30892 -4.680141,6.222223 -2.31838,2.452233 -2.659147,2.934188 -2.316738,3.276597 0.224455,0.224458 0.355148,0.179841 1.361907,-0.464938 l 0,0 z"
     id="path2993"
     inkscape:connector-curvature="0" />
</svg>
