<?xml version="1.0" encoding="UTF-8" standalone="no"?>
<!-- Created with Inkscape (http://www.inkscape.org/) -->

<svg
   xmlns:dc="http://purl.org/dc/elements/1.1/"
   xmlns:cc="http://creativecommons.org/ns#"
   xmlns:rdf="http://www.w3.org/1999/02/22-rdf-syntax-ns#"
   xmlns:svg="http://www.w3.org/2000/svg"
   xmlns="http://www.w3.org/2000/svg"
   xmlns:sodipodi="http://sodipodi.sourceforge.net/DTD/sodipodi-0.dtd"
   xmlns:inkscape="http://www.inkscape.org/namespaces/inkscape"
   id="svg6763"
   version="1.1"
   inkscape:version="0.48.2 r9819"
   width="96"
   height="96"
   xml:space="preserve"
   sodipodi:docname="dark_beetle_tile.svg"><metadata
     id="metadata6769"><rdf:RDF><cc:Work
         rdf:about=""><dc:format>image/svg+xml</dc:format><dc:type
           rdf:resource="http://purl.org/dc/dcmitype/StillImage" /><dc:title /></cc:Work></rdf:RDF></metadata><defs
     id="defs6767"><clipPath
       clipPathUnits="userSpaceOnUse"
       id="clipPath6779"><path
         d="m 0,2962.8 2136.8,0 L 2136.8,0 0,0 0,2962.8 z"
         id="path6781"
         inkscape:connector-curvature="0" /></clipPath></defs><sodipodi:namedview
     pagecolor="#ffffff"
     bordercolor="#666666"
     borderopacity="1"
     objecttolerance="10"
     gridtolerance="10"
     guidetolerance="10"
     inkscape:pageopacity="0"
     inkscape:pageshadow="2"
     inkscape:window-width="1440"
     inkscape:window-height="852"
     id="namedview6765"
     showgrid="false"
     inkscape:zoom="6.1580177"
     inkscape:cx="29.407489"
     inkscape:cy="49.552345"
     inkscape:window-x="0"
     inkscape:window-y="0"
     inkscape:window-maximized="1"
     inkscape:current-layer="g6771" /><g
     id="g6771"
     inkscape:groupmode="layer"
     inkscape:label="beetle-vector-image"
     transform="matrix(1.25,0,0,-1.25,0,95.999976)"><g
       id="g6773"
       transform="matrix(0.02749071,0,0,0.0235115,8.5040527,3.3386772)"><g
         id="g6775"><g
           id="g6777"
           clip-path="url(#clipPath6779)"><path
             d="m 1085.68,1643.53 c 94.92,41.25 183.12,137.85 445.36,147.9 141.64,5.42 97.7,377.95 -448.47,392.41 -546.175,-14.46 -586.5,-381.56 -444.863,-386.99 262.25,-10.04 353.063,-112.07 447.973,-153.32 m 24.14,-783.413 c 21.7,-61.039 95.85,-186.262 170.64,-121.519 440.53,381.402 362.94,1030.042 228.99,1020.852 -184.44,-12.65 -412.21,-138.01 -408.66,-192.26 17.75,-271.86 -12.66,-646.038 9.03,-707.073 m -43.52,707.073 c 3.54,54.25 -224.222,179.61 -408.671,192.26 -133.945,9.19 -211.551,-639.45 229.004,-1020.852 74.777,-64.743 148.917,60.48 170.617,121.519 21.7,61.035 -8.71,435.213 9.05,707.073 m 173.72,786.64 c 31.65,37.97 130.13,101.92 44.15,170.88 -39.63,31.79 -20.98,3.94 -10.69,-9.94 49.62,-66.91 -85,-89.24 -92.22,-127.04 32.99,-6.6 51.08,-33 58.76,-33.9 m -252.395,33.9 c -7.234,37.8 -141.832,60.13 -92.223,127.04 10.293,13.88 28.93,41.73 -10.691,9.94 -85.981,-68.96 12.5,-132.91 44.144,-170.88 7.692,0.9 25.77,27.3 58.77,33.9 m 96.335,-182.64 c 93.49,6.78 203.06,-41.18 195.71,4.75 -11.3,70.65 -15.36,172.05 -186.25,179.95 -170.885,7.89 -197.065,-105.46 -208.365,-176.11 -7.356,-45.93 105.449,-1.81 198.925,-8.59 l -0.02,0 z m 3.13,-1488.735 c 103.98,0 26.68,80.02 -2.84,131.559 -29.71,-51.539 -112.895,-131.559 2.84,-131.559 m 546.97,695.315 c 40.37,-9.49 59.68,-52.9 70.53,-88.16 8.21,-26.69 26.08,-48.47 35.26,0 27.63,145.91 -17.05,221.05 -92.23,261.76 -32.55,17.63 -18.99,-135.63 -13.56,-173.6 M 1284.14,332.07 c 145.55,112.883 294.31,326.868 318.27,408.696 -24.4,4.527 -61.48,-43.399 -127.48,-10.852 -3.62,-31.644 8.14,-80.476 -60.58,-84.09 21.7,-23.508 44.3,-112.715 -51.54,-109.25 2.71,-30.894 47.48,-78.363 -44.75,-89.219 4.74,-19.66 6.85,-60.48 -45.38,-97.101 -52.21,-36.621 -8.54,-33.699 11.46,-18.184 m 328.22,816.48 c -10.05,-48.25 -119.35,-198.011 -96.29,-324.152 7.83,-42.878 31.2,-109.851 93.57,-27.125 62.4,82.735 76.86,245.487 55.61,359.417 -4.63,24.89 -39.32,56.96 -52.89,-8.14 m -3.18,623.89 c -35.72,-53.35 -6.31,-51.54 14.03,-81.38 16.61,-24.35 28.95,-72.95 85.44,-31.19 202.76,149.87 147.01,393.76 81.37,458.42 -61.02,60.13 -225.13,-29.06 -167.41,-136.7 33.45,-62.38 22.3,-155.8 -13.43,-209.15 m -43.35,759.51 c 16.24,0 42.17,2.72 39.05,-32.01 -3.75,-41.81 -39.99,-53.13 -41.34,-75.13 12.78,4.96 44.46,5.87 39.78,-20.8 -5.3,-30.17 -38.18,-46.72 -56.05,-84.31 104.42,-12.89 -39.21,-144.5 -59.68,-49.51 -22.38,-109.18 82.84,-131.46 120.25,-183.09 6.32,33.45 77.76,41.59 84.54,69.17 -133.36,105.33 74.59,363.93 -139.69,528.94 -19.41,14.95 -38.93,4.94 -18.99,-12.88 57.64,-51.54 38.04,-126.14 32.13,-140.38 M 522.883,1585.27 c -75.172,-40.71 -119.86,-115.85 -92.235,-261.76 9.188,-48.47 27.059,-26.69 35.266,0 10.848,35.26 30.156,78.67 70.531,88.16 5.422,37.97 18.989,191.23 -13.562,173.6 M 897.82,350.254 c -52.218,36.621 -50.113,77.441 -45.371,97.101 -92.219,10.856 -47.465,58.325 -44.75,89.219 -95.844,-3.465 -73.238,85.742 -51.535,109.25 -68.726,3.614 -56.969,52.446 -60.586,84.09 -66,-32.547 -103.074,15.379 -127.492,10.852 23.961,-81.828 172.734,-295.813 318.277,-408.696 20.008,-15.515 63.672,-18.437 11.457,18.184 M 505.25,1156.69 c -21.246,-113.93 -6.789,-276.682 55.605,-359.417 62.391,-82.726 85.75,-15.753 93.579,27.125 23.062,126.141 -86.239,275.902 -96.289,324.152 -13.563,65.1 -48.254,33.03 -52.895,8.14 m 42.648,824.9 c 57.715,107.64 -106.398,196.83 -167.425,136.7 -65.625,-64.66 -121.387,-308.55 81.379,-458.42 56.488,-41.76 68.839,6.84 85.445,31.19 20.336,29.84 49.754,28.03 14.023,81.38 -35.722,53.35 -46.879,146.77 -13.422,209.15 m 56.786,550.36 c -16.246,0 -42.184,2.72 -39.059,-32.01 3.754,-41.81 39.988,-53.13 41.34,-75.13 -12.777,4.96 -44.465,5.87 -39.777,-20.8 5.296,-30.17 38.179,-46.72 56.058,-84.31 -104.433,-12.89 39.211,-144.5 59.672,-49.51 22.379,-109.18 -82.844,-131.46 -120.25,-183.09 -6.332,33.45 -77.77,41.59 -84.543,69.17 133.363,105.33 -74.598,363.93 139.691,528.94 19.414,14.95 38.934,4.94 18.989,-12.88 -57.637,-51.54 -38.028,-126.14 -32.121,-140.38"
             style="fill:#231f20;fill-opacity:1;fill-rule:nonzero;stroke:none"
             id="path6783"
             inkscape:connector-curvature="0" /><path
             d="m 1085.17,1752.06 c 66.31,28.82 127.94,96.32 311.16,103.33 98.96,3.79 68.25,264.06 -313.34,274.17 -381.588,-10.11 -409.767,-266.58 -310.802,-270.38 183.222,-7.01 246.672,-78.3 312.982,-107.12 m 55.58,-205.96 c 3.86,-217.85 7.36,-437.74 10.41,-653.655 8.79,-11.406 21.99,-26.406 38.69,-39.179 0.53,240.774 -1.64,484.654 -6.46,725.224 -17.14,-11.7 -31.44,-22.57 -42.64,-32.39 m 195.31,118.03 c -13.75,-6.27 -28.12,-13.25 -42.81,-20.83 7.6,-266.8 6.88,-537.75 -2.15,-805.491 4.23,2.371 8.36,5.156 12.34,8.332 8.58,6.851 17.44,14.332 27.03,22.832 12.57,264.267 14.45,531.737 5.59,795.157 m 159.39,-58.14 c -14.85,33.31 -31.43,59.12 -47.45,74.08 9.22,-226.3 7.04,-456.23 -6.48,-684.007 17.51,26.377 33.02,54.047 46.21,82.487 64.11,169.88 67.06,367.18 7.72,527.44 m -235.79,19.28 c -14.7,-8.2 -29.02,-16.59 -42.7,-25.04 5.55,-253.84 7.08,-511.33 4.53,-765.39 11.15,-4.492 22.19,-6.758 32.83,-6.758 l 0.01,0 c 1.6,0 3.21,0.055 4.8,0.156 7.2,264.712 7.38,532.762 0.53,797.032 m 153.35,68.46 c -0.26,-0.06 -0.53,-0.13 -0.78,-0.21 -13.44,-4.06 -27.37,-8.97 -42.47,-14.97 9.4,-257.49 7.51,-519.03 -5.64,-777.683 14.77,15.024 28.81,30.703 41.86,46.774 14.94,248.379 17.31,499.359 7.03,746.089 M 700.082,1653 c -16.621,-24.76 -32.359,-59.15 -45.117,-98.86 -45.602,-147.18 -34.258,-334.99 28.93,-478.44 14.613,-31.06 31.894,-61.06 51.472,-89.364 C 710.375,1208 698.516,1432.08 700.082,1653 m 113.41,18.27 c -1.527,-270.16 12.203,-544.13 40.844,-814.461 4.711,-3.95 9.469,-7.875 14.355,-11.739 8.375,-6.613 17.25,-11.437 26.481,-14.382 -25.207,272.382 -37.981,548.472 -37.984,820.802 -15.063,7.3 -29.711,13.93 -43.696,19.78 m 155.77,-82.37 c 2.613,-240.78 11.172,-484.76 25.461,-725.541 13.267,12.289 25.977,27.434 36.537,43.594 -9,215.967 -15.15,435.177 -18.3,651.607 -12.26,9.43 -26.933,19.61 -43.698,30.34 m -190.008,95.6 c -7.875,2.76 -15.492,5.24 -22.699,7.38 -6.692,1.98 -13.86,0.94 -21.492,-3.08 -3.145,-249.28 9.929,-502.44 38.878,-752.527 14.125,-16.589 29.141,-32.566 44.789,-47.628 -28.558,264.375 -41.835,532.005 -39.476,795.855 m 155.73,-74.64 c 2.098,-255.34 11.946,-514.07 29.254,-769.09 -12.484,-7.032 -24.898,-11.36 -36.996,-12.887 -22.937,267.497 -34.988,538.657 -35.855,806.257 14.625,-7.75 29.25,-15.88 43.597,-24.28"
             style="fill:#b5b9bf;fill-opacity:1;fill-rule:nonzero;stroke:none"
             id="path6785"
             inkscape:connector-curvature="0" /></g></g></g><path
       sodipodi:type="star"
       style="fill:#ffff00;fill-opacity:0;fill-rule:evenodd;stroke:#000000;stroke-width:7.85497046;stroke-linecap:butt;stroke-linejoin:miter;stroke-miterlimit:4;stroke-opacity:1;stroke-dasharray:none"
       id="path5937"
       sodipodi:sides="6"
       sodipodi:cx="61.08849"
       sodipodi:cy="103.85044"
       sodipodi:r1="403.18402"
       sodipodi:r2="349.1676"
       sodipodi:arg1="0"
       sodipodi:arg2="0.52359878"
       inkscape:flatsided="true"
       inkscape:rounded="0"
       inkscape:randomized="0"
       d="m 464.27251,103.85044 -201.59201,349.16761 -403.18402,0 -201.59201,-349.16761 201.59201,-349.1676 403.18402,0 z"
       transform="matrix(0,0.09447705,0.10850198,0,26.841705,32.399216)" /><path
       style="fill:#800080;fill-opacity:0;fill-rule:evenodd;stroke:#000000;stroke-width:0.16238992;stroke-linejoin:miter;stroke-miterlimit:4;stroke-opacity:1;stroke-dasharray:none"
       d="m 45.154027,42.110477 c -4.034901,-1.958676 -6.921618,-2.736755 -11.651272,-3.140458 -1.564889,-0.133573 -1.909696,-0.215657 -2.365142,-0.563043 -0.983634,-0.750254 -1.128739,-2.21778 -0.380308,-3.846263 0.445304,-0.968918 2.526123,-3.01295 3.846662,-3.778656 3.263057,-1.892061 7.853917,-2.925718 13.072388,-2.943319 7.111375,-0.02398 12.61233,1.685348 15.843422,4.923088 1.415437,1.41835 1.857079,2.336006 1.857079,3.858695 0,1.06747 -0.04025,1.208673 -0.473358,1.660743 -0.625282,0.652655 -1.073307,0.773016 -3.636386,0.976912 -4.096104,0.32585 -6.319625,0.933876 -10.497886,2.870665 -1.424927,0.66051 -2.706126,1.200928 -2.847108,1.200928 -0.140982,0 -1.386623,-0.548682 -2.768091,-1.219292 z m 4.976139,-2.686218 c 2.555376,-1.15974 4.625969,-1.721259 7.169275,-1.944216 1.019641,-0.08939 1.989885,-0.235303 2.156099,-0.324258 0.530307,-0.283811 0.806034,-0.852436 0.806034,-1.662264 0,-1.596324 -1.31851,-3.235988 -3.520406,-4.377885 -6.771692,-3.511779 -18.53991,-1.918216 -20.906547,2.831005 -0.995264,1.997235 -0.142213,3.369072 2.098339,3.374448 0.973056,0.0023 3.445942,0.433796 4.691859,0.818621 0.605319,0.186964 2.026083,0.772678 3.157253,1.301587 1.131171,0.528909 2.085156,0.962508 2.11997,0.963553 0.03481,10e-4 1.03747,-0.440221 2.228124,-0.980591 l 0,0 z"
       id="path6466"
       inkscape:connector-curvature="0"
       transform="matrix(0.8,0,0,-0.8,0,76.799981)" /><path
       style="fill:#800080;fill-opacity:0;fill-rule:evenodd;stroke:#000000;stroke-width:0.16238992;stroke-linejoin:miter;stroke-miterlimit:4;stroke-opacity:1;stroke-dasharray:none"
       d="m 44.996922,41.887748 c -4.336931,-1.935401 -6.312521,-2.480867 -10.96132,-3.02645 -2.346668,-0.275405 -2.805969,-0.436875 -3.273841,-1.150937 -0.371044,-0.566285 -0.320669,-1.97653 0.104975,-2.938769 0.415852,-0.940103 2.48626,-3.007576 3.825966,-3.820541 2.086233,-1.265977 5.106096,-2.202025 8.587606,-2.661848 2.993941,-0.395427 8.576641,-0.231567 11.239714,0.329901 4.155559,0.876134 7.063573,2.340065 9.212937,4.637909 1.002616,1.071879 1.415999,2.016041 1.421889,3.247581 0.0061,1.280597 -0.0977,1.548891 -0.757083,1.956413 -0.429899,0.265693 -1.175388,0.415628 -3.280011,0.659685 -4.371261,0.506903 -5.8839,0.91791 -10.121806,2.750251 -1.389545,0.600796 -2.668365,1.135701 -2.841824,1.188678 -0.201105,0.06142 -1.345077,-0.363193 -3.157202,-1.171873 z m 4.976515,-2.219711 c 2.711223,-1.170374 4.320856,-1.622448 7.200039,-2.022171 2.061674,-0.286226 2.402405,-0.377017 2.760629,-0.735593 0.349973,-0.350317 0.408302,-0.554519 0.406139,-1.421872 -0.002,-0.800974 -0.093,-1.16719 -0.4351,-1.75094 -1.153523,-1.96834 -3.754245,-3.43487 -7.519481,-4.240188 -2.208643,-0.47239 -6.434203,-0.504117 -8.687861,-0.06523 -4.897096,0.953677 -7.942893,3.032733 -8.37173,5.71453 -0.134631,0.841938 0.222144,1.57956 0.94514,1.954044 0.28876,0.149567 1.182698,0.332232 1.986528,0.405923 2.853612,0.261603 5.005363,0.915705 8.687861,2.640985 0.491229,0.230145 0.903774,0.419159 0.916767,0.420032 0.01299,8.76e-4 0.962974,-0.40391 2.111069,-0.899517 z"
       id="path6468"
       inkscape:connector-curvature="0"
       transform="matrix(0.8,0,0,-0.8,0,76.799981)" /><path
       style="fill:#800080;fill-opacity:0.8888889;fill-rule:evenodd;stroke:#000000;stroke-width:0.16238991999999999;stroke-linejoin:miter;stroke-miterlimit:4;stroke-opacity:1;stroke-dasharray:none"
       d="m 67.642128,43.335184 c -0.183133,-0.07335 -0.542158,-0.415144 -0.797835,-0.759545 -0.255676,-0.344402 -0.672176,-0.795901 -0.925554,-1.003332 -0.253378,-0.207431 -0.460647,-0.499732 -0.460597,-0.649559 5.1e-5,-0.149827 0.28439,-0.734614 0.631865,-1.299526 0.847176,-1.377306 1.048563,-2.175705 0.95895,-3.80176 -0.05788,-1.050347 -0.172057,-1.533647 -0.525425,-2.224168 -0.845586,-1.652373 -0.302122,-2.977115 1.606881,-3.916914 1.314171,-0.646964 2.779786,-0.7406 3.631257,-0.231995 0.636339,0.380102 1.342652,1.394534 1.851634,2.659382 0.312868,0.777494 0.365836,1.206274 0.3632,2.940116 -0.0028,1.821886 -0.04663,2.132567 -0.428073,3.032119 -0.793962,1.872399 -2.38161,3.709913 -4.073025,4.71404 -1.023841,0.607815 -1.394008,0.71708 -1.833278,0.541142 l 0,0 z"
       id="path6470"
       inkscape:connector-curvature="0"
       transform="matrix(0.8,0,0,-0.8,0,76.799981)" /><path
       style="fill:#800080;fill-opacity:0.88888891;fill-rule:evenodd;stroke:#000000;stroke-width:0.16238992;stroke-linejoin:miter;stroke-miterlimit:4;stroke-opacity:1;stroke-dasharray:none"
       d="m 26.806645,43.054471 c -0.484188,-0.241281 -1.441026,-0.974367 -2.126305,-1.629079 -1.960258,-1.872819 -2.905177,-3.973534 -2.905177,-6.458704 0,-2.74313 1.330507,-5.336024 2.96378,-5.775818 1.362439,-0.366867 3.665633,0.502432 4.5467,1.71607 0.395712,0.54508 0.460249,0.767099 0.401228,1.380314 -0.03868,0.401915 -0.261785,1.169208 -0.495783,1.705094 -0.323967,0.74193 -0.426153,1.245485 -0.428398,2.111069 -0.0038,1.464758 0.200071,2.191093 0.982715,3.501145 0.350033,0.585913 0.636424,1.17534 0.636424,1.309837 0,0.134498 -0.237495,0.461271 -0.527767,0.726163 -0.290272,0.264891 -0.746994,0.748382 -1.014937,1.074423 -0.661876,0.80539 -0.988165,0.85989 -2.03248,0.339486 l 0,0 z"
       id="path6472"
       inkscape:connector-curvature="0"
       transform="matrix(0.8,0,0,-0.8,0,76.799981)" /><path
       style="fill:#800080;fill-opacity:0.88888891;fill-rule:evenodd;stroke:#000000;stroke-width:0.16238992;stroke-linejoin:miter;stroke-miterlimit:4;stroke-opacity:1;stroke-dasharray:none"
       d="m 29.894659,30.170774 c 0,-0.08435 -0.579078,-0.444508 -1.28684,-0.800364 -1.455213,-0.731667 -1.618258,-0.891769 -1.158652,-1.137743 0.178328,-0.09544 0.527483,-0.519289 0.7759,-0.94189 0.424258,-0.721735 0.451386,-0.881697 0.447032,-2.635849 -0.0025,-1.027116 -0.06706,-2.817465 -0.143367,-3.978553 -0.210969,-3.210353 0.247769,-4.713863 1.974135,-6.470204 1.463269,-1.488674 2.866534,-1.973163 1.536827,-0.530602 -0.777859,0.843878 -1.084295,1.79049 -0.937599,2.896341 0.09732,0.733622 0.08241,0.775472 -0.27622,0.775472 -0.541582,0 -0.768826,0.298659 -0.768826,1.010445 0,0.501646 0.128566,0.760187 0.670242,1.347837 0.656115,0.711801 0.661529,0.727126 0.256866,0.727126 -1.260588,0 -1.272734,0.7449 -0.03396,2.08292 0.491229,0.530586 0.893144,1.009742 0.893144,1.064791 0,0.05505 -0.127882,0.102412 -0.284182,0.105252 -0.880268,0.016 -1.118714,0.984939 -0.405975,1.649706 0.93871,0.875528 2.040571,1.054463 2.662638,0.432396 l 0.348582,-0.348582 -0.08493,0.753521 c -0.05134,0.455477 -0.249732,0.969583 -0.501583,1.299776 -0.444971,0.583387 -3.683227,2.955622 -3.683227,2.698204 z"
       id="path6474"
       inkscape:connector-curvature="0"
       transform="matrix(0.8,0,0,-0.8,0,76.799981)" /><path
       style="fill:#800080;fill-opacity:0.88888891;fill-rule:evenodd;stroke:#000000;stroke-width:0.16238992;stroke-linejoin:miter;stroke-miterlimit:4;stroke-opacity:1;stroke-dasharray:none"
       d="m 65.733768,30.228176 c -0.05969,-0.09658 -0.765909,-0.625849 -1.569378,-1.176156 -1.742413,-1.193401 -2.287554,-1.846313 -2.403978,-2.879226 l -0.08493,-0.753521 0.348582,0.348582 c 0.409219,0.409219 1.280898,0.46333 1.939948,0.120427 1.226657,-0.63823 1.557824,-1.804947 0.600898,-2.116993 -0.267944,-0.08737 -0.515381,-0.177826 -0.549861,-0.201005 -0.03448,-0.02318 0.349166,-0.486998 0.852547,-1.03071 1.261392,-1.362455 1.257199,-2.106784 -0.01187,-2.106784 -0.404663,0 -0.399249,-0.01533 0.256867,-0.727126 0.541676,-0.58765 0.670241,-0.846191 0.670241,-1.347837 0,-0.711786 -0.227243,-1.010445 -0.768826,-1.010445 -0.358631,0 -0.373538,-0.04185 -0.27622,-0.775472 0.146697,-1.105851 -0.159739,-2.052463 -0.937599,-2.896341 -1.339658,-1.453358 0.121397,-0.935277 1.582416,0.561115 1.685404,1.726211 2.137547,3.253186 1.930856,6.520886 -0.07627,1.205745 -0.141288,2.996094 -0.14449,3.978553 -0.0054,1.666496 0.02447,1.837817 0.445845,2.554654 0.248417,0.422601 0.597572,0.846452 0.7759,0.94189 0.458843,0.245565 0.296353,0.40618 -1.143121,1.129933 -0.699219,0.351562 -1.301456,0.729646 -1.338303,0.840188 -0.04593,0.137785 -0.101122,0.145768 -0.175521,0.02539 l 0,0 z"
       id="path6476"
       inkscape:connector-curvature="0"
       transform="matrix(0.8,0,0,-0.8,0,76.799981)" /><path
       style="fill:#800080;fill-opacity:0.88888891;fill-rule:evenodd;stroke:#000000;stroke-width:0.16238992;stroke-linejoin:miter;stroke-miterlimit:4;stroke-opacity:1;stroke-dasharray:none"
       d="m 51.248933,27.14567 c -1.721497,-0.221986 -4.241422,-0.211534 -8.281885,0.03435 -0.80383,0.04892 -1.555873,0.0244 -1.671206,-0.05448 -0.484381,-0.33129 0.450542,-2.792655 1.43451,-3.776622 1.285023,-1.285023 2.750748,-1.702184 5.534334,-1.575131 2.076237,0.09477 3.138289,0.370126 4.238607,1.098946 0.9285,0.615013 1.365419,1.334602 1.769391,2.914117 0.45458,1.777391 0.402782,1.800668 -3.023751,1.358818 l 0,0 z"
       id="path6478"
       inkscape:connector-curvature="0"
       transform="matrix(0.8,0,0,-0.8,0,76.799981)" /><path
       style="fill:#800080;fill-opacity:0.88888891;fill-rule:evenodd;stroke:#000000;stroke-width:0.16238992;stroke-linejoin:miter;stroke-miterlimit:4;stroke-opacity:1;stroke-dasharray:none"
       d="m 44.753337,41.61644 c -4.268901,-1.779946 -5.831216,-2.224903 -9.6622,-2.751852 -3.131487,-0.430734 -3.5151,-0.534908 -3.972801,-1.078855 -0.325787,-0.387176 -0.411727,-0.666481 -0.411727,-1.338111 0,-1.270303 0.58284,-2.284243 2.184597,-3.800439 2.109588,-1.996901 4.599884,-3.10732 8.857917,-3.949731 1.633143,-0.323101 2.366733,-0.369664 5.846037,-0.371061 5.753649,-0.0023 8.719119,0.536432 12.077192,2.194081 1.521475,0.751047 2.293038,1.299798 3.576717,2.543831 1.19825,1.161241 1.718079,2.217795 1.720226,3.496362 0.0029,1.753467 -0.252479,1.903995 -4.155867,2.44916 -4.409961,0.615915 -5.701833,0.976741 -10.161271,2.838092 -1.310686,0.547075 -2.516431,0.99302 -2.679434,0.990989 -0.163002,-0.002 -1.611726,-0.552141 -3.219386,-1.222466 z m 5.676533,-1.94 c 2.630651,-1.060802 4.034476,-1.438582 7.293699,-1.96279 2.37618,-0.382181 2.700395,-0.639326 2.700395,-2.141762 0,-1.368504 -0.377328,-2.168107 -1.54364,-3.271157 -1.09955,-1.039909 -3.29922,-2.126678 -5.520322,-2.727371 -1.55488,-0.420515 -1.789543,-0.439063 -5.521257,-0.436424 -3.737888,0.0026 -3.963804,0.02093 -5.521257,0.446874 -2.015148,0.551119 -4.300325,1.642506 -5.320836,2.541198 -1.415664,1.246676 -2.143083,3.014287 -1.688343,4.102633 0.347023,0.830542 0.869229,1.098492 2.664533,1.367202 2.826291,0.423022 4.474019,0.853204 6.62144,1.728699 1.159254,0.472623 2.32696,0.97984 2.594904,1.127149 0.267943,0.14731 0.518001,0.270761 0.555683,0.274337 0.03768,0.0036 1.245934,-0.468289 2.685001,-1.048588 l 0,0 z"
       id="path6480"
       inkscape:connector-curvature="0"
       transform="matrix(0.8,0,0,-0.8,0,76.799981)" /><path
       style="fill:#800080;fill-opacity:0.88888891;fill-rule:evenodd;stroke:#000000;stroke-width:0.16238992;stroke-linejoin:miter;stroke-miterlimit:4;stroke-opacity:1;stroke-dasharray:none"
       d="m 30.943273,69.172025 c -2.027251,-1.236256 -3.309748,-4.958117 -3.11329,-9.0349 0.09434,-1.957751 0.305228,-2.757853 0.796146,-3.020584 0.410795,-0.219851 0.791255,0.09986 1.084772,0.911569 0.11602,0.320849 0.717334,1.511238 1.336253,2.645308 1.333923,2.444203 1.745851,3.472241 1.977999,4.936441 0.212506,1.340316 -0.03821,2.664266 -0.639953,3.379398 -0.473678,0.562935 -0.759177,0.599123 -1.441927,0.182768 l 0,0 z"
       id="path6482"
       inkscape:connector-curvature="0"
       transform="matrix(0.8,0,0,-0.8,0,76.799981)" /><path
       style="fill:#800080;fill-opacity:0.88888891;fill-rule:evenodd;stroke:#000000;stroke-width:0.16238992;stroke-linejoin:miter;stroke-miterlimit:4;stroke-opacity:1;stroke-dasharray:none"
       d="m 41.343148,82.047578 c -2.720003,-1.416866 -9.062844,-8.003826 -10.56867,-10.97543 -0.227967,-0.449871 -0.390522,-0.84191 -0.361235,-0.871197 0.02929,-0.02929 0.454385,0.08521 0.94466,0.25443 0.974775,0.336455 2.02779,0.402989 2.647719,0.167292 0.380017,-0.144482 0.401565,-0.117614 0.499841,0.623226 0.117582,0.886375 0.573021,1.417078 1.349358,1.572345 0.503694,0.100739 0.504128,0.101754 0.276376,0.646843 -0.540216,1.292918 0.04008,2.388299 1.378635,2.602343 0.366692,0.05864 0.666713,0.1436 0.666713,0.188809 0,0.04521 -0.08471,0.364924 -0.188238,0.710479 -0.281725,0.940315 -0.03016,1.354486 0.968164,1.593981 0.801311,0.192231 0.804631,0.195764 0.889226,0.946289 0.07102,0.630051 0.201421,0.860716 0.796837,1.409472 0.391559,0.360874 0.928607,0.816494 1.19344,1.01249 0.56724,0.419799 0.237647,0.499136 -0.492826,0.118628 z"
       id="path6484"
       inkscape:connector-curvature="0"
       transform="matrix(0.8,0,0,-0.8,0,76.799981)" /><path
       style="fill:#800080;fill-opacity:0.88888891;fill-rule:evenodd;stroke:#000000;stroke-width:0.16238992;stroke-linejoin:miter;stroke-miterlimit:4;stroke-opacity:1;stroke-dasharray:none"
       d="m 53.603587,82.232526 c 0,-0.03895 0.433504,-0.374909 0.963341,-0.746568 1.013149,-0.710684 1.472508,-1.408146 1.472508,-2.235765 0,-0.451164 0.06069,-0.501588 0.824144,-0.684737 1.019459,-0.244565 1.271514,-0.652431 0.987993,-1.598738 -0.103531,-0.345555 -0.188238,-0.665271 -0.188238,-0.710479 0,-0.04521 0.300021,-0.130173 0.666714,-0.188809 1.338554,-0.214044 1.918851,-1.309425 1.378635,-2.602343 -0.227753,-0.545089 -0.227319,-0.546104 0.276375,-0.646843 0.776337,-0.155267 1.231777,-0.68597 1.349358,-1.572345 0.09828,-0.74084 0.119825,-0.767708 0.499841,-0.623226 0.619929,0.235697 1.672944,0.169163 2.647719,-0.167292 0.490275,-0.169224 0.917935,-0.281155 0.950354,-0.248736 0.03242,0.03242 -0.108209,0.39364 -0.312509,0.802711 -1.704385,3.412699 -9.634822,11.293993 -11.364416,11.293993 -0.0835,0 -0.151819,-0.03187 -0.151819,-0.07082 z"
       id="path6486"
       inkscape:connector-curvature="0"
       transform="matrix(0.8,0,0,-0.8,0,76.799981)" /><path
       style="fill:#800080;fill-opacity:0.88888891;fill-rule:evenodd;stroke:#000000;stroke-width:0.16238992;stroke-linejoin:miter;stroke-miterlimit:4;stroke-opacity:1;stroke-dasharray:none"
       d="m 63.461088,68.996873 c -0.544991,-0.647685 -0.828674,-1.91676 -0.694185,-3.105484 0.178591,-1.578537 0.789542,-3.073774 2.450709,-5.997849 0.380547,-0.669858 0.788746,-1.49487 0.907109,-1.833359 0.447963,-1.281064 1.210602,-1.3544 1.634382,-0.157164 0.3359,0.948967 0.287807,5.013498 -0.07775,6.571241 -0.494594,2.107584 -1.744652,4.173285 -2.881091,4.760961 -0.660381,0.341496 -0.884886,0.301539 -1.339169,-0.238346 z"
       id="path6488"
       inkscape:connector-curvature="0"
       transform="matrix(0.8,0,0,-0.8,0,76.799981)" /><path
       style="fill:#800080;fill-opacity:0.88888891;fill-rule:evenodd;stroke:#000000;stroke-width:0.16238992;stroke-linejoin:miter;stroke-miterlimit:4;stroke-opacity:1;stroke-dasharray:none"
       d="m 52.313155,70.40471 c -0.79161,-0.259544 -2.433865,-1.957185 -3.099107,-3.203623 l -0.563353,-1.055535 0,-10.392955 0,-10.392954 0.558103,-0.516164 c 2.110341,-1.951756 8.379982,-4.216905 12.561491,-4.538321 l 1.364565,-0.104889 0.658784,0.595172 c 0.724718,0.654739 1.216409,1.575377 1.700443,3.183887 0.417988,1.389032 0.58017,5.470567 0.296188,7.453947 -0.926428,6.470325 -4.162704,12.494307 -9.018496,16.786969 -2.506774,2.216062 -3.250655,2.58052 -4.458618,2.184466 z m 1.673274,-3.877004 c 0.133525,-1.277504 0.13736,-21.36828 0.0042,-22.034053 l -0.100123,-0.500613 -0.81382,0.412394 -0.81382,0.412393 0.106309,0.904524 c 0.05847,0.497488 0.105771,5.564637 0.105112,11.260332 -9.25e-4,8.047307 0.04336,10.373835 0.198671,10.436675 0.109928,0.04448 0.426954,0.08664 0.704502,0.09369 0.500386,0.01272 0.505512,0.0044 0.608963,-0.98534 z m 1.890449,0.209272 0.555928,-0.464111 0.141463,-2.661895 c 0.155208,-2.920544 0.233026,-20.541814 0.09134,-20.683498 -0.04849,-0.04849 -0.421649,0.03543 -0.829242,0.186496 l -0.741076,0.274662 0.0094,9.835756 c 0.0052,5.409666 -0.04694,10.767468 -0.115825,11.906227 -0.141238,2.334833 -0.09178,2.424308 0.887989,1.606363 l 0,0 z M 51.523176,56.033655 c -0.07742,-5.737748 -0.185711,-10.477221 -0.240654,-10.532164 -0.05494,-0.05494 -0.438457,0.109892 -0.852254,0.366298 l -0.752359,0.466193 0.09345,2.029874 c 0.0514,1.116431 0.134657,5.354808 0.185019,9.418615 0.05036,4.063808 0.124056,7.546664 0.163764,7.739681 0.08909,0.433074 1.432281,1.469565 1.49868,1.156479 0.02481,-0.11699 -0.01823,-4.907228 -0.09565,-10.644976 l 0,0 z m 7.656353,5.776192 c 0.182692,-2.519723 0.244651,-19.533992 0.07176,-19.706879 -0.06442,-0.06442 -0.442258,-0.02611 -0.83963,0.08515 l -0.722494,0.202285 0.02768,7.411852 c 0.01522,4.076518 -0.03116,9.275275 -0.103068,11.552794 l -0.130747,4.140942 0.769945,-0.763127 0.769946,-0.763127 0.156603,-2.159891 0,0 z m 2.207964,-0.941967 c 1.402448,-2.352623 2.041475,-5.177688 2.038652,-9.012641 -0.0032,-4.326628 -0.759551,-6.925026 -2.658938,-9.134433 -0.172759,-0.200957 -0.338932,-0.365406 -0.369273,-0.365441 -0.03034,-3.5e-5 -0.05517,3.489318 -0.05517,7.754118 0,4.264801 -0.0552,8.850315 -0.122661,10.190032 l -0.122661,2.435849 0.33041,-0.405975 c 0.181725,-0.223286 0.613562,-0.880965 0.959636,-1.461509 z"
       id="path6490"
       inkscape:connector-curvature="0"
       transform="matrix(0.8,0,0,-0.8,0,76.799981)" /><path
       style="fill:#800080;fill-opacity:0.88888891;fill-rule:evenodd;stroke:#000000;stroke-width:0.16238992;stroke-linejoin:miter;stroke-miterlimit:4;stroke-opacity:1;stroke-dasharray:none"
       d="m 46.303377,70.325089 c -0.304486,-0.246558 -0.32928,-0.34969 -0.179055,-0.744811 0.193867,-0.50991 1.58487,-2.379191 1.770446,-2.379191 0.272206,0 1.811461,2.329083 1.811461,2.740965 0,0.08737 -0.114833,0.273688 -0.255184,0.414039 -0.381125,0.381124 -2.666511,0.358616 -3.147668,-0.031 l 0,0 z"
       id="path6492"
       inkscape:connector-curvature="0"
       transform="matrix(0.8,0,0,-0.8,0,76.799981)" /><path
       style="fill:#800080;fill-opacity:0.88888891;fill-rule:evenodd;stroke:#000000;stroke-width:0.16238992;stroke-linejoin:miter;stroke-miterlimit:4;stroke-opacity:1;stroke-dasharray:none"
       d="m 25.70415,53.449026 c -0.08438,-0.162067 -0.240784,-0.80528 -0.347574,-1.429363 -0.367634,-2.14847 0.142616,-4.084856 1.421559,-5.39478 0.547042,-0.560293 1.737337,-1.346435 2.038635,-1.346435 0.03948,0 0.152002,0.230131 0.250054,0.511402 0.201363,0.577631 0.224831,1.650594 0.07159,3.273277 -0.101847,1.078483 -0.119286,1.112853 -0.720193,1.419413 -0.71225,0.363363 -1.291695,1.065628 -1.737622,2.105934 -0.410006,0.956505 -0.764051,1.268526 -0.976452,0.860552 l 0,0 z"
       id="path6494"
       inkscape:connector-curvature="0"
       transform="matrix(0.8,0,0,-0.8,0,76.799981)" /><path
       style="fill:#800080;fill-opacity:0.88888891;fill-rule:evenodd;stroke:#000000;stroke-width:0.16238992;stroke-linejoin:miter;stroke-miterlimit:4;stroke-opacity:1;stroke-dasharray:none"
       d="M 41.792165,70.376531 C 40.526764,69.811204 36.828921,66.326649 35.23425,64.196873 31.538696,59.261243 29.525051,53.140798 29.772788,47.59684 c 0.143356,-3.208076 0.81331,-5.40088 2.046005,-6.696712 l 0.669717,-0.704019 1.393677,0.107126 c 3.96866,0.305056 9.926354,2.3747 12.34952,4.290102 l 0.808819,0.639335 -0.0069,10.537635 -0.0069,10.537635 -0.48717,0.884682 c -0.267944,0.486578 -0.871105,1.300487 -1.340361,1.808691 -1.248681,1.352322 -2.409542,1.820883 -3.4071,1.375216 z M 41.118753,63.50702 c -0.529227,-5.881513 -0.972467,-14.659893 -0.991032,-19.627422 -0.0024,-0.636456 -0.03544,-0.680676 -0.698083,-0.933742 -0.382573,-0.146106 -0.74795,-0.265647 -0.81195,-0.265647 -0.422882,0 0.118555,12.532763 0.862909,19.97396 0.440012,4.398732 0.371045,4.133179 1.176996,4.531968 0.387617,0.191795 0.709036,0.268887 0.739584,0.177387 0.02972,-0.08901 -0.09557,-1.824433 -0.278424,-3.856504 z m 2.340094,3.8248 c 0.402997,-0.183617 0.421178,-0.242531 0.338285,-1.096132 -0.333164,-3.430833 -0.72669,-11.189712 -0.852147,-16.801213 l -0.111519,-4.988102 -0.616897,-0.314717 c -0.339293,-0.173095 -0.704527,-0.314718 -0.81163,-0.314718 -0.424637,0 0.04308,12.842141 0.755658,20.747979 0.130947,1.452828 0.238086,2.71338 0.238086,2.801226 0,0.218447 0.544052,0.200832 1.060164,-0.03432 l 0,0 z m 2.09144,-1.414492 0.619278,-0.634199 -0.17757,-4.034511 c -0.09766,-2.218981 -0.217434,-5.678709 -0.266155,-7.688285 -0.04872,-2.009575 -0.130477,-4.550222 -0.181681,-5.645882 l -0.0931,-1.99211 -0.721575,-0.422871 c -0.396866,-0.232579 -0.759222,-0.385225 -0.805234,-0.339212 -0.223023,0.223023 0.676008,21.391269 0.908503,21.391269 0.05404,0 0.376929,-0.285389 0.717532,-0.634199 l 0,0 z M 38.824694,65.53659 c -7.77e-4,-0.111643 -0.110741,-1.116431 -0.244365,-2.232861 -0.51574,-4.309001 -0.90419,-10.361903 -1.002282,-15.617758 -0.100221,-5.369904 -0.10818,-5.470032 -0.441938,-5.559638 -0.532489,-0.14296 -1.204245,-0.111233 -1.311267,0.06193 -0.154214,0.249524 0.212955,10.986659 0.486062,14.213893 0.136049,1.60766 0.37951,4.039943 0.541025,5.405074 l 0.293663,2.482053 0.711677,0.725148 c 0.732798,0.746665 0.969875,0.874625 0.967425,0.522158 l 0,0 z m -3.14913,-5.364926 c -0.465046,-4.15008 -0.750883,-8.403413 -0.857467,-12.759314 -0.102912,-4.205843 -0.109987,-4.273817 -0.405616,-3.897358 -0.450992,0.574301 -1.358368,2.53735 -1.640792,3.549745 -0.525752,1.884647 -0.653329,3.18129 -0.554108,5.631759 0.156388,3.862385 1.062606,6.683801 3.01079,9.373787 0.317241,0.438037 0.605831,0.709342 0.641311,0.602903 0.03548,-0.10644 -0.05187,-1.232125 -0.194118,-2.501522 l 0,0 z"
       id="path6496"
       inkscape:connector-curvature="0"
       transform="matrix(0.8,0,0,-0.8,0,76.799981)" /><path
       style="fill:#800080;fill-opacity:0.88888891;fill-rule:evenodd;stroke:#000000;stroke-width:0.16238992;stroke-linejoin:miter;stroke-miterlimit:4;stroke-opacity:1;stroke-dasharray:none"
       d="M 69.650073,53.449302 C 69.505797,53.287083 69.268601,52.86599 69.122972,52.51354 68.732796,51.569243 68.118615,50.838102 67.41328,50.478266 l -0.624196,-0.318441 -0.116196,-1.704753 c -0.114064,-1.673468 -0.047,-2.556134 0.227033,-2.988175 0.111701,-0.176107 0.267133,-0.151633 0.816298,0.12853 1.522976,0.776964 2.62831,2.423604 2.857331,4.256628 0.122613,0.981359 -0.169504,3.219817 -0.474641,3.637116 -0.167751,0.229413 -0.212906,0.225402 -0.448836,-0.03987 l 0,0 z"
       id="path6498"
       inkscape:connector-curvature="0"
       transform="matrix(0.8,0,0,-0.8,0,76.799981)" /><path
       style="fill:#535d6c;fill-opacity:0.88888891000000003;fill-rule:evenodd;stroke:#000000;stroke-width:1;stroke-linejoin:miter;stroke-miterlimit:4;stroke-opacity:1;stroke-dasharray:none"
       d="M 24.219131,83.472922 0.79438514,71.682503 l 0,-23.393356 0,-23.393358 L 24.196927,13.123882 C 37.068326,6.6493329 47.615071,1.3519743 47.634137,1.3519743 c 0.01907,0 10.570194,5.2979453 23.446949,11.7732117 l 23.412283,11.773213 0,23.390003 0,23.390002 -16.27959,8.17746 C 69.260005,84.353467 58.71887,89.660077 54.789033,91.648332 L 47.643877,95.263341 24.219131,83.472922 z m 18.147074,-1.224711 c 0,-0.119639 -0.443926,-0.562265 -0.986501,-0.983613 -0.987433,-0.76681 -1.449348,-1.489303 -1.449348,-2.266954 0,-0.315795 -0.104909,-0.412798 -0.533363,-0.493178 -0.29335,-0.05503 -0.703639,-0.219325 -0.911756,-0.365096 -0.321,-0.224837 -0.365977,-0.366347 -0.296528,-0.93295 0.04503,-0.367352 0.134297,-0.795795 0.198376,-0.952095 0.0936,-0.228294 0.03223,-0.284183 -0.312055,-0.284183 -0.548469,0 -1.408898,-0.35876 -1.698798,-0.708323 -0.306593,-0.369687 -0.28391,-1.464847 0.0406,-1.960105 0.146151,-0.223054 0.265728,-0.435322 0.265728,-0.471707 0,-0.03638 -0.287011,-0.112049 -0.637804,-0.168142 -0.792612,-0.126744 -1.255271,-0.675773 -1.403732,-1.665783 -0.08221,-0.548207 -0.16834,-0.706419 -0.347213,-0.63778 -0.680672,0.2612 -1.536834,0.263585 -2.496232,0.007 -1.894976,-0.506889 -1.804618,-0.508209 -1.603654,0.02345 0.436974,1.156019 2.31204,3.723881 4.492261,6.152046 3.160843,3.520313 7.680022,6.878772 7.680022,5.707466 z m 13.526822,-0.870116 c 1.84079,-1.307675 6.110357,-5.595172 7.696548,-7.728867 1.269009,-1.707034 2.277554,-3.462476 2.094468,-3.645562 -0.04995,-0.04995 -0.649349,0.07498 -1.331994,0.277639 -1.180214,0.350368 -2.087857,0.377493 -2.849652,0.08516 -0.202432,-0.07768 -0.272068,0.05616 -0.339228,0.652007 -0.104941,0.931027 -0.614919,1.512573 -1.442477,1.644904 l -0.608415,0.09729 0.314824,0.587395 c 0.173154,0.323066 0.314825,0.795054 0.314825,1.048862 0,0.652497 -0.768824,1.374124 -1.606746,1.508113 -0.745569,0.119222 -0.74082,0.108142 -0.474005,1.105734 0.242866,0.908051 0.08186,1.132444 -1.014094,1.413329 -0.774493,0.198497 -0.802513,0.226028 -0.802513,0.788523 0,0.730689 -0.471269,1.407081 -1.583302,2.272447 -1.810297,1.408744 -0.368867,1.314244 1.631761,-0.106978 l 0,0 z M 43.899968,70.361048 c 0.780696,-0.370463 2.168092,-1.902407 2.8039,-3.096028 l 0.521503,-0.979028 0.01965,-10.540192 0.01965,-10.540194 -0.703543,-0.61252 c -0.898019,-0.781838 -4.147222,-2.396947 -6.143603,-3.053851 -2.226056,-0.73248 -4.837322,-1.290989 -6.549741,-1.40089 l -1.48856,-0.09553 -0.600455,0.587499 c -1.67994,1.643694 -2.526087,5.655992 -2.088289,9.902331 0.558368,5.415787 2.628853,10.375292 6.158219,14.751007 1.691471,2.097087 5.11741,5.112627 6.11153,5.379419 0.486432,0.130544 1.292745,0.005 1.939738,-0.302018 z m 5.57526,0.159825 c 0.429763,-0.301018 0.456778,-0.714685 0.09266,-1.418816 -0.342536,-0.662388 -1.519739,-2.22575 -1.67598,-2.22575 -0.1389,0 -1.492259,1.702863 -1.766092,2.222186 -0.314975,0.597346 -0.232697,1.278738 0.178346,1.476977 0.581804,0.280593 2.745707,0.243336 3.171068,-0.0546 l 0,0 z m 4.664246,-0.05545 c 1.480741,-0.68641 4.475386,-3.527213 6.522427,-6.187357 3.802363,-4.941199 5.907001,-11.804925 5.399429,-17.608821 -0.261425,-2.989299 -0.830258,-4.645141 -2.023596,-5.890575 L 63.323,40.032734 61.865186,40.136212 c -4.043545,0.287019 -10.558349,2.570358 -12.651817,4.434267 l -0.703968,0.626774 -0.01478,10.474149 c -0.0166,11.763799 -0.107151,10.839735 1.2483,12.739227 0.794716,1.113696 1.629017,1.823887 2.514426,2.14038 0.790345,0.282513 1.12044,0.267503 1.882131,-0.08558 l -6e-6,0 z M 32.341958,69.312458 c 0.862581,-0.678508 1.166224,-2.719513 0.689536,-4.634894 -0.244551,-0.982635 -3.393418,-7.416895 -3.793771,-7.752029 -0.35362,-0.296013 -1.045341,0.201756 -1.311678,0.943898 -0.163186,0.454711 -0.229576,1.38305 -0.226049,3.160837 0.0045,2.248831 0.051,2.669706 0.436724,3.949704 0.237451,0.787965 0.579832,1.72297 0.760848,2.077789 0.615484,1.206447 2.08756,2.576987 2.769599,2.578565 0.144256,3.25e-4 0.447911,-0.145407 0.674791,-0.32387 z m 32.563912,0.09539 c 1.076379,-0.562327 2.252985,-2.385844 2.813989,-4.361149 0.329992,-1.161909 0.380075,-1.698515 0.382433,-4.097625 0.0029,-2.975987 -0.125578,-3.612671 -0.80225,-3.974815 -0.230128,-0.123161 -0.474398,-0.147492 -0.625523,-0.06231 -0.2137,0.120457 -1.424051,2.346513 -3.046718,5.603473 -1.036365,2.080158 -1.326511,4.359557 -0.746334,5.863259 0.453919,1.176468 1.106959,1.508459 2.024403,1.029164 l 0,0 z M 26.325619,53.600931 c 0.136809,-0.1563 0.392341,-0.613022 0.567848,-1.014937 0.432099,-0.989507 1.087613,-1.730982 1.738328,-1.966284 0.5105,-0.1846 0.545354,-0.248065 0.641523,-1.168155 0.252113,-2.412099 0.03457,-4.335497 -0.490358,-4.335497 -0.374273,0 -1.876566,1.026237 -2.436113,1.664142 -0.806382,0.919306 -1.194651,2.166532 -1.190003,3.822609 0.0054,1.911662 0.340557,3.282304 0.802695,3.282304 0.06453,0 0.229271,-0.127882 0.36608,-0.284182 z M 70.442394,53.15214 c 0.135618,-0.387908 0.232368,-1.363224 0.241415,-2.43363 0.01354,-1.603183 -0.02812,-1.877841 -0.406468,-2.679434 -0.231861,-0.491229 -0.688828,-1.164813 -1.01548,-1.496852 -0.733322,-0.74541 -1.974668,-1.489822 -2.285475,-1.370553 -0.424851,0.16303 -0.581667,1.240814 -0.470954,3.236834 l 0.106059,1.912133 0.542781,0.257567 c 0.702845,0.333521 1.468617,1.213532 1.869193,2.148037 0.590378,1.377296 1.039209,1.512014 1.418929,0.425898 l 0,0 z M 28.283723,43.517519 c 0.398849,-0.157598 2.227256,-2.297865 2.231324,-2.611909 0.0018,-0.140401 -0.34529,-0.938277 -0.771352,-1.773059 -0.741733,-1.453271 -0.77428,-1.574062 -0.765773,-2.841824 0.0072,-1.06941 0.09791,-1.541614 0.471813,-2.455407 0.515112,-1.258902 0.562661,-2.187764 0.144657,-2.825722 -0.462727,-0.70621 -1.24335,-1.315886 -2.085931,-1.62914 -2.444107,-0.908667 -3.994476,-0.392608 -5.00197,1.664961 -1.21818,2.487848 -1.231155,5.352733 -0.03541,7.818627 1.026764,2.11742 3.974286,4.736839 5.361229,4.764444 0.08931,0.0018 0.292451,-0.04816 0.451416,-0.110971 z M 51.534525,42.00244 c 3.662917,-1.643532 5.311424,-2.078758 9.705638,-2.56241 1.583204,-0.174258 3.008176,-0.386699 3.166603,-0.472094 1.461917,-0.78799 1.623417,-3.102329 0.35448,-5.079797 -2.450055,-3.818079 -8.894507,-6.18581 -16.873784,-6.199532 -6.301541,-0.01083 -11.340862,1.310399 -14.738024,3.864091 -2.899348,2.179479 -3.935711,5.387467 -2.225544,6.889014 0.580541,0.509722 0.805847,0.56138 3.647594,0.836322 3.976681,0.384748 7.205985,1.374673 11.836642,3.628464 l 1.505113,0.732554 0.920851,-0.419062 c 0.506469,-0.230484 1.721663,-0.778381 2.700431,-1.21755 l 0,0 z m 17.913883,1.06363 c 0.902042,-0.52506 2.692432,-2.204446 3.315299,-3.109752 1.151144,-1.67313 1.627066,-3.725308 1.402549,-6.047796 -0.247938,-2.56476 -1.64961,-4.694189 -3.247636,-4.933827 -1.786943,-0.26797 -4.200116,0.886502 -4.786482,2.28987 -0.324583,0.776837 -0.270319,1.361368 0.225022,2.423978 0.390392,0.837469 0.444681,1.150773 0.446573,2.577264 l 0.0022,1.623899 -0.771352,1.419369 c -0.424243,0.780653 -0.771352,1.501628 -0.771352,1.602165 0,0.268652 1.955967,2.429126 2.345844,2.591115 0.444172,0.184546 0.998819,0.05299 1.839381,-0.436285 l -5e-6,0 z M 30.270541,30.334715 c 0.05651,-0.09144 0.750358,-0.6017 1.541881,-1.13392 1.784124,-1.199643 2.255489,-1.788894 2.428098,-3.035362 0.07176,-0.518176 0.09703,-0.998819 0.05617,-1.068093 -0.04086,-0.06928 -0.289538,0.104465 -0.552613,0.386088 -0.414282,0.44349 -0.55599,0.499437 -1.058475,0.417896 -0.87033,-0.141235 -1.686694,-0.829056 -1.686694,-1.42111 0,-0.407456 0.0767,-0.498305 0.490549,-0.581075 0.269801,-0.05396 0.526553,-0.156367 0.570559,-0.227568 0.04401,-0.0712 -0.294681,-0.555023 -0.752635,-1.075158 -1.350319,-1.533662 -1.411797,-1.992376 -0.267875,-1.998747 0.580419,-0.0032 0.570422,-0.310238 -0.0288,-0.884327 -1.033134,-0.989805 -1.037497,-2.203568 -0.0079,-2.203568 0.488011,0 0.495663,-0.01223 0.381052,-0.608962 -0.263684,-1.372896 -0.01551,-2.177033 1.032709,-3.346278 0.614715,-0.685686 0.539158,-1.035218 -0.184518,-0.853587 -0.618543,0.155245 -2.047274,1.385619 -2.710659,2.334327 -1.201478,1.718232 -1.2879,2.398333 -1.119232,8.807707 0.077,2.926103 0.06617,2.974894 -0.897274,4.041312 -0.299322,0.331314 -0.494249,0.681654 -0.433169,0.778536 0.06108,0.09688 0.62258,0.445446 1.247782,0.774589 0.625201,0.329143 1.243733,0.703091 1.374515,0.830996 0.281326,0.275137 0.436457,0.292978 0.576549,0.0663 l 0,0 z m 35.804592,0.02196 c 0,-0.07936 0.589243,-0.450851 1.309429,-0.825533 0.720185,-0.374683 1.349616,-0.785971 1.398738,-0.913975 0.05091,-0.132667 -0.08707,-0.371475 -0.32091,-0.555412 -0.22562,-0.177473 -0.572167,-0.657218 -0.770102,-1.0661 -0.353175,-0.729563 -0.35768,-0.82008 -0.241641,-4.855239 0.12746,-4.43234 0.03534,-5.223785 -0.76582,-6.579319 -0.724199,-1.225321 -2.643003,-2.923018 -3.30371,-2.923018 -0.530853,0 -0.492938,0.227392 0.173528,1.040725 0.9737,1.188273 1.290436,2.3891 0.900608,3.414426 -0.146421,0.385116 -0.124366,0.416546 0.292302,0.416546 1.042804,0 1.12574,0.908983 0.190848,2.091709 -0.357257,0.451965 -0.649559,0.860443 -0.649559,0.907727 0,0.04728 0.176712,0.08597 0.392693,0.08597 1.169652,0 1.172976,0.447152 0.01328,1.786289 -0.491229,0.567239 -0.893144,1.090612 -0.893144,1.163053 0,0.07244 0.255764,0.238573 0.568364,0.369185 0.715269,0.298859 0.73767,0.709324 0.07488,1.372115 -0.835144,0.835144 -2.253316,0.829688 -2.519727,-0.0097 -0.194895,-0.614065 -0.437387,-0.08536 -0.349851,0.762779 0.111851,1.08374 0.594139,1.819591 1.71526,2.617053 0.484872,0.344894 1.218403,0.896409 1.630073,1.225591 0.735214,0.5879 1.154462,0.760441 1.154462,0.475117 l -1e-6,2e-6 z M 54.447717,27.366534 c 0.262939,-0.192266 0.271175,-0.306246 0.09095,-1.258522 -0.238364,-1.259449 -0.794824,-2.447951 -1.409219,-3.009851 -1.20586,-1.102828 -3.271723,-1.608767 -6.112254,-1.496914 -1.547413,0.06093 -1.957193,0.138015 -2.832299,0.53278 -1.675168,0.755678 -2.814982,2.305827 -3.180366,4.325298 -0.180782,0.999177 -0.08729,1.018907 3.91943,0.827177 3.111373,-0.148887 7.29227,-0.04208 7.916396,0.202235 0.375418,0.146958 1.339503,0.07366 1.607363,-0.122203 z M 43.186501,22.375525 c 0.255452,-0.181897 0.686918,-0.408272 0.95881,-0.503056 0.827424,-0.288442 0.698235,-0.434789 -1.502137,-1.701653 -1.590202,-0.915558 -1.791902,-1.276635 -1.194601,-2.138541 0.236753,-0.341635 0.430462,-0.672034 0.430462,-0.73422 0,-0.323544 -0.579224,-0.02537 -1.299659,0.669032 -0.951153,0.91679 -1.043624,1.454746 -0.419899,2.44279 0.386926,0.612931 2.159495,2.289629 2.425244,2.294076 0.07553,0.0013 0.346328,-0.14653 0.60178,-0.328428 l 0,0 z M 54.446982,21.71183 c 1.582902,-1.450444 1.906048,-2.293622 1.25655,-3.278693 -0.43546,-0.66045 -1.807643,-1.543639 -1.807643,-1.163469 0,0.04657 0.197235,0.382719 0.4383,0.746994 0.40798,0.6165 0.421725,0.692086 0.198682,1.09265 -0.134525,0.241592 -0.771902,0.72833 -1.453238,1.109773 -2.139664,1.197884 -2.287457,1.371694 -1.416606,1.66599 0.290272,0.0981 0.710456,0.321364 0.933743,0.496154 0.223286,0.174788 0.48675,0.319422 0.585477,0.321408 0.09873,0.002 0.667856,-0.443876 1.264735,-0.990807 l 0,0 z"
       id="path8020"
       inkscape:connector-curvature="0"
       transform="matrix(0.8,0,0,-0.8,0,76.799981)" /></g></svg>
