<?xml version="1.0" encoding="UTF-8" standalone="no"?>
<!-- Generator: Adobe Illustrator 12.0.0, SVG Export Plug-In . SVG Version: 6.00 Build 51448)  -->

<svg
   xmlns:dc="http://purl.org/dc/elements/1.1/"
   xmlns:cc="http://creativecommons.org/ns#"
   xmlns:rdf="http://www.w3.org/1999/02/22-rdf-syntax-ns#"
   xmlns:svg="http://www.w3.org/2000/svg"
   xmlns="http://www.w3.org/2000/svg"
   xmlns:sodipodi="http://sodipodi.sourceforge.net/DTD/sodipodi-0.dtd"
   xmlns:inkscape="http://www.inkscape.org/namespaces/inkscape"
   height="96"
   id="Layer_1"
   inkscape:version="0.48.2 r9819"
   sodipodi:docname="light_spider_tile.svg"
   sodipodi:version="0.32"
   style="overflow:visible"
   version="1.1"
   viewBox="0 0 95.999996 96.000004"
   width="96"
   xml:space="preserve"><metadata
   id="metadata4289"><rdf:RDF><cc:Work
       rdf:about=""><dc:title /><dc:description /><dc:subject><rdf:Bag><rdf:li>architetto francesco rollandin</rdf:li><rdf:li>insect</rdf:li></rdf:Bag></dc:subject><dc:publisher><cc:Agent
           rdf:about="http://www.openclipart.org/"><dc:title>Open Clip Art Library</dc:title></cc:Agent></dc:publisher><dc:creator><cc:Agent><dc:title>Architetto Francesco Rollandin</dc:title></cc:Agent></dc:creator><dc:rights><cc:Agent><dc:title>Architetto Francesco Rollandin</dc:title></cc:Agent></dc:rights><dc:date /><dc:format>image/svg+xml</dc:format><dc:type
         rdf:resource="http://purl.org/dc/dcmitype/StillImage" /><cc:license
         rdf:resource="http://web.resource.org/cc/PublicDomain" /><dc:language>en</dc:language></cc:Work><cc:License
       rdf:about="http://web.resource.org/cc/PublicDomain"><cc:permits
         rdf:resource="http://web.resource.org/cc/Reproduction" /><cc:permits
         rdf:resource="http://web.resource.org/cc/Distribution" /><cc:permits
         rdf:resource="http://web.resource.org/cc/DerivativeWorks" /></cc:License></rdf:RDF></metadata>
<defs
   id="defs220" />
<sodipodi:namedview
   bordercolor="#666666"
   borderopacity="1.0"
   id="base"
   inkscape:current-layer="Layer_1"
   inkscape:cx="48"
   inkscape:cy="48"
   inkscape:pageopacity="0.0"
   inkscape:pageshadow="2"
   inkscape:window-height="852"
   inkscape:window-width="1440"
   inkscape:window-x="0"
   inkscape:window-y="0"
   inkscape:zoom="6.6041667"
   pagecolor="#ffffff"
   showgrid="false"
   inkscape:window-maximized="0" />
<path
   sodipodi:type="star"
   style="fill:#53676c;fill-opacity:0;fill-rule:evenodd;stroke:#000000;stroke-width:2.72098231;stroke-linecap:butt;stroke-linejoin:miter;stroke-miterlimit:4;stroke-opacity:1;stroke-dasharray:none"
   id="path4401"
   sodipodi:sides="6"
   sodipodi:cx="157.21944"
   sodipodi:cy="119.23353"
   sodipodi:r1="139.80923"
   sodipodi:r2="121.07834"
   sodipodi:arg1="0"
   sodipodi:arg2="0.52359878"
   inkscape:flatsided="true"
   inkscape:rounded="0"
   inkscape:randomized="0"
   d="m 297.02867,119.23353 -69.90462,121.07835 -139.809231,0 -69.904617,-121.07835 69.904617,-121.0783507 139.809231,0 z"
   transform="matrix(0,-0.34201063,-0.39491986,0,95.11438,102.12276)" /><path
   d="m 33.31549,76.867056 c -1.8847,-1.02006 -2.95896,-1.98546 -4.04875,-3.72547 -1.01387,-1.61875 -1.70756,-3.38126 -2.32972,-5.13296 -0.55334,-1.5571 -0.70685,-3.21733 -0.70685,-4.83813 0,-0.82428 0,-1.64885 0,-2.47312 0,-0.79653 0.40624,-1.50042 0.55638,-2.28028 0.70549,-3.66557 2.32262,-6.5875 5.95773,-8.68633 0.60731,-0.35063 -0.47809,-1.85483 -0.65185,-2.15609 -0.34719,-0.60163 -2.01054,-1.15767 -2.67116,-1.52174 -1.54629,-0.85233 -3.80685,-0.0374 -5.21513,0.5724 -4.62434,2.00241 -7.25434,5.79566 -9.01386,9.85948 -1.66573,3.84644 -1.09687,7.93422 -0.0958,11.83588 -0.91198,0.0988 -1.7342,0.32667 -2.58478,0.0111 -1.28514,-0.47716 -1.21395,-0.46371 -1.46194,-1.62255 -0.4096,-1.91533 -1.01421,-3.84059 -1.01421,-5.79244 0,-3.26907 0.84821,-6.38004 2.78351,-9.25113 1.90055,-2.81908 4.59938,-5.71705 8.01315,-7.19526 0.83978,-0.36349 1.63401,-0.70301 2.52339,-0.95956 0.86339,-0.24925 1.59993,-0.0228 2.50009,0.11162 1.383,0.20658 2.76598,0.41316 4.14863,0.61944 1.0665,0.15925 1.15558,0.33719 1.81214,-0.38657 0.74464,-0.82077 1.48928,-1.64125 2.23357,-2.46202 -0.0985,0.10841 -1.26288,-2.04827 -1.3091,-2.14879 -0.75645,-1.63745 -2.30711,-2.46465 -3.95427,-3.41545 -1.73321,-1.00076 -3.81629,-1.3733 -5.79782,-1.90129 -2.10838,-0.56189 -3.69819,-0.36904 -5.74146,0.0967 -0.70144,0.15983 -2.02336,0.21827 -2.55375,0.6776 -0.75239,0.65159 -1.50477,1.30318 -2.25684,1.95448 -1.59925,1.385 -2.7808103,2.7098 -3.7005504,4.50211 -0.75509,1.47149 -1.31821,3.00404 -1.54932,4.60613 -0.16734,1.15972 0.0425,4.25434 -1.70587,4.58568 -0.85665,0.16247 -1.93328,-0.82398 -2.58513,-1.20033 -0.44638,-0.25771 -0.006,-1.3511 0.058,-1.75958 0.33266,-2.13272 0.66568,-4.26544 0.99834,-6.39816 0.21492,-1.37623 1.95454,-3.23691 2.76395,-4.40481 0.98013,-1.4148 2.8496401,-2.70425 4.1864104,-3.86192 1.46092,-1.2652 3.24574,-1.23334 5.1301,-1.58281 1.90224,-0.35297 3.53186,-0.27788 5.4594,-0.0692 4.21002,0.45581 7.55091,1.84344 11.11146,3.77046 1.79629,0.97212 2.96941,2.44098 4.12297,3.93905 0.3492,0.45349 4.10678,-1.63277 4.92395,-1.86887 4.25996,-1.22984 8.43692,-1.85805 12.87063,-2.51636 1.00275,-0.14873 1.52571,-2.90469 2.10941,-3.74709 1.02838,-1.48405 1.98895,-3.3459 3.29771,-4.66837 1.35261,-1.3663 2.81893,-2.48832 4.39491,-3.65797 0.74665,-0.55429 0.94909,-0.13967 1.72848,-0.58935 1.18628,-0.6849 2.37256,-1.3698 3.55885,-2.055 2.54531,-1.46944 7.89843,-1.25409 10.5669,-0.0988 0.96022,0.41579 1.92518,0.7898 2.9124,1.15621 0.79455,0.29512 1.62624,1.47382 2.20792,2.01643 0.58807,0.54874 1.10294,0.98469 1.48588,1.64797 0.67108,1.16292 0.996,1.44489 0.59112,2.6721 -0.60191,1.82446 -3.46573,-0.35093 -3.94315,-1.31487 -0.82054,-1.65819 -2.05676,-3.07153 -3.98059,-3.73803 -1.9903,-0.68957 -4.27413,-0.37868 -6.40107,-0.37868 -0.65388,0 -1.34553,0.54465 -1.89144,0.81844 -1.04964,0.52623 -2.09962,1.05248 -3.14926,1.57872 -0.30973,0.15515 -0.47538,0.51951 -0.78545,0.67058 -0.35764,0.17415 -0.83944,0.0696 -1.14344,0.3328 -0.75137,0.65072 -1.46463,1.12057 -2.14617,1.85864 -1.35903,1.4712 -2.16709,2.50557 -2.95288,4.23798 -0.498,1.09748 -0.99533,2.19496 -1.49332,3.29244 -0.4791,1.05627 -0.18017,0.86021 1.07562,1.29528 0.91367,0.31645 1.52098,0.61771 2.33275,0.0319 0.82325,-0.59432 1.64953,-1.12699 2.55611,-1.62547 3.34528,-1.83906 7.25906,-2.5561 11.15296,-2.13477 4.00825,0.43391 7.21858,2.49796 10.23894,4.73996 0.77197,0.573 1.40053,1.23218 2.07161,1.89605 0.58809,0.58205 0.65152,1.38762 1.13837,1.91474 1.42753,1.5457 2.03923,2.8293 2.55847,4.74112 0.39072,1.43848 1.01455,3.00814 0.58606,4.4919 -0.48888,1.69326 -3.53658,1.01361 -3.82101,-0.46401 -0.68018,-3.53495 -1.06211,-6.63366 -3.80784,-9.48693 -0.65083,-0.67613 -1.41369,-0.95343 -2.1509,-1.53401 -0.75002,-0.59082 -1.20652,-1.41802 -2.02438,-1.97231 -1.41334,-0.9581 -3.41477,-1.75316 -5.21073,-1.75316 -0.75206,0 -1.47611,-0.0251 -2.21433,0.10286 -0.86677,0.15018 -2.48931,0.14288 -3.22382,0.56685 -1.95689,1.12962 -3.91378,2.25952 -5.87035,3.38914 -0.45953,0.26561 0.053,1.6284 0.11876,2.055 0.20885,1.35665 0.0691,1.31721 1.64009,1.54395 1.87457,0.27057 3.34291,1.09456 4.97591,1.80167 3.79772,1.64446 5.83796,4.71571 7.54012,7.95875 1.83881,3.5034 1.41774,7.68469 1.70486,11.49606 0.0348,0.46108 -0.20446,1.34759 -0.72507,1.54657 -0.31276,0.11951 -2.78249,-0.23842 -3.03655,-0.43829 -0.43491,-0.34186 -0.25305,-1.45132 -0.25305,-1.86156 0,-1.25848 0,-2.51636 0,-3.77455 0,-3.33393 -0.83337,-6.37244 -2.78351,-9.26545 -1.79124,-2.6572 -5.5036,-5.26502 -9.19066,-4.94566 -1.2757,0.11045 -1.56383,0.20981 -2.57602,0.89149 -0.76521,0.51543 -1.43528,0.902 -2.28923,1.2915 -1.96196,0.8944 -3.72721,1.61407 -5.80827,2.21482 -3.7343,1.0779 -7.503,2.08188 -11.47112,2.08188 -1.80574,0 -4.14322,-0.41579 -5.75934,0.28401 -0.8995,0.38949 -1.72983,0.60279 -2.25414,1.35928 -0.59787,0.86314 -1.64312,1.27717 -2.60402,1.83234 -0.6198,0.35794 -1.51626,3.93672 -1.59352,4.60439 -0.18557,1.60677 -0.40521,3.23633 -0.11236,4.84251 0.61744,3.38652 0.84956,7.73407 4.18101,10.04211 0.97743,0.6773 1.36747,0.83741 1.01421,1.90801 -0.36674,1.10946 -0.99194,0.76701 -2.27809,0.76701"
   id="path3"
   style="fill:#0e0d0d;fill-rule:evenodd"
   inkscape:connector-curvature="0" /><path
   d="m 49.51048,45.748466 c 1.91034,-0.33076 5.59976,-0.66591 6.83227,1.09573 0.87722,1.25351 -0.73181,1.18105 -1.77369,1.06796 -1.42044,-0.15369 -2.77644,-0.19138 -4.20598,-0.19138 -1.05064,0 -2.60807,0.86489 -3.38307,1.42444 -0.74901,0.54056 -2.78351,2.10438 -2.78351,0.43157 0,-2.11402 3.32369,-3.48353 5.31398,-3.82832"
   id="path5"
   style="fill:#ffbf00;fill-rule:evenodd"
   inkscape:connector-curvature="0" /><path
   d="m 50.77571,45.091036 c -0.42174,0.073 -0.84349,0.14609 -1.26523,0.21914 0.29893,1.03495 0.32694,0.86402 1.51829,0.65744 -0.45819,-0.007 -0.25306,-0.53004 -0.25306,-0.87658"
   id="path7"
   inkscape:connector-curvature="0" /><path
   d="m 52.04095,45.091036 c -1.18696,0 -1.26524,-0.16831 -1.26524,0.87658 0.70178,-0.12155 1.56855,-0.0319 1.26524,-0.87658"
   id="path9"
   inkscape:connector-curvature="0" /><path
   d="m 53.30618,45.091036 c -0.34043,0 -1.99097,-0.13266 -1.26523,0.65743 0.76453,0.83246 1.14208,-0.22996 1.26523,-0.65743"
   id="path11"
   inkscape:connector-curvature="0" /><path
   d="m 54.31838,45.310176 c -1.07866,-0.23346 -0.99533,-0.2767 -1.26525,0.65744 0.68762,0 1.24769,0.13149 1.26525,-0.65744"
   id="path13"
   inkscape:connector-curvature="0" /><path
   d="m 55.33056,45.529316 c -0.77028,-0.16683 -1.13433,-0.40322 -1.26524,0.4383 0.3374,0.073 0.6748,0.14609 1.01219,0.21915 -0.0843,0 -0.16869,0 -0.25305,0 0.16871,-0.21915 0.3374,-0.4383 0.5061,-0.65745"
   id="path15"
   inkscape:connector-curvature="0" /><path
   d="m 56.0897,45.967616 c -0.13294,-0.0766 -0.61946,-0.46254 -0.75914,-0.4383 -0.0611,0.0106 -0.51824,0.60456 -0.5061,0.65745 0.0122,0.0528 0.69808,0.4488 0.75915,0.43829 0.13968,-0.024 0.4177,-0.54261 0.50609,-0.65744"
   id="path17"
   inkscape:connector-curvature="0" /><path
   d="m 56.84885,46.625056 c -0.4231,-0.031 -0.52061,-0.34742 -0.75915,-0.65744 -0.34516,0.44852 -0.75205,0.74976 0,1.09573 -0.0843,-0.073 -0.1687,-0.1461 -0.25305,-0.21915 0.33741,-0.073 0.6748,-0.1461 1.0122,-0.21914 -0.0843,0 -0.1687,0 -0.25305,0 0.0843,0 0.16869,0 0.25305,0"
   id="path19"
   inkscape:connector-curvature="0" /><path
   d="m 57.10189,47.282486 c -0.13092,-0.84152 -0.49496,-0.60514 -1.26524,-0.43829 0.16871,0.21915 0.33741,0.43829 0.5061,0.65744 -0.0843,-0.073 -0.16869,-0.1461 -0.25305,-0.21915 0.3374,0 0.67479,0 1.01219,0"
   id="path21"
   inkscape:connector-curvature="0" /><path
   d="m 56.84885,48.159066 c 0.91299,-1.06826 -0.93729,-1.18017 -0.75915,-0.43829 0.0843,-0.073 0.1687,-0.1461 0.25305,-0.21914 0.1687,0.21914 0.3374,0.43828 0.5061,0.65743 0.16194,-0.21184 0.21525,-0.18672 0.25304,-0.43829 -0.0843,0.14609 -0.16364,0.29453 -0.25304,0.43829"
   id="path23"
   inkscape:connector-curvature="0" /><path
   d="m 56.34275,48.378206 c 0.79827,-0.0479 0.28982,-0.49994 0,-0.87657 -0.0843,0.073 -0.16869,0.14609 -0.25305,0.21914 0.58201,0.0605 -0.0759,0.59695 0.5061,0.65743 -0.0843,0 -0.1687,0 -0.25305,0"
   id="path25"
   inkscape:connector-curvature="0" /><path
   d="m 54.82446,48.378206 c 0.58843,0 1.51829,0.26765 1.51829,-0.32872 0,-0.58818 -0.92278,-0.46195 -1.51829,-0.54785 0,0.29219 0,0.58438 0,0.87657"
   id="path27"
   inkscape:connector-curvature="0" /><path
   d="m 52.80009,47.939916 c -0.0843,0 -0.16871,0 -0.25305,0 0.75914,0.1461 1.51828,0.29219 2.27742,0.43829 0,-0.35472 0.20751,-0.85408 -0.2554,-0.90434 -0.58977,-0.0637 -1.1792,-0.12769 -1.76897,-0.19138 0,0.19781 -0.0614,0.46838 0,0.65743"
   id="path29"
   inkscape:connector-curvature="0" /><path
   d="m 51.53486,47.939916 c 0.86744,0 1.26523,0.24837 1.26523,-0.55458 0,-0.21301 -1.2018,-0.10285 -1.51828,-0.10285 0.0843,0 0.1687,0 0.25305,0 -0.0843,0 -0.1687,0 -0.25305,0 0.0803,0.2095 0.13057,0.46487 0.25305,0.65743"
   id="path31"
   inkscape:connector-curvature="0" /><path
   d="m 50.26962,48.159066 c 0.42175,-0.073 0.84349,-0.1461 1.26524,-0.21915 -0.0257,-0.93384 -0.78917,-0.56452 -1.51828,-0.43828 0.0759,0.19722 0.11875,0.48708 0.25304,0.65743"
   id="path33"
   inkscape:connector-curvature="0" /><path
   d="m 49.25743,48.378206 c -0.0843,0 -0.1687,0 -0.25304,0 0.42174,-0.073 0.84349,-0.1461 1.26523,-0.21914 -0.0239,-0.86782 -1.35599,-0.78746 -1.51828,-0.21915 0,-0.073 0,-0.14609 0,-0.21914 0.0149,0.27583 0.20784,0.50607 0.50609,0.65743"
   id="path35"
   inkscape:connector-curvature="0" /><path
   d="m 47.9922,49.035646 c 0.42174,-0.21915 0.84349,-0.43829 1.26523,-0.65744 -0.47572,-0.79301 -1.83441,-0.20307 -1.26523,0.65744"
   id="path37"
   inkscape:connector-curvature="0" /><path
   d="m 46.22087,50.131366 c 0.69402,-0.42952 2.23491,-0.88271 1.51828,-1.75316 -0.69402,0.42952 -2.23491,0.88301 -1.51828,1.75316"
   id="path39"
   inkscape:connector-curvature="0" /><path
   d="m 44.95564,50.788796 c 0.7534,-0.0818 1.57563,-0.63698 1.01218,-1.31486 -0.42174,0.21914 -0.84348,0.43829 -1.26523,0.65743 0.58202,0.0605 -0.0759,0.59695 0.5061,0.65743 -0.0843,0 -0.1687,0 -0.25305,0"
   id="path41"
   inkscape:connector-curvature="0" /><path
   d="m 44.1965,50.569656 c 0.77972,0.7635 1.19843,-0.61068 0.25305,-0.43829 0.0843,0.073 0.1687,0.1461 0.25304,0.21914 -0.4052,0.1087 -0.7507,0.33924 -0.25304,0.43829 -0.0843,-0.073 -0.1687,-0.14609 -0.25305,-0.21914"
   id="path43"
   inkscape:connector-curvature="0" /><path
   d="m 43.6904,50.131366 c 0.2625,0.10724 1.32799,0.76526 1.01219,-0.21914 -0.33739,0.073 -0.67479,0.1461 -1.01219,0.21914 0.0843,0 0.1687,0 0.25305,0 -0.0843,0 -0.16869,0 -0.25305,0"
   id="path45"
   inkscape:connector-curvature="0" /><path
   d="m 43.6904,49.254786 c 0,0.29219 0,0.58439 0,0.87658 1.28279,-0.27758 1.28279,-0.5987 0,-0.87658 0,0.073 0,0.1461 0,0.21915 0,-0.073 0,-0.1461 0,-0.21915"
   id="path47"
   inkscape:connector-curvature="0" /><path
   d="m 43.94345,48.597356 c -0.12247,0.19255 -0.1724,0.44823 -0.25305,0.65743 0.3374,0.073 0.6748,0.1461 1.01219,0.21915 0,-0.19928 0.0594,-0.46634 0,-0.65744 0,0.073 0,0.1461 0,0.21915 -0.25304,-0.1461 -0.50609,-0.29219 -0.75914,-0.43829"
   id="path49"
   inkscape:connector-curvature="0" /><path
   d="m 44.44955,47.939916 c -0.0884,0.11483 -0.5341,0.53647 -0.5061,0.65744 0.0121,0.0528 0.69807,0.44881 0.75914,0.43829 0.0611,-0.0106 0.51825,-0.60455 0.5061,-0.65744 -0.0276,-0.12067 -0.62654,-0.36144 -0.75914,-0.43829"
   id="path51"
   inkscape:connector-curvature="0" /><path
   d="m 45.20869,47.282486 c -0.25305,0.21915 -0.5061,0.43829 -0.75914,0.65743 0.80907,0.46722 0.72574,0.48153 1.26523,-0.21914 0,0.073 0,0.14609 0,0.21914 -0.1687,-0.21914 -0.3374,-0.43828 -0.50609,-0.65743"
   id="path53"
   inkscape:connector-curvature="0" /><path
   d="m 45.96782,46.625056 c -0.72539,0.62821 -0.82931,0.56626 -0.25304,1.31486 0.7254,-0.62821 0.82932,-0.56627 0.25304,-1.31486"
   id="path55"
   inkscape:connector-curvature="0" /><path
   d="m 46.98001,46.186766 c -0.3374,0.14609 -0.67479,0.29219 -1.01219,0.43829 0.59416,0.77197 0.57291,0.6285 1.51829,0.21914 -0.1687,-0.21914 -0.3374,-0.43829 -0.5061,-0.65743"
   id="path57"
   inkscape:connector-curvature="0" /><path
   d="m 48.24525,45.748466 c -0.42175,0.1461 -0.8435,0.2922 -1.26524,0.4383 0.31513,0.40935 0.32357,0.73661 0.86239,0.50315 0.61608,-0.26678 0.80469,-0.33427 0.40285,-0.94145"
   id="path59"
   inkscape:connector-curvature="0" /><path
   d="m 49.51048,45.310176 c -0.69908,0.24223 -1.66201,0.30096 -1.01219,1.09573 0.42175,-0.1461 0.8435,-0.2922 1.26524,-0.43829 0,0.073 0,0.14609 0,0.21915 -0.0843,-0.2922 -0.1687,-0.58439 -0.25305,-0.87659"
   id="path61"
   inkscape:connector-curvature="0" /><path
   d="m 44.70259,49.693076 c 1.6023,1.73446 3.36417,2.67942 5.82008,3.28718 -1.38669,-1.501 -2.41744,-3.13845 -2.78352,-5.04034 -0.86441,0.99843 -1.70789,1.29295 -3.03656,1.75316"
   id="path63"
   style="fill:#ffffaf;fill-rule:evenodd"
   inkscape:connector-curvature="0" /><path
   d="m 45.96782,50.569656 c -0.49529,-0.53617 -0.88262,-1.42999 -1.77132,-0.87658 0.33368,0.43361 0.68221,1.23277 1.26524,1.31487 -0.0843,0 -0.16871,0 -0.25305,0 0.3185,-0.0128 0.58436,-0.1797 0.75913,-0.43829"
   id="path65"
   inkscape:connector-curvature="0" /><path
   d="m 47.23306,51.446236 c -0.55163,-0.38219 -1.26186,-1.28565 -1.77132,-0.43829 0.50608,0.36524 1.01218,0.73049 1.51827,1.09573 0.0776,-0.20161 0.23416,-0.44647 0.25305,-0.65744"
   id="path67"
   inkscape:connector-curvature="0" /><path
   d="m 49.00439,52.103676 c -0.59045,-0.21915 -1.18089,-0.4383 -1.77133,-0.65744 -0.7335,0.89791 0.77398,1.03875 1.51828,1.31487 0.0759,-0.19665 0.24327,-0.45173 0.25305,-0.65743"
   id="path69"
   inkscape:connector-curvature="0" /><path
   d="m 50.01658,52.980256 c 0.19096,-0.1011 0.3465,-0.30009 0.50609,-0.43829 -0.50609,-0.1461 -1.01219,-0.2922 -1.51828,-0.43829 -0.10493,0.12944 -0.24698,0.49935 -0.25305,0.65743 0.68559,0.19782 1.5753,0.75094 2.02437,0 -0.19062,0.10606 -0.34481,0.29863 -0.50609,0.43829 0.42175,0.073 0.84349,0.14609 1.26524,0.21915 -0.55536,-0.48124 -0.72979,-0.81727 -1.51828,-0.43829"
   id="path71"
   inkscape:connector-curvature="0" /><path
   d="m 49.25743,52.103676 c 0.44368,0.51221 0.70314,1.16556 1.51828,0.65743 -0.25304,-0.36524 -0.50609,-0.73048 -0.75913,-1.09573 -0.25305,0.1461 -0.5061,0.2922 -0.75915,0.4383"
   id="path73"
   inkscape:connector-curvature="0" /><path
   d="m 48.24525,50.788796 c 0.53375,0.008 0.78715,0.92509 1.01218,1.31488 1.10194,-0.63611 0.42815,-0.8684 -0.25304,-1.75317 0.0843,0 0.1687,0 0.25304,0 -0.33739,0.1461 -0.67478,0.2922 -1.01218,0.43829 0.0843,0 0.16869,0 0.25304,0 -0.0843,0 -0.16869,0 -0.25304,0"
   id="path75"
   inkscape:connector-curvature="0" /><path
   d="m 47.73915,49.473936 c 0.1687,0.43829 0.33739,0.87657 0.5061,1.31486 1.30944,-0.56685 0.88634,-0.65655 0.25304,-1.75315 -0.0135,0.31499 -0.38192,0.4003 -0.75914,0.43829"
   id="path77"
   inkscape:connector-curvature="0" /><path
   d="m 47.9922,48.378206 c -0.21796,-0.1084 -0.51993,-0.15019 -0.75914,-0.21914 0.24562,0.63757 0.26587,1.70173 1.26523,1.09572 -0.21593,-0.56101 -0.25844,-1.35753 -1.01218,-1.53401 0.13731,0.0982 0.34582,0.1499 0.50609,0.21914 0.0317,-0.18175 0.0479,-0.4792 0,-0.65743 -0.75205,0.34595 -0.34516,0.64721 0,1.09572"
   id="path79"
   inkscape:connector-curvature="0" /><path
   d="m 46.98001,49.035646 c 1.08979,-0.0301 0.91704,-0.78075 0.5061,-1.31487 -0.3374,0.21914 -0.6748,0.43829 -1.01219,0.65743 0.55671,0.0178 0.20243,0.63961 0.75914,0.65744 -0.0843,0 -0.16869,0 -0.25305,0"
   id="path81"
   inkscape:connector-curvature="0" /><path
   d="m 46.22087,49.473936 c 0.60462,-0.34888 0.95855,-0.44589 0.5061,-1.09573 -0.3374,0.1461 -0.67479,0.29219 -1.01219,0.43829 0.36371,0.0117 0.46223,0.33105 0.50609,0.65744"
   id="path83"
   inkscape:connector-curvature="0" /><path
   d="m 44.95564,49.473936 c -0.10527,0.13119 -0.17039,0.29511 -0.25305,0.43829 0.7362,-0.21243 1.96499,-0.23025 1.26523,-1.09573 -0.64779,0.187 -1.56753,0.22382 -1.77132,0.87658 0.10459,-0.13178 0.17039,-0.29482 0.25305,-0.43829 -0.16095,0.031 -0.36946,0.13821 -0.5061,0.21915 0.27295,0.28518 0.64679,0.19898 1.01219,0"
   id="path85"
   inkscape:connector-curvature="0" /><path
   d="m 56.0897,47.063346 c 0.23247,1.9834 -1.63773,4.11495 -3.28961,5.25948 0.17105,-0.88827 0.32052,-1.72395 0.25304,-2.62975 -0.0486,-0.65071 -0.0428,-2.08859 -0.50609,-2.62973 1.3037,0.22586 2.23087,0.18934 3.54266,0"
   id="path87"
   style="fill:#ffffaf;fill-rule:evenodd"
   inkscape:connector-curvature="0" /><path
   d="m 56.5958,47.939916 c 0,-0.84152 0.11775,-0.87657 -0.90692,-0.87657 -0.1596,0 -0.19975,0.55574 -0.10527,0.65743 0.12551,0.13528 0.8057,0.17444 1.01219,0.21914 0,-0.073 0,-0.14609 0,-0.21914 0,0.073 0,0.14609 0,0.21914"
   id="path89"
   inkscape:connector-curvature="0" /><path
   d="m 56.34275,48.597356 c 0.12247,-0.19256 0.17274,-0.44823 0.25305,-0.65744 -0.3374,-0.073 -0.6748,-0.14609 -1.01219,-0.21914 -0.20412,0.57182 0.14103,0.81025 0.75914,0.87658"
   id="path91"
   inkscape:connector-curvature="0" /><path
   d="m 55.83665,49.473936 c 0.68897,-0.0187 0.42107,-1.97143 -0.75914,-0.43829 0.45616,0.0184 0.55603,0.41988 1.01219,0.43829 -0.0843,0 -0.1687,0 -0.25305,0"
   id="path93"
   inkscape:connector-curvature="0" /><path
   d="m 55.33056,50.131366 c 0.68256,-0.0219 0.51824,-0.85934 0,-1.09572 -0.1687,0.29219 -0.33739,0.58439 -0.5061,0.87658 0,-0.073 0,-0.1461 0,-0.21915 0.17512,0.2583 0.44065,0.42544 0.75915,0.43829 -0.0843,0 -0.1687,0 -0.25305,0"
   id="path95"
   inkscape:connector-curvature="0" /><path
   d="m 54.31838,51.665376 c 0.37551,-0.56919 1.5068,-1.52495 0.50608,-1.9723 -0.42174,0.51134 -0.84348,1.02268 -1.26523,1.53401 0,-0.073 0,-0.14609 0,-0.21914 0.25305,0.21914 0.50609,0.43829 0.75915,0.65743"
   id="path97"
   inkscape:connector-curvature="0" /><path
   d="m 52.29399,52.322826 c 0.83135,0.50461 1.4002,-0.22499 2.02439,-0.65745 -0.25306,-0.21914 -0.5061,-0.43829 -0.75915,-0.65743 -0.3374,0.36524 -0.67479,0.73049 -1.01219,1.09573 0.17275,0.0564 0.32829,0.18028 0.50609,0.21915 -0.97506,-0.2624 -0.87182,0.48796 -1.01218,1.09572 0.33739,-0.2922 0.67479,-0.58439 1.01218,-0.87658 -0.23482,-0.0677 -0.51351,-0.19986 -0.75914,-0.21914"
   id="path99"
   inkscape:connector-curvature="0" /><path
   d="m 52.54704,51.007946 c -0.0843,0.43829 -0.1687,0.87658 -0.25305,1.31488 1.01455,0.27319 0.98149,-0.67526 1.01219,-1.31488 0,0.073 0,0.1461 0,0.21914 -0.0415,-0.30007 -0.37147,-0.31381 -0.75914,-0.21914"
   id="path101"
   inkscape:connector-curvature="0" /><path
   d="m 52.54704,49.693076 c 0,0.50959 -0.30871,1.31487 0.37958,1.31487 0.67917,0 0.53341,-0.79915 0.63261,-1.31487 -0.3374,0 -0.67479,0 -1.01219,0"
   id="path103"
   inkscape:connector-curvature="0" /><path
   d="m 52.54704,48.378206 c 0,-0.003 0,-0.36349 0,-0.15311 0,1.13839 -0.35932,1.46798 1.01219,1.46798 -0.0843,-0.51133 -0.1687,-1.02268 -0.25305,-1.53401 -0.22943,0.0664 -0.55973,0.10373 -0.75914,0.21914"
   id="path105"
   inkscape:connector-curvature="0" /><path
   d="m 52.29399,47.720776 c 0,-0.073 0,-0.1461 0,-0.21914 0.0843,0.29219 0.16871,0.58438 0.25305,0.87657 0.56851,-0.0611 1.26423,-0.79768 0.50609,-0.87657 0.0843,0 0.1687,0 0.25305,0 -0.34987,0.003 -0.68795,0.0996 -1.01219,0.21914"
   id="path107"
   inkscape:connector-curvature="0" /><path
   d="m 52.80009,46.625056 c -1.78887,1.0329 0.67581,1.40194 0.25304,0.21914 -0.14777,0.15837 -0.37147,0.27174 -0.50609,0.43829 0.37418,-0.5613 0.23686,-0.79886 -0.50609,-0.87658 -0.0401,0.16684 -0.0489,0.49264 0,0.65744 0.25304,-0.1461 0.50609,-0.2922 0.75914,-0.43829"
   id="path109"
   inkscape:connector-curvature="0" /><path
   d="m 53.81228,46.844196 c -0.77028,-0.16685 -1.13432,-0.40323 -1.26524,0.43829 0.40758,0.0882 0.99801,0.0464 1.01219,0.43829 0,-0.073 0,-0.1461 0,-0.21914 0,0.073 0,0.14609 0,0.21914 0.0843,-0.2922 0.1687,-0.58439 0.25305,-0.87658"
   id="path111"
   inkscape:connector-curvature="0" /><path
   d="m 54.57142,46.844196 c -0.87622,-0.23638 -0.84888,0.3106 -1.01219,0.87658 0.42175,0 0.84349,0 1.26523,0 -0.0843,0 -0.1687,0 -0.25304,0 0.0843,0 0.1687,0 0.25304,0 -0.0843,-0.2922 -0.1687,-0.58439 -0.25304,-0.87658"
   id="path113"
   inkscape:connector-curvature="0" /><path
   d="m 56.5958,47.063346 c -0.42985,-0.69718 -1.31382,-0.32171 -2.02438,-0.21915 0.29892,1.03495 0.32693,0.86402 1.51828,0.65744 -0.19163,-0.11601 -0.30973,-0.32901 -0.50609,-0.43829 0.17478,0 0.90185,0.0958 1.01219,0 0.37248,-0.32259 -0.24023,-0.49556 -0.5061,-0.43829 0.16364,0.14171 0.31749,0.32374 0.5061,0.43829"
   id="path115"
   inkscape:connector-curvature="0" /><path
   d="m 49.25743,44.871886 c 2.65835,1.53489 6.36835,2.65399 8.65994,0.008 1.85972,-2.14762 1.40761,-5.40908 0.48922,-7.79454 -0.59583,-1.54775 -4.29302,-5.90903 -6.36564,-4.92404 -1.23218,0.58555 -1.58779,2.58912 -2.01763,3.59164 -0.67681,1.57842 -1.35397,3.15714 -2.03112,4.73586 -1.274,-0.98527 -2.54802,-1.97025 -3.82202,-2.95524 -1.08708,-0.84035 -2.33074,-2.22914 -3.64758,-2.79921 -1.33744,-0.57912 -2.20184,1.73504 -2.49977,2.50877 -0.55501,1.44168 -0.65893,2.76883 -0.65893,4.28122 0,2.54675 2.01762,5.64546 4.65809,6.78853 2.86515,1.24094 6.48137,-0.86928 7.23544,-3.44117"
   id="path117"
   style="fill:#ffffaf;fill-rule:evenodd"
   inkscape:connector-curvature="0" /><path
   d="m 51.02877,45.310176 c -1.02164,-0.58994 -1.28987,-1.17344 -2.02438,-0.21914 1.02163,0.58993 1.28986,1.17345 2.02438,0.21914"
   id="path119"
   inkscape:connector-curvature="0" /><path
   d="m 52.54704,45.967616 c -1.08405,-0.46926 -1.32226,-0.91194 -2.02437,0 0.59044,0.21915 1.18088,0.43829 1.77132,0.65744 0.0759,-0.19666 0.24327,-0.45174 0.25305,-0.65744"
   id="path121"
   inkscape:connector-curvature="0" /><path
   d="m 53.81228,46.186766 c 0.0843,0 0.1687,0 0.25304,0 -0.76656,-0.11075 -1.74399,-0.55342 -1.77133,0.43829 0.58775,0.0851 1.17616,0.20249 1.77133,0.21914 -0.0843,0 -0.16869,0 -0.25304,0 0.0843,0 0.1687,0 0.25304,0 -0.0803,-0.20921 -0.13056,-0.46459 -0.25304,-0.65743"
   id="path123"
   inkscape:connector-curvature="0" /><path
   d="m 55.07751,46.186766 c 0.0843,-0.073 0.16871,-0.1461 0.25305,-0.21915 -0.5061,0.073 -1.01218,0.14609 -1.51828,0.21915 0.0212,0.93238 0.99903,0.65743 1.77133,0.65743 -0.0843,0 -0.1687,0 -0.25305,0 0.0843,0 0.16869,0 0.25305,0 -0.1687,-0.21914 -0.33739,-0.43829 -0.5061,-0.65743"
   id="path125"
   inkscape:connector-curvature="0" /><path
   d="m 56.0897,45.748466 c 0.0843,0 0.1687,0 0.25305,0 -0.42175,0.1461 -0.8435,0.2922 -1.26524,0.4383 0.59415,0.77197 0.57291,0.6285 1.51829,0.21914 -0.1687,-0.21914 -0.3374,-0.43829 -0.5061,-0.65744"
   id="path127"
   inkscape:connector-curvature="0" /><path
   d="m 57.10189,45.310176 c 0,-0.073 0,-0.14609 0,-0.21914 -0.88094,0.57212 -1.13736,0.49497 -0.50609,1.31487 0.33739,-0.21914 0.67479,-0.43829 1.01217,-0.65744 -0.15587,-0.13499 -0.31478,-0.34712 -0.50608,-0.43829"
   id="path129"
   inkscape:connector-curvature="0" /><path
   d="m 57.60797,44.433596 c 0.0843,0 0.16871,0 0.25306,0 -0.40252,0.46488 -1.14107,0.91603 -0.25306,1.31487 0.30772,-0.35531 0.6964,-0.66357 0.75915,-1.09572 0,0.073 0,0.1461 0,0.21914 -0.0135,-0.31498 -0.38193,-0.4003 -0.75915,-0.43829"
   id="path131"
   inkscape:connector-curvature="0" /><path
   d="m 58.11408,43.557016 c 0,-0.073 0,-0.1461 0,-0.21914 -0.16871,0.36524 -0.3374,0.73048 -0.50611,1.09572 0.81517,0.50813 1.07462,-0.14492 1.5183,-0.65743 -0.3374,-0.073 -0.67479,-0.1461 -1.01219,-0.21915"
   id="path133"
   inkscape:connector-curvature="0" /><path
   d="m 58.62016,42.461296 c 0,-0.073 0,-0.1461 0,-0.21914 -0.16868,0.43828 -0.33739,0.87657 -0.50608,1.31486 0.3374,0.073 0.67479,0.1461 1.01219,0.21915 0.0843,-0.43829 0.16869,-0.87658 0.25304,-1.31487 -0.22842,0 -0.5405,-0.0528 -0.75915,0"
   id="path135"
   inkscape:connector-curvature="0" /><path
   d="m 58.62016,41.146426 c 0,0.50958 -0.3087,1.31487 0.37958,1.31487 0.67918,0 0.53342,-0.79915 0.63261,-1.31487 -0.33739,0 -0.67479,0 -1.01219,0"
   id="path137"
   inkscape:connector-curvature="0" /><path
   d="m 58.62016,39.831556 c 0,0.41404 0,0.82807 0,1.24182 0,0.10198 0.92043,0.15779 1.01219,0.073 0.15758,-0.14551 0,-1.02647 0,-1.24182 0,-0.15633 -0.82391,-0.073 -1.01219,-0.073"
   id="path139"
   inkscape:connector-curvature="0" /><path
   d="m 58.36712,38.516686 c 0.20817,1.08199 -0.0236,1.31487 1.26523,1.31487 -0.0772,-0.46926 0.0142,-1.4446 -0.50608,-1.53402 0.0843,0 0.16869,0 0.25304,0 -0.34988,0.003 -0.68796,0.0996 -1.01219,0.21915"
   id="path141"
   inkscape:connector-curvature="0" /><path
   d="m 58.11408,37.859246 c 0.0489,0.34946 0.62755,1.1042 1.01219,0.43829 0.38462,-0.6659 -0.66029,-0.61419 -1.01219,-0.43829"
   id="path143"
   inkscape:connector-curvature="0" /><path
   d="m 57.86103,37.201816 c 0.0651,0.46868 0.14508,0.6887 0.63262,0.54787 0.60157,-0.17357 0.26687,-0.49937 0.12651,-0.98616 -0.25304,0.1461 -0.50608,0.29219 -0.75913,0.43829"
   id="path145"
   inkscape:connector-curvature="0" /><path
   d="m 57.10189,35.886946 c 0,-0.073 0,-0.1461 0,-0.21914 0.25305,0.51133 0.50608,1.02268 0.75914,1.53401 0.41601,-0.24018 0.85057,-0.27992 0.60866,-0.69893 -0.20514,-0.35559 -0.36776,-1.04692 -0.86172,-1.05423 0.0843,0 0.16871,0 0.25306,0 -0.3185,0.0128 -0.58403,0.17999 -0.75914,0.43829"
   id="path147"
   inkscape:connector-curvature="0" /><path
   d="m 56.0897,34.572076 c 0.3374,0.43829 0.67479,0.87658 1.01219,1.31487 1.12555,-0.50286 -0.42343,-1.27805 -0.50609,-1.97231 0,0.073 0,0.1461 0,0.21915 0,-0.073 0,-0.14609 0,-0.21915 -0.1687,0.21915 -0.3374,0.4383 -0.5061,0.65744"
   id="path149"
   inkscape:connector-curvature="0" /><path
   d="m 54.82446,33.476346 c 0.42176,0.36525 0.8435,0.73049 1.26524,1.09573 0.92818,-1.20559 -0.53173,-0.69162 -0.75914,-1.75316 0,0.073 0,0.1461 0,0.21914 0,-0.073 0,-0.14609 0,-0.21914 -0.1687,0.21914 -0.33739,0.43829 -0.5061,0.65743"
   id="path151"
   inkscape:connector-curvature="0" /><path
   d="m 53.81228,32.818916 c -0.0843,-0.073 -0.1687,-0.14609 -0.25305,-0.21915 0.42175,0.2922 0.84349,0.58439 1.26523,0.87658 0.53748,-0.69833 0.35562,-1.19361 -0.75914,-1.31486 0.0843,0 0.1687,0 0.25306,0 -0.36372,0.0117 -0.46224,0.33106 -0.5061,0.65743"
   id="path153"
   inkscape:connector-curvature="0" /><path
   d="m 53.30618,32.599766 c -0.0843,-0.073 -0.16869,-0.14609 -0.25305,-0.21914 0.25305,0.1461 0.5061,0.2922 0.75915,0.43829 0.47303,-0.67555 -0.0503,-0.62675 -0.25305,-1.09572 0,0.073 0,0.1461 0,0.21914 0,-0.073 0,-0.1461 0,-0.21914 -0.0843,0.29219 -0.1687,0.58439 -0.25305,0.87657"
   id="path155"
   inkscape:connector-curvature="0" /><path
   d="m 52.80009,32.380626 c 0.13057,0.10052 0.34853,0.15106 0.50609,0.21914 0.0843,-0.29218 0.1687,-0.58438 0.25305,-0.87657 -0.22539,0 -0.53713,-0.0476 -0.75914,0 0.0843,0 0.16869,0 0.25304,0 -0.34649,0.0362 -0.36236,0.3217 -0.25304,0.65743"
   id="path157"
   inkscape:connector-curvature="0" /><path
   d="m 52.54704,32.380626 c -0.0843,0 -0.1687,0 -0.25305,0 0.86407,0.15778 0.61845,-1.11063 0,-0.65743 0.0843,-0.073 0.16871,-0.1461 0.25305,-0.21915 -0.44334,0.11249 -0.19434,0.48095 0,0.87658"
   id="path159"
   inkscape:connector-curvature="0" /><path
   d="m 52.29399,32.380626 c -0.0843,0 -0.16869,0 -0.25304,0 0.1606,0.0249 0.34279,0 0.50609,0 -0.058,-0.44968 -0.21256,-0.75357 -0.75914,-0.65743 0.16869,0.21914 0.3374,0.43829 0.50609,0.65743"
   id="path161"
   inkscape:connector-curvature="0" /><path
   d="m 52.04095,32.599766 c 0.59178,-0.46079 -0.62418,-1.29587 -0.75914,-0.43828 0,-0.073 0,-0.1461 0,-0.21915 0.0361,0.36641 0.40149,0.45085 0.75914,0.65743"
   id="path163"
   inkscape:connector-curvature="0" /><path
   d="m 51.7879,32.818916 c 0.0843,-0.073 0.16869,-0.14609 0.25305,-0.21915 -0.25305,-0.14609 -0.50609,-0.29218 -0.75914,-0.43828 -0.0992,0.0958 -0.22302,0.31206 -0.25304,0.43828 0.23785,0.0687 0.51115,0.19519 0.75913,0.21915"
   id="path165"
   inkscape:connector-curvature="0" /><path
   d="m 47.73915,40.708136 c 1.37388,-0.0806 1.76762,-2.57043 2.14517,-3.4508 0.6343,-1.47938 1.26894,-2.95904 1.90358,-4.43842 -1.2713,-0.74217 -1.82632,2.26946 -2.14516,3.01252 -0.63431,1.47937 -1.26894,2.95904 -1.90359,4.43841 0.15655,-0.0877 0.35528,-0.12476 0.5061,-0.21915 -0.16871,0.21915 -0.3374,0.4383 -0.5061,0.65744 0.37654,0.29716 0.66366,0.21417 0.75914,-0.21914 -0.24664,0.0713 -0.526,0.12009 -0.75914,0.21914"
   id="path167"
   inkscape:connector-curvature="0" /><path
   d="m 40.90689,35.229516 c -0.0843,0 -0.1687,0 -0.25304,0 2.36176,1.8262 4.72353,3.65241 7.0853,5.47862 0.47505,-0.61682 0.6225,-0.56803 0.0253,-1.02765 -0.84045,-0.64691 -1.68056,-1.29353 -2.52102,-1.94045 -1.35903,-1.04634 -2.8068,-2.04535 -4.08384,-3.16796 0.0843,0.073 0.1687,0.1461 0.25304,0.21915 -0.0843,-0.073 -0.1687,-0.1461 -0.25304,-0.21915 -0.0796,0.20804 -0.22032,0.44092 -0.25271,0.65744"
   id="path169"
   inkscape:connector-curvature="0" /><path
   d="m 40.4008,35.010366 c 0.12956,0.1008 0.34886,0.15107 0.50609,0.21915 0.27903,-0.38482 0.36709,-0.86343 -0.25304,-0.87658 0.0843,0 0.16868,0 0.25304,0 -0.36371,0.0117 -0.46223,0.33105 -0.50609,0.65743"
   id="path171"
   inkscape:connector-curvature="0" /><path
   d="m 40.14775,35.010366 c 0.36372,-0.0117 0.46223,-0.33076 0.5061,-0.65743 -0.5557,-0.10139 -0.65826,0.21155 -0.5061,0.65743"
   id="path173"
   inkscape:connector-curvature="0" /><path
   d="m 39.89471,35.010366 c 0.47201,-0.0491 0.4295,-0.78191 -0.25305,-0.65743 0.0803,0.20891 0.13023,0.46576 0.25305,0.65743"
   id="path175"
   inkscape:connector-curvature="0" /><path
   d="m 39.64166,35.229516 c 0.3293,-0.23639 0.22942,-0.56014 0,-0.87658 -0.34853,0.16771 -0.44941,0.12506 -0.5061,0.43829 0,-0.073 0,-0.1461 0,-0.21915 0.0148,0.27583 0.20784,0.50608 0.5061,0.65744"
   id="path177"
   inkscape:connector-curvature="0" /><path
   d="m 39.13556,35.886946 c -0.0843,0 -0.1687,0 -0.25304,0 0.50642,-0.43858 0.93357,-0.50637 0.38429,-0.98206 -0.2581,-0.22352 -0.88363,0.53793 -1.14344,0.76292 0.0843,-0.073 0.1687,-0.1461 0.25305,-0.21915 -0.0843,0.073 -0.16869,0.14609 -0.25305,0.21915 0.3374,0.073 0.6748,0.14609 1.01219,0.21914"
   id="path179"
   inkscape:connector-curvature="0" /><path
   d="m 38.37642,36.982676 c 0.25305,-0.36525 0.5061,-0.73049 0.75914,-1.09573 -1.21124,-0.26209 -1.05807,-0.1195 -1.51828,0.87658 0.22639,0.0655 0.52229,0.21155 0.75914,0.21915"
   id="path181"
   inkscape:connector-curvature="0" /><path
   d="m 38.12337,38.297536 c 0,0.073 0,0.1461 0,0.21915 0.11405,-0.69162 0.69403,-1.72657 -0.50609,-1.75316 -0.16869,0.51134 -0.3374,1.02268 -0.50609,1.53401 0.3374,0 0.67479,0 1.01218,0"
   id="path183"
   inkscape:connector-curvature="0" /><path
   d="m 37.87033,39.831556 c 0,0.073 0,0.1461 0,0.21914 0.0843,-0.58438 0.16869,-1.16877 0.25304,-1.75316 -1.37286,0 -1.0773,0.39534 -1.26523,1.53402 0.3374,0 0.6748,0 1.01219,0"
   id="path185"
   inkscape:connector-curvature="0" /><path
   d="m 37.87033,41.365576 c 0,-8.7e-4 0,0.35823 0,0.15895 0,-0.83626 0.43727,-1.69297 -0.6559,-1.69297 -0.69705,0 -0.35629,1.23481 -0.35629,1.75316 0.3374,-0.073 0.6748,-0.1461 1.01219,-0.21914"
   id="path187"
   inkscape:connector-curvature="0" /><path
   d="m 37.87033,42.899586 c 0.0843,0 0.16869,0 0.25304,0 -0.0843,-0.51134 -0.16869,-1.02268 -0.25304,-1.53401 -1.36477,0.2954 -0.95078,0.59052 -0.75914,1.75315 0.22909,-0.066 0.55974,-0.10343 0.75914,-0.21914"
   id="path189"
   inkscape:connector-curvature="0" /><path
   d="m 38.37642,44.214456 c -0.16869,-0.43829 -0.3374,-0.87658 -0.50609,-1.31487 -1.21935,0.0347 -0.49867,0.89644 -0.25305,1.53401 0.22571,-0.0651 0.56582,-0.10168 0.75914,-0.21914"
   id="path191"
   inkscape:connector-curvature="0" /><path
   d="m 39.13556,45.310176 c -0.45379,-0.6548 -0.56244,-1.34116 -1.51828,-0.87658 0.25305,0.43829 0.50609,0.87658 0.75914,1.31487 0.25305,-0.14609 0.5061,-0.29219 0.75914,-0.43829"
   id="path193"
   inkscape:connector-curvature="0" /><path
   d="m 39.89471,46.405906 c -0.25305,-0.36524 -0.5061,-0.73049 -0.75915,-1.09573 -0.25304,0.1461 -0.50609,0.2922 -0.75914,0.43829 0.3374,0.36524 0.6748,0.73049 1.01219,1.09573 0.15554,-0.1347 0.40184,-0.27262 0.5061,-0.43829"
   id="path195"
   inkscape:connector-curvature="0" /><path
   d="m 40.90689,47.282486 c -0.3374,-0.2922 -0.67479,-0.58439 -1.01218,-0.87658 -0.84956,0.38189 -0.15014,1.21552 0.50609,1.31487 -0.0843,0 -0.1687,0 -0.25305,0 0.3185,-0.0128 0.58437,-0.1797 0.75914,-0.43829"
   id="path197"
   inkscape:connector-curvature="0" /><path
   d="m 41.66603,47.720776 c 0.0843,0.073 0.16869,0.14609 0.25305,0.21914 -0.5368,-0.34858 -1.05773,-0.9879 -1.51828,-0.21914 0.33739,0.21914 0.67479,0.43829 1.01218,0.65743 0.0772,-0.20044 0.23618,-0.44764 0.25305,-0.65743"
   id="path199"
   inkscape:connector-curvature="0" /><path
   d="m 42.67822,48.159066 c 0.0843,0 0.1687,0 0.25305,0 -0.42175,-0.1461 -0.84349,-0.2922 -1.26524,-0.43829 -0.56345,0.67788 0.25878,1.23305 1.01219,1.31487 -0.0843,0 -0.1687,0 -0.25305,0 0.45818,-0.007 0.25305,-0.53004 0.25305,-0.87658"
   id="path201"
   inkscape:connector-curvature="0" /><path
   d="m 43.94345,48.378206 c -0.42175,-0.073 -0.84349,-0.1461 -1.26523,-0.21914 0,1.04196 0.12382,0.87658 1.26523,0.87658 -0.0843,0 -0.16869,0 -0.25305,0 0.34651,-0.036 0.36237,-0.32171 0.25305,-0.65744"
   id="path203"
   inkscape:connector-curvature="0" /><path
   d="m 44.70259,48.378206 c 0.0843,0 0.1687,0 0.25305,0 -0.81717,0 -1.01219,-0.18116 -1.01219,0.55459 0,0.21096 0.97946,0.10285 1.26524,0.10285 -0.0843,0 -0.1687,0 -0.25305,0 0.0843,0 0.1687,0 0.25305,0 -0.1687,-0.21915 -0.3374,-0.43829 -0.5061,-0.65744"
   id="path205"
   inkscape:connector-curvature="0" /><path
   d="m 45.96782,47.939916 c -0.42174,0.1461 -0.84348,0.29219 -1.26523,0.43829 0.28847,0.37489 0.32255,0.72114 0.83404,0.54378 0.3934,-0.13646 0.92447,-0.15779 0.93729,-0.54378 0,0.073 0,0.1461 0,0.21915 -0.0148,-0.27554 -0.20784,-0.50579 -0.5061,-0.65744"
   id="path207"
   inkscape:connector-curvature="0" /><path
   d="m 47.23306,47.063346 c -0.42175,0.29219 -0.84349,0.58438 -1.26524,0.87657 0.50947,0.84736 1.21969,-0.0561 1.77133,-0.43828 -0.15554,-0.13471 -0.31479,-0.34801 -0.50609,-0.43829"
   id="path209"
   inkscape:connector-curvature="0" /><path
   d="m 48.24525,45.967616 c -0.49058,0.53092 -1.25377,0.88651 -0.63735,1.42035 0.27026,0.23404 1.13163,-0.75298 1.39649,-0.98206 -0.25305,-0.1461 -0.5061,-0.2922 -0.75914,-0.43829"
   id="path211"
   inkscape:connector-curvature="0" /><path
   d="m 48.75134,45.310176 c -0.0884,0.11484 -0.5341,0.53647 -0.50609,0.65744 0.0121,0.0528 0.69807,0.44881 0.75914,0.43829 0.0611,-0.0105 0.51824,-0.60455 0.50609,-0.65744 -0.028,-0.12068 -0.62621,-0.36144 -0.75914,-0.43829"
   id="path213"
   inkscape:connector-curvature="0" /><path
   d="m 49.51048,44.433596 c -1.15255,0.21622 -0.60967,0.96278 0,1.31487 0.10695,-0.17063 0.22538,-0.46487 0.25305,-0.65743 -0.2409,0.0435 -0.52128,-0.0529 -0.75914,0 0.27262,-0.35384 0.66197,-0.55809 0.25304,-0.87658 -0.0934,0.11833 -0.21762,0.29891 -0.25304,0.43829 0.16532,-0.0716 0.35393,-0.12857 0.50609,-0.21915"
   id="path215"
   inkscape:connector-curvature="0" /><path
   d="m 48.24525,40.488996 c 0.27329,-1.27163 2.34793,-1.16323 2.78352,0 0.5955,1.59011 -1.30439,2.02285 -2.53048,1.31487 -0.45008,1.10536 -3.03655,1.34788 -3.03655,-0.10286 0,-1.53343 1.43831,-1.88319 2.78351,-1.21201"
   id="path217"
   style="fill:#0e0d0d;fill-rule:evenodd"
   inkscape:connector-curvature="0" /><path
   style="fill:#aa4400;fill-opacity:1;fill-rule:evenodd;stroke:#000000;stroke-width:0.15141957;stroke-linejoin:miter;stroke-miterlimit:4;stroke-opacity:1;stroke-dasharray:none"
   d="m 33.426355,76.747742 c -1.293006,-0.392563 -3.354929,-2.356605 -4.384083,-4.175968 -0.778297,-1.375891 -1.951596,-4.222866 -2.338629,-5.674613 -0.181044,-0.679094 -0.287745,-1.833352 -0.344169,-3.723139 -0.0888,-2.974206 -0.133524,-2.677973 0.969537,-6.421972 0.731177,-2.481759 2.168382,-4.613887 3.980632,-5.905362 1.779168,-1.267901 1.75492,-1.237787 1.549296,-1.924099 -0.343937,-1.147962 -0.969103,-1.793774 -2.41272,-2.492406 -2.220877,-1.074782 -3.970465,-0.973701 -6.81584,0.393784 -2.361249,1.134812 -4.682021,3.156035 -6.220156,5.417299 -0.999598,1.469542 -2.319187,4.111552 -2.742657,5.491197 -0.761646,2.481411 -0.76056,5.683742 0.0031,9.00028 0.176623,0.767112 0.287149,1.428732 0.245615,1.470266 -0.04153,0.04154 -0.448137,0.113975 -0.90356,0.16098 -0.873726,0.09018 -2.206295,-0.237869 -2.524695,-0.621518 -0.278221,-0.335235 -1.220756,-4.778869 -1.319467,-6.220704 -0.111415,-1.627391 0.116964,-3.522121 0.643916,-5.342202 1.183066,-4.086287 4.871053,-8.720537 8.658851,-10.880538 1.104003,-0.62956 3.420421,-1.591231 4.291535,-1.78165 0.219328,-0.04794 1.945011,0.15025 3.834851,0.440429 2.413095,0.370522 3.518429,0.483524 3.712691,0.379558 0.296104,-0.15847 2.728761,-2.730971 2.728761,-2.885627 0,-0.05084 -0.414067,-0.818419 -0.920149,-1.705734 -1.027876,-1.802175 -1.592746,-2.3749 -3.43686,-3.484645 -1.645895,-0.990463 -2.728588,-1.405438 -5.459457,-2.092504 -2.897005,-0.728864 -4.36158,-0.771829 -7.124979,-0.20902 -1.012625,0.206236 -1.992973,0.455073 -2.178552,0.552971 -0.517557,0.273025 -2.953051,2.404836 -3.980167,3.483879 -1.1834693,1.2433 -1.7616654,2.101643 -2.5688834,3.813555 -0.7955467,1.68716 -1.0767197,2.740032 -1.3522531,5.06361 -0.2953655,2.490823 -0.741043,3.36716 -1.7124302,3.36716 -0.3746106,0 -1.3481601,-0.449466 -2.0593989,-0.95078 C 2.8500925,49.011184 2.8193096,48.92422 2.8911986,48.28792 3.133268,46.14533 4.1043911,40.716736 4.3405223,40.186179 4.7584566,39.247132 7.216513,36.042214 8.2499902,35.088848 c 1.9173038,-1.768681 3.4105418,-2.85272 4.3539438,-3.160811 1.795085,-0.586231 3.658643,-0.829434 6.368937,-0.831176 3.625394,-0.0023 5.982582,0.469945 9.539432,1.911278 3.335369,1.351583 5.07764,2.404031 6.511041,3.933105 1.927722,2.056387 1.87736,1.968961 1.795907,3.117606 -0.06526,0.920294 0.04114,2.014656 0.320121,3.29257 0.327481,1.500074 2.250325,3.882812 4.029588,4.993364 0.906044,0.56552 1.145498,0.641695 2.1142,0.672568 0.349661,0.01114 0.380219,0.06181 0.324604,0.538184 -0.05199,0.445314 -0.0028,0.552597 0.321261,0.700234 0.227474,0.103644 0.350241,0.258815 0.302728,0.382634 -0.05767,0.150292 0.0616,0.210956 0.428388,0.217882 0.470066,0.0089 0.48167,0.02028 0.154204,0.151503 -0.194761,0.07805 -1.864161,0.127182 -3.709779,0.109189 l -3.35567,-0.03272 -1.211356,0.514947 c -0.878332,0.373376 -1.425022,0.729457 -1.988549,1.29522 -0.427456,0.42915 -1.176888,1.005848 -1.665404,1.28155 -0.488515,0.2757 -0.972919,0.610375 -1.076452,0.74372 -0.340205,0.438164 -1.242278,3.506341 -1.399463,4.759925 -0.254682,2.031124 -0.184849,3.945417 0.230292,6.312845 0.869498,4.958506 1.521626,6.262973 4.354157,8.709736 0.682248,0.58933 0.703594,0.632495 0.561576,1.135647 -0.26205,0.928409 -1.011098,1.248786 -2.127342,0.909889 l 0,0 z"
   id="path5171"
   inkscape:connector-curvature="0" /><path
   style="fill:#aa4400;fill-opacity:1;fill-rule:evenodd;stroke:#000000;stroke-width:0.15141957;stroke-linejoin:miter;stroke-miterlimit:4;stroke-opacity:1;stroke-dasharray:none"
   d="m 77.950789,64.753037 c -0.374764,-0.08237 -0.766562,-0.259916 -0.870663,-0.39454 -0.138256,-0.178793 -0.189438,-1.145088 -0.189883,-3.584914 -9.08e-4,-4.686225 -0.365178,-6.63514 -1.750964,-9.366605 -1.16263,-2.291611 -2.435135,-3.713257 -4.588285,-5.126044 -1.659877,-1.089126 -3.192528,-1.549034 -5.168028,-1.550786 -1.736183,-0.0015 -1.750608,0.0031 -3.861199,1.246814 -0.582966,0.34352 -1.812396,0.957064 -2.732067,1.36343 l -1.67213,0.738849 -0.02385,-0.598044 c -0.01312,-0.328924 -0.111923,-0.704166 -0.219569,-0.833872 -0.163606,-0.197133 -0.149084,-0.263273 0.0885,-0.403091 0.571427,-0.336278 1.090575,-0.829338 1.308001,-1.242272 0.122495,-0.232641 0.369943,-0.583322 0.549885,-0.779292 0.716759,-0.780606 1.156947,-4.729277 0.632516,-5.673931 -0.105519,-0.190072 -0.194268,-0.393282 -0.197219,-0.451578 -0.003,-0.0583 -0.09054,-0.191167 -0.19464,-0.295268 -0.104101,-0.104101 -0.189274,-0.276345 -0.189274,-0.382766 0,-0.388152 -0.827452,-1.867736 -1.091369,-1.9515 -0.149274,-0.04738 -0.271408,-0.140788 -0.271408,-0.207578 0,-0.241605 -1.231359,-1.661132 -1.52056,-1.752921 -0.386124,-0.122551 -0.37857,-0.196766 0.155894,-1.531525 0.675395,-1.686719 2.829835,-4.879141 4.215154,-6.245963 1.619137,-1.597517 4.348795,-3.65245 4.853076,-3.653478 0.21856,-4.46e-4 1.180979,-0.449741 2.138708,-0.998433 3.766046,-2.157607 4.104262,-2.2591 7.495268,-2.249216 2.826255,0.0082 3.54321,0.151699 6.498154,1.300258 l 1.981341,0.77013 1.674283,1.686827 c 2.385651,2.403526 2.873501,3.521917 2.081125,4.77097 -0.570867,0.899882 -2.682908,-0.234995 -3.793758,-2.038525 -1.188496,-1.929593 -2.409394,-2.942455 -4.203317,-3.487092 -0.743572,-0.225749 -1.410325,-0.273204 -3.70786,-0.263901 l -2.801261,0.01134 -2.271294,1.184285 c -1.249211,0.651357 -2.4814,1.342122 -2.738197,1.535034 -0.256797,0.192912 -0.672742,0.391917 -0.924322,0.442233 -1.040181,0.208036 -3.871276,3.050823 -5.038488,5.059294 -1.013873,1.744616 -2.477636,5.187667 -2.315045,5.445429 0.167871,0.266132 2.023757,0.895292 2.674155,0.906561 0.288927,0.005 0.913984,-0.298306 1.817034,-0.881727 3.104474,-2.00566 5.434816,-2.836617 9.002688,-3.210195 2.064356,-0.21615 4.37466,-0.01381 6.337757,0.555074 3.612607,1.046893 9.138895,4.798438 10.312785,7.000879 0.26454,0.496331 0.75038,1.228428 1.079644,1.626882 0.887645,1.074174 1.433524,2.201374 2.04802,4.229021 0.636765,2.101121 0.804836,3.414904 0.539657,4.218402 -0.202754,0.614352 -0.781969,1.007691 -1.475865,1.002248 -0.601943,-0.0047 -1.647418,-0.513762 -1.910787,-0.93036 -0.122872,-0.194359 -0.403719,-1.239186 -0.624106,-2.321835 -0.50203,-2.466236 -0.872829,-3.629388 -1.620487,-5.083279 -0.745779,-1.450238 -1.839477,-2.680606 -3.216058,-3.617945 -0.592747,-0.403613 -1.422524,-1.104489 -1.843949,-1.557501 -1.326869,-1.42633 -3.574895,-2.442887 -5.815436,-2.629742 -1.284147,-0.107093 -4.376613,0.15991 -5.360828,0.462852 -0.773217,0.237998 -6.30819,3.431491 -6.514587,3.758697 -0.186878,0.296264 0.274614,2.814332 0.569908,3.109626 0.110188,0.110188 0.704799,0.301988 1.321358,0.426222 1.969413,0.39683 5.240991,1.778794 6.973919,2.945887 2.043092,1.375984 4.047814,3.886887 5.481347,6.865352 1.109617,2.305466 1.370983,3.712732 1.605556,8.644752 0.129789,2.728916 0.118519,3.080799 -0.113975,3.558359 -0.245462,0.5042 -0.2985,0.53118 -1.090815,0.554874 -0.458044,0.0137 -1.139432,-0.04249 -1.514195,-0.124865 z"
   id="path5173"
   inkscape:connector-curvature="0" /><path
   style="fill:#aa4400;fill-opacity:1;fill-rule:evenodd;stroke:#000000;stroke-width:0.15141957;stroke-linejoin:miter;stroke-miterlimit:4;stroke-opacity:1;stroke-dasharray:none"
   d="m 45.744137,38.080714 c -1.366334,-1.052846 -1.934671,-1.575625 -1.79681,-1.652776 0.200647,-0.112288 5.295332,-1.174267 5.643433,-1.176365 0.138407,-8.34e-4 0.132933,0.136226 -0.02263,0.566724 -0.434943,1.203608 -1.577642,3.74021 -1.69856,3.77052 -0.06984,0.01751 -1.026282,-0.66114 -2.125429,-1.508103 z"
   id="path5175"
   inkscape:connector-curvature="0" /><path
   style="fill:#aa4400;fill-opacity:1;fill-rule:evenodd;stroke:#000000;stroke-width:0.15141957;stroke-linejoin:miter;stroke-miterlimit:4;stroke-opacity:1;stroke-dasharray:none"
   d=""
   id="path5181"
   inkscape:connector-curvature="0" /><path
   style="fill:#aa4400;fill-opacity:1;fill-rule:evenodd;stroke:#000000;stroke-width:0.15141957;stroke-linejoin:miter;stroke-miterlimit:4;stroke-opacity:1;stroke-dasharray:none"
   d="m 48.121136,47.672346 c 0,-0.163553 0.28959,-0.570682 0.643533,-0.904731 0.564128,-0.532419 0.73288,-0.607829 1.367639,-0.611148 0.907723,-0.0047 1.704551,0.318752 1.813756,0.736354 0.07349,0.28103 0.01651,0.321247 -0.470019,0.331759 -0.955539,0.02064 -2.650075,0.371959 -2.71362,0.562593 -0.103786,0.311358 -0.641289,0.215116 -0.641289,-0.114827 z"
   id="path5183"
   inkscape:connector-curvature="0" /></svg>
