<?xml version="1.0" encoding="UTF-8" standalone="no"?>
<svg
   xmlns:dc="http://purl.org/dc/elements/1.1/"
   xmlns:cc="http://creativecommons.org/ns#"
   xmlns:rdf="http://www.w3.org/1999/02/22-rdf-syntax-ns#"
   xmlns:svg="http://www.w3.org/2000/svg"
   xmlns="http://www.w3.org/2000/svg"
   xmlns:sodipodi="http://sodipodi.sourceforge.net/DTD/sodipodi-0.dtd"
   xmlns:inkscape="http://www.inkscape.org/namespaces/inkscape"
   width="96"
   height="96"
   id="svg4284"
   version="1.1"
   inkscape:version="0.48.2 r9819"
   sodipodi:docname="bee_tile.svg">
  <defs
     id="defs4337" />
  <sodipodi:namedview
     pagecolor="#ffffff"
     bordercolor="#666666"
     borderopacity="1"
     objecttolerance="10"
     gridtolerance="10"
     guidetolerance="10"
     inkscape:pageopacity="0"
     inkscape:pageshadow="2"
     inkscape:window-width="1440"
     inkscape:window-height="852"
     id="namedview4335"
     showgrid="false"
     inkscape:zoom="3"
     inkscape:cx="47.979118"
     inkscape:cy="49.973527"
     inkscape:window-x="0"
     inkscape:window-y="0"
     inkscape:window-maximized="1"
     inkscape:current-layer="svg4284" />
  <metadata
     id="metadata6402">image/svg+xml<rdf:RDF>
  <cc:Work
     rdf:about="">
    <dc:format>image/svg+xml</dc:format>
    <dc:type
       rdf:resource="http://purl.org/dc/dcmitype/StillImage" />
    <dc:title></dc:title>
  </cc:Work>
</rdf:RDF>
</metadata>
  <g
     id="g4857"
     transform="matrix(0.96063894,0,0,1.1075861,-1.3953836,-13.392441)">
    <g
       transform="matrix(0.20866008,0,0,0.20901862,-16.708003,5.5088275)"
       id="g4287">
      <title
         id="title4289">Layer 1</title>
      <g
         id="layer1">
        <g
           style="opacity:0.6;fill:#000000"
           id="g6306">
          <path
             style="fill:#000000;stroke:#000000;stroke-width:4.3997612;stroke-linejoin:round;stroke-miterlimit:4;stroke-dashoffset:0"
             inkscape:connector-curvature="0"
             id="path6279"
             d="m 323.99768,166.9118 c -24.27569,3.4e-4 -42.79822,16.34896 -54.11426,35.30689 -11.31506,18.95758 -17.80977,42.25989 -17.80977,67.89749 -3.3e-4,25.6376 6.49404,49.61887 17.80977,68.57648 11.31638,18.95724 29.83789,35.3067 54.11426,35.3067 24.276,3.4e-4 43.48319,-16.34912 54.79926,-35.3067 11.3157,-18.95761 17.12475,-42.93888 17.12475,-68.57648 3.4e-4,-25.6376 -5.80939,-48.93991 -17.12475,-67.89749 C 367.4812,183.26076 348.27338,166.9118 323.99768,166.9118 z m 0,24.44327 c 30.62991,0 55.48425,37.62146 55.48425,83.51395 0,45.89245 -24.85501,82.83493 -55.48425,82.83493 -30.62958,3.3e-4 -55.48425,-36.94248 -55.48425,-82.83493 0,-45.89249 24.85467,-83.51395 55.48425,-83.51395 z"
             stroke-miterlimit="4" />
          <path
             style="fill:#000000;stroke:#000000;stroke-width:3;stroke-linejoin:round;stroke-miterlimit:4;stroke-dashoffset:0"
             inkscape:connector-curvature="0"
             id="path5951"
             d="m 324.22812,209.03726 c -29.04956,0 -54.80728,15.50006 -70.53798,39.74724 -0.85625,7.60429 -1.2459,15.52956 -1.38269,23.55425 15.53404,-22.29511 41.80785,-36.80323 71.92067,-36.80323 29.79239,0 55.99698,14.16732 71.45978,36.06757 -0.13913,-7.52509 -0.64118,-14.9285 -1.38303,-22.0826 -15.57751,-24.42785 -40.89941,-40.48323 -70.07675,-40.48323 z"
             stroke-miterlimit="4" />
          <path
             style="fill:#000000;stroke:#000000;stroke-width:3;stroke-linejoin:round;stroke-miterlimit:4;stroke-dashoffset:0"
             inkscape:connector-curvature="0"
             id="path5956"
             d="m 311.84546,305.42752 c -18.03855,2.33331 -34.2392,10.5314 -47.77008,21.59854 1.65594,3.25299 3.05569,6.96814 5.02838,9.96851 1.67871,2.55377 3.86413,5.06677 5.86624,7.47632 14.3176,-7.38749 30.8035,-11.62976 48.60892,-11.62976 17.80475,0 34.27594,4.24261 48.60824,11.62976 2.00211,-2.40955 4.18723,-4.92255 5.86658,-7.47632 2.0416,-3.10514 4.18887,-6.59381 5.86624,-9.96851 -16.39798,-13.62158 -37.4407,-21.59854 -60.34106,-21.59854 -4.12702,0 -7.74662,-0.51587 -11.73346,0 z"
             stroke-miterlimit="4" />
          <path
             style="fill:#000000;stroke:#000000;stroke-width:3;stroke-linejoin:round;stroke-miterlimit:4;stroke-dashoffset:0"
             inkscape:connector-curvature="0"
             id="path5958"
             d="m 323.73746,255.99927 c -27.45615,0 -47.83866,12.8508 -66.28858,31.41519 1.04923,7.70178 -1.50409,13.89313 0.91846,20.91992 17.78635,-13.48303 40.45926,-21.59891 65.37012,-21.59891 24.91086,0 47.66571,8.11588 65.37011,21.59891 2.34562,-7.02679 0.61408,-13.21814 1.60343,-20.91992 -18.34454,-18.69336 -39.35217,-31.41519 -66.97354,-31.41519 z"
             stroke-miterlimit="4" />
          <path
             style="fill:#000000;stroke:#000000;stroke-width:3;stroke-linejoin:round;stroke-miterlimit:4;stroke-dashoffset:0"
             inkscape:connector-curvature="0"
             id="path5883"
             d="m 324.25855,93.998917 c -35.02216,0 -63.68506,24.097973 -63.68473,54.329603 0,18.51898 10.75986,35.0791 27.14444,45.01609 3.32562,-7.84736 17.2348,-13.97072 34.45221,-13.97072 18.44727,0 33.67023,6.84047 35.49677,15.52293 17.89569,-9.69528 29.75427,-26.94681 29.75427,-46.5683 0,-30.23162 -28.14081,-54.329602 -63.16297,-54.329602 z m -40.19434,31.563053 c 5.93176,0 10.44006,8.11389 10.44006,18.10988 -3.3e-4,9.99597 -4.5083,18.10952 -10.44006,18.10952 -5.9325,3.4e-4 -10.96222,-8.11355 -10.96222,-18.10952 0,-9.99599 5.0304,-18.10988 10.96222,-18.10988 z m 79.86694,0 c 5.93213,0 10.96219,8.11389 10.96219,18.10988 0,9.99597 -5.03039,18.10952 -10.96219,18.10952 -5.93213,3.4e-4 -10.44006,-8.11355 -10.44006,-18.10952 0,-9.99599 4.50793,-18.10988 10.44006,-18.10988 z"
             stroke-miterlimit="4" />
          <g
             style="fill:#000000"
             id="g6140">
            <path
               style="fill:#000000;stroke:#000000;stroke-width:4.97061491;stroke-linejoin:round;stroke-miterlimit:4;stroke-dashoffset:0"
               inkscape:connector-curvature="0"
               id="path6132"
               d="m 189.23453,126.70683 c 21.45982,1.50447 53.91125,10.4355 90.82968,31.56287 3.44238,1.97012 6.16693,4.19943 9.39609,6.20891 -3.55613,3.01013 -6.50495,6.43564 -9.39609,9.83111 -2.13159,-1.33288 -4.03571,-2.8637 -6.26428,-4.1394 -21.95786,-12.56584 -44.30692,-19.72714 -62.64112,-21.21416 -18.3338,-1.48701 -32.62985,2.63697 -38.62857,12.93537 -11.99707,20.59761 19.27909,50.50106 63.19518,75.63356 2.96315,1.69592 8.28462,5.09222 11.2801,6.56463 -0.41168,0.4616 -8.89108,6.27623 -9.22418,6.79907 -2.97871,-1.61599 -5.78964,-2.89169 -8.87433,-4.65696 -36.91803,-21.12737 -61.55871,-44.42157 -73.60283,-62.09099 -12.04452,-17.66901 -14.12048,-32.14737 -7.83039,-42.94631 6.2901,-10.79853 20.30091,-15.99215 41.76074,-14.4877 z m 69.42715,131.9432 c 0.25946,1.01162 0.32288,2.05975 0.52219,3.10464 -0.33801,-0.14725 -0.7059,-0.36832 -1.04434,-0.51758 0.36993,-0.86642 0.37649,-1.62777 0.52215,-2.58706 z"
               stroke-miterlimit="4" />
            <path
               style="fill:#000000;stroke:#000000;stroke-width:1.88431203;stroke-linejoin:round;stroke-miterlimit:4;stroke-dashoffset:0"
               inkscape:connector-curvature="0"
               id="path6134"
               d="m 263.41354,233.44247 c -0.64084,2.39766 -1.88281,4.64319 -2.36773,7.09601 -0.17066,0.0669 0.0417,0.58612 -0.12891,0.65305 -46.79004,18.41293 -75.00482,43.90643 -64.36432,61.82367 8.89354,14.97528 41.75664,20.34411 82.70957,16.40265 0.65927,0.88427 0.68792,1.91861 1.38031,2.79028 0.97229,1.225 2.09149,2.40698 3.1477,3.62182 -21.77002,3.23893 -41.65475,4.61725 -57.7489,3.89969 -28.70625,-1.28054 -48.27098,-7.59207 -55.12907,-19.1394 -6.85769,-11.5477 0.46528,-25.9628 19.63716,-40.73648 15.6526,-12.06122 40.49461,-25.24281 72.86419,-36.41129 z"
               stroke-miterlimit="4" />
          </g>
          <g
             style="fill:#000000"
             id="g6144">
            <path
               style="fill:#000000;stroke:#000000;stroke-width:4.97061491;stroke-linejoin:round;stroke-miterlimit:4;stroke-dashoffset:0"
               inkscape:connector-curvature="0"
               d="m 458.7565,126.70683 c -21.45981,1.50447 -53.91122,10.4355 -90.82968,31.56287 -3.44235,1.97012 -6.16693,4.19943 -9.39606,6.20891 3.55609,3.01013 6.50495,6.43564 9.39606,9.83111 2.13159,-1.33288 4.03571,-2.8637 6.26431,-4.1394 21.95786,-12.56584 44.30689,-19.72714 62.64109,-21.21416 18.3338,-1.48701 32.62985,2.63697 38.6286,12.93537 11.99704,20.59761 -19.27912,50.50106 -63.19519,75.63356 -2.96317,1.69592 -8.28464,5.09222 -11.28013,6.56463 0.41169,0.4616 8.89112,6.27623 9.22422,6.79907 2.9787,-1.61599 5.78961,-2.89169 8.8743,-4.65696 36.91806,-21.12737 61.55871,-44.42157 73.60284,-62.09099 12.04453,-17.66901 14.12048,-32.14737 7.83038,-42.94631 -6.2901,-10.79853 -20.3009,-15.99215 -41.76074,-14.4877 z m -69.42716,131.9432 c -0.25946,1.01162 -0.32287,2.05975 -0.52215,3.10464 0.33801,-0.14725 0.70587,-0.36832 1.04431,-0.51758 -0.36993,-0.86642 -0.37646,-1.62777 -0.52216,-2.58706 z"
               id="path6146"
               stroke-miterlimit="4" />
            <path
               style="fill:#000000;stroke:#000000;stroke-width:1.88431203;stroke-linejoin:round;stroke-miterlimit:4;stroke-dashoffset:0"
               inkscape:connector-curvature="0"
               d="m 384.57751,233.44247 c 0.64081,2.39766 1.88282,4.64319 2.36774,7.09601 0.17063,0.0669 -0.0417,0.58612 0.12891,0.65305 46.79001,18.41293 75.00479,43.90643 64.36429,61.82367 -8.89353,14.97528 -41.75663,20.34411 -82.70957,16.40265 -0.65924,0.88427 -0.6879,1.91861 -1.38031,2.79028 -0.97229,1.225 -2.09149,2.40698 -3.1477,3.62182 21.77002,3.23893 41.65475,4.61725 57.7489,3.89969 28.70627,-1.28054 48.27099,-7.59207 55.12909,-19.1394 6.85766,-11.5477 -0.46527,-25.9628 -19.63718,-40.73648 -15.65259,-12.06122 -40.4946,-25.24281 -72.86417,-36.41129 z"
               id="path6148"
               stroke-miterlimit="4" />
          </g>
        </g>
      </g>
      <g
         id="svg_1">
        <g
           style="opacity:0.6;fill:#000000"
           id="svg_2">
          <path
             style="fill:#000000;stroke:#000000;stroke-width:4.3997612;stroke-linejoin:round;stroke-miterlimit:4;stroke-dashoffset:0"
             inkscape:connector-curvature="0"
             d="m 323.99768,166.9118 c -24.27569,3.4e-4 -42.79822,16.34896 -54.11426,35.30689 -11.31506,18.95758 -17.80975,42.25989 -17.80975,67.89749 -3.7e-4,25.6376 6.49402,49.61887 17.80975,68.57648 11.31638,18.95724 29.83789,35.3067 54.11426,35.3067 24.276,3.4e-4 43.48319,-16.34912 54.79926,-35.3067 11.3157,-18.95761 17.12475,-42.93888 17.12475,-68.57648 3.4e-4,-25.6376 -5.80939,-48.93991 -17.12475,-67.89749 C 367.4812,183.26076 348.27338,166.9118 323.99768,166.9118 z m 0,24.44327 c 30.62991,0 55.48425,37.62146 55.48425,83.51395 0,45.89245 -24.85501,82.83493 -55.48425,82.83493 -30.62958,3.3e-4 -55.48425,-36.94248 -55.48425,-82.83493 0,-45.89249 24.85467,-83.51395 55.48425,-83.51395 z"
             stroke-miterlimit="4"
             id="svg_3" />
          <path
             style="fill:#000000;stroke:#000000;stroke-width:3;stroke-linejoin:round;stroke-miterlimit:4;stroke-dashoffset:0"
             inkscape:connector-curvature="0"
             d="m 324.22812,209.03726 c -29.04956,0 -54.80728,15.50006 -70.538,39.74722 -0.85623,7.60431 -1.24588,15.52958 -1.38269,23.55427 15.53406,-22.29511 41.80787,-36.80323 71.92069,-36.80323 29.79239,0 55.99698,14.1673 71.45978,36.06757 -0.13913,-7.52509 -0.64118,-14.9285 -1.38303,-22.08258 -15.57751,-24.42788 -40.89941,-40.48325 -70.07675,-40.48325 z"
             stroke-miterlimit="4"
             id="svg_4" />
          <path
             style="fill:#000000;stroke:#000000;stroke-width:3;stroke-linejoin:round;stroke-miterlimit:4;stroke-dashoffset:0"
             inkscape:connector-curvature="0"
             d="m 311.84546,305.42752 c -18.03855,2.33331 -34.2392,10.5314 -47.77008,21.59854 1.65594,3.25299 3.05569,6.96814 5.02838,9.96851 1.67871,2.55377 3.86413,5.06677 5.86624,7.47632 14.3176,-7.38749 30.8035,-11.62976 48.60892,-11.62976 17.80475,0 34.27594,4.24261 48.60824,11.62976 2.00211,-2.40955 4.18723,-4.92255 5.86658,-7.47632 2.0416,-3.10514 4.18887,-6.59381 5.86624,-9.96851 -16.39798,-13.62158 -37.4407,-21.59854 -60.34106,-21.59854 -4.12702,0 -7.74662,-0.51587 -11.73346,0 z"
             stroke-miterlimit="4"
             id="svg_5" />
          <path
             style="fill:#000000;stroke:#000000;stroke-width:3;stroke-linejoin:round;stroke-miterlimit:4;stroke-dashoffset:0"
             inkscape:connector-curvature="0"
             d="m 323.73746,255.99927 c -27.45615,0 -47.83866,12.8508 -66.28858,31.41519 1.04923,7.70178 -1.50409,13.89313 0.91846,20.91992 17.78635,-13.48303 40.45926,-21.59891 65.37012,-21.59891 24.91086,0 47.66571,8.11588 65.37011,21.59891 2.34562,-7.02679 0.61408,-13.21814 1.60343,-20.91992 -18.34454,-18.69336 -39.35217,-31.41519 -66.97354,-31.41519 z"
             stroke-miterlimit="4"
             id="svg_6" />
          <path
             style="fill:#000000;stroke:#000000;stroke-width:3;stroke-linejoin:round;stroke-miterlimit:4;stroke-dashoffset:0"
             inkscape:connector-curvature="0"
             d="m 324.25855,93.998917 c -35.02216,0 -63.68506,24.097973 -63.68473,54.329603 0,18.51898 10.75986,35.0791 27.14444,45.01609 3.32562,-7.84736 17.2348,-13.97072 34.45221,-13.97072 18.44727,0 33.67023,6.84047 35.49677,15.52293 17.89569,-9.69528 29.75427,-26.94681 29.75427,-46.5683 0,-30.23162 -28.14081,-54.329602 -63.16297,-54.329602 z m -40.19434,31.563063 c 5.93176,0 10.44006,8.11388 10.44006,18.10986 -3.3e-4,9.99598 -4.5083,18.10953 -10.44006,18.10953 -5.9325,3.4e-4 -10.96222,-8.11355 -10.96222,-18.10953 0,-9.99598 5.0304,-18.10986 10.96222,-18.10986 z m 79.86694,0 c 5.93213,0 10.96219,8.11388 10.96219,18.10986 0,9.99598 -5.03039,18.10953 -10.96219,18.10953 -5.93213,3.4e-4 -10.44006,-8.11355 -10.44006,-18.10953 0,-9.99598 4.50793,-18.10986 10.44006,-18.10986 z"
             stroke-miterlimit="4"
             id="svg_7" />
          <g
             style="fill:#000000"
             id="svg_8">
            <path
               style="fill:#000000;stroke:#000000;stroke-width:4.97061491;stroke-linejoin:round;stroke-miterlimit:4;stroke-dashoffset:0"
               inkscape:connector-curvature="0"
               d="m 189.23453,126.70683 c 21.45982,1.50447 53.91125,10.4355 90.82968,31.56287 3.44238,1.97012 6.16693,4.19943 9.39609,6.20891 -3.55613,3.01013 -6.50495,6.43564 -9.39609,9.83111 -2.13159,-1.33288 -4.03571,-2.8637 -6.26428,-4.1394 -21.95786,-12.56584 -44.30692,-19.72714 -62.64112,-21.21416 -18.3338,-1.48701 -32.62985,2.63697 -38.62857,12.93537 -11.99707,20.59761 19.27909,50.50106 63.19518,75.63356 2.96315,1.69592 8.28462,5.09222 11.2801,6.56463 -0.41168,0.46161 -8.89108,6.27625 -9.22418,6.79907 -2.97871,-1.61599 -5.78964,-2.89169 -8.87433,-4.65698 -36.91803,-21.12735 -61.55871,-44.42155 -73.60283,-62.09097 -12.04452,-17.66901 -14.12048,-32.14737 -7.83039,-42.94631 6.2901,-10.79853 20.30091,-15.99215 41.76074,-14.4877 z m 69.42715,131.9432 c 0.25946,1.01162 0.32288,2.05975 0.52219,3.10464 -0.33801,-0.14725 -0.7059,-0.36832 -1.04434,-0.51758 0.36993,-0.86642 0.37649,-1.62777 0.52215,-2.58706 z"
               stroke-miterlimit="4"
               id="svg_9" />
            <path
               style="fill:#000000;stroke:#000000;stroke-width:1.88431203;stroke-linejoin:round;stroke-miterlimit:4;stroke-dashoffset:0"
               inkscape:connector-curvature="0"
               d="m 263.41354,233.44247 c -0.64084,2.39766 -1.88281,4.64319 -2.36773,7.09601 -0.17066,0.0669 0.0417,0.58612 -0.12891,0.65305 -46.79004,18.41293 -75.00482,43.90643 -64.36432,61.82367 8.89354,14.97528 41.75662,20.34411 82.70957,16.40265 0.65927,0.88427 0.68792,1.91861 1.38031,2.79028 0.97229,1.225 2.09149,2.40698 3.1477,3.62182 -21.77002,3.23893 -41.65475,4.61725 -57.7489,3.89969 -28.70625,-1.28054 -48.27098,-7.59207 -55.12907,-19.1394 -6.85769,-11.5477 0.46528,-25.9628 19.63716,-40.73648 15.6526,-12.06122 40.49461,-25.2428 72.86419,-36.41129 z"
               stroke-miterlimit="4"
               id="svg_10" />
          </g>
          <g
             style="fill:#000000"
             id="svg_11">
            <path
               style="fill:#000000;stroke:#000000;stroke-width:4.97061491;stroke-linejoin:round;stroke-miterlimit:4;stroke-dashoffset:0"
               inkscape:connector-curvature="0"
               d="m 458.7565,126.70683 c -21.45981,1.50447 -53.91122,10.4355 -90.82968,31.56287 -3.44235,1.97012 -6.16693,4.19943 -9.39606,6.20891 3.55609,3.01013 6.50495,6.43564 9.39606,9.83111 2.13159,-1.33288 4.03571,-2.8637 6.26431,-4.1394 21.95786,-12.56584 44.30689,-19.72714 62.64109,-21.21416 18.3338,-1.48701 32.62985,2.63697 38.6286,12.93537 11.99704,20.59761 -19.27912,50.50106 -63.19519,75.63356 -2.96317,1.69592 -8.28464,5.09222 -11.28013,6.56463 0.41169,0.46161 8.89112,6.27625 9.22422,6.79907 2.9787,-1.61599 5.78961,-2.89169 8.8743,-4.65698 36.91806,-21.12735 61.55871,-44.42155 73.60287,-62.09097 12.0445,-17.66901 14.12048,-32.14737 7.83032,-42.94631 -6.29004,-10.79853 -20.30087,-15.99215 -41.76071,-14.4877 z m -69.42716,131.9432 c -0.25946,1.01162 -0.32287,2.05975 -0.52215,3.10464 0.33801,-0.14725 0.70587,-0.36832 1.04431,-0.51758 -0.36993,-0.86642 -0.37646,-1.62777 -0.52216,-2.58706 z"
               stroke-miterlimit="4"
               id="svg_12" />
            <path
               style="fill:#000000;stroke:#000000;stroke-width:1.88431203;stroke-linejoin:round;stroke-miterlimit:4;stroke-dashoffset:0"
               inkscape:connector-curvature="0"
               d="m 384.57751,233.44247 c 0.64081,2.39766 1.88282,4.64319 2.36774,7.09601 0.17063,0.0669 -0.0417,0.58612 0.12891,0.65305 46.79001,18.41293 75.00479,43.90643 64.36429,61.82367 -8.89353,14.97528 -41.75663,20.34411 -82.70957,16.40265 -0.65924,0.88427 -0.6879,1.91861 -1.38031,2.79028 -0.97229,1.225 -2.09149,2.40698 -3.1477,3.62182 21.77002,3.23893 41.65475,4.61725 57.7489,3.89969 28.70627,-1.28054 48.27099,-7.59207 55.12909,-19.1394 6.85766,-11.5477 -0.46527,-25.9628 -19.63718,-40.73648 -15.65259,-12.06122 -40.4946,-25.2428 -72.86417,-36.41129 z"
               stroke-miterlimit="4"
               id="svg_13" />
          </g>
        </g>
      </g>
      <path
         style="fill:#000000;stroke:#000000;stroke-width:5"
         inkscape:connector-curvature="0"
         d="m 300.25,370 21,35.5 28.5,-36 -26.5,11.25 0.5,-6 2.75,0.5"
         id="svg_14" />
      <path
         style="fill:none;stroke:#000000;stroke-width:5"
         inkscape:connector-curvature="0"
         id="svg_15"
         d="m 324,375.25 c 0.25,0 0.5,0 0.75,0 0.25,0 0.5,0 0.75,0 0.5,0 1,0 1.5,0 0.5,0 0.75,0 1,0 0.25,0 0.25,-0.25 0,-0.25 -0.25,0 -0.25,0.25 -0.5,0.25 -0.25,0 -0.5,0 -0.75,0 -0.25,0 -0.57321,0.0732 -0.75,0.25 -0.17679,0.17679 -0.32321,0.0732 -0.5,0.25 -0.17679,0.17679 -0.42679,0.32321 -0.25,0.5 0.17679,0.17679 0.5,0 0.75,0 0.25,0 0.57321,0.17679 0.75,0 0.17679,-0.17679 0.25,-0.25 0.5,-0.25 0.5,0 0.75,0 1.25,0 0.25,0 0.5,0 0.75,0 0.25,0 0.5,0 0.25,0 -0.25,0 -0.53805,-0.19135 -1,0 -0.32663,0.13528 -0.5,0.25 -0.75,0.25 -0.25,0 -0.5,0 -0.75,0 -0.25,0 -0.5,0 -0.75,0 -0.25,0 -0.5,0 -0.25,0 0.25,0 0.32321,0.0732 0.5,0.25 0.17679,0.17679 0.25,0.25 0.25,0.5 0,0.25 0,0.5 0.25,0.5 0.25,0 0.5,0 0.5,0.25 l 0.25,0 0.25,0" />
      <path
         style="fill:none;stroke:#000000;stroke-width:5"
         inkscape:connector-curvature="0"
         id="svg_16"
         d="m 300.5,370.25 c -0.25,0 -0.5,0 -0.5,-0.25 0,-0.25 0,-0.5 0,-0.75 0,-0.25 -0.25,-0.25 -0.25,-0.5 0,-0.25 0,-0.5 0,-0.75 0,-0.25 0,-0.5 0,-0.75 0,-0.25 0.25,-0.25 0.5,-0.25 0.25,0 0.5,0 0.75,0 0.25,0 0.57321,-0.17679 0.75,0 0.17679,0.17679 0,0.5 0.25,0.75 l 0,0.25 0.25,0" />
      <path
         style="fill:none;stroke:#000000;stroke-width:5"
         inkscape:connector-curvature="0"
         id="svg_17"
         d="m 349.5,369.75 c 0.25,0 0.25,-0.25 0.5,-0.25 0.25,0 0.32321,-0.0732 0.5,-0.25 0.17679,-0.17679 0,-0.5 0,-0.75 0,-0.25 0,-0.5 0,-0.75 0,-0.25 0.25,-0.25 0.25,-0.5 l 0,-0.25 0.25,0" />
      <path
         style="fill:none;stroke:#000000;stroke-width:5"
         inkscape:connector-curvature="0"
         id="svg_18"
         d="m 299,367.75 c -0.25,0 -0.25,-0.25 -0.5,-0.25 -0.25,0 0,0 0.25,0 0.25,0 0.5,0 0.75,0 l 0.25,0 0.25,0 0,0.25" />
      <g
         id="svg_19">
        <g
           style="opacity:0.6;fill:#000000"
           id="svg_20">
          <path
             style="fill:#000000;stroke:#000000;stroke-width:4.3997612;stroke-linejoin:round;stroke-miterlimit:4;stroke-dashoffset:0"
             inkscape:connector-curvature="0"
             d="m 323.99768,166.9118 c -24.27569,3.4e-4 -42.79822,16.34896 -54.11426,35.30689 -11.31506,18.95758 -17.80975,42.25989 -17.80975,67.89749 -3.7e-4,25.6376 6.49402,49.61887 17.80975,68.57648 11.31638,18.95724 29.83789,35.3067 54.11426,35.3067 24.276,3.4e-4 43.48319,-16.34912 54.79926,-35.3067 11.3157,-18.95761 17.12475,-42.93888 17.12475,-68.57648 3.4e-4,-25.6376 -5.80939,-48.93991 -17.12475,-67.89749 C 367.4812,183.26076 348.27338,166.9118 323.99768,166.9118 z m 0,24.44327 c 30.62991,0 55.48425,37.62146 55.48425,83.51395 0,45.89245 -24.85501,82.83493 -55.48425,82.83493 -30.62958,3.3e-4 -55.48425,-36.94248 -55.48425,-82.83493 0,-45.89249 24.85467,-83.51395 55.48425,-83.51395 z"
             stroke-miterlimit="4"
             id="svg_21" />
          <path
             style="fill:#000000;stroke:#000000;stroke-width:3;stroke-linejoin:round;stroke-miterlimit:4;stroke-dashoffset:0"
             inkscape:connector-curvature="0"
             d="m 324.22812,209.03726 c -29.04956,0 -54.80728,15.50006 -70.538,39.74722 -0.85623,7.60431 -1.24588,15.52958 -1.38269,23.55427 15.53406,-22.29511 41.80787,-36.80323 71.92069,-36.80323 29.79239,0 55.99698,14.1673 71.45978,36.06757 -0.13913,-7.52509 -0.64118,-14.9285 -1.38303,-22.08258 -15.57751,-24.42788 -40.89941,-40.48325 -70.07675,-40.48325 z"
             stroke-miterlimit="4"
             id="svg_22" />
          <path
             style="fill:#000000;stroke:#000000;stroke-width:3;stroke-linejoin:round;stroke-miterlimit:4;stroke-dashoffset:0"
             inkscape:connector-curvature="0"
             d="m 311.84546,305.42752 c -18.03855,2.33331 -34.2392,10.5314 -47.77008,21.59854 1.65594,3.25299 3.05569,6.96814 5.02838,9.96851 1.67871,2.55377 3.86413,5.06677 5.86624,7.47632 14.3176,-7.38749 30.8035,-11.62976 48.60892,-11.62976 17.80475,0 34.27594,4.24261 48.60824,11.62976 2.00211,-2.40955 4.18723,-4.92255 5.86658,-7.47632 2.0416,-3.10514 4.18887,-6.59381 5.86624,-9.96851 -16.39798,-13.62158 -37.4407,-21.59854 -60.34106,-21.59854 -4.12702,0 -7.74662,-0.51587 -11.73346,0 z"
             stroke-miterlimit="4"
             id="svg_23" />
          <path
             style="fill:#000000;stroke:#000000;stroke-width:3;stroke-linejoin:round;stroke-miterlimit:4;stroke-dashoffset:0"
             inkscape:connector-curvature="0"
             d="m 323.73746,255.99927 c -27.45615,0 -47.83866,12.8508 -66.28858,31.41519 1.04923,7.70178 -1.50409,13.89313 0.91846,20.91992 17.78635,-13.48303 40.45926,-21.59891 65.37012,-21.59891 24.91086,0 47.66571,8.11588 65.37011,21.59891 2.34562,-7.02679 0.61408,-13.21814 1.60343,-20.91992 -18.34454,-18.69336 -39.35217,-31.41519 -66.97354,-31.41519 z"
             stroke-miterlimit="4"
             id="svg_24" />
          <path
             style="fill:#000000;stroke:#000000;stroke-width:3;stroke-linejoin:round;stroke-miterlimit:4;stroke-dashoffset:0"
             inkscape:connector-curvature="0"
             d="m 324.25855,93.998917 c -35.02216,0 -63.68506,24.097973 -63.68473,54.329603 0,18.51898 10.75986,35.0791 27.14444,45.01609 3.32562,-7.84736 17.2348,-13.97072 34.45221,-13.97072 18.44727,0 33.67023,6.84047 35.49677,15.52293 17.89569,-9.69528 29.75427,-26.94681 29.75427,-46.5683 0,-30.23162 -28.14081,-54.329602 -63.16297,-54.329602 z m -40.19434,31.563063 c 5.93176,0 10.44006,8.11388 10.44006,18.10986 -3.3e-4,9.99598 -4.5083,18.10953 -10.44006,18.10953 -5.9325,3.4e-4 -10.96222,-8.11355 -10.96222,-18.10953 0,-9.99598 5.0304,-18.10986 10.96222,-18.10986 z m 79.86694,0 c 5.93213,0 10.96219,8.11388 10.96219,18.10986 0,9.99598 -5.03039,18.10953 -10.96219,18.10953 -5.93213,3.4e-4 -10.44006,-8.11355 -10.44006,-18.10953 0,-9.99598 4.50793,-18.10986 10.44006,-18.10986 z"
             stroke-miterlimit="4"
             id="svg_25" />
          <g
             style="fill:#000000"
             id="svg_26">
            <path
               style="fill:#000000;stroke:#000000;stroke-width:4.97061491;stroke-linejoin:round;stroke-miterlimit:4;stroke-dashoffset:0"
               inkscape:connector-curvature="0"
               d="m 189.23453,126.70683 c 21.45982,1.50447 53.91125,10.4355 90.82968,31.56287 3.44238,1.97012 6.16693,4.19943 9.39609,6.20891 -3.55613,3.01013 -6.50495,6.43564 -9.39609,9.83111 -2.13159,-1.33288 -4.03571,-2.8637 -6.26428,-4.1394 -21.95786,-12.56584 -44.30692,-19.72714 -62.64112,-21.21416 -18.3338,-1.48701 -32.62985,2.63697 -38.62857,12.93537 -11.99707,20.59761 19.27909,50.50106 63.19518,75.63356 2.96315,1.69592 8.28462,5.09222 11.2801,6.56463 -0.41168,0.46161 -8.89108,6.27625 -9.22418,6.79907 -2.97871,-1.61599 -5.78964,-2.89169 -8.87433,-4.65698 -36.91803,-21.12735 -61.55871,-44.42155 -73.60283,-62.09097 -12.04452,-17.66901 -14.12048,-32.14737 -7.83039,-42.94631 6.2901,-10.79853 20.30091,-15.99215 41.76074,-14.4877 z m 69.42715,131.9432 c 0.25946,1.01162 0.32288,2.05975 0.52219,3.10464 -0.33801,-0.14725 -0.7059,-0.36832 -1.04434,-0.51758 0.36993,-0.86642 0.37649,-1.62777 0.52215,-2.58706 z"
               stroke-miterlimit="4"
               id="svg_27" />
            <path
               style="fill:#000000;stroke:#000000;stroke-width:1.88431203;stroke-linejoin:round;stroke-miterlimit:4;stroke-dashoffset:0"
               inkscape:connector-curvature="0"
               d="m 263.41354,233.44247 c -0.64084,2.39766 -1.88281,4.64319 -2.36773,7.09601 -0.17066,0.0669 0.0417,0.58612 -0.12891,0.65305 -46.79004,18.41293 -75.00482,43.90643 -64.36432,61.82367 8.89354,14.97528 41.75662,20.34411 82.70957,16.40265 0.65927,0.88427 0.68792,1.91861 1.38031,2.79028 0.97229,1.225 2.09149,2.40698 3.1477,3.62182 -21.77002,3.23893 -41.65475,4.61725 -57.7489,3.89969 -28.70625,-1.28054 -48.27098,-7.59207 -55.12907,-19.1394 -6.85769,-11.5477 0.46528,-25.9628 19.63716,-40.73648 15.6526,-12.06122 40.49461,-25.2428 72.86419,-36.41129 z"
               stroke-miterlimit="4"
               id="svg_28" />
          </g>
          <g
             style="fill:#000000"
             id="svg_29">
            <path
               style="fill:#000000;stroke:#000000;stroke-width:4.97061491;stroke-linejoin:round;stroke-miterlimit:4;stroke-dashoffset:0"
               inkscape:connector-curvature="0"
               d="m 458.7565,126.70683 c -21.45981,1.50447 -53.91122,10.4355 -90.82968,31.56287 -3.44235,1.97012 -6.16693,4.19943 -9.39606,6.20891 3.55609,3.01013 6.50495,6.43564 9.39606,9.83111 2.13159,-1.33288 4.03571,-2.8637 6.26431,-4.1394 21.95786,-12.56584 44.30689,-19.72714 62.64109,-21.21416 18.3338,-1.48701 32.62985,2.63697 38.6286,12.93537 11.99704,20.59761 -19.27912,50.50106 -63.19519,75.63356 -2.96317,1.69592 -8.28464,5.09222 -11.28013,6.56463 0.41169,0.46161 8.89112,6.27625 9.22422,6.79907 2.9787,-1.61599 5.78961,-2.89169 8.8743,-4.65698 36.91806,-21.12735 61.55871,-44.42155 73.60287,-62.09097 12.0445,-17.66901 14.12048,-32.14737 7.83032,-42.94631 -6.29004,-10.79853 -20.30087,-15.99215 -41.76071,-14.4877 z m -69.42716,131.9432 c -0.25946,1.01162 -0.32287,2.05975 -0.52215,3.10464 0.33801,-0.14725 0.70587,-0.36832 1.04431,-0.51758 -0.36993,-0.86642 -0.37646,-1.62777 -0.52216,-2.58706 z"
               stroke-miterlimit="4"
               id="svg_30" />
            <path
               style="fill:#000000;stroke:#000000;stroke-width:1.88431203;stroke-linejoin:round;stroke-miterlimit:4;stroke-dashoffset:0"
               inkscape:connector-curvature="0"
               d="m 384.57751,233.44247 c 0.64081,2.39766 1.88282,4.64319 2.36774,7.09601 0.17063,0.0669 -0.0417,0.58612 0.12891,0.65305 46.79001,18.41293 75.00479,43.90643 64.36429,61.82367 -8.89353,14.97528 -41.75663,20.34411 -82.70957,16.40265 -0.65924,0.88427 -0.6879,1.91861 -1.38031,2.79028 -0.97229,1.225 -2.09149,2.40698 -3.1477,3.62182 21.77002,3.23893 41.65475,4.61725 57.7489,3.89969 28.70627,-1.28054 48.27099,-7.59207 55.12909,-19.1394 6.85766,-11.5477 -0.46527,-25.9628 -19.63718,-40.73648 -15.65259,-12.06122 -40.4946,-25.2428 -72.86417,-36.41129 z"
               stroke-miterlimit="4"
               id="svg_31" />
          </g>
        </g>
      </g>
    </g>
  </g>
  <path
     sodipodi:type="star"
     style="fill:#606060;fill-opacity:0;fill-rule:evenodd;stroke:#000000;stroke-width:0.99972096;stroke-linecap:butt;stroke-linejoin:miter;stroke-opacity:1;stroke-miterlimit:4;stroke-dasharray:none"
     id="path4855"
     sodipodi:sides="6"
     sodipodi:cx="0.2463847"
     sodipodi:cy="0.40273485"
     sodipodi:r1="53.542633"
     sodipodi:r2="46.369282"
     sodipodi:arg1="0.52542457"
     sodipodi:arg2="1.0490233"
     inkscape:flatsided="true"
     inkscape:rounded="0"
     inkscape:randomized="0"
     d="M 46.566709,27.258667 0.14862691,53.945279 -46.171697,27.089346 -46.07394,-26.453198 0.34414248,-53.139809 46.664467,-26.283876 z"
     transform="matrix(1.0238115,0,0,0.88758142,47.746267,47.534786)" />
  <path
     style="fill:#ffff00;fill-opacity:0.88888891;fill-rule:evenodd;stroke:#000000;stroke-width:0.09380863;stroke-linejoin:miter;stroke-miterlimit:4;stroke-opacity:1;stroke-dasharray:none"
     d="m 36.891865,55.698988 c 0.003,-0.551521 0.205061,-2.997436 0.29568,-3.579424 0.104606,-0.67182 0.119431,-0.698917 0.585471,-1.070163 2.904785,-2.313941 6.825111,-3.598069 10.421862,-3.413749 3.307211,0.169483 6.558669,1.367411 9.016392,3.321892 0.476199,0.378693 0.4806,0.387086 0.585491,1.116427 0.145205,1.009648 0.294927,2.679859 0.294927,3.290017 l 0,0.505681 -0.689982,-0.563805 c -2.088488,-1.706565 -4.445606,-2.865045 -6.930265,-3.406098 -0.826018,-0.179872 -1.250569,-0.210243 -2.980128,-0.213193 -1.774832,-0.003 -2.133338,0.02264 -2.987216,0.21385 -2.470249,0.553172 -4.598734,1.58196 -6.59186,3.186128 -1.013494,0.81571 -1.021509,0.820521 -1.020372,0.612437 z"
     id="path7279"
     inkscape:connector-curvature="0" />
  <path
     style="fill:#ffff00;fill-opacity:0.88888891;fill-rule:evenodd;stroke:#000000;stroke-width:0.09380863;stroke-linejoin:miter;stroke-miterlimit:4;stroke-opacity:1;stroke-dasharray:none"
     d="m 40.361857,42.572865 c 0,-0.124401 0.700383,-1.111376 1.29041,-1.818437 1.740924,-2.086244 3.749654,-3.189494 5.807233,-3.189494 0.959197,0 1.578873,0.125951 2.423933,0.49267 1.45237,0.630266 3.007308,1.957223 4.0998,3.498701 0.777618,1.097196 0.772811,1.113928 -0.184696,0.643007 -0.992306,-0.488036 -2.500538,-0.995858 -3.648124,-1.228324 -1.280858,-0.259462 -4.152563,-0.232556 -5.473359,0.05128 -1.263617,0.271552 -2.460056,0.67903 -3.494371,1.190099 -0.451454,0.223069 -0.820826,0.385292 -0.820826,0.360495 z"
     id="path7281"
     inkscape:connector-curvature="0" />
  <path
     style="fill:#ffff00;fill-opacity:0.88888891;fill-rule:evenodd;stroke:#000000;stroke-width:0.09380863;stroke-linejoin:miter;stroke-miterlimit:4;stroke-opacity:1;stroke-dasharray:none"
     d="m 38.028399,64.641096 c -0.268635,-0.977544 -0.581877,-2.340012 -0.544397,-2.367888 0.201679,-0.15 1.588189,-0.873432 2.159736,-1.126875 4.970086,-2.203906 10.627264,-2.206214 15.586787,-0.0064 0.412758,0.183084 1.08818,0.520383 1.500938,0.749553 0.725609,0.402871 0.749415,0.426985 0.718639,0.727959 -0.03554,0.347606 -0.290525,1.385972 -0.588929,2.398313 l -0.19705,0.668501 -1.232747,-0.634933 c -2.691182,-1.386109 -4.78506,-1.888561 -8.409106,-2.017871 -1.437544,-0.05129 -1.765244,-0.03429 -2.635722,0.13673 -1.798405,0.353333 -3.819573,1.146305 -5.446622,2.136891 l -0.624557,0.380246 -0.28697,-1.044267 0,0 z"
     id="path7283"
     inkscape:connector-curvature="0" />
  <path
     style="fill:#ffff00;fill-opacity:0.88888891;fill-rule:evenodd;stroke:#000000;stroke-width:0.09380863;stroke-linejoin:miter;stroke-miterlimit:4;stroke-opacity:1;stroke-dasharray:none"
     d="m 46.237129,74.848896 c -1.413373,-0.280847 -3.310933,-1.504236 -4.471249,-2.882691 -0.30786,-0.365737 -0.559745,-0.694437 -0.559745,-0.730443 0,-0.03601 0.09498,-0.08607 0.211069,-0.111244 0.116088,-0.02518 0.590995,-0.158519 1.055347,-0.296316 2.158166,-0.640434 5.378329,-0.846777 7.645404,-0.489906 1.018502,0.160328 2.816689,0.601939 3.369477,0.8275 l 0.315497,0.128737 -0.47045,0.565303 c -0.887964,1.066997 -2.069419,1.983188 -3.276641,2.540959 -1.244129,0.574823 -2.461861,0.717716 -3.818709,0.448101 l 0,0 z"
     id="path7285"
     inkscape:connector-curvature="0" />
  <path
     style="fill:#ffff00;fill-opacity:0.88888891;fill-rule:evenodd;stroke:#000000;stroke-width:0.09380863;stroke-linejoin:miter;stroke-miterlimit:4;stroke-opacity:1;stroke-dasharray:none"
     d="m 60.856991,66.659416 c -0.01808,-0.0182 0.0069,-0.137591 0.05541,-0.265305 0.31569,-0.830329 0.910383,-3.689639 1.15736,-5.564636 0.366873,-2.785234 0.442627,-6.434501 0.192555,-9.275916 -0.07893,-0.896781 -0.123088,-1.650925 -0.09814,-1.675875 0.06506,-0.06506 1.464641,0.7007 1.743644,0.954002 0.367341,0.333502 0.683069,0.523117 0.871042,0.523117 0.232044,0 2.317924,1.401519 3.537964,2.377186 1.15575,0.924254 2.858264,2.655323 3.50303,3.561784 0.551734,0.775668 1.127505,1.988098 1.284422,2.704671 0.06483,0.296067 0.09691,0.853963 0.07281,1.266416 -0.152265,2.605935 -2.857163,4.44326 -7.580711,5.149263 -0.948029,0.141697 -4.651882,0.333395 -4.739388,0.245293 l 0,0 z"
     id="path7287"
     inkscape:connector-curvature="0" />
  <path
     style="fill:#ffff00;fill-opacity:0.88888891;fill-rule:evenodd;stroke:#000000;stroke-width:0.09380863;stroke-linejoin:miter;stroke-miterlimit:4;stroke-opacity:1;stroke-dasharray:none"
     d="m 62.598191,47.73691 -0.887493,-0.403647 -0.306804,-1.277478 c -0.864925,-3.601388 -2.314363,-6.975496 -3.980638,-9.266417 l -0.464464,-0.638579 0.552899,-0.676604 c 0.826216,-1.011074 1.301639,-1.761882 1.816629,-2.868898 0.255147,-0.54846 0.4947,-1.056132 0.532341,-1.128159 0.08659,-0.165696 1.819182,-1.091772 3.109076,-1.661812 6.024024,-2.662182 11.276706,-2.783506 13.66653,-0.315664 2.271299,2.345448 1.153624,6.140413 -3.159963,10.729367 -1.907674,2.029454 -4.795083,4.370226 -8.536586,6.920459 l -1.454034,0.991079 -0.887493,-0.403647 0,0 z"
     id="path7289"
     inkscape:connector-curvature="0" />
  <path
     style="fill:#ffff00;fill-opacity:0.88888891;fill-rule:evenodd;stroke:#000000;stroke-width:0.09380863;stroke-linejoin:miter;stroke-miterlimit:4;stroke-opacity:1;stroke-dasharray:none"
     d="m 30.136716,47.209094 c -4.951988,-3.389978 -7.945228,-5.976508 -10.237869,-8.846786 -1.982095,-2.481491 -2.919532,-4.840781 -2.627074,-6.611678 0.160938,-0.974516 0.503026,-1.631643 1.225549,-2.354194 2.627638,-2.627736 8.607401,-2.139627 15.210995,1.241626 1.354841,0.693723 1.469857,0.773116 1.584202,1.093549 0.410599,1.150626 1.476397,2.91366 2.35072,3.888538 l 0.485326,0.541143 -0.555322,0.819082 c -1.707471,2.518462 -3.201816,6.03901 -3.977307,9.370186 l -0.221765,0.952606 -0.422668,0.18491 c -0.232466,0.101701 -0.654843,0.290047 -0.938614,0.418548 l -0.515947,0.233638 -1.360226,-0.931168 0,0 z"
     id="path7291"
     inkscape:connector-curvature="0" />
  <path
     style="fill:#ffff00;fill-opacity:0.88888891;fill-rule:evenodd;stroke:#000000;stroke-width:0.09380863;stroke-linejoin:miter;stroke-miterlimit:4;stroke-opacity:1;stroke-dasharray:none"
     d="m 32.200506,66.632337 c -3.834583,-0.133324 -6.724184,-0.888311 -8.49086,-2.218467 -1.409248,-1.061045 -2.00274,-2.235242 -1.898266,-3.75564 0.169969,-2.473561 2.665598,-5.53117 6.819233,-8.354831 0.693689,-0.471572 1.424271,-0.901301 1.623516,-0.954952 0.199245,-0.05365 0.518173,-0.236453 0.70873,-0.406227 0.190555,-0.169774 0.722526,-0.512279 1.182157,-0.761122 l 0.835692,-0.452443 -0.0648,0.320579 c -0.157354,0.778476 -0.339227,3.565678 -0.339227,5.198627 0,2.707178 0.261037,5.307702 0.795686,7.926829 0.211528,1.036229 0.681742,2.871013 0.844346,3.29465 0.03337,0.08694 0.0058,0.168021 -0.06429,0.189329 -0.06746,0.0205 -0.945823,0.0086 -1.951921,-0.02633 l 0,0 z"
     id="path7293"
     inkscape:connector-curvature="0" />
</svg>
